<?xml version="1.0" encoding="utf-8" ?>
<svg baseProfile="full" height="300mm" version="1.1" viewBox="0,0,200,300" width="200mm" xmlns="http://www.w3.org/2000/svg" xmlns:ev="http://www.w3.org/2001/xml-events" xmlns:xlink="http://www.w3.org/1999/xlink"><defs /><rect fill="#222222" height="300" width="200" x="0" y="0" /><text fill="#FFFFFF" style="font-size:12px; font-family:Arial; font-weight:bold;" x="10" y="20">Over 3km Runs</text><text fill="#FFFFFF" style="font-size:4px; font-family:Arial" x="10" y="280">ATHLETE</text><text fill="#FFFFFF" style="font-size:9px; font-family:Arial" x="10" y="290">Licardo</text><text fill="#FFFFFF" style="font-size:4px; font-family:Arial" x="120" y="280">STATISTICS</text><text fill="#FFFFFF" style="font-size:3px; font-family:Arial" x="120" y="285">Number: 18</text><text fill="#FFFFFF" style="font-size:3px; font-family:Arial" x="120" y="290">Weekly: 3.6</text><text fill="#FFFFFF" style="font-size:3px; font-family:Arial" x="141" y="285">Total: 53.3 km</text><text fill="#FFFFFF" style="font-size:3px; font-family:Arial" x="141" y="290">Avg: 3.0 km</text><text fill="#FFFFFF" style="font-size:3px; font-family:Arial" x="167" y="285">Min: 1.6 km</text><text fill="#FFFFFF" style="font-size:3px; font-family:Arial" x="167" y="290">Max: 3.2 km</text><polyline fill="none" points="13.25,58.30815020692535 15.999999999068677,66.72986853076145 24.0,69.92430682154372 49.24999999906868,53.37126913154498 52.0,45.53032256872393 40.24999999906868,35.656506940955296 14.250000000931323,51.91924363817088 12.75,62.95461860462092 19.75,67.60107933380641 28.0,67.31067576236092 49.75,53.661674140021205 52.49999999906868,45.53032256872393 49.75,39.431793476454914 39.5,35.946913776686415 15.25,52.209648796590045 13.25,63.245022625196725 19.75,68.18188638542779 28.5,66.72986853076145 49.0,53.661674140021205 50.99999999906868,42.91666886117309 42.25,35.07569317868911 15.750000000931323,51.62883844925091 13.0,62.37381047476083 19.250000000931323,67.89148287428543 28.25,67.60107933380641 49.24999999906868,53.661674140021205 51.5,45.239916721358895 39.99999999906868,36.52772735967301 16.25,50.757622704142705 13.25,61.79300222476013 25.5,67.31067576236092 50.25,53.661674140021205 52.75,44.368698998354375 47.25,37.68935416615568 38.75,35.946913776686415 14.75,52.209648796590045 13.0,62.664214555639774 19.0,67.89148287428543 28.25,69.05309673817828 51.25,52.500053925672546 49.0,40.883825411321595 38.0,36.52772735967301 14.250000000931323,52.500053925672546 12.25,58.30815020692535 15.5,66.1490611799527 20.999999999068677,68.76269331690855 33.0,65.27784992777742 49.24999999906868,53.0808640930336 49.99999999906868,42.045450418954715 44.0,35.366100075189024 38.0,35.07569317868911 14.0,53.0808640930336 14.250000000931323,64.9874461167492 27.5,67.31067576236092 49.75,51.33843323099427" stroke="#ff1500" stroke-linecap="round" stroke-linejoin="round" stroke-width="0.5"><title>2021-02-24 3.1km</title></polyline><polyline fill="none" points="58.55645161308348,56.9010968983639 59.07903225813061,66.31019394798204 66.91774193570018,70.86297204019502 95.39838709682226,53.86589788226411 95.92096774280071,44.153239991981536 85.46935483906418,34.74407208501361 60.124193548224866,52.34829720086418 60.124193548224866,64.79259968502447 72.40483871009201,69.34538012556732 94.09193548373878,54.77645791624673 97.75,43.546197809278965 94.09193548373878,38.3863341989927 82.59516129083931,35.35111608286388 60.646774193271995,51.437736416002735 60.385483872145414,65.09611860057339 71.0983870960772,69.04186164890416 95.65967741888016,52.9553375672549 95.65967741888016,41.72507050889544 88.34354838728905,35.35111608286388 82.07258064486086,35.95815995661542 60.385483872145414,52.65181740000844 58.033870968036354,63.88204275094904 71.62096774298698,69.04186164890416 95.65967741888016,51.437736416002735 93.04677419457585,37.17224732856266 84.94677419401705,34.13702795980498 62.21451612841338,50.52717534871772 57.25,61.75740881008096 69.79193548392504,69.64889857079834 95.13709677476436,52.65181740000844 94.09193548373878,38.3863341989927 86.25322580710053,34.13702795980498 60.90806451626122,51.74125670874491 58.55645161308348,62.667966400971636 70.5758064519614,69.95241698529571 94.87580645177513,53.562377808848396 93.83064516168088,41.42154918331653 83.64032258093357,35.65463803615421 59.34032258018851,53.86589788226411 59.07903225813061,62.667966400971636 71.88225806411356,68.43482460128143 93.56935483869165,52.9553375672549 96.44354838784784,47.49196975817904 93.04677419457585,38.68985583866015 84.94677419401705,34.74407208501361 60.385483872145414,52.044776970753446 58.295161290094256,63.275004639523104 71.62096774298698,69.04186164890416 94.61451612971723,53.25885770423338" stroke="#4dd2ff" stroke-linecap="round" stroke-linejoin="round" stroke-width="0.5"><title>2021-02-22 3.0km</title></polyline><polyline fill="none" points="102.25,62.388612259179354 112.05254777055234,69.5802672947757 117.98566878959537,68.68131138919853 138.36464968137443,54.89728599716909 142.75,47.1062861897517 140.68630573153496,38.416300212964416 130.36783439479768,35.719402727205306 104.82961783464998,54.89728599716909 104.3136942666024,63.58722266834229 116.17993630561978,69.28061535675079 140.68630573153496,53.099364819703624 141.7181528666988,39.0156104255002 127.27229299396276,36.318713495275006 105.60350318439305,52.5000575131271 104.57165605109185,64.48618015111424 119.01751592289656,68.08200729754753 142.49203821551055,50.40248096571304 139.9124203827232,36.618368833791465 125.72452229261398,38.11664506001398 105.60350318439305,53.69867200218141 106.11942675244063,67.48270308133215 120.30732484068722,67.78235520469025 141.9761146493256,51.60109632113017 141.7181528666988,39.0156104255002 127.7882165601477,36.019058126723394 108.18312101904303,50.70213485159911 104.05573248397559,63.88687519286759 116.43789808824658,69.5802672947757 140.9442675150931,52.5000575131271 142.75,38.11664506001398 132.94745222851634,34.22112526348792 104.57165605109185,54.59763254504651 104.3136942666024,65.68478969391435 116.69585987180471,70.77887473651208 139.9124203827232,52.5000575131271 141.46019108220935,40.513885415392 128.3041401281953,35.719402727205306 105.60350318439305,53.099364819703624 103.79777070041746,61.78930686879903 107.15127388481051,67.48270308133215 121.08121019043028,66.8833987431135 141.9761146493256,48.904211077606305 139.3964968137443,37.217679417459294 127.7882165601477,35.12009183457121 106.37738853413612,51.90075008291751 104.82961783464998,65.08548498386517 112.05254777055234,69.8799192016013 120.30732484068722,67.18305092770606 139.65445859823376,52.799711181549355" stroke="#ff1c00" stroke-linecap="round" stroke-linejoin="round" stroke-width="0.5"><title>2021-02-21 3.0km</title></polyline><polyline fill="none" points="147.25,57.53008163487539 149.2877358496189,65.51893514790572 162.53301886841655,69.36541223688982 186.9858490563929,52.50005134101957 186.9858490563929,41.84819336235523 180.61792452819645,35.930477391928434 174.5047169821337,35.930477391928434 149.2877358496189,53.09182006819174 151.83490566164255,66.40658416436054 166.35377358552068,66.99835002305917 187.75,50.72474442492239 185.7122641503811,39.77699416154064 173.4858490563929,36.22636348078959 149.54245283082128,52.795935719972476 150.8160377368331,66.11070118960924 162.53301886841655,68.47776413522661 186.4764150949195,51.908282491145656 187.24056603759527,43.62350577278994 177.5613207546994,35.33870512410067 171.70283018890768,36.522249539149925 149.79716981295496,52.50005134101957 148.26886792574078,60.784802418900654 153.87264151033014,67.29423290700652 170.68396226502955,64.63128585577942 186.4764150949195,51.31651351903565 187.49528301972896,45.69470219570212 178.07075471803546,37.40990752959624 168.900943396613,38.001679370878264 148.77830188721418,54.5712413538713 154.38207547273487,67.29423290700652 166.099056603387,66.70246710861102 187.49528301972896,48.357666828203946 183.1650943402201,38.001679370878264 174.5047169821337,35.930477391928434 151.58018867950886,50.428859832230955 148.52358490601182,61.67245290079154 159.73113207612187,69.66129487589933 185.7122641503811,53.09182006819174 186.73113207612187,44.51116156601347 175.52358490601182,35.33870512410067 150.8160377368331,51.31651351903565 149.2877358496189,62.56010310747661 163.29716981202364,66.70246710861102 183.92924528382719,54.5712413538713 186.22169811371714,41.25642231456004 173.4858490563929,35.63459127303213 150.8160377368331,51.31651351903565 148.0141509436071,56.93831382272765 151.07075471803546,64.92716898396611 162.7877358496189,66.99835002305917 182.14622641634196,55.754777832189575 187.24056603759527,45.10293194139376 172.46698113251477,36.522249539149925 150.051886793226,52.50005134101957" stroke="#ff0000" stroke-linecap="round" stroke-linejoin="round" stroke-width="0.5"><title>2021-02-20 3.2km</title></polyline><polyline fill="none" points="14.262422360479832,104.0260395030491 12.753105590119958,112.20786682260223 22.563664595596492,119.22084285737947 44.19720496889204,106.36370686278678 51.743788819760084,94.6753507705871 41.93322981335223,83.86357844411395 16.52639751508832,98.47407179116271 14.01086956448853,108.99358033761382 19.04192546568811,116.29877161956392 24.827639751136303,116.59097887948155 49.73136645834893,101.10395258991048 49.98291925434023,89.99999482906424 39.920807452872396,83.86357844411395 20.048136645928025,96.1363979196176 12.753105590119958,108.11695611709729 18.035714285448194,115.42214965983294 26.840062110684812,116.59097887948155 46.712732918560505,104.31824802840129 51.492236024700105,91.46104438998736 39.41770186368376,85.03242068458349 16.52639751508832,99.64290800318122 12.501552794128656,107.24033162579872 14.51397515553981,113.37669736682437 22.060559006407857,116.29877161956392 45.95807453338057,104.61045652348548 52.4984472040087,94.6753507705871 43.94565217383206,83.86357844411395 20.29968944005668,95.55197915085591 12.25,107.24033162579872 16.7779503101483,115.42214965983294 25.83385093137622,116.29877161956392 49.47981366422027,101.98057898017578 51.240683228708804,91.16883453796618 38.66304347850382,84.44799962523393 16.52639751508832,99.05848995759152 12.501552794128656,103.14941374538466 13.256211179308593,111.03903579595499 18.79037267062813,117.17539330734871 27.343167701736093,117.46760047669522 46.46118012443185,104.90266498923302 52.24689440988004,95.25976972142234 40.172360247932374,85.32463116990402 21.809006210416555,94.96756026032381 12.501552794128656,108.40916422009468 23.31832298077643,116.29877161956392 49.228260869160295,101.98057898017578 52.75,93.21430286788382 40.92701863311231,83.27915714285336 14.51397515553981,101.10395258991048 14.51397515553981,112.20786682260223 19.29347826074809,115.71435701008886 30.361801241524518,114.54552743048407 49.98291925434023,101.98057898017578" stroke="#ff1c00" stroke-linecap="round" stroke-linejoin="round" stroke-width="0.5"><title>2021-02-19 3.0km</title></polyline><polyline fill="none" points="61.37738853506744,105.44520278507844 58.02388535067439,106.04450928838924 59.05573248490691,115.33374427026138 66.7945859869942,118.3302653466817 92.84872611518949,102.74832199211232 96.97611464932561,94.35801017936319 83.56210191175342,84.46939728572033 60.60350318625569,99.75178484153003 59.05573248490691,113.53583014104515 71.69585987366736,118.03061337838881 94.91242038272321,103.0479755376 96.7181528666988,89.86319031077437 83.56210191175342,84.46939728572033 59.8296178355813,100.95040007284842 58.02388535067439,111.73791489796713 70.92197452206165,117.43130934843794 95.94426751602441,101.54970750305802 97.49203821644187,92.85973766213283 91.04299363028258,85.66801882372238 82.27229299396276,84.76905271713622 59.8296178355813,100.95040007284842 59.57165605109185,114.43478734372184 70.40605095587671,118.3302653466817 96.7181528666988,100.65074631106108 97.75,92.26042843959294 86.65764331165701,83.57043080870062 61.11942675244063,99.15247704018839 58.28184713423252,112.9365251827985 71.69585987366736,116.83200519462116 96.46019108314067,100.05143869575113 94.13853503204882,88.96422550198622 82.78821656201035,85.36836348520592 59.57165605109185,101.54970750305802 57.25,112.03756751632318 63.18312101904303,118.03061337838881 71.43789809010923,118.92956919153221 94.91242038272321,102.74832199211232 95.68630573246628,91.66111909272149 82.78821656201035,85.66801882372238 59.05573248490691,102.44866841635667 59.8296178355813,114.73443968384527 70.40605095587671,118.3302653466817 95.68630573246628,101.54970750305802 93.88057324755937,87.46595020289533 82.01433121040463,84.46939728572033 57.76592356711626,103.64728253497742 59.57165605109185,114.73443968384527 67.5684713376686,118.03061337838881 95.94426751602441,102.14901480963454" stroke="#ff1900" stroke-linecap="round" stroke-linejoin="round" stroke-width="0.5"><title>2021-02-18 3.0km</title></polyline><polyline fill="none" points="102.25,105.59502608026378 104.05573248397559,113.9853075989522 116.69585987180471,116.9818308390677 132.94745222944766,107.39294558833353 142.75,96.3057575575076 129.33598726149648,85.51818263856694 103.79777070134878,101.69952999427915 103.02388535067439,113.38600257970393 113.08439490385354,118.18043926986866 141.20222929958254,101.3998762324918 142.49203821644187,95.4067945110146 134.49522292986512,86.11749340663664 118.50159235764295,91.51128476136364 102.50796178355813,104.39641245640814 106.63535031862557,116.9818308390677 118.50159235764295,117.58113511605188 142.49203821644187,97.50437452015467 138.8805732484907,89.71335542341694 125.20859872549772,86.71680405270308 104.31369426753372,99.90160696161911 106.37738853413612,116.68217865447514 117.2117834398523,117.88078720890917 139.9124203817919,103.49745191354305 139.39649681467563,90.31266532675363 132.68949044588953,84.31956073013134 110.50477707013488,95.70644889120013" stroke="#4dd2ff" stroke-linecap="round" stroke-linejoin="round" stroke-width="0.5"><title>2021-02-17 1.6km</title></polyline><polyline fill="none" points="148.6000000005588,106.26825253735296 149.6800000006333,115.6773481303826 158.05000000074506,119.44097821461037 184.24000000022352,102.81824352359399 186.12999999988824,90.2727231986355 182.3500000005588,84.94086138485 173.98000000044703,83.6863043049816 149.41000000108033,103.75915546063334 147.5200000014156,113.1682588190306 160.48000000044703,119.7546138446778 185.86000000033528,100.9364187750034 184.77999999932945,87.76361292111687 176.95000000018626,82.74538615555502 148.33000000100583,103.75915546063334 149.6800000006333,115.99098414904438 161.29000000096858,119.7546138446778 186.3999999994412,99.68186829565093 186.12999999988824,87.44997399137355 174.5200000014156,83.37266495334916 150.21999999973923,102.19096873654053 148.06000000052154,113.48189509660006 162.1000000005588,119.12734255194664 185.05000000074506,101.87733129505068 187.21000000089407,89.64544582366943 174.25,83.6863043049816 149.14000000152737,103.44551818096079 149.41000000108033,115.05007599643432 154.2700000004843,118.81370685691945 163.99000000115484,117.87279957882129 186.3999999994412,101.87733129505068 185.32000000122935,86.82269603433087 173.71000000089407,83.9999436228536 149.41000000108033,102.81824352359399 148.87000000104308,114.73643988068216 162.64000000059605,118.5000711302273 186.12999999988824,100.62278120382689 187.75,91.52727756113745 174.25,83.9999436228536 149.41000000108033,103.13188086799346 147.25,111.91371338744648 152.92000000085682,118.5000711302273 161.8300000000745,119.12734255194664 185.32000000122935,102.50460614589974 187.48000000044703,90.2727231986355 183.4300000006333,84.94086138485 174.25,83.9999436228536 149.41000000108033,102.81824352359399 149.9500000011176,115.36371208005585 161.29000000096858,119.12734255194664 184.24000000022352,101.87733129505068" stroke="#4dd2ff" stroke-linecap="round" stroke-linejoin="round" stroke-width="0.5"><title>2021-02-09 3.0km</title></polyline><polyline fill="none" points="14.201807228848338,153.82604667311534 15.177710843272507,161.7614301352296 23.71686747018248,165.7291132719256 49.33433734904975,150.42516102921218 52.01807228848338,143.0565610243939 38.11144578270614,133.42066965880804 13.469879518263042,151.2753828347195 15.177710843272507,162.61164843314327 26.15662650577724,165.16230174619704 51.04216867405921,148.724716628436 50.55421686731279,140.5058871882502 39.08734939806163,134.2708967269864 14.689759036526084,149.29153154580854 15.177710843272507,162.04483626410365 26.15662650577724,165.16230174619704 50.79819277115166,149.00812410190701 48.846385541372,138.2386195671279 34.939759036526084,136.25475886370987 14.689759036526084,149.57493896060623 14.689759036526084,161.7614301352296 25.180722892284393,165.7291132719256 50.310240963473916,150.14175370242447 52.75,143.33996908273548 38.11144578270614,134.2708967269864 13.957831325940788,150.42516102921218 15.909638554789126,163.461866467027 26.888554216362536,165.7291132719256 51.04216867405921,149.29153154580854 50.55421686731279,140.5058871882502 35.67168674711138,135.97135007451288 13.713855421170592,152.12560437759385 16.153614458628,164.02867834363133 28.596385542303324,164.8788959395606 50.79819277115166,148.724716628436 40.30722891539335,134.2708967269864 36.403614457696676,134.8377146271523 14.689759036526084,149.8583463456016 12.25,157.2269281060435 15.665662650950253,163.74527241964824 26.644578314386308,165.16230174619704 51.77409638464451,147.8744940336328 48.35843373462558,137.6718023691792 40.30722891539335,133.7040787115693 33.71987951826304,135.40453240904026 13.713855421170592,151.55879004509188 17.37349397595972,164.59549010335468 27.13253012113273,166.57933034119196 51.77409638464451,148.724716628436" stroke="#ff1500" stroke-linecap="round" stroke-linejoin="round" stroke-width="0.5"><title>2021-02-08 3.1km</title></polyline><polyline fill="none" points="64.6339779002592,154.2887243856676 71.34668508265167,155.0684846942313 66.87154696136713,157.40776417334564 70.22790055349469,163.90575132938102 86.56215469632298,157.92760376189835 97.52624309435487,146.4911080247257 89.91850828751922,136.09424867061898 66.20027624350041,151.42960118851624 67.09530386794358,161.04663904453628 77.38812154717743,163.12599375494756 97.75,147.27087074657902 91.70856353547424,136.61409265757538 86.56215469632298,136.09424867061898 66.87154696136713,150.6498397537507 66.42403315007687,160.52680010022596 78.28314917162061,162.86607450968586 96.85497237555683,148.31055400101468 91.93232044298202,137.65378030901775 84.54834254086018,137.1339365367312 65.97651933692396,151.9494420113042 67.54281768016517,161.30655847745948 77.1643646415323,163.90575132938102 97.52624309435487,146.4911080247257 91.48480662982911,136.09424867061898 83.65331491734833,137.65378030901775 65.75276243127882,152.2093623825349 66.20027624350041,160.26688058674335 78.05939226504415,163.12599375494756 97.07872928120196,149.09031615965068 97.75,143.89189720805734 91.93232044298202,138.9533892699983 77.38812154717743,139.73315432528034 57.473756906576455,153.76888404600322 57.25,161.04663904453628 67.3190607726574,163.12599375494756 87.90469613298774,156.10816473071463 97.75,145.19150295178406 88.12845303956419,136.09424867061898 65.97651933692396,151.9494420113042 66.42403315007687,160.52680010022596 76.04558011051267,163.12599375494756 95.73618784546852,150.12999866274185 96.18370165769011,141.29268371057697 89.47099447529763,137.3938584360294 80.52071823272854,138.17362397396937 67.09530386794358,150.12999866274185 66.42403315007687,160.78671958553605 76.2693370161578,163.6458321644459 95.95994475111365,149.87007807777263 96.18370165769011,139.9930759561248" stroke="#4dd2ff" stroke-linecap="round" stroke-linejoin="round" stroke-width="0.5"><title>2021-02-06 3.0km</title></polyline><polyline fill="none" points="102.75943396240473,153.10683781025 104.03301886841655,161.0956995638553 111.41981132235378,165.23806356498972 120.58962264191359,164.35041464073583 138.41981132049114,152.51506938785315 142.75,144.52618373278528 139.4386792453006,139.20024760183878 133.3254716983065,133.5784153996501 126.95754716917872,134.46607384830713 104.54245283082128,149.2603408813011 102.50471698213369,160.79981619329192 114.73113207612187,167.0133605916053 137.400943396613,152.21918513043784 140.45754716917872,143.63852839777246 126.95754716917872,132.9866429490503 103.52358490601182,151.33153217635117 103.01415094360709,161.98334949696437 117.53301886748523,165.82982936338522 139.4386792453006,149.5562254434917 132.5613207546994,133.87430158047937 126.702830189839,133.87430158047937 104.54245283082128,149.85210997541435 102.25,160.20804935717024 108.36320754792541,166.7174778303597 117.78773584961891,166.42159503884614 139.1839622631669,149.85210997541435 139.94811320770532,138.0167048962321 129.50471698120236,132.69075667695142 103.26886792574078,151.03564779739827 102.50471698213369,161.68746621604078 116.51415094360709,166.42159503884614 138.92924528289586,150.14799447660334 139.94811320770532,141.2714461616706 134.34433962311596,134.76195993716829 122.88207547273487,134.76195993716829 102.25,152.21918513043784 103.52358490601182,163.4627654403448 116.76886792480946,167.30924332281575 139.1839622631669,149.85210997541435 140.7122641503811,144.23029865208082 135.87264150939882,136.24138992163353 123.90094339568168,135.3537320229225 102.50471698213369,152.51506938785315 105.56132075469941,165.53394647943787 117.02358490601182,166.7174778303597 139.94811320770532,148.0768023270648 139.94811320770532,139.4961332019884 135.61792452912778,135.05784599552862 123.39150943420827,135.05784599552862 104.28773584961891,150.44387894752435 104.79716981202364,163.75864853779785 115.24056603759527,167.30924332281575 140.20283018890768,150.44387894752435" stroke="#ff1c00" stroke-linecap="round" stroke-linejoin="round" stroke-width="0.5"><title>2021-02-05 3.0km</title></polyline><polyline fill="none" points="156.19155844207853,145.26493980339728 148.301948052831,156.8735977690667 152.50974026042968,164.5108479282353 161.97727272752672,166.6492744430434 187.75,144.34846486872993 183.54220779333264,135.18369991425425 175.38961039017886,132.43426489713602 150.66883116960526,150.15280133578926 148.82792207878083,161.76144013926387 158.82142857275903,168.1767210084945 184.3311688322574,149.8473102261778 186.17207792308182,138.54411702416837 181.96428571548313,133.96172911045142 172.49675324838609,133.04525067727081 149.87987013161182,150.45829241303727 149.09090909175575,162.3724198692944 159.0844155838713,167.56574247661047 183.54220779333264,150.45829241303727 187.4870129879564,141.90453032031655 183.54220779333264,133.96172911045142 174.07467532530427,133.04525067727081 153.82467532530427,146.48690594360232 148.03896103892475,160.23399026528932 156.19155844207853,168.1767210084945 186.43506493605673,146.48690594360232 182.22727272752672,132.43426489713602 170.12987013161182,133.65623633028008 150.93181818164885,149.54181908536702 148.03896103892475,155.65163591550663 150.93181818164885,164.5108479282353 162.76623376645148,166.03829559660517 185.64610389713198,147.7088715780992 184.06818181835115,135.48919253610075 169.34090909175575,134.57271457556635 148.82792207878083,152.59672907576896 151.98376623447984,165.42731662280858 163.29220779333264,166.03829559660517 186.43506493605673,147.0978888233658 184.3311688322574,135.18369991425425 172.49675324838609,133.35074351960793 148.301948052831,152.90221990202554 147.25,159.3175199625548 152.50974026042968,167.26025316328742 161.4512987015769,167.26025316328742 185.64610389713198,147.7088715780992 185.38311688322574,136.10017768642865 180.3863636367023,131.82327899127267 171.4448051955551,133.04525067727081 149.61688311770558,151.06927447463386 149.87987013161182,165.12182708946057 161.97727272752672,166.9547638189979 183.80519480537623,149.54181908536702" stroke="#ff1a00" stroke-linecap="round" stroke-linejoin="round" stroke-width="0.5"><title>2021-02-03 3.0km</title></polyline><polyline fill="none" points="19.613636364229023,195.08416095585562 12.51298701390624,205.77634426974691 21.45454545505345,216.16299966396764 49.33116883225739,199.0555478364695 52.75,191.11276874993928 50.909090909175575,185.00292418710887 43.01948051992804,180.42053249082528 29.870129871182144,187.1413712182548 13.564935065805912,203.02692938991822 14.879870130680501,212.19163572601974 22.243506493978202,217.07946750917472 48.01623376645148,199.3610389137175 52.48701298702508,192.3347361497581 46.43831168860197,182.25349002028815 34.866883117705584,183.16996835987084 13.564935065805912,202.11045719659887 13.827922077849507,210.96967652067542 18.298701299354434,215.24653153587133 27.240259740501642,215.55202094372362 51.69805194810033,193.8621946903877 49.06818181835115,183.16996835987084 36.70779220853001,182.25349002028815 14.353896104730666,201.49947557644919 18.035714286379516,214.9410420972854 26.977272728458047,215.8575103196781 51.43506493605673,196.00063532404602 50.38311688415706,184.39193903678097 35.91883117053658,182.86447561113164 14.879870130680501,199.3610389137175 13.038961038924754,209.13673676596954 16.983766234479845,213.71908402536064 28.292207793332636,214.3300631234888 51.69805194810033,195.08416095585562 48.01623376645148,183.16996835987084 36.44480519555509,181.94799717795104 13.301948052830994,201.49947557644919 14.616883117705584,212.49712544912472 28.292207793332636,214.63555262587033 51.43506493605673,196.00063532404602 49.594155844300985,185.00292418710887 35.3928571427241,182.86447561113164 13.564935065805912,201.1939847196918 12.25,207.3037958764471 17.7727272734046,214.63555262587033 29.08116883225739,214.0245735901408 51.69805194810033,196.61161807877943 48.279220779426396,182.86447561113164 33.81493506580591,183.47546107624657 14.353896104730666,199.66652996069752 16.720779220573604,214.0245735901408 28.81818181835115,214.3300631234888 52.22402597498149,194.47317788633518" stroke="#ff1a00" stroke-linecap="round" stroke-linejoin="round" stroke-width="0.5"><title>2021-02-02 3.0km</title></polyline><polyline fill="none" points="65.29635761585087,189.87056945660152 57.25,203.8907949081622 65.02814569417387,213.86069340980612 80.85264900606126,210.43354451283813 96.1407284764573,199.2173936557956 97.75,193.29774168832228 94.26324503310025,184.57402290264145 79.7798013240099,183.01621332531795 58.32284768205136,200.46363469702192 59.395695365034044,212.6144578976091 72.00165562797338,214.48381097358651 93.99503311142325,197.65959163173102 93.72682119254023,183.639337253524 78.9751655627042,182.39308926928788 57.51821191981435,200.46363469702192 57.51821191981435,210.43354451283813 65.29635761585087,216.66472143353894 71.73344370815903,216.04160432028584 95.06788079440594,194.23242435022257 88.89900662191212,181.45840294426307 79.24337748344988,181.76996508520097 60.20033112540841,197.65959163173102 57.78642384149134,209.81042611273006 71.46523178834468,215.4184870775789 94.26324503310025,196.41334943380207 95.60430463496596,187.68963964795694 89.9718543048948,180.8352785666939 78.1705298004672,183.01621332531795 58.59105960279703,199.2173936557956 59.395695365034044,213.86069340980612 71.73344370815903,215.4184870775789 95.06788079440594,195.7902281412389 94.79966887459159,184.26246105204336 81.1208609258756,181.45840294426307 57.51821191981435,201.08675502496772 58.8592715235427,211.99133994826116 73.07450331095606,214.1722522082273 95.33609271422029,196.72491003153846 93.72682119254023,184.57402290264145 81.65728476736695,181.14684077119455 57.78642384149134,200.46363469702192 58.32284768205136,211.67978092492558 69.58774834405631,215.10692840861157 94.26324503310025,197.34803113061935 96.94536423776299,191.42837549862452 92.38576158881187,183.01621332531795 81.1208609258756,181.45840294426307 58.32284768205136,199.528953964822 60.20033112540841,213.86069340980612 68.7831125818193,216.35316289332695 94.26324503310025,197.03647059691139" stroke="#4dd2ff" stroke-linecap="round" stroke-linejoin="round" stroke-width="0.5"><title>2021-02-01 3.0km</title></polyline><polyline fill="none" points="110.20953757222742,199.29392711468972 102.25,200.9255662288051 108.33670520223677,212.34701174707152 116.53034682106227,213.70670434553176 142.0476878611371,197.93422708217986 142.75,189.77601215685718 131.51300578005612,182.9774804317858 109.74132947996259,198.47810717928223 107.86849710997194,210.71537970239297 117.70086705219,213.70670434553176 140.87716762907803,195.75870557082817 142.0476878611371,187.87242504116148 138.3020231211558,183.79330516420305 127.29913294874132,183.79330516420305 109.03901734109968,199.02198716439307 106.6979768788442,209.0837466486264 118.87138728238642,213.16282739001326 140.40895953774452,196.57452634791844 140.87716762907803,186.7846603577491 128.0014450866729,182.9774804317858 109.27312138769776,199.02198716439307 106.22976878564805,203.64496250683442 108.57080924883485,210.71537970239297 118.40317919105291,213.16282739001326 141.11127167660743,195.48676525522023 141.81358381453902,187.60048391274177 129.87427745666355,182.9774804317858 109.03901734109968,198.75004718615673 107.40028901770711,209.0837466486264 116.53034682106227,214.52251956798136 141.81358381453902,194.39900371385738 139.23843930661678,184.33718817937188 126.12861271668226,184.6091296444647 107.86849710997194,199.56586703751236 109.74132947996259,211.5311958505772 119.3395953765139,212.8908888704609 140.64306358341128,196.57452634791844 139.23843930661678,186.24077784782276 127.06502890121192,184.33718817937188 107.63439306337386,200.10974679817446 105.9956647399813,205.0046595945023 109.97543352562934,211.8031345102936 118.16907514445484,213.97864278126508 141.57947976887226,195.48676525522023 137.83381502889097,183.24942203704268 126.83092485461384,184.6091296444647 107.86849710997194,199.837806931464 106.46387283224612,207.45211258414201 111.84826589655131,214.2505811888259 120.51011560764164,212.34701174707152 139.9407514454797,197.11840672581457" stroke="#ff1500" stroke-linecap="round" stroke-linejoin="round" stroke-width="0.5"><title>2021-01-29 3.1km</title></polyline><polyline fill="none" points="158.8907185625285,192.27070418023504 149.19011976011097,204.66596212913282 151.8577844304964,211.70869726291858 159.61826347280294,215.0892036750447 184.83982035890222,200.1586021122057 187.26497006043792,192.27070418023504 185.08233532961458,187.19990062108263 175.1392215564847,183.81935968319885 153.07035928033292,197.05978778447025 148.46257484983653,206.9196393492166 158.64820359181613,215.37091235397384 185.32485029939562,199.8768918644637 187.75,192.8341262168251 183.6272455090657,185.50963067542762 175.38173652626574,183.2559357874561 151.8577844304964,198.1866297654342 150.4026946099475,211.14527911972255 161.07335329335183,215.37091235397384 187.26497006043792,198.1866297654342 186.05239520967007,187.7633237040136 179.50449101720005,183.2559357874561 171.01646706461906,184.6644953105133 149.43263472989202,201.0037326826714 147.25,206.07451060949825 150.4026946099475,211.42698820587248 163.49850299302489,214.80749496701173 187.02245508972555,198.75005058129318 186.05239520967007,188.32674667029642 171.01646706461906,184.6644953105133 152.10029940120876,197.90491931396537 150.16017964016646,210.86357000563294 160.34580838307738,215.37091235397384 186.05239520967007,198.75005058129318 185.32485029939562,188.04503520205617 175.38173652626574,182.97422379511409 152.10029940120876,198.1866297654342 149.91766467038542,210.30015168967657 161.80089820269495,214.80749496701173 183.86976047977805,199.8768918644637 184.59730538912117,189.17188090179116 172.22904191538692,184.3827834641561 151.3727544909343,197.90491931396537 149.67514969967306,210.30015168967657 162.043413172476,214.2440774643328 185.32485029939562,200.1586021122057 187.26497006043792,189.17188090179116 184.35479041934013,184.3827834641561 173.44161676615477,182.12908764579333 150.8877245504409,198.1866297654342 147.73502993956208,205.51109130494297 152.34281437005848,212.83553319820203 165.92365269362926,211.99040629016235" stroke="#ff1700" stroke-linecap="round" stroke-linejoin="round" stroke-width="0.5"><title>2021-01-28 3.1km</title></polyline><polyline fill="none" points="12.25,253.14552706456743 14.950000001117587,261.92734961910173 26.290000000968575,265.6909800909925 52.480000000447035,247.18641874287277 52.75,234.64088935870677 42.49000000115484,228.99538424634375 36.55000000074506,230.2499418440275 12.790000000968575,249.69551840703934 13.600000000558794,261.30007741972804 22.510000000707805,265.0637086692732 51.94000000040978,247.18641874287277 50.320000001229346,232.4454163936898 37.360000000335276,229.3090236946009 14.410000001080334,247.813693853328 16.03000000026077,262.8682576736901 30.880000000819564,262.8682576736901 38.980000000447035,253.45916402176954 52.480000000447035,247.18641874287277 48.97000000067055,232.13177726930007 34.39000000059605,231.1908597019501 14.410000001080334,246.87278113886714 14.6800000006333,261.6137135354802 23.320000001229346,266.00461575365625 51.94000000040978,246.87278113886714 48.70000000111759,233.07269454561174 44.1100000012666,228.99538424634375 34.39000000059605,230.5635811618995 13.870000001043081,249.06824368494563 14.6800000006333,260.98644127254374 29.260000000707805,262.55462168809026 51.94000000040978,247.5000563140493 50.320000001229346,232.7590554857161 37.62999999988824,230.2499418440275 13.870000001043081,248.7546062755864 14.6800000006333,263.18189362692647 26.830000000074506,264.75007290998474 51.39999999944121,244.99095483776182 52.21000000089407,233.38633357337676 36.55000000074506,231.1908597019501 13.06000000052154,250.00915572000667 14.140000001527369,261.92734961910173 25.75,264.75007290998474 50.320000001229346,247.813693853328 51.39999999944121,232.13177726930007 36.28000000026077,230.2499418440275 13.330000001005828,251.57734179659747 14.6800000006333,263.18189362692647 26.830000000074506,265.0637086692732 50.59000000078231,245.30459263548255" stroke="#ff1b00" stroke-linecap="round" stroke-linejoin="round" stroke-width="0.5"><title>2021-01-26 3.0km</title></polyline><polyline fill="none" points="59.41000000014901,254.2432535828557 62.919999999925494,264.5932496599853 72.37000000011176,262.7114348115865 94.78000000026077,246.71596157737076 95.86000000033528,235.42498862580396 88.84000000078231,229.4658471068833 82.63000000081956,230.0931257107295 58.59999999962747,249.22506098332815 58.87000000011176,260.82961879926734 73.45000000018626,263.6523423816543 95.59000000078231,245.14777339738794 96.40000000037253,232.91587783116847 82.35999999940395,229.77948642498814 59.41000000014901,248.91142367059365 58.87000000011176,261.4568909332156 73.17999999970198,263.3387065581046 95.05000000074506,245.775048766518 96.9400000013411,233.85679462179542 83.1699999999255,229.15220775525086 59.94999999925494,247.02959911664948 59.6800000006333,261.14325488288887 69.40000000037253,265.847792244982 96.40000000037253,244.2068601010833 94.50999999977648,231.66132165677845 79.92999999970198,230.40676496503875 58.59999999962747,247.65687409741804 60.75999999884516,262.3977988907136 73.17999999970198,262.3977988907136 94.78000000026077,245.14777339738794 97.75,236.67954324674793 93.70000000018626,231.03404337586835 82.08999999985099,229.77948642498814 58.330000000074506,247.97051153914072 58.06000000052154,259.8887103572488 69.12999999895692,263.6523423816543 94.78000000026077,247.65687409741804 96.12999999988824,235.73862732900307 83.44000000040978,229.4658471068833 58.87000000011176,248.2841489482671 60.21999999973923,262.7114348115865 72.64000000059605,263.9659781737719 95.59000000078231,244.8341356634628 93.16000000014901,230.40676496503875 80.7399999992922,229.77948642498814 57.78999999910593,250.47960990970023 57.25,257.06598328007385 62.919999999925494,264.2796139330603 72.91000000014901,263.3387065581046 96.12999999988824,243.26594651397318 96.9400000013411,234.170433486579 89.11000000033528,229.4658471068833 75.61000000033528,234.4840723206289" stroke="#ff1300" stroke-linecap="round" stroke-linejoin="round" stroke-width="0.5"><title>2021-01-25 3.1km</title></polyline></svg>