<?xml version="1.0" encoding="utf-8" ?>
<svg baseProfile="full" height="300mm" version="1.1" viewBox="0,0,200,300" width="200mm" xmlns="http://www.w3.org/2000/svg" xmlns:ev="http://www.w3.org/2001/xml-events" xmlns:xlink="http://www.w3.org/1999/xlink"><defs /><rect fill="#222222" height="300" width="200" x="0" y="0" /><text fill="#FFFFFF" style="font-size:12px; font-family:Arial; font-weight:bold;" x="10" y="20">Over 3km Runs</text><text fill="#FFFFFF" style="font-size:4px; font-family:Arial" x="10" y="280">ATHLETE</text><text fill="#FFFFFF" style="font-size:9px; font-family:Arial" x="10" y="290">Licardo</text><text fill="#FFFFFF" style="font-size:4px; font-family:Arial" x="120" y="280">STATISTICS</text><text fill="#FFFFFF" style="font-size:3px; font-family:Arial" x="120" y="285">Number: 8</text><text fill="#FFFFFF" style="font-size:3px; font-family:Arial" x="120" y="290">Weekly: 4.0</text><text fill="#FFFFFF" style="font-size:3px; font-family:Arial" x="141" y="285">Total: 24.4 km</text><text fill="#FFFFFF" style="font-size:3px; font-family:Arial" x="141" y="290">Avg: 3.0 km</text><text fill="#FFFFFF" style="font-size:3px; font-family:Arial" x="167" y="285">Min: 3.0 km</text><text fill="#FFFFFF" style="font-size:3px; font-family:Arial" x="167" y="290">Max: 3.1 km</text><polyline fill="none" points="15.880000000819564,68.99100477714092 20.56000000052154,82.79099954664707 33.16000000014901,80.28191308211535 63.040000000968575,58.95461543649435 64.48000000044703,43.89998483448289 55.12000000104308,35.95446280925535 46.84000000171363,36.79083428089507 14.800000000745058,62.30008131102659 15.160000002011657,77.77282506576739 34.600000001490116,81.5364565087948 64.12000000104308,56.863697862951085 65.20000000111759,40.55450377473608 46.480000000447035,36.37264856649563 15.880000000819564,61.88189822714776 15.160000002011657,78.60918791079894 34.24000000022352,81.11827541072853 63.400000002235174,57.700065021868795 65.92000000178814,41.809059495572 47.56000000052154,35.53627700684592 16.59999999962747,59.372798822121695 16.240000002086163,78.19100651051849 29.200000001117587,84.46372299315408 65.20000000111759,55.60914680128917 62.67999999970198,38.88176220888272 43.24000000022352,37.209019953384995 14.800000000745058,60.20916546322405 17.679999999701977,79.86373185436241 34.24000000022352,79.86373185436241 63.040000000968575,56.863697862951085 67.0,45.572724328842014 61.600000001490116,38.04539116774686 46.12000000104308,36.37264856649563 14.440000001341105,60.62734871869907 14.080000000074506,76.51828047633171 28.83999999985099,81.5364565087948 63.040000000968575,60.20916546322405 64.83999999985099,44.31816977192648 47.92000000178814,35.95446280925535 15.160000002011657,61.04553193110041 16.96000000089407,80.28191308211535 33.52000000141561,81.95463756518438 64.12000000104308,56.445514217950404 60.880000000819564,37.209019953384995 44.32000000029802,36.37264856649563 13.720000000670552,63.97281321277842 13.0,72.7546443734318 20.56000000052154,82.37281857733615 33.880000000819564,81.11827541072853 64.83999999985099,54.354595351731405 65.92000000178814,42.22724464884959 55.480000000447035,35.95446280925535 37.480000000447035,42.64542976068333" stroke="#ff0000" stroke-linecap="round" stroke-linejoin="round" stroke-width="0.5"><title>2021-01-25 3.1km</title></polyline><polyline fill="none" points="133.0,67.52736941934563 136.60000000149012,79.23646615864709 151.72000000067055,84.25464012124576 186.64000000059605,59.58189165685326 187.0,42.85451914463192 173.32000000029802,35.327178994892165 165.40000000037253,36.9999224585481 133.72000000067055,62.92735787574202 134.80000000074506,78.40010322607122 146.68000000156462,83.41827822546475 185.9199999999255,59.58189165685326 183.76000000163913,39.92722185817547 166.48000000044703,35.745364925824106 135.88000000081956,60.418258470715955 138.03999999910593,80.49101023143157 157.839999999851,80.49101023143157 168.64000000059605,67.94555202871561 186.64000000059605,59.58189165685326 181.96000000089407,39.509036358911544 162.5200000014156,38.25447960244492 135.88000000081956,59.163708184845746 136.24000000022352,78.81828471389599 147.76000000163913,84.672821004875 185.9199999999255,59.163708184845746 181.60000000149012,40.76359272748232 175.48000000044703,35.327178994892165 162.5200000014156,37.41810821578838 135.160000000149,62.09099157969467 136.24000000022352,77.98192169656977 155.67999999970198,80.07282891729847 185.9199999999255,60.00007508508861 183.76000000163913,40.3454073141329 166.839999999851,36.9999224585481 135.160000000149,61.67280836729333 136.24000000022352,80.90919150249101 152.43999999947846,83.00009721308015 185.19999999925494,56.65460645011626 186.2800000011921,41.18177809752524 165.40000000037253,38.25447960244492 134.0800000000745,63.34554095962085 135.5200000014156,79.23646615864709 151.0,83.00009721308015 183.76000000163913,60.418258470715955 185.19999999925494,39.509036358911544 165.04000000096858,36.9999224585481 134.4400000013411,65.43645572871901 136.24000000022352,80.90919150249101 152.43999999947846,83.41827822546475 184.12000000104308,57.07279018033296" stroke="#ff9100" stroke-linecap="round" stroke-linejoin="round" stroke-width="0.5"><title>2021-01-26 3.0km</title></polyline><polyline fill="none" points="28.52095808275044,111.36093890713528 15.586826346814632,127.88794950582087 19.143712574616075,137.27826301730238 29.49101796373725,141.78560490021482 63.119760477915406,121.8781361496076 66.35329341329634,111.36093890713528 63.44311377219856,104.59986749500968 50.1856287419796,100.09247957775369 20.760479040443897,117.74638371285982 14.616766465827823,130.89285246562213 28.197604788467288,142.16121647204272 63.76646706648171,121.50252248579636 67.0,112.11216828925535 61.50299401208758,102.34617423382588 50.50898203626275,99.34124771691859 19.143712574616075,119.2488396873232 17.203592812642455,136.52703882637434 31.431137723848224,142.16121647204272 66.35329341329634,119.2488396873232 64.73652694560587,105.35109827225097 56.00598802417517,99.34124771691859 44.68862275406718,101.21932708099484 15.910179639235139,123.00497691030614 13.0,129.76601414615288 17.203592812642455,136.90265094139613 34.664670657366514,141.40999328927137 66.02994011901319,120.00006744195707 64.73652694560587,106.10232889396138 44.68862275406718,101.21932708099484 19.467065868899226,118.87322575203143 16.88023952022195,136.15142667409964 30.46107784472406,142.16121647204272 64.73652694560587,120.00006744195707 63.76646706648171,105.72671360266395 50.50898203626275,98.96563172689639 19.467065868899226,119.2488396873232 16.556886227801442,135.4002022529021 32.40119760297239,141.40999328927137 61.826347306370735,121.50252248579636 62.7964071854949,107.22917453572154 46.30538922175765,100.84371128561907 18.497005987912416,118.87322575203143 16.23353293351829,135.4002022529021 32.72455089725554,140.65876995259896 63.76646706648171,121.8781361496076 66.35329341329634,107.22917453572154 62.47305389121175,100.84371128561907 47.92215568944812,97.83878352795728 17.85029940120876,119.2488396873232 13.646706586703658,129.01478840666823 19.790419159457088,138.78071093093604 37.89820359274745,137.65387505362742" stroke="#ff4400" stroke-linecap="round" stroke-linejoin="round" stroke-width="0.5"><title>2021-01-28 3.1km</title></polyline><polyline fill="none" points="143.612716762349,120.72523615323007 133.0,122.90075497189537 141.11560693755746,138.12934899609536 152.0404624287039,139.94227246078663 186.06358381547034,118.91230277647264 187.0,108.03468287596479 172.01734104193747,98.9699739094358 142.98843930661678,119.63747623912059 140.49132948182523,135.95383960334584 153.6011560689658,139.94227246078663 184.5028901733458,116.01160742808133 186.06358381547034,105.49656672170386 181.06936416216195,100.05774021917023 166.3988439310342,100.05774021917023 142.05202312208712,120.36264955298975 138.93063583783805,133.77832886506803 155.16184971109033,139.2171031869948 183.87861271761358,117.09936846420169 184.5028901733458,104.04621381056495 167.33526011556387,98.9699739094358 142.36416185088456,120.36264955298975 138.30635838210583,126.52661667601205 141.4277456663549,135.95383960334584 154.5375722553581,139.2171031869948 184.81502890214324,115.64902034052648 185.7514450866729,105.13397855055518 169.83236994221807,98.9699739094358 142.05202312208712,120.0000629152637 139.86705202423036,133.77832886506803 152.0404624287039,141.03002609079704 185.7514450866729,114.19867161894217 182.31791907548904,100.78291757288389 164.83815028890967,101.14550619293004 140.49132948182523,121.08782271691598 142.98843930661678,137.0415944675915 155.7861271686852,138.85451849433593 184.19075144454837,117.09936846420169 182.31791907548904,103.32103713066317 166.08670520223677,100.78291757288389 140.17919075116515,121.8129957311321 137.9942196533084,128.3395461263135 143.30057803541422,137.40417934721336 154.22543352656066,140.3048570419196 185.4393063597381,115.64902034052648 180.44508670642972,99.33256271621212 165.77456647343934,101.14550619293004 140.49132948182523,121.45040924241766 138.61849711090326,131.60281677916646 145.79768786206841,140.66744158533402 157.34682081080973,138.12934899609536 183.25433526188135,117.82454230124131" stroke="#ff2300" stroke-linecap="round" stroke-linejoin="round" stroke-width="0.5"><title>2021-01-29 3.1km</title></polyline><polyline fill="none" points="23.728476820513606,168.16075927531347 13.0,186.85439321072772 23.37086092494428,200.14759121276438 44.47019867412746,195.5780593501404 64.85430463403463,180.62319154082797 67.0,172.73032225086354 62.35099337622523,161.09869720344432 43.03973509930074,159.02161776693538 14.430463574826717,182.28484626254067 15.860927153378725,198.4859438634012 32.66887417063117,200.97841463121586 61.993377482518554,178.54612217540853 61.635761588811874,159.8524496711325 41.96688741631806,158.19078569230624 13.35761589370668,182.28484626254067 13.35761589370668,195.5780593501404 23.728476820513606,203.88629524456337 32.31125827692449,203.0554724270478 63.423841059207916,173.97656580014154 55.19867549650371,156.94453725893982 42.32450331188738,157.3599534467794 16.933774832636118,178.54612217540853 13.715231787413359,194.74723481666297 31.95364238321781,202.22464943677187 62.35099337622523,176.88446591165848 64.13907284662127,165.25285286363214 56.62913907319307,156.11370475543663 40.894039733335376,159.02161776693538 14.788079470396042,180.62319154082797 15.860927153378725,200.14759121276438 32.31125827692449,202.22464943677187 63.423841059207916,176.05363752134144 63.06622516550124,160.68328140256926 44.82781456783414,156.94453725893982 13.35761589370668,183.11567336623557 15.145695364102721,197.65511993085966 34.09933774918318,200.56300294422545 63.781456952914596,177.29988004174083 61.635761588811874,161.09869720344432 45.54304635711014,156.52912102802657 13.715231787413359,182.28484626254067 14.430463574826717,197.23970789951272 29.45033112540841,201.80923787807114 62.35099337622523,178.13070817408152 65.92715231701732,170.2378339979332 59.84768211841583,159.02161776693538 44.82781456783414,156.94453725893982 14.430463574826717,181.0386052862741 16.933774832636118,200.14759121276438 28.377483442425728,203.47088385745883 62.35099337622523,177.71529412898235" stroke="#4dd2ff" stroke-linecap="round" stroke-linejoin="round" stroke-width="0.5"><title>2021-02-01 3.0km</title></polyline><polyline fill="none" points="142.8181818202138,175.1122146078851 133.35064935311675,189.36845902632922 145.2727272734046,203.2173328853678 182.44155844300985,180.40739711537026 187.0,169.81702499999665 184.5454545468092,161.67056558281183 174.02597402594984,155.56070998776704 156.49350649490952,164.5218282910064 134.75324675440788,185.70257251989096 136.50649350881577,197.9221809678711 146.32467532716691,204.43929001223296 180.68831169046462,180.81471855170093 186.64935065060854,171.44631486642174 178.58441558480263,158.00465336022899 163.15584415756166,159.22662447975017 134.75324675440788,184.48060959554277 135.103896105662,196.29290202772245 141.0649350658059,201.99537538108416 152.9870129879564,202.4026945917867 185.59740259870887,173.48292625392787 182.09090909175575,159.22662447975017 165.61038961075246,158.00465336022899 135.80519480630755,183.6659674353432 140.71428571641445,201.58805612963624 152.63636363856494,202.81001375964843 185.24675324745476,176.33418043190613 183.84415584616363,160.85591871570796 164.55844156071544,158.8193008149974 136.50649350881577,180.81471855170093 134.05194805376232,193.84898235462606 139.31168831326067,199.95877870055847 154.38961039111018,200.77341749798506 185.59740259870887,175.1122146078851 180.68831169046462,159.22662447975017 165.259740261361,157.597329570679 134.40259740501642,183.6659674353432 136.15584415756166,198.3295005990658 154.38961039111018,201.180736834649 185.24675324745476,176.33418043190613 182.7922077924013,161.67056558281183 163.85714285820723,158.8193008149974 134.75324675440788,183.2586462928448 133.0,191.40506116859615 140.36363636516035,201.180736834649 155.44155844300985,200.3660981201101 185.59740259870887,177.14882410503924 181.03896103985608,158.8193008149974 161.75324675440788,159.63394810189493 135.80519480630755,181.22203994751908 138.96103896200657,200.3660981201101 155.09090909175575,200.77341749798506 186.29870130121708,174.29757051495835" stroke="#ff7f00" stroke-linecap="round" stroke-linejoin="round" stroke-width="0.5"><title>2021-02-02 3.0km</title></polyline><polyline fill="none" points="24.922077920287848,233.68658640468493 14.402597403153777,249.16479702549987 20.012987012043595,259.3477972378023 32.6363636367023,262.19903259095736 67.0,232.46461982512847 61.38961038924754,220.24493321892805 50.519480518996716,216.57901986292563 17.558441556990147,240.2037351145409 15.103896103799343,255.68192018568516 28.428571429103613,264.2356280114036 62.44155844114721,239.79641363490373 64.89610389620066,224.72548936563544 59.28571428544819,218.61563881416805 46.662337662652135,217.39366756984964 16.50649350695312,240.61105655087158 15.454545455053449,256.49655982572585 28.779220778495073,263.4209899690468 61.38961038924754,240.61105655087158 66.6493506487459,229.20604042708874 61.38961038924754,218.61563881416805 48.76623376645148,217.39366756984964 21.766233766451478,235.31587459146976 14.051948051899672,253.6453203537967 24.922077920287848,264.2356280114036 65.24675324745476,235.31587459146976 59.6363636367023,216.57901986292563 43.50649350695312,218.20831510727294 17.909090908244252,239.38909211405553 14.051948051899672,247.53551455400884 17.909090908244252,259.3477972378023 33.68831168860197,261.3843941288069 64.19480519369245,236.94516210420989 62.0909090898931,220.6522567148786 42.45454545505345,219.43028610106558 15.103896103799343,243.46230543451384 19.31168831139803,260.5697554971557 34.38961038924754,261.3843941288069 65.24675324745476,236.13051843107678 62.44155844114721,220.24493321892805 46.662337662652135,217.80099135939963 14.402597403153777,243.86962653603405 13.0,252.4233599503059 20.012987012043595,263.01367088453844 31.935064934194088,263.01367088453844 64.19480519369245,236.94516210420989 63.84415584243834,221.46690358198248 57.18181818164885,215.76437198836356 45.25974025949836,217.39366756984964 16.155844155699015,241.4256992994342 16.50649350695312,260.16243611928076 32.6363636367023,262.6063517588191 61.740259738639,239.38909211405553" stroke="#ff8500" stroke-linecap="round" stroke-linejoin="round" stroke-width="0.5"><title>2021-02-03 3.0km</title></polyline><polyline fill="none" points="133.67924528382719,244.1424504138995 135.37735849246383,254.79426608537324 145.22641509585083,260.3174180868082 157.452830189839,259.133886187803 181.22641509585083,243.35342585062608 187.0,232.70157831069082 182.58490566164255,225.60033013601787 174.43396226502955,218.10455386643298 165.94339622743428,219.28809846448712 136.05660377442837,239.01378784189 133.33962264284492,254.39975492446683 149.64150943420827,262.6844807888847 179.8679245300591,242.95891350740567 183.94339622743428,231.51803786377423 165.94339622743428,217.31552393198945 134.69811320863664,241.7753762351349 134.01886792480946,255.97779932944104 153.37735849060118,261.1064391513355 182.58490566164255,239.4083005913999 173.4150943402201,218.4990687740501 165.603773586452,218.4990687740501 136.05660377442837,239.8028133008629 133.0,253.61073247622699 141.15094339847565,262.28997044079006 153.7169811334461,261.89546005171724 182.24528301879764,239.8028133008629 183.26415094546974,224.02227319497615 169.33962264098227,216.92100890283473 134.35849056765437,241.3808637300972 133.33962264284492,255.5832882882096 152.01886792480946,261.89546005171724 181.90566037781537,240.19732596888207 183.26415094546974,228.36192821571603 175.79245283082128,219.68261324963532 160.50943396426737,219.68261324963532 133.0,242.95891350740567 134.69811320863664,257.95035392045975 152.35849056579173,263.0789910971653 182.24528301879764,239.8028133008629 184.28301886841655,232.30706486967392 177.8301886804402,221.65518656233326 161.86792452819645,220.47164269722998 133.33962264284492,243.35342585062608 137.4150943402201,260.7119286393281 152.69811320863664,262.28997044079006 183.26415094546974,237.435736436164 183.26415094546974,225.99484426924028 177.49056603945792,220.077127994271 161.1886792462319,220.077127994271 135.7169811334461,240.59183859685436 136.39622641727328,258.34486471745186 150.32075471803546,263.0789910971653 183.603773586452,240.59183859685436" stroke="#ffa600" stroke-linecap="round" stroke-linejoin="round" stroke-width="0.5"><title>2021-02-05 3.0km</title></polyline></svg>