<?xml version="1.0" encoding="utf-8" ?>
<svg baseProfile="full" height="300mm" version="1.1" viewBox="0,0,200,300" width="200mm" xmlns="http://www.w3.org/2000/svg" xmlns:ev="http://www.w3.org/2001/xml-events" xmlns:xlink="http://www.w3.org/1999/xlink"><defs /><rect fill="#222222" height="300" width="200" x="0" y="0" /><text fill="#FFFFFF" style="font-size:12px; font-family:Arial; font-weight:bold;" x="10" y="20">Over 5km Runs</text><text fill="#FFFFFF" style="font-size:4px; font-family:Arial" x="10" y="280">ATHLETE</text><text fill="#FFFFFF" style="font-size:9px; font-family:Arial" x="10" y="290">Licardo</text><text fill="#FFFFFF" style="font-size:4px; font-family:Arial" x="120" y="280">STATISTICS</text><text fill="#FFFFFF" style="font-size:3px; font-family:Arial" x="120" y="285">Number: 10</text><text fill="#FFFFFF" style="font-size:3px; font-family:Arial" x="120" y="290">Weekly: 2.0</text><text fill="#FFFFFF" style="font-size:3px; font-family:Arial" x="141" y="285">Total: 34.2 km</text><text fill="#FFFFFF" style="font-size:3px; font-family:Arial" x="141" y="290">Avg: 3.4 km</text><text fill="#FFFFFF" style="font-size:3px; font-family:Arial" x="167" y="285">Min: 3.1 km</text><text fill="#FFFFFF" style="font-size:3px; font-family:Arial" x="167" y="290">Max: 6.1 km</text><polyline fill="none" points="35.28252788109239,48.235817963286536 34.508231545449235,48.36599562384072 33.90600106224883,49.212149229162605 33.24641529482324,49.86303521611262 29.43228890071623,55.13516678693122 28.973446627729572,55.525691870134324 27.367498672450893,56.72980811443995 26.3637812002562,56.33928438418661 26.134360063821077,56.30674072020338 25.47477429639548,56.37182804517215 24.67180031875614,56.56708994691144 23.49601699411869,56.95761342122569 20.54221986187622,58.35698560118908 19.19437068514526,59.36583181738388 17.903876792406663,60.70010779963923 16.95751460432075,61.969292395486264 15.83908656402491,64.14967562560923 15.236856080708094,65.0934193499561 13.774296335643157,67.7293796275917 13.086032926221378,68.83582613381441 13.0,68.99853855837137 13.028677641996183,69.45413294166792 14.003717472078279,70.00735389016336 16.15454062668141,70.7558278896613 17.359001593198627,70.98362400440965 18.477429633610882,71.04870858122013 19.309081253246404,71.27650450402871 20.169410515227355,71.73209590197075 21.488582049962133,72.8385296681081 21.947424322832376,73.09886651302804 22.635687732486986,73.2941190188285 23.49601699411869,73.42428729502717 24.35634625609964,73.42428729502717 25.274030801840127,73.19649277962162 26.16303770581726,72.77344542631181 27.33882103022188,71.92734917535563 28.14179500786122,71.47175803341088 29.23154540627729,71.04870858122013 30.235262878471985,70.88599711639108 31.038236856111325,70.91853941552108 32.873605947825126,71.14633542363299 33.10302708449308,71.17887769819936 33.9633563462412,71.60192699197796 34.422198619227856,71.73209590197075 35.225172596867196,71.79718033855897 35.82740308030043,71.79718033855897 38.006903876783326,71.4392157860857 39.15400955919176,71.4392157860857 39.84227296861354,71.50430027762195 40.90334572491702,71.73209590197075 41.82103027089033,72.09006015275372 42.50929368031211,72.41548187923036 43.45565586828161,72.96869811491342 44.02920870948583,73.42428729502717 44.54540626658127,73.97750192540116 45.14763674978167,74.72596737695858 45.86457780143246,75.73476608810597 46.15135422197636,76.0927262174664 46.89697291562334,76.54831130348612 47.9293680296978,77.13406267971732 48.359532660688274,77.23168781309505 48.789697291562334,77.1015209625184 49.82209240575321,76.64593660144601 50.68242166750133,76.06018440276966 51.08390865637921,75.60459867696045 51.37068507692311,75.1164704511757 51.628783855587244,74.40054781344952 51.858204992022365,73.13140860490967 52.20233669679146,72.12260233907728 52.74721189588308,71.01616629428463 53.26340945297852,70.23515049542766 54.697291556047276,68.57548609629157 55.987785448669456,67.69683703003102 57.50770047795959,66.55784419411793 58.31067445559893,65.90698946954217 59.601168348337524,64.70290501613636 62.182156133814715,62.00183552937233 63.587360594887286,60.3421318194014 65.50876261282247,57.67357198460377 66.88528943178244,55.39551689111977 67.0,54.97244787274394 66.94264471589122,54.679553635331104 66.77057886356488,54.354115304129664 66.3404142325744,53.9310450181074 64.07488050987013,52.33639084987226 63.93149229953997,52.23875872424105 63.35793945833575,52.141126571339555 62.92777482746169,51.978406255395385 61.49389272427652,51.067171078553656 61.2644715878414,50.839361911057495 60.46149761020206,49.765402395802084 58.769516728702,48.138184685783926 58.08125331916381,47.65001788712107 57.62241104617715,47.42220647976501 56.27456186932977,46.9340386755066 55.643653744016774,46.86894958309131 55.012745618703775,46.99912775561097 54.55390334571712,47.16185040283017 52.6898566117743,48.04055138095282 51.571428571478464,48.4310844358406 50.825809877947904,48.62635079876054 49.277217206545174,48.821617052017245 48.531598513014615,48.821617052017245 47.69994689326268,48.528717631008476 47.49920339882374,48.561262023227755 46.92565055761952,48.951794493128546 46.58151885285042,49.016883195436094 44.000531067489646,49.14706056349678 43.05416887952015,49.016883195436094 41.79235262866132,48.62635079876054 41.476898566121235,48.4310844358406 41.33351035579108,48.30090679958812 41.27615507179871,48.138184685783926 41.76367498666514,45.66479917510878 41.93574083910789,44.493189368309686 42.02177376532927,44.3955550394021 42.62400424852967,44.36301025713328 43.62772172072437,44.20028629942681 50.825809877947904,43.484299980831565 54.23844928306062,43.028671555395704 56.90546999475919,42.86594697300461 57.67976633028593,42.86594697300461 57.79447689850349,42.83340204739943 57.76579925650731,42.768312186934054 57.07753584696911,42.89849189555389 55.55762081791181,42.96358173157205 52.63250132766552,43.354120491596404 47.6139139670413,43.8097484902828 42.39458311209455,44.36301025713328" stroke="red" stroke-linecap="round" stroke-linejoin="round" stroke-width="0.5"><title>2024-06-29 6.1km</title><desc>11767860400</desc></polyline><polyline fill="none" points="75.29090909101069,68.17364705959335 75.29090909101069,71.59513830766082 79.21818181686103,79.19844081811607 82.49090909212828,81.09926399565302 86.09090909175575,82.6199218314141 89.69090909138322,83.0000861918088 96.56363636441529,79.57860553241335 105.72727272845805,72.73563468432985 122.74545454606414,61.7108215901535 125.36363636516035,58.289321165764704 126.34545454569161,54.86781756323762 126.01818181760609,51.44631078466773 123.72727272845805,48.02480083052069 120.45454545505345,46.12396059348248 117.83636363781989,42.702445697272196 114.56363636441529,40.04126524715684 110.6363636367023,38.520589841296896 103.10909090936184,40.80160271492787 99.83636363595724,43.46278261486441 95.9090909101069,44.98345598112792 92.6363636367023,48.40496875997633 76.59999999962747,59.8099884132389 73.98181818239391,63.23148742620833 73.0,66.6529832626693 74.96363636478782,73.8761307077948 76.92727272771299,76.9174517125357 84.12727272696793,80.33893484249711 91.32727272808552,80.33893484249711 94.92727272771299,79.57860553241335 110.96363636292517,70.83480719476938 123.40000000037253,62.09098810865544 125.36363636516035,58.289321165764704 126.67272727191448,51.06614316930063 123.07272727228701,43.46278261486441 117.50909090973437,38.520589841296896 109.65454545617104,38.90075875259936 102.45454545505345,41.561940025072545 95.9090909101069,46.12396059348248 77.9090909101069,60.19015512755141 75.29090909101069,63.23148742620833 74.6363636367023,67.03314927127212 74.6363636367023,70.45464157732204 75.61818181723356,74.25629597110674 77.58181818202138,77.29761666222475 84.12727272696793,81.09926399565302 95.58181818202138,79.19844081811607 99.83636363595724,77.67778157163411 106.05454545468092,72.73563468432985 112.59999999962747,69.31414449471049 118.81818181835115,63.611653787782416 122.09090909175575,61.7108215901535 124.70909090898931,59.0496548677329 126.01818181760609,55.24798478721641 126.01818181760609,51.826478361850604 124.70909090898931,47.64463286125101 120.78181818313897,41.181771389208734 117.18181818164885,39.66109645413235 113.2545454557985,37.38008287642151 109.65454545617104,38.520589841296896 106.38181818090379,40.04126524715684 103.43636363558471,42.702445697272196 99.83636363595724,43.84295101463795 97.21818181872368,46.12396059348248 87.40000000223517,52.20664589921944 78.56363636441529,59.0496548677329 74.6363636367023,65.89265112974681 74.96363636478782,73.11580006498843 76.92727272771299,76.15712169674225 83.14545454457402,80.33893484249711 87.40000000223517,81.09926399565302 95.25454545393586,80.33893484249711 104.74545454606414,75.39679152495228 107.3636363632977,72.73563468432985 116.85454545542598,66.6529832626693 122.74545454606414,62.09098810865544 126.01818181760609,55.24798478721641 125.36363636516035,50.68597551435232 120.78181818313897,43.84295101463795 114.23636363819242,40.42143400083296 110.6363636367023,39.2809276226908 100.16363636404276,43.84295101463795 79.54545454494655,57.909154255641624 76.92727272771299,60.950488437665626 75.29090909101069,64.37198639195412 74.6363636367023,68.55381291126832 75.29090909101069,72.35546926502138 77.2545454557985,75.39679152495228 80.52727272734046,78.05794644285925 83.80000000074506,79.57860553241335 87.07272727414966,79.95877020782791 91.65454545430839,79.95877020782791 94.60000000149012,77.67778157163411 109.0,71.97530380520038 123.72727272845805,61.7108215901535 126.34545454569161,57.909154255641624 127.0,49.925640085944906 122.09090909175575,44.60328769753687 120.12727272696793,41.181771389208734 108.67272727377713,38.90075875259936 104.74545454606414,40.04126524715684 98.20000000111759,44.22311937646009 92.6363636367023,49.16530450084247 89.03636363707483,51.06614316930063 77.58181818202138,59.8099884132389 74.30909090861678,66.2728172163479 74.96363636478782,73.49596540722996 79.21818181686103,78.81827606563456 82.81818181835115,80.71909943898208 86.7454545442015,81.85959299188107 94.92727272771299,81.85959299188107 98.5272727292031,80.71909943898208 101.80000000074506,78.81827606563456 104.41818181797862,75.77695663110353 107.69090909138322,73.8761307077948 116.20000000111759,66.2728172163479 119.14545454643667,64.37198639195412 122.41818181797862,62.851321026682854 125.36363636516035,60.19015512755141 125.69090909138322,52.58681339700706 123.72727272845805,49.16530450084247 122.41818181797862,44.98345598112792 115.5454545468092,39.2809276226908 112.2727272734046,38.90075875259936 108.01818181946874,39.66109645413235 97.87272727303207,45.363624224904925 91.98181818239391,49.925640085944906 85.76363636367023,52.966980857541785 76.92727272771299,60.19015512755141 74.96363636478782,63.99182010930963 73.98181818239391,67.79348116880283 74.6363636367023,71.59513830766082 75.94545454531908,75.01662637921982 78.56363636441529,78.43811127380468 82.16363636404276,80.71909943898208 85.76363636367023,81.85959299188107 101.14545454643667,77.29761666222475 110.96363636292517,70.45464157732204 122.74545454606414,61.33065503370017 124.70909090898931,57.528987305704504 125.03636363707483,53.7273156568408 124.70909090898931,49.925640085944906 123.40000000037253,46.50412871851586 118.49090909212828,40.04126524715684 115.5454545468092,37.76025190460496 111.29090909101069,36.999913808424026 107.69090909138322,37.38008287642151 100.81818181835115,42.32227717875503 91.98181818239391,49.54547231341712 79.21818181686103,57.909154255641624 76.59999999962747,61.33065503370017 74.30909090861678,68.93397872289643 74.96363636478782,72.73563468432985 76.59999999962747,76.53728672349826 82.81818181835115,80.71909943898208 90.34545454569161,80.71909943898208 93.94545454531908,79.95877020782791 101.47272727265954,76.15712169674225 108.34545454569161,70.45464157732204 111.61818181909621,68.93397872289643 118.49090909212828,63.99182010930963 121.10909090936184,61.7108215901535 123.07272727228701,59.0496548677329" stroke="#fff900" stroke-linecap="round" stroke-linejoin="round" stroke-width="0.5"><title>2021-02-24 3.1km</title><desc>5958643139</desc></polyline><polyline fill="none" points="133.0,72.66243977635168 135.01242236047983,76.16893231472932 145.74534161388874,82.01307931379415 153.45962732844055,80.45464099850506 167.21118012443185,72.27282929304056 173.91925465874374,67.59750036080368 179.6211180128157,62.532554152654484 185.6583850942552,52.792253891937435 185.3229813668877,48.896126753883436 182.63975155353546,41.493474119342864 176.60248447209597,37.59733532508835 169.5590062122792,37.986949384678155 162.5155279505998,40.32463290239684 150.44099378958344,50.06496531749144 147.75776397436857,53.18186638480984 136.01863354071975,62.92216564109549 135.3478260859847,74.22088130633347 137.69565217383206,77.33776243869215 143.73291925527155,80.84425063733943 147.4223602488637,81.62346979486756 151.11180124245584,81.62346979486756 154.1304347831756,80.06503131869249 167.54658385179937,71.88321877014823 182.97515527904034,60.19488438172266 187.0,49.28573964885436 184.31677018664777,41.88308777753264 181.29813664592803,39.545405224431306 177.60869565233588,37.59733532508835 165.19875776395202,38.37656340422109 137.02484472095966,59.415660802973434 134.67701863124967,63.3117770885583 134.3416149057448,67.59750036080368 134.3416149057448,71.49360820581205 136.01863354071975,75.38971203379333 143.0621118005365,80.06503131869249 147.08695652149618,81.2338602358941 151.11180124245584,81.2338602358941 154.80124223604798,80.06503131869249 176.60248447209597,64.87022247794084 182.63975155353546,60.19488438172266 184.98757763952017,56.6883770104032 186.3291925471276,49.67535250354558 184.31677018664777,41.88308777753264 181.96894410066307,39.155791325028986 170.2298136651516,38.37656340422109 163.18633540347219,40.71424668119289 149.77018633298576,51.23380351928063 146.41614906862378,52.792253891937435 143.73291925527155,55.90915270894766 137.02484472095966,61.3637194482144 134.67701863124967,71.49360820581205 137.69565217383206,78.8962020392064 141.04968944005668,81.62346979486756 148.4285714291036,82.01307931379415 156.4782608691603,79.28581183939241 181.63354037329555,61.3637194482144 184.6521739140153,58.24682513298467 186.3291925471276,50.4545780911576 185.99378881976008,45.779222149634734 184.31677018664777,41.88308777753264 181.29813664592803,39.155791325028986 173.91925465874374,37.59733532508835 166.20496894419193,38.37656340422109 150.10559006221592,50.84419082570821 140.7142857145518,57.07798910187557 135.68322981335223,63.3117770885583 134.67701863124967,66.81827830942348 134.3416149057448,70.71438695932738 135.01242236047983,74.22088130633347 139.7080745343119,80.06503131869249 151.11180124245584,82.01307931379415 167.54658385179937,71.88321877014823 176.60248447209597,63.70138849620707 180.2919254656881,62.14294262509793 182.97515527904034,59.805272611789405 185.6583850942552,55.90915270894766 185.3229813668877,41.10386042040773 172.5776397511363,35.649264419451356 169.22360248491168,36.81810708343983 162.5155279505998,40.71424668119289 156.81366459652781,45.779222149634734 144.40372670814395,54.740315954899415 135.68322981335223,62.14294262509793 134.00621118023992,69.15594398160465 135.68322981335223,76.5585423966404 141.04968944005668,82.01307931379415 147.75776397436857,84.35073558031581 151.44720496796072,83.57151698553935 157.81987577676773,79.28581183939241 160.50310559011996,76.16893231472932 166.87577639892697,71.10399760282598 181.63354037329555,59.415660802973434 184.98757763952017,52.40264135948382 183.98136645928025,43.83115546638146 174.59006211161613,37.20772122358903 166.87577639892697,37.986949384678155 151.44720496796072,48.896126753883436 137.02484472095966,60.19488438172266 134.67701863124967,71.88321877014823 139.03726707957685,78.8962020392064 142.72670807503164,79.28581183939241 146.41614906862378,80.84425063733943 149.77018633298576,81.2338602358941 157.4844720494002,78.11698231985793 182.63975155353546,58.24682513298467 184.6521739140153,54.740315954899415 185.3229813668877,51.23380351928063 185.3229813668877,46.94806167855859 181.29813664592803,39.545405224431306 173.91925465874374,35.649264419451356 166.20496894419193,37.20772122358903 138.3664596248418,59.02604895294644 134.3416149057448,73.05205022031441 136.01863354071975,76.16893231472932 138.70186335407197,78.50659219943918 145.74534161388874,82.01307931379415 156.4782608691603,78.50659219943918 172.91304347850382,67.20788935478777 181.63354037329555,59.805272611789405" stroke="#fffc00" stroke-linecap="round" stroke-linejoin="round" stroke-width="0.5"><title>2021-02-21 3.1km</title><desc>5958643188</desc></polyline><polyline fill="none" points="15.683229813352227,123.50658136513084 13.335403725504875,127.40269322972745 13.335403725504875,130.90919047174975 14.006211180239916,134.80529470043257 19.372670805081725,141.03905310481787 23.062111800536513,142.987100497121 27.086956521496177,144.15592844923958 34.13043478317559,140.6494435062632 55.93167701922357,126.62347117834724 61.633540373295546,122.33774702157825 63.98136645928025,119.2208536718972 65.65838509425521,114.93512111506425 65.65838509425521,111.42860904103145 64.6521739140153,107.14286764268763 62.30434782616794,104.02596175274812 56.602484472095966,98.96098419395275 52.5776397511363,97.0129140925128 44.52795031107962,99.35059809335507 37.81987577676773,104.02596175274812 31.447204967960715,107.14286764268763 22.726708075031638,114.54550882382318 19.03726707957685,116.10395774897188 15.347826085984707,122.72735851001926 14.677018631249666,126.62347117834724 15.347826085984707,130.51957982825115 16.689440993592143,134.41568445810117 19.372670805081725,137.9221751887817 22.391304347664118,139.87022418761626 26.41614906862378,141.03905310481787 30.105590062215924,140.6494435062632 44.1925465837121,134.02607417525724 50.90062111802399,129.74035841878504 57.27329192496836,125.4546378001105 62.97515527904034,119.61046548071317 64.98757763952017,116.88318197079934 65.99378881976008,112.5974467608612 64.98757763952017,108.7013196228072 63.31055900640786,105.19480176176876 60.96273292042315,102.07789426413365 57.60869565233588,98.96098419395275 50.229813665151596,97.0129140925128 46.20496894419193,97.79214225360192 23.732919255271554,112.9870592537336 15.683229813352227,121.16891231713817 14.006211180239916,124.67541534686461 13.67080745100975,129.35074765468016 15.012422360479832,133.24685349036008 17.36024844646454,136.75334530719556 21.04968944005668,138.70139490813017 24.73913043551147,140.6494435062632 32.453416150063276,140.25983386742882 42.85093167796731,134.80529470043257 58.95031055994332,123.89619273226708 64.31677018664777,118.441629932262 65.65838509425521,111.0389963882044 65.32298136688769,107.14286764268763 63.31055900640786,102.85712138004601 59.956521740183234,100.51943955011666 56.602484472095966,98.96098419395275 49.22360248491168,98.57137025357224 45.53416149131954,99.35059809335507 41.844720497727394,101.29866698826663 35.8074534162879,105.5844150185585 31.782608695328236,107.53248069807887 19.03726707957685,118.05201800190844 16.018633540719748,120.38968897936866 14.341614905744791,123.89619273226708 13.67080745100975,128.18191512068734 14.341614905744791,132.07802216196433 16.354037266224623,135.9741251836531 19.70807453431189,136.75334530719556 22.391304347664118,139.48061446868815 26.41614906862378,139.87022418761626 33.79503105580807,139.09100470831618 37.81987577676773,137.14295530761592 51.90683229826391,128.96113685052842 58.27950310520828,124.67541534686461 64.31677018664777,118.441629932262 65.99378881976008,115.32473336602561 67.0,111.0389963882044 66.3291925471276,107.53248069807887 64.6521739140153,103.63634833530523 55.260869566351175,97.0129140925128 47.54658385179937,97.79214225360192 30.440993789583445,109.09093251777813 24.068322978913784,112.5974467608612 15.683229813352227,120.38968897936866 13.0,127.79230419569649 14.006211180239916,132.07802216196433 16.018633540719748,135.9741251836531 19.372670805081725,138.70139490813017 23.397515527904034,140.25983386742882 31.447204967960715,140.25983386742882 49.894409937784076,130.51957982825115 62.63975155353546,121.16891231713817 65.32298136688769,118.441629932262 66.3291925471276,113.76628411840647 67.0,110.25977096008137 64.98757763952017,106.36364141106606 56.26708074659109,98.96098419395275 52.5776397511363,97.79214225360192 48.552795032039285,97.79214225360192 44.8633540365845,98.96098419395275 32.118012422695756,106.75325454748236 22.391304347664118,113.76628411840647 13.67080745100975,122.33774702157825 13.0,126.23386009270325 14.341614905744791,133.24685349036008 16.689440993592143,136.36373526556417 22.055900620296597,141.03905310481787 25.409937888383865,141.81827218271792 33.12422360293567,141.42866266379133 40.83850931748748,138.31178506836295 58.6149068325758,125.06502659362741 64.31677018664777,119.61046548071317 66.3291925471276,115.71434557787143 66.3291925471276,112.20783422840759 62.97515527904034,105.19480176176876 59.28571428544819,104.41557512921281 54.25465838611126,98.96098419395275 50.56521739065647,98.57137025357224 43.186335403472185,100.51943955011666 26.08074534125626,111.42860904103145 22.726708075031638,114.54550882382318 16.689440993592143,119.2208536718972 15.012422360479832,122.33774702157825 13.67080745100975,129.35074765468016 15.012422360479832,132.46763264527544 17.36024844646454,135.1949049027171 24.40372670814395,139.87022418761626 27.757763974368572,139.87022418761626 31.447204967960715,139.48061446868815 35.8074534162879,137.5325652686879 46.54037267155945,132.07802216196433 56.602484472095966,125.84424896584824 62.63975155353546,121.16891231713817 65.65838509425521,118.05201800190844 67.0,109.09093251777813 64.98757763952017,105.5844150185585 62.30434782616794,102.07789426413365 55.59627329185605,97.0129140925128 51.57142857089639,95.84407155076042 43.186335403472185,98.96098419395275 30.77639751508832,106.75325454748236 18.701863354071975,117.27279402175918 16.354037266224623,120.00007725064643 15.012422360479832,123.50658136513084 14.341614905744791,130.90919047174975 16.354037266224623,134.80529470043257 18.701863354071975,137.5325652686879 22.391304347664118,139.09100470831618 30.105590062215924,139.48061446868815 33.45962732844055,138.31178506836295 37.14906832203269,137.5325652686879 43.857142858207226,134.41568445810117 50.56521739065647,130.51957982825115 63.31055900640786,120.77930066781119" stroke="#fffb00" stroke-linecap="round" stroke-linejoin="round" stroke-width="0.5"><title>2021-02-19 3.1km</title><desc>5958643211</desc></polyline><polyline fill="none" points="85.27272727154195,113.89024903532118 81.41558441519737,115.11221511266194 77.90909090824425,117.55614612996578 74.75324675440788,125.29525104025379 74.40259740315378,128.96113754669204 76.85714285820723,136.29290034691803 80.01298701390624,139.5514572209213 84.22077921964228,141.18073464999907 92.9870129879564,141.99537311214954 99.29870129749179,137.51485948823392 102.10389610379934,134.25630093505606 105.61038961075246,131.40505999326706 116.48051948100328,124.88793010776863 122.79220779240131,120.00007563573308 125.59740259870887,116.74150262540206 127.0,112.26096034632064 126.29870129749179,107.37309024180286 121.74025974050164,100.04127374012023 114.72727272845805,96.37536038411781 110.51948051899672,96.78268425771967 107.01298701390624,97.19000809104182 103.50649350695312,99.22662662225775 94.38961038924754,107.37309024180286 77.55844155885279,120.00007563573308 75.45454545505345,123.25864595570602 74.40259740315378,127.33185507520102 75.10389610379934,135.47826070687734 80.7142857145518,142.40269228001125 88.77922078035772,144.03196853259578 92.2857142854482,142.81001140573062 95.79220779240131,140.3660960183479 105.61038961075246,132.21970047149807 111.92207792215049,127.73917575576343 122.79220779240131,119.5927541560959 125.24675324745476,116.33418081025593 126.64935065060854,112.26096034632064 125.24675324745476,104.92915292060934 122.79220779240131,100.85592069081031 119.28571428731084,98.41197933536023 115.42857142910361,97.19000809104182 110.51948051899672,96.78268425771967 107.01298701390624,97.59733188059181 103.15584415569901,99.22662662225775 96.84415584430099,104.92915292060934 76.85714285820723,120.8147184678819 74.75324675440788,124.48060913314112 73.70129870250821,128.55381699139252 74.05194805189967,132.62702064728364 75.80519480630755,136.70022010360844 80.7142857145518,142.81001140573062 89.12987012974918,143.21733049023896 92.9870129879564,142.40269228001125 96.14285714365542,140.3660960183479 98.59740259870887,137.10753981675953 101.40259740315378,134.66362089989707 114.72727272845805,125.70257193199359 121.38961038924754,120.40739707206376 124.19480519369245,117.14882439794019 126.29870129749179,113.48292692587711 126.64935065060854,109.40970352035947 124.19480519369245,101.670567472931 121.38961038924754,98.41197933536023 117.18181818164885,97.59733188059181 108.76623376645148,97.19000809104182 105.25974025949836,98.819303000113 95.79220779240131,106.55844463617541 85.6233766246587,113.89024903532118 82.11688311770558,115.11221511266194 76.50649350695312,121.22203982062638 73.70129870250821,129.36845805915073 74.40259740315378,133.8489809257444 78.25974025949836,140.3660960183479 84.92207792215049,144.43928749021143 89.48051948100328,143.21733049023896 97.54545454494655,139.5514572209213 103.50649350695312,133.8489809257444 123.14285714365542,119.5927541560959 125.59740259870887,115.11221511266194 127.0,111.44631574815139 126.29870129749179,106.96576746040955 125.24675324745476,102.89253733097576 122.79220779240131,99.6339502017945 119.6363636367023,96.78268425771967 115.42857142910361,95.96803646837361 111.22077921964228,96.37536038411781 103.50649350695312,98.41197933536023 97.54545454494655,104.11450681136921 77.90909090824425,119.18543263524771 74.40259740315378,127.33185507520102 74.40259740315378,131.40505999326706 75.45454545505345,135.88558054808527 77.90909090824425,139.5514572209213 82.11688311770558,141.58805390144698 85.97402597591281,142.81001140573062 90.18181818164885,142.81001140573062 94.03896103985608,141.18073464999907 100.3506493512541,135.88558054808527 117.53246753290296,123.25864595570602 124.54545454494655,117.14882439794019 126.64935065060854,113.0756047742907 126.64935065060854,108.18773567839526 122.44155844114721,100.85592069081031 118.93506493419409,99.22662662225775 110.51948051899672,97.19000809104182 106.31168831139803,98.00465562846512 102.80519480630755,99.6339502017945 93.33766233734787,107.78041298128664 77.55844155885279,120.40739707206376 75.45454545505345,123.66596705722623 73.70129870250821,126.92453435179777 73.3506493512541,130.99773968895897 74.40259740315378,134.66362089989707 76.50649350695312,137.92217911942862 79.31168831139803,140.77341535501182 86.67532467655838,143.21733049023896 90.53246753290296,143.21733049023896 94.38961038924754,141.58805390144698 97.19480519369245,138.32949870824814 100.70129870250821,135.47826070687734 107.01298701390624,131.40505999326706 110.16883116960526,128.96113754669204 113.67532467655838,126.92453435179777 123.14285714365542,119.5927541560959 125.24675324745476,116.33418081025593 125.94805194810033,112.26096034632064 125.59740259870887,108.59505833499134 122.79220779240131,100.04127374012023 115.42857142910361,97.19000809104182 111.57142857089639,96.78268425771967 106.66233766265213,97.59733188059181 94.03896103985608,107.78041298128664 86.67532467655838,112.26096034632064 77.20779220759869,120.40739707206376 74.75324675440788,123.66596705722623 73.3506493512541,128.14649639395066 73.0,132.21970047149807 76.85714285820723,139.95877664047293 80.01298701390624,143.21733049023896 88.07792207784951,144.43928749021143 92.2857142854482,143.21733049023896 95.79220779240131,140.77341535501182 102.10389610379934,134.66362089989707 105.61038961075246,132.62702064728364 121.74025974050164,120.00007563573308 124.54545454494655,116.74150262540206 125.94805194810033,112.66828258126043 125.59740259870887,104.92915292060934 124.19480519369245,101.26324410317466 117.53246753290296,95.56071250955574 109.46753246709704,96.37536038411781 105.61038961075246,97.59733188059181 85.97402597591281,112.66828258126043 76.50649350695312,121.22203982062638 74.40259740315378,124.88793010776863 73.3506493512541,128.96113754669204 73.3506493512541,132.62702064728364 74.40259740315378,136.70022010360844 76.85714285820723,140.3660960183479 80.3636363632977,142.81001140573062 84.92207792215049,143.62464953260496 89.12987012974918,144.03196853259578 92.6363636367023,142.40269228001125 96.49350649304688,139.95877664047293 108.76623376645148,128.96113754669204 115.07792207784951,124.88793010776863 121.74025974050164,119.18543263524771" stroke="#fffb00" stroke-linecap="round" stroke-linejoin="round" stroke-width="0.5"><title>2021-02-03 3.1km</title><desc>5958643285</desc></polyline><polyline fill="none" points="142.8181818202138,115.51953659229912 136.15584415756166,121.22203994751908 134.05194805376232,124.88793061277829 133.0,129.36845902632922 133.35064935311675,133.03434212692082 135.4545454569161,136.29290202772245 141.0649350658059,142.4026945917867 144.9220779221505,143.62465196987614 152.63636363856494,142.4026945917867 156.14285714365542,140.3660981201101 162.103896105662,134.66362241469324 182.44155844300985,120.81471855170093 186.64935065060854,113.89024840551428 187.0,109.81702499999665 184.5454545468092,101.67056558281183 181.38961039111018,98.8193008149974 177.88311688415706,96.78268186375499 173.67532467655838,95.56070998776704 169.8181818202138,96.37535794801079 165.96103896200657,98.00465336022899 159.64935065060854,102.89253556588665 156.49350649490952,104.9291513664648 154.38961039111018,108.18773446092382 148.07792207971215,112.26095954701304 135.80519480630755,122.44400388072245 134.40259740501642,125.70257251989096 133.7012987025082,129.7757795387879 134.40259740501642,133.84898235462606 136.50649350881577,137.9221809678711 142.11688311770558,143.62465196987614 145.97402597405016,144.43929001223296 150.5324675347656,143.62465196987614 154.03896103985608,141.99537538108416 164.20779220946133,133.03434212692082 180.68831169046462,121.22203994751908 183.49350649490952,118.37078929925337 184.89610389620066,114.70489258202724 186.64935065060854,111.44631486642174 186.64935065060854,106.96576611581258 181.7402597423643,100.85591871570796 178.23376623541117,98.41197710810229 170.51948052085936,96.37535794801079 162.80519480630755,99.63394810189493 156.14285714365542,104.9291513664648 153.68831169046462,108.18773446092382 140.01298701390624,118.37078929925337 134.75324675440788,124.88793061277829 134.05194805376232,128.9611384710297 134.05194805376232,133.03434212692082 135.103896105662,136.7002218265552 137.55844156071544,139.95877870055847 141.0649350658059,142.4026945917867 145.2727272734046,143.62465196987614 149.12987013161182,143.62465196987614 152.9870129879564,142.4026945917867 164.9090909101069,131.81238147290424 172.2727272734046,127.33185583143495 178.23376623541117,122.85132510727271 181.03896103985608,120.40739711537026 183.49350649490952,117.14882410503924 185.59740259870887,113.89024840551428 186.64935065060854,109.40970242791809 186.29870130121708,105.74379739142023 184.89610389620066,102.07788895256817 182.09090909175575,99.63394810189493 178.23376623541117,97.597329570679 174.02597402594984,96.37535794801079 169.4675324689597,96.78268186375499 165.61038961075246,98.00465336022899 143.16883116960526,115.11221460788511 137.55844156071544,120.40739711537026 135.4545454569161,124.0732885368634 134.40259740501642,127.7391765548382 134.40259740501642,131.81238147290424 135.4545454569161,135.8855821865145 137.55844156071544,139.144139733864 140.36363636516035,141.99537538108416 144.57142857462168,142.81001375964843 152.28571428731084,143.2173328853678 155.79220779426396,140.3660981201101 164.9090909101069,132.21970173274167 175.42857143096626,124.88793061277829 184.89610389620066,116.33418043190613 186.64935065060854,108.18773446092382 186.29870130121708,104.11450517270714 183.84415584616363,100.85591871570796 176.48051948286593,97.19000573735684 168.41558441706002,97.19000573735684 164.55844156071544,98.8193008149974 145.2727272734046,113.0756040608976 136.50649350881577,120.81471855170093 134.75324675440788,124.88793061277829 134.05194805376232,129.36845902632922 134.05194805376232,133.84898235462606 136.15584415756166,137.5148612963967 139.31168831326067,140.3660981201101 142.4675324689597,142.4026945917867 146.67532467842102,143.2173328853678 150.5324675347656,142.81001375964843 154.03896103985608,141.180736834649 167.01298701390624,130.59042043797672 170.16883116960526,128.9611384710297 183.49350649490952,119.18543255119585 185.59740259870887,115.11221460788511 186.29870130121708,111.03899246221408 185.94805194996297,106.5584432494361 180.68831169046462,99.63394810189493 177.1818181835115,97.597329570679 172.97402597405016,95.96803398919292 168.41558441706002,95.96803398919292 164.9090909101069,97.597329570679 151.93506493605673,108.18773446092382 148.42857143096626,110.22434752993286 136.50649350881577,120.40739711537026 134.05194805376232,123.66596743534319 133.35064935311675,127.33185583143495 133.0,135.07094237953424 135.80519480630755,138.3295005990658 138.96103896200657,140.77341749798506 142.4675324689597,142.81001375964843 150.5324675347656,142.81001375964843 154.03896103985608,141.58805612963624 157.89610389620066,139.144139733864 160.35064935311675,135.8855821865145 166.31168831326067,130.59042043797672 179.6363636367023,122.03668261086568 184.89610389620066,116.7415022898931 185.94805194996297,113.0756040608976 185.94805194996297,108.59505715803243 185.24675324745476,104.52182829100639 182.7922077924013,101.67056558281183 175.77922078035772,97.597329570679 171.9220779221505,97.19000573735684 167.36363636516035,97.597329570679 163.50649350881577,99.22662447975017 137.20779220946133,120.00007563573308 134.40259740501642,123.25864629284479 133.0,127.33185583143495 133.0,131.40506116859615 134.40259740501642,135.4782623045612 140.01298701390624,141.180736834649 148.07792207971215,142.4026945917867 151.93506493605673,141.99537538108416 155.44155844300985,140.3660981201101 158.24675324745476,137.10754158324562 164.55844156071544,131.81238147290424 168.76623376831412,130.18310000863858 175.42857143096626,125.70257251989096 185.24675324745476,117.14882410503924 186.29870130121708,113.48292625392787 186.64935065060854,109.40970242791809 186.29870130121708,105.74379739142023 183.84415584616363,102.07788895256817 181.03896103985608,98.8193008149974 177.1818181835115,96.78268186375499 172.6233766246587,96.37535794801079 168.76623376831412,96.37535794801079 164.9090909101069,97.597329570679 161.75324675440788,99.63394810189493 145.97402597405016,113.48292625392787 135.4545454569161,121.22203994751908 134.05194805376232,125.2952515874058 134.40259740501642,133.4416622624267 136.50649350881577,137.5148612963967 138.96103896200657,140.3660981201101 146.67532467842102,143.62465196987614 154.7402597423643,140.77341749798506 164.20779220946133,131.81238147290424 167.71428571641445,130.59042043797672 181.38961039111018,121.22203994751908 184.1948051955551,117.96346760960296 185.94805194996297,114.29757051495835" stroke="#fffa00" stroke-linecap="round" stroke-linejoin="round" stroke-width="0.5"><title>2021-02-02 3.1km</title><desc>5958643137</desc></polyline><polyline fill="none" points="24.571428569033742,167.98407493997365 17.558441556990147,178.98176849167794 14.402597401291132,186.72086781356484 14.753246752545238,190.38675167271867 18.259740257635713,193.64531224453822 20.71428571268916,197.311189673841 24.220779221504927,199.75510606961325 29.48051947914064,199.347786774626 37.545454543083906,197.71850917860866 45.25974025763571,194.8672717665322 58.93506493419409,185.49890577141196 61.740259738639,182.2403384768404 64.89610389433801,180.2037325508427 67.0,176.53783923923038 67.0,172.46462045493536 67.0,168.39139746990986 65.24675324559212,164.7254931894131 62.79220779053867,161.46690875058994 55.07792207784951,157.80099804187194 51.22077921964228,157.39367441972718 43.506493505090475,159.02296865568496 34.740259738639,167.16942975460552 28.077922077849507,171.2426540008746 18.610389608889818,178.57444705534726 15.454545453190804,181.8330173753202 14.051948051899672,185.9062264948152 14.051948051899672,190.38675167271867 15.103896103799343,194.45995196769945 17.207792207598686,198.12582864053547 28.779220778495073,201.3843828253448 33.337662337347865,200.16242532106116 36.49350649304688,198.53314806008711 39.29870129749179,195.6819112363737 46.31168831139803,189.97943141288124 52.974025974050164,185.9062264948152 62.44155843928456,178.57444705534726 64.19480519369245,175.31587404501624 65.59740259684622,171.64997619390488 65.24675324559212,167.5767523678951 64.19480519369245,163.50352434022352 61.740259738639,160.24493889254518 58.23376623168588,159.4302921104245 54.025974025949836,157.39367441972718 50.16883116774261,156.5790270480793 46.31168831139803,156.9863507549744 42.4545454531908,158.6156451597344 39.64935064688325,161.46690875058994 32.98701298609376,165.94746166141704 27.025974025949836,172.0572983454913 16.85714285634458,178.57444705534726 14.402597401291132,182.2403384768404 13.701298700645566,185.9062264948152 14.753246752545238,194.8672717665322 17.909090908244252,198.12582864053547 20.3636363632977,201.3843828253448 24.571428569033742,203.0136589098256 29.12987012974918,203.828296699794 33.337662337347865,202.60633995220996 38.59740259498358,196.4965505390428 61.740259738639,177.7598040548619 63.84415584243834,173.68658653227612 64.89610389433801,170.02068716776557 63.142857141792774,166.35478440090083 58.58441558293998,159.83761552278884 55.42857142724097,157.39367441972718 46.66233766078949,158.2083216214087 43.155844155699015,157.80099804187194 34.38961038924754,165.94746166141704 30.53246753104031,168.39139746990986 17.909090908244252,178.57444705534726 14.402597401291132,185.9062264948152 14.051948051899672,189.97943141288124 15.103896103799343,194.45995196769945 21.415584415197372,199.75510606961325 28.779220778495073,202.19902095221914 32.636363634839654,201.3843828253448 44.55844155699015,190.79407189111225 54.025974025949836,185.09158500726335 62.79220779053867,176.9451608862728 64.5454545430839,173.2792645478621 64.89610389433801,168.79871995700523 64.5454545430839,165.1328160557896 62.44155843928456,161.8742319517769 59.28571428358555,159.4302921104245 57.18181818164885,156.171703300206 48.76623376458883,156.5790270480793 44.90909090824425,157.39367441972718 41.75324675254524,159.02296865568496 38.94805194810033,162.28155511268415 22.467532467097044,175.31587404501624 18.961038960143924,176.9451608862728 16.155844155699015,180.2037325508427 14.051948051899672,183.86962245986797 13.35064934939146,187.53550896630622 14.753246752545238,195.6819112363737 17.207792207598686,199.347786774626 21.415584415197372,200.97706369962543 29.48051947914064,202.19902095221914 33.337662337347865,201.3843828253448 36.142857141792774,198.94046743796207 38.59740259498358,196.0892309078481 44.55844155699015,190.79407189111225 61.03896103799343,178.98176849167794 63.84415584243834,175.72319581755437 64.89610389433801,172.0572983454913 65.59740259684622,168.39139746990986 65.24675324559212,164.7254931894131 63.142857141792774,160.652262220392 59.98701298609376,158.6156451597344 57.18181818164885,156.171703300206 53.675324672833085,156.9863507549744 49.11688311584294,156.5790270480793 45.61038960888982,156.9863507549744 16.85714285634458,179.38908988749608 14.753246752545238,182.64765953551978 13.0,185.9062264948152 13.35064934939146,189.97943141288124 14.051948051899672,194.05263212649152 16.506493505090475,197.311189673841 19.31168831139803,199.75510606961325 27.376623375341296,200.97706369962543 30.883116882294416,199.75510606961325 34.740259738639,199.75510606961325 40.35064934939146,192.83067235467024 43.506493505090475,190.38675167271867 47.3636363632977,189.1647907642182 54.025974025949836,185.09158500726335 63.84415584243834,177.35248249117285 65.24675324559212,173.2792645478621 64.89610389433801,169.2060424021911 64.19480519369245,165.1328160557896 62.0909090898931,161.05958550586365 58.58441558293998,157.80099804187194 54.7272727265954,156.171703300206 50.16883116774261,156.171703300206 46.31168831139803,156.9863507549744 17.558441556990147,178.57444705534726 15.103896103799343,181.8330173753202 13.35064934939146,185.49890577141196 13.0,189.57211110857315 15.454545453190804,196.90387012786232 22.818181816488504,202.19902095221914 26.675324672833085,200.56974453176372 30.53246753104031,201.3843828253448 34.38961038924754,199.347786774626 37.89610389433801,196.4965505390428 44.90909090824425,189.1647907642182 52.62337662093341,185.9062264948152 62.79220779053867,178.1671255757101 64.89610389433801,174.09390847338364 66.29870129749179,170.02068716776557 60.337662337347865,159.02296865568496 57.18181818164885,157.39367441972718 53.675324672833085,156.171703300206 45.61038960888982,157.39367441972718 41.75324675254524,159.4302921104245 35.0909090898931,165.54013888002373 15.805194804444909,180.61105382069945 14.051948051899672,184.27694335160777 13.701298700645566,188.35014994861558 14.402597401291132,192.42335234535858 16.506493505090475,195.6819112363737 17.909090908244252,199.75510606961325 21.415584415197372,201.79170190985315 29.48051947914064,202.60633995220996 33.688311686739326,200.16242532106116 39.64935064688325,194.05263212649152 45.961038960143924,188.75747037795372 53.324675323441625,185.09158500726335 62.44155843928456,177.35248249117285" stroke="#ffff00" stroke-linecap="round" stroke-linejoin="round" stroke-width="0.5"><title>2021-02-01 3.1km</title><desc>5958643201</desc></polyline><polyline fill="none" points="88.5647058840841,171.14440758666024 80.30588235333562,178.15513917151839 78.08235294185579,181.10702204308473 76.1764705888927,184.0589024790097 75.85882353037596,187.37976505653933 76.1764705888927,190.70062455255538 77.12941176630557,194.0214809635654 79.3529411777854,196.97335074166767 85.38823529332876,200.66318453778513 89.51764705963433,201.40115084080026 93.01176470704377,200.2942013295833 103.1764705888927,196.23538352549076 118.74117647111416,183.68991755764 122.2352941185236,181.84499238058925 124.45882353000343,178.524124663556 125.72941176593304,171.14440758666024 124.77647058852017,167.82352993474342 122.55294117704034,164.8716360994149 113.34117647074163,160.07480342197232 109.84705882519484,160.07480342197232 106.35294117592275,161.18176538101397 103.1764705888927,163.02670121681876 100.0,165.60960978781804 96.5058823544532,166.71657003159635 80.62352941185236,177.41716807195917 77.76470588333905,180.00006625195965 75.85882353037596,183.68991755764 74.90588235482574,190.70062455255538 76.1764705888927,194.0214809635654 80.62352941185236,199.18725147657096 87.92941176705062,201.40115084080026 91.74117647111416,201.0321677082684 98.09411764703691,198.0803012799006 123.18823529407382,181.47600723034702 125.41176470555365,178.89311011740938 126.04705882258713,175.2032538629137 126.04705882258713,171.88237997959368 123.5058823544532,164.8716360994149 120.6470588222146,162.28872699616477 117.15294117666781,160.8127780999057 110.16470588371158,159.336828594096 103.49411764740944,163.02670121681876 100.95294117741287,165.24062296305783 88.24705882370472,172.6203522195574 79.3529411777854,179.26209553400986 76.81176470778883,181.84499238058925 75.22352941334248,185.16585701447912 75.22352941334248,188.85570299066603 75.85882353037596,192.9145291701425 77.4470588248223,196.23538352549076 79.98823529481888,199.18725147657096 87.2941176481545,201.77013393491507 91.42352941259742,201.40115084080026 94.91764706000686,200.66318453778513 105.08235294185579,195.1284324170556 122.87058823555708,182.21397749171592 125.72941176593304,179.26209553400986 127.0,171.88237997959368 124.14117647148669,165.60960978781804 121.91764706000686,162.28872699616477 115.56470588222146,159.336828594096 111.75294117629528,159.336828594096 104.12941176630557,161.55075262393802 89.51764705963433,171.14440758666024 78.40000000037253,180.00006625195965 75.85882353037596,182.58296256582253 73.0,189.22468737978488 77.12941176630557,196.23538352549076 82.84705882333219,200.2942013295833 86.97647058963776,201.40115084080026 94.28235294111073,201.0321677082684 104.12941176630557,195.4974161570426 122.55294117704034,182.58296256582253 125.09411764703691,179.63108091172762 126.6823529433459,176.67919682199135 126.6823529433459,172.98933828412555 124.14117647148669,165.97859657369554 118.10588235408068,161.18176538101397 111.1176470592618,160.07480342197232 104.44705882295966,161.55075262393802 100.63529411889613,163.39568826952018 97.77647058852017,166.3475833220873 79.3529411777854,178.524124663556 76.81176470778883,181.47600723034702 75.54117647185922,184.42788736196235 74.90588235482574,188.48671856499277 75.22352941334248,192.17656111577526 76.81176470778883,195.4974161570426 79.3529411777854,198.44928471627645 82.52941176481545,200.2942013295833 86.34117647074163,201.40115084080026 90.15294117666781,201.40115084080026 100.31764706037939,196.97335074166767 115.24705882370472,187.37976505653933 121.60000000149012,182.58296256582253 124.14117647148669,180.00006625195965 125.72941176593304,176.3102111387998 125.72941176593304,172.6203522195574 123.18823529407382,165.97859657369554 120.6470588222146,163.02670121681876 117.4705882370472,160.8127780999057 109.84705882519484,158.96784112160094 100.0,164.8716360994149 94.91764706000686,169.2994759378489 79.67058823630214,179.26209553400986 77.4470588248223,181.84499238058925 76.1764705888927,185.16585701447912 74.90588235482574,191.80757703236304 76.49411764740944,194.75944863748737 81.89411764778197,199.55623479862697 85.07058823667467,201.0321677082684 88.88235294260085,201.40115084080026 92.0588235296309,200.66318453778513 109.84705882519484,189.96265604137443 118.42352941259742,184.0589024790097 120.96470588259399,181.47600723034702 122.87058823555708,178.524124663556 122.2352941185236,167.45454333839007 116.83529411815107,162.65771412546746 113.02352941222489,162.28872699616477 109.84705882519484,160.44379078014754 105.71764706075191,160.8127780999057 102.54117647185922,162.28872699616477 93.64705882407725,168.56150301313028 91.10588235408068,171.14440758666024 78.71764706075191,178.524124663556 76.1764705888927,181.47600723034702 74.90588235482574,184.42788736196235 74.27058823779225,187.7487495976966 74.58823529444635,191.80757703236304 76.1764705888927,194.75944863748737 78.40000000037253,197.34233429306187 81.57647058926523,199.55623479862697 85.70588235370815,200.66318453778513 92.69411764666438,199.92521808343008 98.4117647074163,195.8663998595439 105.40000000037253,193.28351313853636 123.18823529407382,181.47600723034702 126.04705882258713,175.2032538629137 125.72941176593304,167.08555670431815 121.91764706000686,160.8127780999057 114.2941176481545,159.70581602700986 111.1176470592618,158.22986606531776 107.623529413715,158.22986606531776 104.44705882295966,158.96784112160094 89.51764705963433,170.77542133349925 77.76470588333905,178.89311011740938 75.54117647185922,181.84499238058925 74.27058823779225,184.79687220673077 73.63529411703348,188.48671856499277 74.90588235482574,192.17656111577526 77.12941176630557,195.4974161570426 79.67058823630214,198.0803012799006 86.97647058963776,200.66318453778513 97.45882353000343,196.97335074166767" stroke="#fff900" stroke-linecap="round" stroke-linejoin="round" stroke-width="0.5"><title>2021-01-28 3.1km</title><desc>5958643208</desc></polyline><polyline fill="none" points="133.68789808824658,187.5912917475216 133.3439490441233,191.5866647241637 134.3757961783558,195.18249687762 137.12738853693008,198.778325693449 139.87898089177907,200.77600692608394 143.6624203827232,202.7736871286761 147.10191082768142,203.57275892188773 151.22929936274886,203.17322304588743 154.32484076358378,199.97693455661647 158.10828025452793,198.3787893236149 163.61146496981382,192.78527581156231 167.73885350301862,191.1871276104357 171.17834394983947,189.18944143271074 174.2738853506744,185.9931414029561 184.5923566892743,179.60053343046457 186.6560509558767,176.40422548656352 187.0,172.40883684786968 186.6560509558767,168.0139045859687 185.2802547775209,164.0185072910972 182.52866242080927,161.22172673325986 179.43312101997435,159.22402509814128 175.3057324849069,158.42494415515102 171.86624203808606,156.42724107811227 164.2993630580604,158.42494415515102 160.51592356711626,160.4226462028455 155.012738853693,165.6166667039506 145.38216560520232,172.40883684786968 136.43949044682086,180.00007173744962 134.3757961783558,182.79683873499744 133.0,190.38805326330476 135.40764331258833,197.97925291163847 138.15923566929996,200.77600692608394 146.75796178355813,202.37415117095225 150.54140127450228,199.97693455661647 154.66878980956972,199.17786202323623 158.10828025452793,196.38110685464926 164.987261146307,193.18481275974773 173.5859872624278,185.9931414029561 180.80891719833016,182.39730071648955 184.24840764328837,179.60053343046457 185.96815286763012,176.40422548656352 185.6242038216442,171.60975862620398 186.31210191175342,167.6143650424201 182.18471337668598,161.22172673325986 178.05732484161854,158.42494415515102 169.80254777148366,156.42724107811227 165.33121019229293,157.22632243251428 141.9426751602441,174.40653168270364 138.8471337594092,177.20330272009596 136.43949044682086,180.39961000415497 134.3757961783558,183.99545254488476 133.68789808824658,187.99082923005335 134.03184713423252,191.9862017945852 135.75159235671163,195.9815702366177 138.15923566929996,199.57739831041545 141.9426751602441,201.97461517201737 149.8535031862557,202.7736871286761 157.42038216628134,199.97693455661647 160.51592356711626,196.78064343123697 162.23566878959537,193.18481275974773 165.33121019229293,190.38805326330476 167.73885350301862,187.5912917475216 170.83439490385354,185.59360371320508 174.96178343892097,184.39499039878137 178.05732484161854,182.39730071648955 181.84076433070004,181.99776265583932 184.9363057333976,179.60053343046457 184.9363057333976,167.21482545672916 183.56050955317914,163.6189673356712 180.46496815234423,160.82218648889102 172.5541401281953,158.824484646786 169.11464968137443,157.6258630475495 161.54777070134878,159.6235655080527 152.60509554296732,167.21482545672916 145.38216560520232,172.00929775787517 136.43949044682086,179.20099508133717 134.03184713423252,182.79683873499744 134.03184713423252,191.1871276104357 136.78343949094415,197.97925291163847 139.87898089177907,200.77600692608394 147.4458598718047,203.57275892188773 153.6369426753372,199.17786202323623 162.23566878959537,195.18249687762 164.6433121021837,192.3857388237957 175.3057324849069,186.7922166576609 177.7133757956326,183.59591464931145 184.24840764328837,179.60053343046457 185.6242038216442,176.0046868091449 184.9363057333976,167.6143650424201 180.12101910822093,161.62126693711616 176.33757961913943,160.02310587628745 174.2738853506744,156.42724107811227 161.89171974547207,158.42494415515102 158.45222930051386,160.82218648889102 152.9490445870906,166.41574616264552 139.87898089177907,176.0046868091449 135.40764331258833,181.99776265583932 134.7197452224791,185.59360371320508 134.7197452224791,189.988516026875 135.40764331258833,193.98388653062284 136.78343949094415,197.18017996498384 139.87898089177907,199.97693455661647 144.00636942870915,200.77600692608394 147.78980891779065,200.77600692608394 155.3566878978163,199.17786202323623 162.92356687784195,193.18481275974773 180.80891719833016,182.79683873499744 183.90445859916508,180.39961000415497 185.6242038216442,176.0046868091449 185.6242038216442,172.00929775787517 184.9363057333976,168.4134440885391 182.18471337668598,161.22172673325986 178.40127388574183,159.22402509814128 173.9299363065511,158.824484646786 169.80254777148366,157.22632243251428 166.0191082805395,158.02540362277068 162.5796178355813,159.6235655080527 156.7324840761721,165.21712691290304 150.19745223037899,169.61206234898418 138.50318471342325,178.80145669169724 135.75159235671163,181.5982245549094 134.03184713423252,185.59360371320508 133.68789808824658,189.5889787506312 134.3757961783558,197.18017996498384 136.43949044682086,200.37647076160647 140.22292993590236,202.37415117095225 144.69426751695573,203.17322304588743 148.13375796191394,203.17322304588743 152.26114649698138,202.37415117095225 155.70063694380224,199.57739831041545 160.85987261123955,193.58434966555797 170.14649681560695,186.7922166576609 173.5859872624278,183.59591464931145 177.3694267515093,181.5982245549094 183.21656050905585,176.8037641244009 185.2802547775209,173.6074538724497 186.31210191175342,165.6166667039506 184.5923566892743,162.02080709976144 180.80891719833016,160.4226462028455 171.86624203808606,158.824484646786 168.0828025471419,158.42494415515102 164.6433121021837,159.22402509814128 160.51592356711626,161.22172673325986 158.10828025452793,163.6189673356712 156.38853503204882,166.8152858298272 139.87898089177907,178.00237978855148 137.12738853693008,180.39961000415497 134.7197452224791,183.59591464931145 133.3439490441233,186.7922166576609 133.68789808824658,190.78759045735933 134.03184713423252,194.78296013595536 135.75159235671163,198.778325693449 138.8471337594092,200.37647076160647 142.97452229447663,201.57507913117297 150.88535031862557,201.97461517201737 153.9808917194605,198.778325693449 164.987261146307,190.78759045735933 174.96178343892097,184.7945282116998 179.08917197585106,183.19637671322562 181.84076433070004,180.79914822848514 184.9363057333976,172.00929775787517 185.6242038216442,168.0139045859687 183.56050955317914,160.4226462028455 179.77707006409764,158.02540362277068 175.6496815290302,157.6258630475495 167.39490445889533,157.22632243251428 163.95541401207447,158.42494415515102 155.3566878978163,167.6143650424201 139.87898089177907,180.00007173744962 137.12738853693008,182.39730071648955 134.7197452224791,185.19406598294154 133.3439490441233,193.18481275974773 136.78343949094415,199.97693455661647 139.87898089177907,201.97461517201737 143.6624203827232,203.57275892188773 147.78980891779065,203.57275892188773 151.9171974528581,202.7736871286761 156.04458598792553,199.17786202323623 162.92356687784195,190.38805326330476 170.14649681560695,187.99082923005335 182.52866242080927,177.20330272009596" stroke="#fffb00" stroke-linecap="round" stroke-linejoin="round" stroke-width="0.5"><title>2021-01-26 3.1km</title><desc>5958643221</desc></polyline><polyline fill="none" points="16.218543047085404,249.34687812114134 14.430463576689363,252.67018036334775 15.5033112578094,257.2397164700087 17.64900662191212,260.9784239726141 21.225165562704206,263.0554821966216 29.80794701911509,260.56301219877787 33.74172185361385,260.56301219877787 63.06622516550124,239.37695493525825 65.56953642331064,235.6382273763884 67.0,231.89949634787627 66.28476821258664,228.16076184622943 64.4966887421906,224.42202387400903 59.132450331002474,219.02161845215596 55.19867549650371,216.94453751528636 50.90728476829827,216.5291212000884 46.973509933799505,217.77537001878954 23.728476820513606,234.80739855999127 17.64900662191212,239.79236889467575 15.145695364102721,242.70026540686376 13.715231789276004,246.43898640875705 13.35761589370668,250.5931167830713 15.5033112578094,258.4859526907094 18.36423840932548,260.9784239726141 22.29801324568689,263.0554821966216 26.58940397389233,263.47089371318 34.81456953659654,262.2246590361465 41.251655630767345,255.5780675765127 47.68874172307551,250.5931167830713 50.90728476829827,247.26981282653287 64.13907284848392,237.29988449811935 66.28476821258664,233.56115501071326 66.64238410629332,229.40700706583448 66.64238410629332,225.25285483407788 65.56953642331064,221.0986983180046 63.06622516550124,218.19078620662913 59.49006622470915,216.11370484018698 55.19867549650371,215.69828843930736 46.973509933799505,216.94453751528636 43.39735099487007,219.02161845215596 38.03311258368194,224.42202387400903 21.94039735198021,236.05364172160625 16.218543047085404,242.70026540686376 14.430463576689363,246.02357313549146 13.715231789276004,250.5931167830713 14.072847682982683,254.74724287283607 15.860927153378725,259.3167766232509 18.721854304894805,261.3938357040752 22.29801324568689,263.0554821966216 34.81456953659654,261.8092473910656 38.39072847738862,259.73218852467835 43.39735099487007,253.5010054963641 60.562913907691836,241.4540243006777 63.78145695477724,238.54612688883208 65.92715231701732,234.80739855999127 67.0,230.65325189917348 65.92715231701732,222.76036143791862 63.06622516550124,219.8524505267851 59.84768211841583,217.3599537878763 51.980132449418306,215.2828719955869 44.112582782283425,217.3599537878763 35.529801324009895,225.66827024985105 16.93377483636141,240.20778280985542 14.788079470396042,243.5310925960075 13.715231789276004,247.26981282653287 13.715231789276004,251.008529584622 14.430463576689363,255.16265524667688 16.93377483636141,258.4859526907094 19.437086092308164,261.3938357040752 23.370860926806927,260.9784239726141 25.516556290909648,264.7171280044131 29.80794701911509,264.7171280044131 33.74172185361385,262.64007063792087 36.96026490069926,260.1476003830321 45.54304635711014,250.5931167830713 51.62251655571163,245.60815981938504 62.35099337808788,238.96154093393125 65.21192052960396,236.05364172160625 66.28476821258664,231.89949634787627 66.64238410629332,227.32993148546666 65.56953642331064,222.76036143791862 63.06622516550124,219.8524505267851 55.913907285779715,215.69828843930736 47.68874172307551,216.5291212000884 43.39735099487007,217.77537001878954 34.45695364288986,226.49910095427185 15.5033112578094,240.62319668382406 13.35761589370668,244.777333058184 13.0,248.9314651482273 14.072847682982683,253.08559295209125 15.5033112578094,256.8243043124676 18.0066225156188,260.56301219877787 21.582781456410885,262.64007063792087 25.516556290909648,263.47089371318 34.45695364288986,260.1476003830321 47.331125827506185,249.34687812114134 50.19205298088491,245.60815981938504 60.20529801398516,240.20778280985542 63.423841059207916,237.7152986715082 65.56953642331064,234.39198408578523 67.0,230.23783699679188 67.0,226.08368562348187 61.9933774843812,218.60620235092938 57.70198675617576,218.19078620662913 54.48344370909035,216.11370484018698 46.25827814638615,217.3599537878763 43.03973509930074,219.02161845215596 33.74172185361385,227.32993148546666 14.788079470396042,241.03861051378772 13.35761589370668,245.19274645973928 13.0,253.5010054963641 14.788079470396042,256.8243043124676 16.93377483636141,259.73218852467835 20.152317881584167,262.2246590361465 29.45033112540841,261.8092473910656 33.384105959907174,260.56301219877787 36.96026490069926,258.4859526907094 40.17880794778466,255.16265524667688 43.39735099487007,253.08559295209125 45.90066225081682,249.7622910507489 49.83443708717823,249.7622910507489 52.33774834498763,246.43898640875705 55.556291392073035,244.3619196137879 63.06622516550124,241.03861051378772 65.56953642331064,236.88447028119117 66.28476821258664,232.73032576451078 65.92715231701732,228.9915920351632 65.21192052960396,225.25285483407788 63.06622516550124,221.92952996329404 55.913907285779715,216.5291212000884 51.980132449418306,216.11370484018698 48.40397351048887,216.5291212000884 44.112582782283425,218.60620235092938 34.45695364288986,226.91451624128968 18.36423840932548,238.54612688883208 15.5033112578094,241.4540243006777 14.072847682982683,245.19274645973928 13.0,249.34687812114134 13.35761589370668,253.5010054963641 17.64900662191212,260.56301219877787 25.516556290909648,263.0554821966216 29.80794701911509,263.0554821966216 33.74172185361385,262.64007063792087 41.60927152261138,253.91641799826175 44.827814569696784,251.42394234542735 51.980132449418306,247.26981282653287 61.63576159067452,240.20778280985542 64.13907284848392,237.29988449811935 65.56953642331064,224.83743937476538 60.920529801398516,218.19078620662913 48.76158940419555,215.69828843930736 44.470198675990105,217.3599537878763 35.529801324009895,225.66827024985105 25.15894039720297,232.73032576451078 16.218543047085404,241.03861051378772 14.072847682982683,244.777333058184 13.35761589370668,248.9314651482273 13.35761589370668,253.5010054963641 17.291390728205442,260.1476003830321 20.867549668997526,262.64007063792087 24.80132450349629,263.47089371318 34.45695364288986,261.3938357040752 43.39735099487007,253.08559295209125 50.19205298088491,248.9314651482273 56.271523179486394,244.3619196137879 59.49006622470915,241.03861051378772 62.70860927179456,238.96154093393125 65.21192052960396,235.22281298972666 66.28476821258664,231.06866675778292 65.92715231701732,223.1757771121338 63.423841059207916,220.2678665004205 51.62251655571163,215.2828719955869 43.7549668867141,217.77537001878954 37.67549668811262,223.1757771121338" stroke="#fff500" stroke-linecap="round" stroke-linejoin="round" stroke-width="0.5"><title>2021-01-25 3.2km</title><desc>5958643210</desc></polyline></svg>