<?xml version="1.0" encoding="utf-8" ?>
<svg baseProfile="full" height="300mm" version="1.1" viewBox="0,0,200,300" width="200mm" xmlns="http://www.w3.org/2000/svg" xmlns:ev="http://www.w3.org/2001/xml-events" xmlns:xlink="http://www.w3.org/1999/xlink"><defs /><rect fill="#222222" height="300" width="200" x="0" y="0" /><text fill="#FFFFFF" style="font-size:12px; font-family:Arial; font-weight:bold;" x="10" y="20">Over 5km Runs</text><text fill="#FFFFFF" style="font-size:4px; font-family:Arial" x="10" y="280">ATHLETE</text><text fill="#FFFFFF" style="font-size:9px; font-family:Arial" x="10" y="290">Licardo</text><text fill="#FFFFFF" style="font-size:4px; font-family:Arial" x="120" y="280">STATISTICS</text><text fill="#FFFFFF" style="font-size:3px; font-family:Arial" x="120" y="285">Number: 15</text><text fill="#FFFFFF" style="font-size:3px; font-family:Arial" x="120" y="290">Weekly: 2.5</text><text fill="#FFFFFF" style="font-size:3px; font-family:Arial" x="141" y="285">Total: 72.4 km</text><text fill="#FFFFFF" style="font-size:3px; font-family:Arial" x="141" y="290">Avg: 4.8 km</text><text fill="#FFFFFF" style="font-size:3px; font-family:Arial" x="167" y="285">Min: 3.1 km</text><text fill="#FFFFFF" style="font-size:3px; font-family:Arial" x="167" y="290">Max: 10.4 km</text><polyline fill="none" points="32.949682875187136,42.65116571809631 31.99069767445326,42.65116571809631 31.648202959797345,42.70298915007152 30.049894291791134,43.06575290224282 29.593234672327526,43.22122293608845 29.342071881634183,43.50625110481633 29.0680761099793,43.972660202067345 28.428752642706968,44.67227237395127 25.780126849887893,48.35168505413458 25.369133192463778,48.74035255089984 24.067653276841156,49.647241253755055 23.953488372033462,49.72497443281463 23.199999999953434,49.46586375092738 22.880338266375475,49.43995266940328 22.309513742104173,49.51768590672873 21.578858350985684,49.69906337556313 20.52854122617282,50.13955101935426 18.656236786511727,51.0464351370174 18.06257928116247,51.38327705240226 17.6287526426604,51.69420768725104 17.263424947159365,52.03104881418403 16.66976744181011,52.62699749588501 16.167441860423423,53.24885562172858 15.710782240959816,53.92253368117963 15.459619450266473,54.363014602568 15.071458773803897,55.21806380173075 14.317970401607454,56.35812529132818 13.747145877336152,57.55000273644691 12.4684989429079,59.51918031348032 12.400000000023283,59.64873097871896 12.422832980868407,59.830101808096515 13.427484143641777,60.4001236409531 14.477801268454641,60.63331405248027 15.687949259881862,60.996054302027915 16.829598308657296,61.151514263503486 17.560253699775785,61.30697413752205 17.87991543347016,61.46243392434553 18.542071881704032,61.85108300932916 19.20422832982149,62.265641431702534 19.546723044360988,62.576559841050766 20.071881606709212,62.861568076128606 20.368710359325632,62.965207361616194 21.09936575044412,63.042936800193274 21.807188160717487,63.017026989749866 22.515010570758022,62.809748418862 23.063002114067785,62.52474013043684 24.11331923888065,61.695623440813506 24.59281183942221,61.41061400511535 25.277801268501207,61.177424248540774 26.008456659619696,61.02196430173353 26.624947145814076,60.996054302027915 27.40126849897206,61.09969428594923 28.520084566553123,61.28106416462106 28.931078224093653,61.48834388030809 29.364904862479307,61.617893623770215 30.09556025371421,61.695623440813506 31.21437632141169,61.643803565209964 32.85835095134098,61.46243392434553 34.13699788576923,61.54016378498636 35.529809725121595,61.95472267307923 36.07780126843136,62.23973154849955 36.58012684993446,62.550649986980716 37.26511627912987,63.06884660827927 37.85877378436271,63.69068127317587 38.772093023289926,64.85661750449799 39.06892177590635,65.11571377783548 40.07357293867972,65.86709159892052 40.48456659622025,66.1002774045919 40.78139534883667,66.12618692641263 41.07822410145309,66.07436788032646 41.375052854185924,65.94482022264856 42.17420718818903,65.50435773303616 42.562367864651605,65.19344261244987 42.973361522192135,64.70115962412092 43.24735729384702,64.157056355034 43.681183932349086,62.265641431702534 44.18350951385219,61.177424248540774 44.89133192389272,60.141022953379434 45.713319238857366,59.208258469589055 47.63128964067437,57.86092644324526 48.90993657510262,56.74678154391586 49.48076109937392,56.20266263754456 49.91458773787599,55.839916105527664 51.19323467230424,54.54438889591256 52.882875264273025,52.575175922364 53.887526427046396,51.22781160392333 54.20718816074077,50.735503774281824 54.52684989431873,50.11364000092726 55.463002114207484,48.63670793847996 55.5315010570921,48.455329773336416 55.50866807613056,48.14439549940289 55.326004228321835,47.859372108010575 54.618181818164885,47.31523572743754 52.99704016908072,46.43425074763945 52.47188160684891,46.04558001202531 51.42156448203605,45.44961715704994 51.124735729419626,45.13867950587883 50.16575052856933,43.99857179558603 49.16109936567955,43.01392953816685 48.75010570825543,42.67707743527717 48.407610993715934,42.4438718931051 47.65412262151949,42.13293086437625 46.90063424943946,41.97746021900093 46.51247357297689,41.951548436278244 46.124312896397896,42.00337199922069 45.553488372126594,42.184754393354524 43.72684989427216,42.96210616445751 42.79069767438341,43.247134599951096 42.17420718818903,43.376692882709904 40.05073995771818,43.583986008918146 39.708245243062265,43.53216274193255 39.502748414408416,43.53216274193255 36.89978858351242,43.791278979886556 36.260465116240084,43.73945575163816 35.36997885839082,43.60989763881662 33.1551797039574,42.884371085616294 32.241860465030186,42.72890086242114 31.511205074028112,42.75481257235515 29.501902748364955,43.14348793015233 29.250739957671613,43.27304626136902 29.159408033825457,43.42851617888664 29.0680761099793,43.73945575163816 28.931078224093653,44.02448338648537 25.894291754812002,48.22212910061353 25.574630021234043,48.61079677933594 25.25496828753967,48.84399712443701 24.364482029573992,49.46586375092738 23.725158562301658,49.854529682866996 23.199999999953434,49.49177483006497 22.99450317118317,49.41404158543446 22.811839323490858,49.41404158543446 21.852854122640565,49.647241253755055 20.551374207250774,50.13955101935426 18.496405919548124,51.09825699677458 17.720084566506557,51.746029425790766 16.898097251541913,52.497443543805275 16.304439746309072,53.197034164564684 15.61945031711366,54.181640190421604 14.477801268454641,56.28039397535031 14.08964059187565,56.8245127289847 12.536997885792516,59.64873097871896 12.514164904830977,59.856011916854186 13.815644820220768,60.4001236409531 15.094291754765436,60.84059425329906 15.596617336152121,60.97014429999399 16.989429175504483,61.151514263503486 17.6287526426604,61.358794076164486 19.3868921775138,62.23973154849955 19.63805496832356,62.62837954200222 19.843551797093824,62.757928751874715 20.277378435479477,62.93929754383862 20.84820295975078,63.042936800193274 21.807188160717487,62.99111717689084 22.446511627873406,62.809748418862 22.880338266375475,62.6024696927343 23.907822410110384,61.876992928853724 24.72980972507503,61.41061400511535 25.483298097271472,61.177424248540774 26.236786469235085,61.047874298819806 26.85327695554588,61.02196430173353 28.451585623668507,61.125604275934165 28.794080338208005,61.46243392434553 28.953911205171607,61.56607373364386 29.38773784355726,61.695623440813506 29.798731500981376,61.747443306667265 30.369556025369093,61.77335323591251 32.082029598299414,61.48834388030809 32.81268498930149,61.436523965909146 33.406342494650744,61.46243392434553 34.707822410040535,61.6697135042632 35.71247357293032,62.05836229812121 36.55729386897292,62.52474013043684 37.1737843551673,62.91338772373274 37.698942917515524,63.43158366589341 38.65792811836582,64.70115962412092 38.84059196617454,64.90843677852536 39.66257928113919,65.5820864586567 40.32473572937306,65.99663929300732 40.621564482105896,66.1002774045919 42.06004228326492,65.45253857059288 42.265539112035185,65.34890021636966 42.699365750537254,64.96025604300667 43.04186046507675,64.49388231436023 43.20169133192394,64.18296605872456 43.36152219865471,63.74250076551107 43.49852008454036,62.88747790118214 43.681183932349086,62.265641431702534 44.29767441865988,60.89241427925299 44.54883720935322,60.45194374944549 45.07399577170145,59.856011916854186 45.850317124743015,59.05279741666163 47.63128964067437,57.75728524645092 48.567441860446706,56.95406465549604 49.34376321348827,56.35812529132818 50.005919661722146,55.736274151917314 51.03340380557347,54.648031295859255 52.563213530695066,52.91201597705367 53.727695560315624,51.357366150361486 54.937843551742844,49.54359698094777 55.57716701901518,48.48124094703235 55.59999999997672,48.24804029616644 55.463002114207484,48.014839448733255 53.682029598392546,46.53789618500741 53.15687103604432,45.94193439028459 53.01987315015867,45.91602297878126 52.563213530695066,46.09740280825645 51.67272727272939,45.63099729226087 51.10190274845809,45.13867950587883 50.62241014803294,44.490891610330436 50.09725158568472,43.92083700787043 49.024101479910314,42.910282780998386 48.407610993715934,42.49569536387571 47.72262156440411,42.10701909623458 47.288794926018454,41.951548436278244 46.991966173402034,41.87381307358737 46.580972515861504,41.899724863586016 46.14714587724302,42.00337199922069 45.119661733624525,42.36613666865742 43.612684989348054,43.01392953816685 42.21987315011211,43.35078123101266 41.534883720916696,43.45442782327882 40.233403805526905,43.558074376604054 39.52558139525354,43.53216274193255 38.475264270673506,43.60989763881662 37.4021141648991,43.76536736698472 36.625792811857536,43.76536736698472 35.552642706083134,43.6617208912794 32.60718816064764,42.75481257235515 32.21902748418506,42.70298915007152 31.83086680760607,42.70298915007152 30.323890063446015,42.98801785253454 29.638900634250604,43.039841221354436 29.52473572944291,43.11757625656901 29.227906976710074,43.84310219838517 28.65708245243877,44.41315696091624 28.40591966174543,44.75000695048948 27.035940803354606,46.64154158352176" stroke="red" stroke-linecap="round" stroke-linejoin="round" stroke-width="0.5"><title>2024-07-07 10.2km</title><desc>11830717593</desc></polyline><polyline fill="none" points="100.0114832536783,43.731585834000725 99.322488038335,43.6012695953832 98.42679425841197,43.6012695953832 97.50813397124875,43.679459345847135 96.52057416271418,43.835838780913036 95.53301435417961,43.914028465544106 95.32631578948349,44.17466058881837 94.8210526315961,44.982618620066205 94.33875598094892,45.58206983731361 93.46602870814968,46.780968398816185 93.05263157899026,47.40647864193306 92.45550239237491,48.39686698518926 91.72057416266762,49.3351263756922 91.37607655511238,49.62181611414417 90.41148325370159,50.27338260351098 89.72248803824186,50.58613397658337 89.01052631577477,50.42975833400851 88.64306220109574,50.42975833400851 87.56363636360038,50.66432176507078 86.8287081340095,51.00313526089303 85.4507177034393,51.550448498426704 84.2334928229684,52.17594802365056 83.7971291866852,52.436572411010275 82.71770334942266,53.4008805223566 82.12057416280732,54.10456271172734 81.36267942585982,55.32948672384373 80.35215311008506,57.20595560854417 80.05358851677738,57.544761142431526 79.50239234452602,58.6654226629762 78.44593301438726,60.48974572130828 78.40000000002328,60.69823902394273 80.9492822967004,61.87101094156969 81.6612440191675,62.05344168478041 82.78660287079401,62.15768776999903 83.47559808613732,62.340118325315416 83.95789473678451,62.57467172082397 84.53205741627607,62.93953216538648 84.78468899533618,63.12196220844635 85.28995215322357,63.591067484230734 85.54258373205084,63.74743573390879 85.95598086132668,63.87774254148826 86.64497607655358,64.00804928815342 87.5406698564766,64.03411063013482 88.0,63.95592659676913 88.29856459330767,63.851681184896734 88.87272727268282,63.56500610074727 89.81435406708624,62.887409274000674 90.6181818182813,62.44436430328642 91.19234449765645,62.26193381633493 91.97320574172772,62.0795032097958 92.57033492834307,62.0795032097958 94.15502392349299,62.235872308403486 94.33875598094892,62.28799532176345 94.75215311010834,62.522548761131475 95.09665071778,62.65285614205641 96.26794258377049,62.835286372865085 96.52057416271418,62.835286372865085 97.99043062212877,62.60073319697403 99.04688995226752,62.49648727758904 100.0114832536783,62.54861024217098 100.7234449761454,62.626794670766685 101.13684210530482,62.78316346203792 102.17033492831979,63.30439213186037 103.04306220100261,63.851681184896734 104.05358851677738,64.84201102229417 105.04114832542837,66.11901008640416 106.07464114844333,67.0050876274181 106.37320574175101,67.18751500637154 106.53397129185032,67.21357605082449 106.74066985643003,67.13539291036432 107.0622009569779,66.95296549724299 107.84306220093276,66.61417141283164 108.50909090915229,66.19719351225649 108.715789473732,65.96264316872112 109.10622009576764,65.38929705269402 109.28995215310715,64.4771530709404 109.79521531111095,62.93953216538648 110.25454545463435,61.97525709521142 110.75980861252174,61.29765639908146 111.21913875604514,60.75036232522689 111.7703349282965,60.177005474688485 112.39043062203564,59.81214140955126 114.25071770336945,58.326618493010756 115.58277511969209,57.1277696575562 117.1904306220822,55.5640460261493 117.99425837327726,54.54762095530168 118.82105263171252,53.635441449820064 119.48708133981563,52.775383749685716 120.15311004791874,51.732886005105684 121.00287081336137,50.48188355797902 121.27846889954526,50.038818843022455 121.59999999997672,49.38725180461188 121.59999999997672,49.152687297493685 121.55406698572915,49.0223735969339 121.37033492838964,48.70962046680506 121.14066985645331,48.5011181847367 119.46411483257543,47.38041574318777 118.01722488040105,46.75490544157219 117.53492822963744,46.390023783169454 117.09856459335424,45.9730155877769 116.45550239237491,45.13899732299615 116.06507177045569,44.72198725331691 114.89377990446519,43.731585834000725 113.97511961730197,43.15819392778212 113.4239234450506,42.949687487242045 112.64306220097933,42.845434208371444 112.18373205745593,42.87149753177073 111.7703349282965,43.00181411195081 111.01244019146543,43.418826758890646 109.08325358852744,44.17466058881837 108.66985645948444,44.2528501781635 107.38373205752578,44.35710292987642 105.93684210535139,44.51348198423511 105.63827751204371,44.487418814591365 103.34162679431029,44.59167147843982 102.67559808620717,44.64379779569572 101.84880382777192,44.64379779569572 101.29760765552055,44.53954515140504 99.89665071782656,44.04434455759474 98.49569377989974,43.679459345847135 97.4162679426372,43.731585834000725 95.5789473685436,43.96615490972181 95.41818181821145,44.01828134409152 95.2803827751195,44.14859738750965 94.8210526315961,44.95655549434014 94.10909090912901,45.84270039870171 93.60382775124162,46.62459061850677 93.14449760771822,47.224038299609674 91.69760765554383,49.361189091345295 91.46794258384034,49.59575342288008 89.63062200974673,50.612196575209964 89.35502392356284,50.612196575209964 88.87272727268282,50.45582094718702 88.45933014363982,50.45582094718702 87.56363636360038,50.690384356246796 86.16267942590639,51.18557312633493 84.85358851682395,51.837135955283884 84.16459330148064,52.123823116882704 82.87846889963839,53.24450646099285 82.37320574163459,53.791815291682724 81.6842105264077,54.808243122155545 80.69665071775671,56.684715520445025 80.2602870814735,57.414451370423194 79.86985645943787,57.96175200268044 79.18086124397814,59.1605972466059 78.8363636364229,59.83820314431796 78.49186602875125,60.64611571285059 78.92822966515087,61.010978685022565 79.34162679431029,61.2455332003301 80.12248803838156,61.53221067285631 80.76555023924448,61.84494939708384 81.31674641149584,61.97525709521142 82.18947368417867,62.05344168478041 83.36076555028558,62.235872308403486 83.68229665071703,62.340118325315416 83.93492822966073,62.49648727758904 84.55502392351627,63.01771648414433 85.03732057427987,63.538944714848185 85.77224880387075,63.799558464292204 86.78277511964552,64.00804928815342 87.65550239244476,63.95592659676913 88.32153110054787,63.799558464292204 88.91866028716322,63.486821935744956 89.74545454548206,62.861347824684344 90.20478468912188,62.57467172082397 90.87081339722499,62.28799532176345 91.69760765554383,62.0795032097958 92.66220095707104,62.0795032097958 93.97129186603706,62.209810797998216 94.26985645946115,62.18374928526464 94.40765550243668,62.235872308403486 94.72918660298456,62.522548761131475 94.93588516744785,62.60073319697403 96.10717703355476,62.757102002884494 96.9339712918736,62.704979077359894 97.89856459328439,62.522548761131475 98.93205741629936,62.47042579166009 100.31004784698598,62.54861024217098 100.93014354072511,62.757102002884494 101.77990430628415,63.09590078092879 102.58373205747921,63.56500610074727 103.24976076558232,64.0601719696715 103.84688995219767,64.60745953707374 104.28325358859729,65.18080726315384 104.69665071775671,65.80627616326092 105.15598086128011,66.24931578399264 105.50047846895177,66.45780477335211 106.62583732057828,66.9790265635529 106.78660287091043,66.9790265635529 107.91196172253694,66.56204920940218 108.30239234457258,66.30143804594991 108.78468899521977,65.88445967694861 109.01435406703968,65.54566429229453 109.1751196172554,65.2068684954138 109.4507177034393,63.90380389566417 109.70334928238299,63.09590078092879 110.20861244015396,62.10556473230827 110.96650717710145,60.98491706000641 111.7703349282965,60.09882035810733 113.72248803835828,58.69148450513603 115.5368421053281,57.1277696575562 117.48899521538988,55.17311374581186 118.72918660286814,53.713628381694434 120.17607655504253,51.732886005105684 121.25550239242148,50.012756190786604 121.48516746412497,49.59575342288008 121.57703349285293,49.30906365753617 121.55406698572915,49.10056182453991 121.4392344498774,48.86599707574351 121.09473684220575,48.52718097853358 120.63540669868235,48.16230164337321 119.30334928224329,47.224038299609674 118.82105263171252,47.17191246544826 118.47655502404086,47.06766076810891 118.06315789476503,46.80703135373187 117.4660287082661,46.337897792924196 117.12153110047802,46.02514164644526 116.34066985663958,45.03474486403866 114.91674641158897,43.679459345847135 114.43444976082537,43.36670021218015 113.72248803835828,43.02787742073997 113.4009569378104,42.92362417123513 112.62009569385555,42.845434208371444 112.0229665072402,42.949687487242045 110.92057416273747,43.44489002859336 110.23157894739415,43.65339609817602 109.40478468907531,44.04434455759474 108.69282296660822,44.226786984101636 107.49856459337752,44.304976558923954 106.18947368429508,44.487418814591365 105.59234449767973,44.43529246808612 105.06411483266857,44.51348198423511 103.9846889951732,44.56560831607203 102.3540669856593,44.4613556425611 101.36650717700832,44.17466058881837 101.15980861254502,44.04434455759474 101.06794258381706,43.914028465544106 101.02200956945308,43.757649074395886 101.06794258381706,43.36670021218015 101.52727272734046,40.96886851126328 101.52727272734046,40.89067799926852 101.4583732058527,40.81248746535857 101.2287081341492,40.786423949175514 100.37894736847375,40.9167415057309 99.43732057430316,40.96886851126328 98.31196172256023,41.099185982340714 97.1866028708173,41.307693809241755 96.70430622017011,41.464074576913845 95.60191387566738,41.90715294133406 93.99425837327726,42.76724422359257 93.37416267953813,42.97575080083334 92.89186602877453,43.10606733232271 93.09856459347066,43.05394072708441" stroke="red" stroke-linecap="round" stroke-linejoin="round" stroke-width="0.5"><title>2024-07-03 10.1km</title><desc>11799763267</desc></polyline><polyline fill="none" points="162.5870625663083,42.92698998042033 161.94570519623812,43.16093703356455 161.09819724294357,43.732806777756196 160.86914103943855,43.966753151791636 160.0674443267053,45.03250636073062 159.40318133623805,46.09825547813671 158.4869565217523,47.21598796165199 157.77688229060732,48.33371594490018 157.50201484630816,48.56765844160691 155.78409331920557,49.52941996816662 155.44050901394803,49.55541347665712 154.93658536591101,49.451439427939476 154.59300106053706,49.42544590967009 153.6996818665648,49.5814069827029 153.01251325558405,49.78935494387406 151.82142099679913,50.36121103388723 150.6303287380142,51.011046069994336 149.78282078483608,51.53091300369124 149.0040296924999,52.154752039175946 148.1794273596024,53.11650113918586 147.62969247088768,53.81831594731193 147.28610816551372,54.36417068261653 146.736373276799,55.48186988741509 145.15588547184598,58.31508724775631 144.62905620364472,59.58872599923052 145.06426299060695,59.874644099589204 146.14082714740653,60.498464387637796 146.80509013787378,60.78438155123149 147.9961823966587,61.04430598995532 149.0727465535747,61.12228327401681 149.62248144228943,61.304230185225606 150.81357370107435,62.00602429738501 151.11134676565416,62.29193990860949 151.63817603397183,62.70781663569505 152.82926829275675,63.01972377221682 153.6996818665648,62.99373152424232 154.4326617179904,62.78579345266917 155.09692470845766,62.42190145273344 155.8299045599997,61.82407784604584 156.37963944859803,61.48617697725422 156.99809119838756,61.22625295227044 157.7997879110044,61.04430598995532 158.44114528107457,61.01831355699687 160.02163308591116,61.12228327401681 160.34231177112088,61.09629084850894 160.61717921530362,61.252245365671115 161.05238600226585,61.564154137304286 161.48759278899524,61.66812365001533 162.1060445389012,61.694116022088565 162.93064687179867,61.694116022088565 163.52619300119113,61.53816175306565 165.17539766721893,61.408199795288965 166.68716861086432,61.64213127543917 167.0765641570324,61.74610075901728 167.94697773072403,62.10999364464078 168.5425238601165,62.44789375428809 169.45874867448583,63.17567720913212 169.96267232240643,63.64353699426283 170.60402969259303,64.5532620974991 171.29119830334093,65.22905595903285 171.8180275716586,65.64492828710354 172.45938494172879,66.13877586767194 172.59681866387837,66.19075977252214 172.75715800654143,66.13877586767194 173.19236479338724,65.8528642175952 173.92534464481287,65.54096026351908 174.36055143165868,65.25504799780902 174.7270413575461,64.91715130425291 174.9790031814482,64.5272699930938 175.13934252399486,64.18937241387903 175.27677624614444,63.74750572833 175.46002120897174,62.837777985143475 175.75779427378438,61.928047261433676 175.9410392366117,61.53816175306565 176.49077412521,60.57644182504737 177.17794273607433,59.6407111302542 177.49862142116763,59.276815008430276 177.8193001061445,58.99089629238006 178.2086956523126,58.67898463003803 178.8958642630605,58.289094559295336 179.88080593862105,57.56129829573911 180.8657476141816,56.729528801253764 182.17136797460262,55.50786283859634 183.0646871686913,54.5721150613972 184.57645811256953,52.804582877171924 185.10328738077078,52.07677223641076 185.9737009544624,50.98505269770976 187.25641569471918,48.95756216478185 187.60000000009313,48.33371594490018 187.60000000009313,48.09977325098589 187.57709437969606,47.96980500253267 187.41675503726583,47.735862002009526 187.1876988336444,47.47592510355753 185.12619300116785,46.150243135285564 184.41611877002288,45.864310900418786 183.7060445388779,45.42241504901904 183.15630965016317,44.928530618024524 182.0568398728501,43.68081866792636 181.0489925770089,42.77102516879677 180.68250265123788,42.5110836213571 179.9266171794152,42.069182432140224 179.37688229058404,41.861228687892435 178.62099681876134,41.80924022747786 178.02545068936888,41.91321713855723 177.22375397675205,42.22514763812069 175.4829268293688,43.03096647275379 175.09353128331713,43.186931138363434 174.6583244963549,43.26491343823727 173.35270413581748,43.39488388944301 171.8867444327334,43.65482460928615 171.40572640509345,43.55084835056914 171.17667020158842,43.52485427982174 169.1838812303031,43.706812724034535 167.87826086964924,43.602836484787986 167.25980911997613,43.47286613099277 165.67932131502312,42.92698998042033 164.39660657488275,42.61506026951247 163.8010604454903,42.61506026951247 162.35800636280328,42.9529841071635 161.60212089086417,43.16093703356455 161.3272534464486,43.34289571631234 159.83838812308386,45.31843945232686 158.55567338282708,47.11201303676353 157.7997879110044,48.307722321973415 157.63944856845774,48.489677631267114 156.76903499476612,49.087529950775206 156.0818663840182,49.65938748646295 155.96733828214929,49.711374476755736 154.89077412511688,49.39945238895598 154.2036055144854,49.47743294379325 153.21866383892484,49.73736796819139 152.71474019088782,49.94531581256888 150.2180275716819,51.16700625233352 149.34761399787385,51.8428326966241 148.63753976672888,52.59663717454532 147.51516436901875,54.00026764499489 147.28610816551372,54.416156791878166 146.94252386013977,55.24793321688776 146.026299045654,56.65155028333538 145.2016967126401,58.10714567225659 144.40000000002328,59.40677796385717 144.60615058336407,59.53674085845705 145.72852598095778,60.056591828441015 146.46150583249982,60.52445686922874 146.98833510070108,60.78438155123149 147.4922587487381,60.94033624365693 149.09565217397176,61.148275697254576 149.80572640511673,61.382207396411104 150.6532343585277,61.928047261433676 151.24878048792016,62.39590914873406 151.5465535526164,62.70781663569505 151.9130434783874,62.8637702477281 152.57730646885466,63.01972377221682 153.58515376457945,62.9677392738522 154.1806998939719,62.81178572017234 154.79915164376143,62.5258706441964 155.6466595971724,61.85007020350895 156.53997879114468,61.382207396411104 157.18133616121486,61.148275697254576 158.0517497350229,60.96632868386223 158.7389183457708,60.96632868386223 160.4339342523599,61.148275697254576 161.1440084836213,61.460184585652314 162.266383881215,61.72010839174618 162.79321314953268,61.694116022088565 163.77815482509322,61.434192191722104 164.67147401918191,61.382207396411104 165.49607635219581,61.408199795288965 166.66426299058367,61.590146519156406 167.19109225890134,61.7980854861089 168.01569459179882,62.18797062948579 169.00063626735937,62.837777985143475 169.59618239675183,63.30563833969063 169.93976670212578,63.695521366171306 170.1917285261443,64.00742739328416 170.60402969259303,64.70921467311564 170.85599151649512,64.99512750076246 172.41357370105106,66.08679195324657 172.55100742331706,66.11278391169617 173.10074231179897,65.95683212438598 173.94825026520994,65.54096026351908 174.42926829284988,65.17707187423366 174.81866383890156,64.7352067604952 175.07062566280365,64.37131731532281 175.20805938506965,64.08540384517983 175.2996818664251,63.77349790575681 175.50583244976588,62.62983979683486 175.64326617191546,62.16197830357123 175.75779427378438,61.85007020350895 176.14718981983606,61.09629084850894 176.3762460234575,60.7064041721751 176.74273594934493,60.21254692960065 177.2695652175462,59.562733430066146 177.79639448586386,59.04288153539528 178.30031813378446,58.70497728191549 179.69756097567733,57.69126205405337 181.43838812306058,56.18367871636292 182.67529162252322,54.98800335175474 183.82057264063042,53.74033661172143 184.69098621432204,52.67461683120928 185.37815482506994,51.81683940230869 186.59215270436835,50.07528313616058 187.39384941675235,48.77560716212611 187.5541887594154,48.38570318339043 187.60000000009313,48.177754170872504 187.5541887594154,47.943811345583526 187.41675503726583,47.76185567842913 187.02735949109774,47.42393769463524 185.69883351016324,46.566144042124506 184.9658536586212,45.96828629259835 184.18706256640144,45.78632933064364 183.43117709446233,45.344433355203364 183.11049840948544,45.03250636073062 182.03393425245304,43.75880082900403 181.0489925770089,42.849007585522486 180.0411452811677,42.14716504604439 179.76627783675212,42.01719401057926 179.35397667030338,41.887222914461745 178.73552492063027,41.80924022747786 178.2774125133874,41.861228687892435 175.39130434789695,42.978978231491055 174.24602332990617,43.23891934068524 173.12364793219604,43.42087797241402 171.97836691420525,43.65482460928615 171.40572640509345,43.49886020660051 171.17667020158842,43.47286613099277 170.237539766822,43.55084835056914 169.2984093320556,43.68081866792636 167.87826086964924,43.62883054828853 167.09946977731306,43.47286613099277 165.5647932132706,42.92698998042033 164.90053022280335,42.74503102499875 164.62566277838778,42.69304273009766 163.32004241785035,42.667048579023685 162.0144220573129,42.900995851203334 161.48759278899524,43.10894881654531 161.09819724294357,43.706812724034535 159.8154825028032,45.266451639385195 159.51770943799056,45.70834773906972 159.12831389182247,46.410181275132345 158.50986214226577,47.13800677162362 158.09756097570062,47.83983669325244 157.57073170738295,48.46368402300868 157.13552492053714,48.8016007411934 156.5857900318224,49.165510593215004 155.8986214210745,49.451439427939476 155.71537645813078,49.50342645714409 155.34888653235976,49.47743294379325 154.91367974563036,49.34746534031001 153.76839872752316,49.55541347665712 153.03541887598112,49.76336145721143 151.89013785799034,50.33521760086296" stroke="red" stroke-linecap="round" stroke-linejoin="round" stroke-width="0.5"><title>2024-07-02 10.4km</title><desc>11790795955</desc></polyline><polyline fill="none" points="44.47966101707425,84.77036999966367 44.662711864570156,85.28975763145718 44.91440677980427,86.97776071369299 45.41779661027249,89.18513385037659 45.7838983052643,91.44442697660998 45.80677966109943,92.09364573360654 46.19576271192636,93.10642395858304 46.79067796620075,95.02809554839041 47.271186440833844,96.40441971670953 48.666949152597226,99.5725361762743 49.0788135593757,100.66319084298448 49.62796610186342,101.77980903311982 50.26864406792447,103.3638410763524 51.115254237432964,105.25947408541106 51.75593220349401,106.97332291072235 52.190677966107614,107.80427610364859 52.60254237300251,108.9727998180606 53.426271186443046,110.7904935858096 53.79237288143486,111.38773322306224 54.06694915262051,111.69933600141667 54.57033898320515,112.08883898195927 55.394067796645686,112.55624183642794 55.55423728830647,112.78994296817109 55.60000000009313,112.99767714214977 55.57711864414159,113.17944441671716 55.233898305217735,114.0882790024043 55.11949152557645,114.71147813976859 54.7305084746331,116.19157047753106 54.52457627130207,117.38602520056884 54.38728813570924,118.76223839394515 54.318644067971036,118.94400189004955 54.18135593237821,119.09979907760862 53.83813559333794,119.17769763857359 51.75593220349401,119.20366382069187 48.59830508485902,119.17769763857359 46.722033898346126,119.22963000033633 45.69237288145814,119.15173145401059 44.15932203398552,118.86610326348455 43.06101694924291,118.60644101680373 40.475423728930764,117.77552019356517 39.011016949196346,117.04846243083011 37.066101694945246,115.98383869612007 36.654237288283184,115.7501402561611 36.40254237293266,115.5164416191401 35.62457627116237,114.63357832416659 34.892372881411575,113.36121157216257 34.183050847495906,112.32254050762276 33.725423728930764,111.56950155305094 32.993220339063555,110.92032839905005 32.215254237293266,110.3750217751658 31.345762711949646,110.01148343013483 30.453389830654487,109.77777995663928 29.99576271197293,109.72584582466516 29.515254237339832,109.69987875508377 29.423728813650087,109.67391168305767 29.446610169601627,109.59601045222371 29.515254237339832,109.5440762861981 29.74406779673882,109.49214211045182 30.20169491530396,109.51810919956188 30.773728813626803,109.62197753152577 30.911016949336044,109.46617501889705 30.95677966112271,109.12860260793241 31.025423728860915,109.10263548232615 31.071186440763995,109.18053685175255 31.002542372909375,109.31037241878221 30.97966101707425,109.41424082859885 31.025423728860915,109.72584582466516 31.025423728860915,109.59601045222371 30.911016949336044,109.3363395248889 31.048305084812455,109.15456973109394 31.116949152667075,109.18053685175255 31.116949152667075,109.2324710857938 31.20847457635682,109.41424082859885 27.318644067971036,109.98551638721256 26.769491525483318,110.16728563638753 22.742372881504707,110.47888978620176 20.31694915262051,110.81646055335295 18.074576271232218,110.97226230727392 13.521186440717429,111.49160085475887 12.400000000023283,111.75126976383035" stroke="#ffd700" stroke-linecap="round" stroke-linejoin="round" stroke-width="0.5"><title>2024-06-30 4.2km</title><desc>11775355756</desc></polyline><polyline fill="none" points="78.87530562351458,113.76273695850978 78.61124694393948,110.8258933108009 78.53202934004366,109.6871099495911 78.47921760403551,109.29752523763455 78.40000000002328,107.64927697653184 78.50562347192317,107.37956281629158 78.84889975562692,107.19975324979168 81.91198044025805,107.07988014933653 85.52958435215987,107.0499118672451 87.51002445002086,106.96000700400327 89.59608801966533,106.72026057849871 90.15061124705244,106.60038729838561 92.97603911987972,106.42057729404769 93.92665036674589,106.27073554645176 97.04254278738517,105.97105184095562 99.15501222503372,105.67136785466573 100.15843520790804,105.40165202703793 101.08264058688655,105.34171514559421 103.1951100245351,104.98209362095804 106.52224938885774,104.62247169215698 108.89877750608139,104.26284935913282 109.90220048907213,104.0530694781628 110.4831295843469,103.96316377274343 112.85965770191979,103.45369763177587 116.08117359422613,102.94423067939351 118.29926650377456,102.67451255265041 120.43814180942718,102.2249818361015 121.20391198061407,102.13507561699953 121.41515892429743,101.8953255758679 121.52078239631373,101.62560656480491 121.60000000009313,101.23601203635917 121.57359413208906,100.84641703343368 121.41515892429743,99.73756712055183 120.8870415649144,97.1002870220982 120.83422982902266,96.47093287634198 120.49095354531892,94.16329041530844 120.27970660151914,93.26420443085954 119.7515892421361,90.23726304149022" stroke="#fff600" stroke-linecap="round" stroke-linejoin="round" stroke-width="0.5"><title>2024-06-30 3.3km</title><desc>11774673042</desc></polyline><polyline fill="none" points="162.22602230485063,92.58865437060012 161.60658523638267,92.69279649906093 161.12480084982235,93.3697193833068 160.59713223588187,93.8904281728901 157.54583112057298,98.10813342954498 157.17875730223022,98.42055349610746 155.89399893791415,99.38384649151703 155.0910249602748,99.071427507326 154.90748805110343,99.04539257613942 154.37981943716295,99.09746243612608 153.7374402550049,99.25367195750005 152.79681359534152,99.56609073697473 150.43377588957082,100.6855884809338 149.3554965481162,101.49266545390128 148.32310143392533,102.56008623971138 147.56601168354973,103.57543391635409 146.6712692512665,105.31974050047575 146.18948486458976,106.07473547995323 145.01943706860766,108.18350370205007 144.4688263409771,109.06866090703988 144.40000000002328,109.19883084666799 144.42294211371336,109.56330635331688 145.20297397766262,110.00588311211322 146.9236325013917,110.60466231169994 147.88720127462875,110.7868992034928 148.781943706912,110.838966864947 149.4472650026437,111.02120360321715 150.13552841218188,111.3856767215766 151.19086564006284,112.27082373446319 151.5579394584056,112.47909321039333 152.10855018603615,112.6352952150337 152.79681359534152,112.73942983601592 153.4850770048797,112.73942983601592 154.21922464156523,112.55719422365655 154.9304301646771,112.21875634105527 155.87105682422407,111.54187934024958 156.5134360063821,111.17740642672288 157.38523632509168,110.838966864947 158.18821030284744,110.70879769307794 158.83058948500548,110.73483153237612 160.29888475837652,110.91706833889475 160.4824216676643,110.94310215854784 161.1706850770861,111.28154159357655 161.53775889542885,111.3856767215766 162.1801380775869,111.43774427083554 162.66192246426363,111.43774427083554 164.40552310144994,111.15137262883945 165.32320764742326,111.15137262883945 165.8738183749374,111.20344022207428 166.7226765799569,111.3856767215766 167.45682421675883,111.67204812218552 168.00743494427297,111.93238550337264 168.76452469464857,112.37495849191328 169.22336696763523,112.73942983601592 169.63632501335815,113.18200154029182 170.11810939991847,113.78077390155522 170.69166224112269,114.58781287047896 170.92108337767422,114.87418097394402 171.51757833256852,115.23864904275979 172.34349442378152,115.70725014375057 172.68762612855062,115.78535025045858 173.0317578332033,115.68121676999726 173.85767392464913,115.31674928113353 174.5459373340709,114.84814752219245 174.86712692514993,114.48367894155672 175.09654806158505,114.09317636091146 175.3030270844465,113.52043825073633 175.4865639936179,112.50512688388699 175.76186935743317,111.69808187123272 176.19776951672975,110.8129330353986 176.61072756245267,110.18812039631302 177.7578332448611,108.8603888770158 178.79022835905198,108.15746962398407 180.00616038241424,107.2462753552827 180.64853956457227,106.72559157561045 181.68093467876315,105.76232401290326 183.7457249071449,103.60146842349786 184.86988847597968,102.27370545550366 186.40701009030454,100.1388575876772 187.50823154544923,98.31641351289 187.60000000009313,97.97795829817187 187.55411577271298,97.74364290825906 187.41646309092175,97.48329224329791 187.07233138615265,97.14483601445681 185.25990440801252,95.86911267988035 185.14519383967854,95.79100697938702 184.68635156669188,95.71290125703672 184.3422198620392,95.58272500429302 183.19511417951435,94.85373686283128 183.01157727034297,94.671489528846 182.36919808818493,93.81232191663003 181.01561338303145,92.51054774862132 180.4650026554009,92.12001430967939 180.09792883694172,91.93776518380037 179.0196494954871,91.54723094037035 178.51492299535312,91.4951596664614 178.0101964949863,91.59930220447131 177.64312267664354,91.72948032224667 176.151885289466,92.43244110475644 175.2571428572992,92.74486754866666 174.6606479024049,92.90108063898515 173.42177376523614,93.0572936416138 172.82527881045826,93.0572936416138 172.15995751461014,92.8229741047835 171.99936271912884,92.84900961857056 171.54052044614218,93.1614355944912 171.2652150823269,93.21350655631977 169.20042485406157,93.31764845075668 168.44333510368597,93.21350655631977 167.43388210306875,92.90108063898515 167.18151885294355,92.74486754866666 167.066808284726,92.64072543964721 167.02092405746225,92.51054774862132 167.41093998937868,90.5318393400521 167.54859267128631,89.594551494607 167.61741901235655,89.5164440314984 168.09920339891687,89.49040820568916 168.9021773765562,89.36022903953562 174.6606479024049,88.78743998464779 177.39075942651834,88.42293724429328 179.52437599585392,88.29275757836876 180.14381306432188,88.29275757836876 180.23558151884936,88.26672163789044 180.2126394052757,88.21464974951232 179.66202867764514,88.31879351643147 178.4460966543993,88.37086538525182 176.10600106220227,88.68329639325384 172.09113117365632,89.04779879222042 167.9156664897455,89.49040820568916" stroke="red" stroke-linecap="round" stroke-linejoin="round" stroke-width="0.5"><title>2024-06-29 6.1km</title><desc>11767860400</desc></polyline><polyline fill="none" points="14.232727272436023,156.53891764744185 14.232727272436023,159.27611064584926 17.37454545404762,165.35875265439972 19.992727273143828,166.87941119633615 22.87272727303207,168.0959374648519 25.75272727292031,168.40006895340048 31.25090909190476,165.66288442560472 38.58181818202138,160.18850774713792 52.19636363629252,151.3686572718434 54.29090909101069,148.63145693251863 55.07636363711208,145.8942540504504 54.8145454544574,143.15704862750135 52.981818181462586,140.41984066413715 50.3636363632977,138.89916847459972 48.26909090951085,136.16195655753836 45.650909091345966,134.03301219735295 42.509090908803046,132.81647187285125 36.48727272823453,134.64128217170946 33.86909090913832,136.77022609161213 30.727272727526724,137.9867647846695 28.10909090936184,140.7239750076551 15.279999999329448,149.84799073031172 13.185454545542598,152.58518994087353 12.400000000372529,155.32238660985604 13.970909091643989,161.100904566003 15.541818181984127,163.53396136965603 21.30181818176061,166.2711478737183 27.061818182468414,166.2711478737183 29.941818182356656,165.66288442560472 42.7709090905264,158.66784575558268 52.72000000067055,151.6727904865984 54.29090909101069,148.63145693251863 55.338181817904115,142.85291453520767 52.45818181801587,136.77022609161213 48.00727272685617,132.81647187285125 41.7236363645643,133.12060700170696 35.963636363856494,135.24955201987177 30.727272727526724,138.89916847459972 16.327272728085518,150.15212410176173 14.232727272436023,152.58518994087353 13.70909090898931,155.62651941692457 13.70909090898931,158.36371326167136 14.494545454159379,161.40503677655943 16.06545454543084,163.83809332945384 21.30181818176061,166.87941119633615 30.465454545803368,165.35875265439972 33.86909090913832,164.14222525712103 38.843636363744736,160.18850774713792 44.080000000074506,157.45131559553556 49.05454545468092,152.88932302989997 51.672727272845805,151.3686572718434 53.76727272756398,149.23972389404662 54.8145454544574,146.19838782958686 54.8145454544574,143.46118268929422 53.76727272756398,140.1157062887214 50.62545454595238,134.94541711127385 47.745454545132816,133.72887716302648 44.60363636445254,131.90406630095094 41.7236363645643,132.81647187285125 39.10545454546809,134.03301219735295 36.74909090809524,136.16195655753836 33.86909090913832,137.0743608113844 31.77454545442015,138.89916847459972 23.920000000856817,143.7653167191893 16.850909090600908,149.23972389404662 13.70909090898931,154.71412090375088 13.970909091643989,160.49264005175792 15.541818181984127,162.92569735716097 20.51636363659054,166.2711478737183 23.920000000856817,166.87941119633615 30.20363636314869,166.2711478737183 37.79636363685131,162.31743321963586 39.89090909063816,160.18850774713792 47.48363636434078,155.32238660985604 52.19636363629252,151.6727904865984 54.8145454544574,146.19838782958686 54.29090909101069,142.54878041124903 50.62545454595238,137.0743608113844 45.38909090962261,134.3371472004801 42.509090908803046,133.42474209796637 34.13090909086168,137.0743608113844 17.6363636367023,148.3273234043736 15.541818181984127,150.76039074989967 14.232727272436023,153.49758911319077 13.70909090898931,156.84305032878183 14.232727272436023,159.88437541178428 15.803636363707483,162.31743321963586 18.421818181872368,164.44635715405457 21.040000000037253,165.66288442560472 23.658181818202138,165.96701616607606 27.32363636419177,165.96701616607606 29.6800000006333,164.14222525712103 41.200000000186265,159.58024304383434 52.981818181462586,151.3686572718434 55.07636363711208,148.3273234043736 55.59999999962747,141.94051206856966 51.672727272845805,137.68263015779667 50.10181818250567,134.94541711127385 40.93818181846291,133.12060700170696 37.79636363685131,134.03301219735295 32.56000000052154,137.37849550088868 28.10909090936184,141.33224360039458 25.229090909473598,142.85291453520767 16.06545454543084,149.84799073031172 13.447272727265954,155.01825377275236 13.970909091643989,160.79677232541144 17.37454545404762,165.05462085222825 20.254545454867184,166.57527955109254 23.39636363554746,167.48767439322546 29.941818182356656,167.48767439322546 32.82181818317622,166.57527955109254 35.43999999947846,165.05462085222825 37.53454545419663,162.62156530469656 40.15272727329284,161.100904566003 46.96000000089407,155.01825377275236 49.316363636404276,153.49758911319077 51.93454545456916,152.28105682111345 54.29090909101069,150.15212410176173 54.552727272734046,144.0694507174194 52.981818181462586,141.33224360039458 51.93454545456916,137.9867647846695 46.436363636516035,133.42474209796637 43.81818181835115,133.12060700170696 40.414545455016196,133.72887716302648 32.29818181786686,138.29089937964454 27.585454544983804,141.94051206856966 22.61090909037739,144.37358468584716 15.541818181984127,150.15212410176173 13.970909091643989,153.19345608726144 13.185454545542598,156.23478493466973 13.70909090898931,159.27611064584926 14.756363636814058,162.01330110314302 16.850909090600908,164.75048901885748 19.73090909048915,166.57527955109254 22.61090909037739,167.48767439322546 34.91636363696307,163.83809332945384 42.7709090905264,158.36371326167136 52.19636363629252,151.0645240265876 53.76727272756398,148.02318984433077 54.02909090928733,144.9818525253795 53.76727272756398,141.94051206856966 52.72000000067055,139.20330297457986 48.792727273888886,134.03301219735295 46.436363636516035,132.20820152340457 43.03272727318108,131.59993104659952 40.15272727329284,131.90406630095094 34.65454545430839,135.8578217427712 27.585454544983804,141.63637785054743 17.37454545404762,148.3273234043736 15.279999999329448,151.0645240265876 13.447272727265954,157.14718297799118 13.970909091643989,160.18850774713792 15.279999999329448,163.2298293786589 20.254545454867184,166.57527955109254 26.2763636354357,166.57527955109254 29.156363636255264,165.96701616607606 35.178181818686426,162.92569735716097 40.67636363673955,158.36371326167136 43.29454545490444,157.14718297799118 48.792727273888886,153.19345608726144 50.88727272674441,151.3686572718434 52.45818181801587,149.23972389404662" stroke="#fffd00" stroke-linecap="round" stroke-linejoin="round" stroke-width="0.5"><title>2021-02-24 3.1km</title><desc>5958643139</desc></polyline><polyline fill="none" points="78.40000000037253,160.12995182117447 80.00993788894266,162.93514585169032 88.59627329278737,167.61046345089562 94.76770186424255,166.36371279880404 105.7689441004768,159.81826343433931 111.13540372811258,156.0780002886895 115.69689441099763,152.02604332217015 120.52670807670802,144.23380311345682 120.258385094814,141.11690140306018 118.11180124338716,135.1947792954743 113.2819875786081,132.07786825997755 107.64720497094095,132.38955950760283 102.01242236141115,134.2597063218709 92.35279503278434,142.0519722539466 90.2062111813575,144.54549310775474 80.81490683369339,152.33773251296952 80.27826086990535,161.3767050448805 82.15652173943818,163.87020995095372 86.98633540514857,166.67540050973184 89.93788820039481,167.29877583589405 92.88944099470973,167.29877583589405 95.30434782709926,166.05202505504712 106.03726708237082,159.50657501607202 118.38012422528118,150.1559075054247 121.6000000005588,141.42859171913005 119.4534161509946,135.50647022179328 117.03850931767374,133.63632417935878 114.0869565224275,132.07786825997755 104.15900621190667,132.7012507233303 81.61987577751279,149.53252864233218 79.74161490704864,152.64942167093977 79.47329192608595,156.0780002886895 79.47329192608595,159.19488656450994 80.81490683369339,162.31176962703466 86.44968944229186,166.05202505504712 89.66956521756947,166.98708818852901 92.88944099470973,166.98708818852901 95.84099378995597,166.05202505504712 113.2819875786081,153.89617798221298 118.11180124338716,150.1559075054247 119.99006211291999,147.35070160822943 121.0633540386334,141.74028200283647 119.4534161509946,135.50647022179328 117.57515528146178,133.3246330600232 108.18385093286633,132.7012507233303 102.54906832333654,134.5713973448146 91.81614906806499,142.98704281519167 89.13291925564408,144.23380311345682 86.98633540514857,146.72732216725126 81.61987577751279,151.09097555861808 79.74161490704864,159.19488656450994 82.15652173943818,165.11696163122542 84.83975155372173,167.29877583589405 90.74285714421421,167.61046345089562 97.18260869663209,165.42864947160706 117.30683229956776,151.09097555861808 119.72173913195729,148.59746010624804 121.0633540386334,142.36366247292608 120.79503105767071,138.62337771966122 119.4534161509946,135.50647022179328 117.03850931767374,133.3246330600232 111.13540372811258,132.07786825997755 104.96397515572608,132.7012507233303 92.08447205089033,142.67535266047344 84.57142857275903,147.6623912814539 80.54658385086805,152.64942167093977 79.74161490704864,155.45462264749222 79.47329192608595,158.5715095673222 80.00993788894266,161.3767050448805 83.7664596280083,166.05202505504712 92.88944099470973,167.61046345089562 106.03726708237082,159.50657501607202 113.2819875786081,152.96111079701222 116.23354037385434,151.71435409993865 118.38012422528118,149.8442180894781 120.52670807670802,146.72732216725126 120.258385094814,134.88308833632618 110.06211180239916,130.51941153570078 107.37888198904693,131.4544856667053 102.01242236141115,134.5713973448146 97.45093167759478,138.62337771966122 87.52298136707395,145.79225276387297 80.54658385086805,151.71435409993865 79.20496894512326,157.32475518528372 80.54658385086805,163.2468339172192 84.83975155372173,167.61046345089562 90.2062111813575,169.48058846429922 93.15776397567242,168.85721358843148 98.25590062234551,165.42864947160706 100.40248447284102,162.93514585169032 105.50062112044543,158.88319808221422 117.30683229956776,149.53252864233218 119.99006211291999,143.92211308772676 119.18509316910058,137.0649243730586 111.67204969096929,131.76617697882466 105.50062112044543,132.38955950760283 93.15776397567242,141.11690140306018 81.61987577751279,150.1559075054247 79.74161490704864,159.50657501607202 83.2298136651516,165.11696163122542 86.18136646132916,165.42864947160706 89.13291925564408,166.67540050973184 91.81614906806499,166.98708818852901 97.98757764045149,164.49358585570008 118.11180124338716,148.59746010624804 119.72173913195729,145.79225276387297 120.258385094814,142.98704281519167 120.258385094814,139.55844934284687 117.03850931767374,133.63632417935878 111.13540372811258,130.51941153570078 104.96397515572608,131.76617697882466 82.69316770229489,149.22083916235715 79.47329192608595,160.44164017611183 80.81490683369339,162.93514585169032 82.9614906841889,164.80527375964448 88.59627329278737,167.61046345089562 97.18260869663209,164.80527375964448 110.33043478336185,155.76631148369052 117.30683229956776,149.8442180894781" stroke="#fffe00" stroke-linecap="round" stroke-linejoin="round" stroke-width="0.5"><title>2021-02-21 3.1km</title><desc>5958643188</desc></polyline><polyline fill="none" points="146.54658385086805,152.8052650920581 144.66832298133522,155.9221545837354 144.66832298133522,158.7273523772601 145.20496894512326,161.8442357601598 149.4981366461143,166.8312424835749 152.44968944229186,168.38968039746396 155.66956521756947,169.3247427593451 161.30434782709926,166.51955480477773 178.7453416166827,155.2987769425381 183.30683229956776,151.87019761721604 185.18509316910058,149.37668293737806 186.52670807670802,145.94809689209796 186.52670807670802,143.14288723282516 185.7217391319573,139.7142941141501 183.84347826242447,137.22076940187253 179.2819875786081,133.16878735506907 176.06211180239916,131.61033127387054 169.62236024998128,133.48047847440466 164.2559006223455,137.22076940187253 159.15776397567242,139.7142941141501 152.18136646132916,145.63640705891885 149.2298136651516,146.88316619908437 146.27826086990535,152.1818868080154 145.74161490704864,155.2987769425381 146.27826086990535,158.4156638623681 147.35155279561877,161.53254756634124 149.4981366461143,164.33774015074596 151.91304347850382,165.896179350093 155.13291925564408,166.8312424835749 158.08447205089033,166.51955480477773 169.35403726808727,161.2208593399264 174.72049689479172,157.7922867347952 179.8186335414648,154.36371023999527 184.38012422528118,149.68837238452397 185.99006211292,147.50654557649978 186.7950310576707,144.0779574085027 185.99006211292,140.96105569810607 184.64844720624387,138.15584140922874 182.77018633764237,135.66231541126035 180.0869565224275,133.16878735506907 174.18385093286633,131.61033127387054 170.96397515572608,132.2337138026487 152.98633540514857,144.38964740280062 146.54658385086805,150.93512985366397 145.20496894512326,153.74033227725886 144.93664596322924,157.4805981235113 146.00993788894266,160.5974827921018 147.88819875847548,163.40267624566332 150.83975155372173,164.9611159262713 153.79130434896797,166.51955480477773 159.96273292135447,166.20786709384993 168.28074534330517,161.8442357601598 181.16024844907224,153.1169541857671 185.4534161509946,148.75330394576304 186.52670807670802,142.83119711023755 186.258385094814,139.7142941141501 184.64844720624387,136.28569710394368 181.96521739289165,134.4155516398605 179.2819875786081,133.16878735506907 173.37888198904693,132.85709620290436 170.4273291938007,133.48047847440466 167.47577639948577,135.03893359052017 162.64596273377538,138.4675320147071 159.42608695663512,140.02598455827683 149.2298136651516,148.44161440129392 146.81490683369339,150.31175118335523 145.47329192608595,153.1169541857671 144.93664596322924,156.54553209641017 145.47329192608595,159.6624177293852 147.08322981465608,162.7793001467362 149.7664596280083,163.40267624566332 151.91304347850382,165.58449157490395 155.13291925564408,165.896179350093 161.03602484520525,165.27280376665294 164.2559006223455,163.7143642459996 175.52546583954245,157.1689094803296 180.62360248621553,153.74033227725886 185.4534161509946,148.75330394576304 186.7950310576707,146.2597866926808 187.6000000005588,142.83119711023755 187.0633540386334,140.02598455827683 185.7217391319573,136.90907866810448 178.208695653826,131.61033127387054 172.03726708237082,132.2337138026487 158.35279503278434,141.27274601417594 153.25465838517994,144.0779574085027 146.54658385086805,150.31175118335523 144.40000000037253,156.23384335637093 145.20496894512326,159.6624177293852 146.81490683369339,162.7793001467362 149.4981366461143,164.9611159262713 152.71801242325455,166.20786709384993 159.15776397567242,166.20786709384993 173.91552795190364,158.4156638623681 184.11180124338716,150.93512985366397 186.258385094814,148.75330394576304 187.0633540386334,145.01302729453892 187.6000000005588,142.20781676797196 185.99006211292,139.09091312880628 179.01366459857672,133.16878735506907 176.06211180239916,132.2337138026487 172.84223602712154,132.2337138026487 169.89068323094398,133.16878735506907 159.69440993852913,139.40260363789275 151.91304347850382,145.01302729453892 144.93664596322924,151.87019761721604 144.40000000037253,154.98708807397634 145.47329192608595,160.5974827921018 147.35155279561877,163.09098821226507 151.64472049754113,166.8312424835749 154.32795031182468,167.4546177459415 160.49937888327986,167.14293013093993 166.67080745473504,164.64942805469036 180.89192546810955,154.0520212748088 185.4534161509946,149.68837238452397 187.0633540386334,146.57147646229714 187.0633540386334,143.76626738277264 184.38012422528118,138.15584140922874 181.42857143003494,137.53246010327712 177.4037267100066,133.16878735506907 174.45217391382903,132.85709620290436 168.54906832333654,134.4155516398605 154.86459627375007,143.14288723282516 152.18136646132916,145.63640705891885 147.35155279561877,149.37668293737806 146.00993788894266,151.87019761721604 144.93664596322924,157.4805981235113 146.00993788894266,159.97410611622036 147.88819875847548,162.15592392208055 153.52298136707395,165.896179350093 156.2062111813575,165.896179350093 159.15776397567242,165.58449157490395 162.64596273377538,164.02605221490376 171.2322981385514,159.6624177293852 179.2819875786081,154.67539917258546 184.11180124338716,150.93512985366397 186.52670807670802,148.44161440129392 187.6000000005588,141.27274601417594 185.99006211292,138.4675320147071 183.84347826242447,135.66231541126035 178.4770186347887,131.61033127387054 175.25714285857975,130.67525724042207 168.54906832333654,133.16878735506907 158.62111801374704,139.40260363789275 148.9614906841889,147.81823521712795 147.08322981465608,150.00006180047058 146.00993788894266,152.8052650920581 145.47329192608595,158.7273523772601 147.08322981465608,161.8442357601598 148.9614906841889,164.02605221490376 151.91304347850382,165.27280376665294 158.08447205089033,165.58449157490395 160.76770186424255,164.64942805469036 163.7192546594888,164.02605221490376 169.0857142880559,161.53254756634124 174.45217391382903,158.4156638623681 184.64844720624387,150.62344053410925" stroke="#fffd00" stroke-linecap="round" stroke-linejoin="round" stroke-width="0.5"><title>2021-02-19 3.1km</title><desc>5958643211</desc></polyline><polyline fill="none" points="22.218181817792356,193.11219922825694 19.132467532530427,194.089772090083 16.327272727154195,196.04491690406576 13.802597403526306,202.23620083229616 13.522077921777964,205.1689100372605 15.48571428656578,211.03432027739473 18.010389611124992,213.6411657766439 21.37662337627262,214.94458771985956 28.38961039017886,215.59629848971963 33.43896103836596,212.0118875906337 35.6831168839708,209.40504074795172 38.488311688415706,207.12404799461365 47.1844155844301,201.91034408612177 52.233766234479845,198.00006050849333 54.477922078222036,195.39320210041478 55.60000000055879,191.80876827705652 55.038961038924754,187.89847219339572 51.39220779296011,182.03301899204962 45.781818182207644,179.10028830729425 42.415584416128695,179.4261474062223 39.610389611683786,179.7520064727869 36.80519480537623,181.3813012978062 29.511688311584294,187.89847219339572 16.046753247268498,198.00006050849333 14.363636364229023,200.60691676451825 13.522077921777964,203.86548406025395 14.083116883412004,210.38260856550187 18.57142857182771,215.922153824009 25.02337662409991,217.2255748261232 27.82857142854482,216.24800912453793 30.633766234852374,214.29287681449205 38.488311688415706,207.77576037705876 43.53766233753413,204.19134060456418 52.233766234479845,197.67420332483016 54.19740259833634,195.06734464806505 55.319480519741774,191.80876827705652 54.19740259833634,185.94332233653404 52.233766234479845,182.68473655264825 49.42857142910361,180.72958346828818 46.34285714291036,179.7520064727869 42.415584416128695,179.4261474062223 39.610389611683786,180.07786550442688 36.52467532455921,181.3813012978062 31.47532467544079,185.94332233653404 15.48571428656578,198.65177477430552 13.802597403526306,201.58448730641976 12.961038962006569,204.84305359306745 13.241558441892266,208.10161651787348 14.644155845046043,211.36017608293332 18.57142857182771,216.24800912453793 25.303896103054285,216.5738643920049 28.38961039017886,215.922153824009 30.91428571473807,214.29287681449205 32.877922078594565,211.6860318533145 35.12207792233676,209.73089671996422 45.781818182207644,202.56205754564144 51.11168831214309,198.32591765769757 53.35584415588528,195.71905951830558 55.038961038924754,192.78634154074825 55.319480519741774,189.52776281628758 53.35584415588528,183.33645397843793 51.11168831214309,180.72958346828818 47.745454545132816,180.07786550442688 41.01298701390624,179.7520064727869 38.207792207598686,181.05544240004383 30.633766234852374,187.24675570894033 22.4987012995407,193.11219922825694 19.693506494164467,194.089772090083 15.20519480574876,198.97763185645454 12.961038962006569,205.49476644722745 13.522077921777964,209.07918474054895 16.607792207971215,214.29287681449205 21.93766233790666,217.551429992076 25.584415584802628,216.5738643920049 32.03636363707483,213.6411657766439 36.80519480537623,209.07918474054895 52.514285715296865,197.67420332483016 54.477922078222036,194.089772090083 55.60000000055879,191.1570525986608 55.038961038924754,187.57261396828108 54.19740259833634,184.31402986473404 52.233766234479845,181.7071601615753 49.70909090992063,179.4261474062223 46.34285714291036,178.7744291748386 42.97662337590009,179.10028830729425 36.80519480537623,180.72958346828818 32.03636363707483,185.2916054490488 16.327272727154195,197.34834610810503 13.522077921777964,203.86548406025395 13.522077921777964,207.12404799461365 14.363636364229023,210.70846443832852 16.327272727154195,213.6411657766439 19.693506494164467,215.27044312120415 22.77922078035772,216.24800912453793 26.145454546436667,216.24800912453793 29.231168831698596,214.94458771985956 34.28051948081702,210.70846443832852 48.025974025949836,200.60691676451825 53.6363636367023,195.71905951830558 55.319480519741774,192.46048381947912 55.319480519741774,188.55018854280934 51.953246753662825,182.68473655264825 49.14805194828659,181.3813012978062 42.415584416128695,179.7520064727869 39.04935064911842,180.4037245027721 36.244155844673514,181.7071601615753 28.670129870064557,188.22433038498275 16.046753247268498,198.32591765769757 14.363636364229023,200.93277364573441 12.961038962006569,203.53962748148479 12.680519480258226,206.7981917511206 13.522077921777964,209.73089671996422 15.20519480574876,212.33774329535663 17.449350649490952,214.61873228405602 23.340259741060436,216.5738643920049 26.425974026322365,216.5738643920049 29.511688311584294,215.27044312120415 31.755844155326486,212.66359896655194 34.56103896163404,210.38260856550187 39.610389611683786,207.12404799461365 42.135064935311675,205.1689100372605 44.94025974068791,203.53962748148479 52.514285715296865,197.67420332483016 54.19740259833634,195.06734464806505 54.758441559039056,191.80876827705652 54.477922078222036,188.8760466678068 52.233766234479845,182.03301899204962 46.34285714291036,179.7520064727869 43.25714285764843,179.4261474062223 39.329870130866766,180.07786550442688 29.231168831698596,188.22433038498275 23.340259741060436,191.80876827705652 15.766233765520155,198.32591765769757 13.802597403526306,200.93277364573441 12.680519480258226,204.51719711511396 12.400000000372529,207.77576037705876 15.48571428656578,213.9670213125646 18.010389611124992,216.5738643920049 24.46233766246587,217.551429992076 27.82857142854482,216.5738643920049 30.633766234852374,214.61873228405602 35.6831168839708,209.73089671996422 38.488311688415706,208.10161651787348 51.39220779296011,198.00006050849333 53.6363636367023,195.39320210041478 54.758441559039056,192.13462606514804 54.477922078222036,185.94332233653404 53.35584415588528,183.01059528253973 48.025974025949836,178.44857000769116 41.57402597460896,179.10028830729425 38.488311688415706,180.07786550442688 22.77922078035772,192.13462606514804 15.20519480574876,198.97763185645454 13.522077921777964,201.91034408612177 12.680519480258226,205.1689100372605 12.680519480258226,208.10161651787348 13.522077921777964,211.36017608293332 15.48571428656578,214.29287681449205 18.29090909101069,216.24800912453793 21.93766233790666,216.89971962594427 25.303896103054285,217.2255748261232 28.10909090936184,215.922153824009 31.19480519462377,213.9670213125646 41.01298701390624,205.1689100372605 46.062337663024664,201.91034408612177 51.39220779296011,197.34834610810503" stroke="#fffd00" stroke-linecap="round" stroke-linejoin="round" stroke-width="0.5"><title>2021-02-03 3.1km</title><desc>5958643285</desc></polyline><polyline fill="none" points="86.2545454557985,194.41562927374616 80.92467532586306,198.9776319579687 79.24155844189227,201.91034449008293 78.40000000037253,205.49476722092368 78.68051948212087,208.42747370153666 80.36363636516035,211.0343216219917 84.85194805264473,215.9221556733828 87.93766233790666,216.89972157566808 94.10909091122448,215.9221556733828 96.91428571473807,214.2928784962278 101.6831168839708,209.7308979316149 117.95324675459415,198.65177484136075 121.3194805206731,193.11219872441143 121.6000000005588,189.85361999995075 119.6363636367023,183.3364524662029 117.11168831307441,181.05544065195136 114.30649350676686,179.42614549095742 110.9402597406879,178.44856799021363 107.85454545542598,179.10028635850176 104.76883116923273,180.40372268809006 99.7194805201143,184.31402845261618 97.19480519648641,185.9433210932184 95.51168831344694,188.55018756864592 90.4623376633972,191.80876763747074 80.64415584504604,199.9552031045314 79.52207792364061,202.56205801595934 78.96103896200657,205.82062363089062 79.52207792364061,209.07918588351458 81.20519480668008,212.33774477429688 85.69350649416447,216.89972157566808 88.7792207794264,217.55143200978637 92.42597402725369,216.89972157566808 95.2311688316986,215.59630030486733 103.36623376701027,208.42747370153666 116.55064935144037,198.9776319579687 118.79480519611388,196.696631439263 119.91688311751932,193.76391406566836 121.3194805206731,191.15705189318396 121.3194805206731,187.5726128926035 117.39220779296011,182.68473497242667 114.58701298758388,180.72958168643527 108.41558441706002,179.10028635850176 102.24415584560484,181.70715848146938 96.91428571473807,185.9433210932184 94.9506493518129,188.55018756864592 84.01038961112499,196.696631439263 79.8025974035263,201.91034449008293 79.24155844189227,205.16891077673063 79.24155844189227,208.42747370153666 80.083116883412,211.3601774610579 82.04675324819982,213.96702296030708 84.85194805264473,215.9221556733828 88.218181819655,216.89972157566808 91.30389610491693,216.89972157566808 94.38961039017886,215.9221556733828 103.92727272771299,207.44990517827682 109.81818181928247,203.86548466514796 114.58701298758388,200.2810600856319 116.83116883132607,198.3259176921565 118.79480519611388,195.71905928407796 120.47792207822204,193.11219872441143 121.3194805206731,189.52776194224134 121.03896103985608,186.59503791294992 119.91688311751932,183.6623111621011 117.67272727377713,181.70715848146938 114.58701298758388,180.07786365645006 111.22077922150493,179.10028635850176 107.57402597554028,179.42614549095742 104.48831168934703,180.40372268809006 86.5350649356842,194.08977168635465 82.04675324819982,198.3259176921565 80.36363636516035,201.2586308293976 79.52207792364061,204.19134124391712 79.52207792364061,207.44990517827682 80.36363636516035,210.70846574916504 82.04675324819982,213.3153117869515 84.29090909194201,215.59630030486733 87.65714285895228,216.24801100767218 93.82857142947614,216.5738663082011 96.63376623485237,214.2928784962278 103.92727272771299,207.77576138614677 112.34285714384168,201.91034449008293 119.91688311751932,195.0673443453852 121.3194805206731,188.55018756864592 121.03896103985608,185.29160413821228 119.0753246769309,182.68473497242667 113.18441558629274,179.75200458988547 106.73246753402054,179.75200458988547 103.64675324875861,181.05544065195136 88.218181819655,192.46048324881122 81.20519480668008,198.65177484136075 79.8025974035263,201.91034449008293 79.24155844189227,205.49476722092368 79.24155844189227,209.07918588351458 80.92467532586306,212.01188903697766 83.44935065042228,214.2928784962278 85.97402597591281,215.9221556733828 89.34025974199176,216.5738663082011 92.42597402725369,216.24801100767218 95.2311688316986,214.9445894677192 105.61038961075246,206.4723363504745 108.135064936243,205.16891077673063 118.79480519611388,197.34834604081698 120.47792207822204,194.08977168635465 121.03896103985608,190.83119396981783 120.75844155997038,187.2467545995023 116.55064935144037,181.70715848146938 113.74545454606414,180.07786365645006 110.37922077998519,178.77442719135433 106.73246753402054,178.77442719135433 103.92727272771299,180.07786365645006 93.54805194865912,188.55018756864592 90.74285714421421,190.17947802389972 81.20519480668008,198.3259176921565 79.24155844189227,200.93277394818142 78.68051948212087,203.86548466514796 78.40000000037253,210.0567539036274 80.64415584504604,212.6636004790198 83.16883116960526,214.61873399815522 85.97402597591281,216.24801100767218 92.42597402725369,216.24801100767218 95.2311688316986,215.27044490352273 98.31688311696053,213.3153117869515 100.28051948174834,210.70846574916504 105.04935065004975,206.4723363504745 115.70909090992063,199.6293460887391 119.91688311751932,195.39320183172822 120.75844155997038,192.46048324881122 120.75844155997038,188.8760457264725 120.19740259833634,185.61746263271198 118.23376623354852,183.3364524662029 112.6233766246587,180.07786365645006 109.53766233753413,179.75200458988547 105.8909090925008,180.07786365645006 102.80519480630755,181.381299583707 81.7662337673828,198.00006050849333 79.52207792364061,200.60691703413613 78.40000000037253,203.86548466514796 78.40000000037253,207.1240489347838 79.52207792364061,210.38260984350927 84.01038961112499,214.9445894677192 90.4623376633972,215.9221556733828 93.54805194865912,215.59630030486733 96.35324675496668,214.2928784962278 98.59740259870887,211.6860332665965 103.64675324875861,207.44990517827682 107.01298701390624,206.1464800068643 112.34285714384168,202.56205801595934 120.19740259833634,195.71905928407796 121.03896103985608,192.7863410031423 121.3194805206731,189.52776194224134 121.03896103985608,186.59503791294992 119.0753246769309,183.6623111621011 116.83116883132607,181.05544065195136 113.74545454606414,179.42614549095742 110.09870129916817,179.10028635850176 107.01298701390624,179.10028635850176 103.92727272771299,180.07786365645006 101.40259740315378,181.70715848146938 88.7792207794264,192.7863410031423 80.36363636516035,198.9776319579687 79.24155844189227,202.23620126978494 79.52207792364061,208.75332980998792 81.20519480668008,212.01188903697766 83.16883116960526,214.2928784962278 89.34025974199176,216.89972157566808 95.79220779333264,214.61873399815522 103.36623376701027,207.44990517827682 106.17142857331783,206.4723363504745 117.11168831307441,198.9776319579687 119.3558441568166,196.37077408772893 120.75844155997038,193.43805641192012" stroke="#fffd00" stroke-linecap="round" stroke-linejoin="round" stroke-width="0.5"><title>2021-02-02 3.1km</title><desc>5958643137</desc></polyline><polyline fill="none" points="153.65714285615832,188.3872599520255 148.04675324540585,197.18541479343548 145.52207792177796,203.37669425085187 145.80259740166366,206.3094013382215 148.6077922070399,208.916249795584 150.5714285708964,211.84895173902623 153.37662337720394,213.80408485559747 157.58441558293998,213.47822941979393 164.03636363521218,212.1748073429335 170.2077922075987,209.89381741313264 181.1480519482866,202.3991246172227 183.39220779202878,199.79227078147233 185.916883116588,198.16298604081385 187.59999999962747,195.23027139133774 187.59999999962747,191.97169636399485 187.59999999962747,188.71311797597446 186.1974025964737,185.78039455157705 184.23376623354852,183.17352700047195 178.06233766209334,180.24079843354411 174.9766233759001,179.91493953578174 168.8051948044449,181.2183749245014 161.79220779147,187.73554380354472 156.46233766246587,190.99412320088595 148.8883116878569,196.85955764423124 146.3636363632977,199.46641390025616 145.24155844189227,202.72498119599186 145.24155844189227,206.3094013382215 146.083116883412,209.56796157406643 147.76623376645148,212.5006629123818 157.0233766231686,215.10750626027584 160.67012987006456,214.12994025694206 163.19480519462377,212.82651844830252 165.43896103836596,210.5455289890524 171.04935064911842,205.98354513035156 176.37922077905387,202.72498119599186 183.95324675180018,196.85955764423124 185.35584415495396,194.2526992361527 186.47792207822204,191.31998095521703 186.1974025964737,188.06140189431608 185.35584415495396,184.80281947227195 183.39220779202878,182.19595111417584 180.58701298665255,181.54423368838616 177.2207792205736,179.91493953578174 174.13506493531168,179.26322163851 171.04935064911842,179.5890806040261 167.9636363638565,180.89251612778753 165.71948051825166,183.17352700047195 160.38961038924754,186.75796932913363 155.62077922094613,191.64583867648616 147.48571428563446,196.85955764423124 145.52207792177796,199.79227078147233 144.96103896014392,202.72498119599186 145.80259740166366,209.89381741313264 148.3272727271542,212.5006629123818 150.2909090910107,215.10750626027584 153.65714285615832,216.41092712781392 157.3038961039856,217.0626373598352 160.67012987006456,216.0850719618611 164.87792207673192,211.19724043109454 183.39220779202878,196.20784324384294 185.07532467506826,192.9492692258209 185.916883116588,190.01654973439872 184.51428571436554,187.08382752072066 180.86753246653825,181.87009241827764 178.34285714291036,179.91493953578174 171.32987012900412,180.5666572973132 168.5246753245592,180.24079843354411 161.5116883115843,186.75796932913363 158.42597402632236,188.71311797597446 148.3272727271542,196.85955764423124 145.52207792177796,202.72498119599186 145.24155844189227,205.98354513035156 146.083116883412,209.56796157406643 151.13246753253043,213.80408485559747 157.0233766231686,215.75921676168218 160.10909090843052,215.10750626027584 169.64675324596465,206.63525751279667 177.2207792205736,202.07326800585724 184.23376623354852,195.55612870887853 185.63636363577098,192.6234116384294 185.916883116588,189.03897596569732 185.63636363577098,186.10625284467824 183.95324675180018,183.49938556132838 181.4285714281723,181.54423368838616 179.74545454606414,178.9373626401648 173.0129870120436,179.26322163851 169.92727272678167,179.91493953578174 167.40259740222245,181.2183749245014 165.15844155848026,183.82524409028701 151.97402597405016,194.2526992361527 149.16883116867393,195.55612870887853 146.92467532493174,198.16298604081385 145.24155844189227,201.09569796803407 144.68051948025823,204.0284071729984 145.80259740166366,210.5455289890524 147.76623376645148,213.47822941979393 151.13246753253043,214.7816509597469 157.58441558293998,215.75921676168218 160.67012987006456,215.10750626027584 162.91428571473807,213.15237395022996 164.87792207673192,210.87138472637162 169.64675324596465,206.63525751279667 182.83116883132607,197.18541479343548 185.07532467506826,194.5785566540435 185.916883116588,191.64583867648616 186.47792207822204,188.71311797597446 186.1974025964737,185.78039455157705 184.51428571436554,182.5218097763136 181.98961038980633,180.89251612778753 179.74545454606414,178.9373626401648 176.94025973975658,179.5890806040261 173.29350649379194,179.26322163851 170.48831168748438,179.5890806040261 147.48571428563446,197.51127191004343 145.80259740166366,200.1181276284624 144.40000000037253,202.72498119599186 144.68051948025823,205.98354513035156 145.24155844189227,209.24210570123978 147.20519480481744,211.84895173902623 149.44935064855963,213.80408485559747 155.90129870083183,214.7816509597469 158.70649350620806,213.80408485559747 161.79220779147,213.80408485559747 166.2805194798857,208.26453788368963 168.8051948044449,206.3094013382215 171.89090909156948,205.33183261123486 177.2207792205736,202.07326800585724 185.07532467506826,195.8819859928917 186.1974025964737,192.6234116384294 185.916883116588,189.36483392189257 185.35584415495396,186.10625284467824 183.6727272728458,182.84766840469092 180.86753246653825,180.24079843354411 177.78181818127632,178.9373626401648 174.13506493531168,178.9373626401648 171.04935064911842,179.5890806040261 148.04675324540585,196.85955764423124 146.083116883412,199.46641390025616 144.68051948025823,202.3991246172227 144.40000000037253,205.65768888685852 146.3636363632977,211.52309610228986 152.25454545393586,215.75921676168218 155.3402597391978,214.45579562545754 158.42597402632236,215.10750626027584 161.5116883115843,213.47822941979393 164.31688311696053,211.19724043109454 169.92727272678167,205.33183261123486 176.09870129823685,202.72498119599186 184.23376623354852,196.53370046056807 185.916883116588,193.27512677875347 187.03896103892475,190.01654973439872 182.27012986969203,181.2183749245014 179.74545454606414,179.91493953578174 176.94025973975658,178.9373626401648 170.48831168748438,179.91493953578174 167.40259740222245,181.54423368838616 162.07272727321833,186.432111104019 146.64415584411472,198.48884305660613 145.24155844189227,201.42155468137935 144.96103896014392,204.68011995893903 145.52207792177796,207.93868187628686 147.20519480481744,210.5455289890524 148.3272727271542,213.80408485559747 151.13246753253043,215.43336152774282 157.58441558293998,216.0850719618611 160.95064934995025,214.12994025694206 165.71948051825166,209.24210570123978 170.7688311683014,205.00597630254924 176.65974025893956,202.07326800585724 183.95324675180018,195.8819859928917" stroke="#ffff00" stroke-linecap="round" stroke-linejoin="round" stroke-width="0.5"><title>2021-02-01 3.1km</title><desc>5958643201</desc></polyline><polyline fill="none" points="24.851764706894755,238.9155260694679 18.24470588285476,244.52411133726127 16.46588235348463,246.88561763451435 14.941176471300423,249.24712198320776 14.687058825045824,251.9038120454643 14.941176471300423,254.5604996420443 15.703529412858188,257.2171847708523 17.482352942228317,259.5786805932876 22.31058823503554,262.53054763027467 25.61411764845252,263.1209206727799 28.409411765635014,262.2353610638529 36.54117647185922,258.9883068203926 48.99294117745012,248.95193404634483 51.788235294632614,247.47599390451796 53.56705882400274,244.81929973093793 54.58352941274643,238.9155260694679 53.821176471188664,236.258823947981 52.04235294088721,233.89730887976475 44.6729411771521,230.05984273762442 41.877647059969604,230.05984273762442 39.08235294185579,230.94541230495088 36.54117647185922,232.42136097350158 34.0,234.48768783034757 31.204705882817507,235.3732560253702 18.49882353004068,243.93373445770703 16.21176470723003,246.00005300156772 14.687058825045824,248.95193404634483 13.924705883488059,254.5604996420443 14.941176471300423,257.2171847708523 18.49882353004068,261.3498011813499 24.343529413454235,263.1209206727799 27.39294117782265,262.8257341666613 32.47529411781579,260.46424102410674 52.550588235259056,247.18080578441732 54.329411764629185,245.11448809411377 54.837647058069706,242.16260309051722 54.837647058069706,239.5059039837215 52.8047058833763,233.89730887976475 50.517647058703005,231.83098159683868 47.72235294152051,230.65022248006426 42.1317647062242,229.4694628752768 36.79529411718249,232.42136097350158 34.762352941557765,234.1924983705394 24.59764705877751,240.09628177573904 17.482352942228317,245.40967642725445 15.449411765672266,247.47599390451796 14.178823529742658,250.132685611723 14.178823529742658,253.0845623924397 14.687058825045824,256.33162333630025 15.957647059112787,258.9883068203926 17.990588235668838,261.3498011813499 23.83529411815107,263.41610714793205 27.138823530636728,263.1209206727799 29.93411764781922,262.53054763027467 38.0658823531121,258.10274593369104 52.29647058900446,247.7711819934193 54.58352941274643,245.40967642725445 55.60000000055879,239.5059039837215 53.31294117681682,234.48768783034757 51.53411764744669,231.83098159683868 46.451764706522226,229.4694628752768 43.40235294122249,229.4694628752768 37.30352941341698,231.24060209910385 25.61411764845252,238.9155260694679 16.720000000670552,246.00005300156772 14.687058825045824,248.06637005275115 12.400000000372529,253.37974990392104 15.703529412858188,258.9883068203926 20.27764705941081,262.2353610638529 23.581176470965147,263.1209206727799 29.425882353447378,262.8257341666613 37.30352941341698,258.3979329257272 52.04235294088721,248.06637005275115 54.075294118374586,245.70486472942866 55.345882354304194,243.34335745754652 55.345882354304194,240.39147062739357 53.31294117681682,234.78287725918926 48.48470588307828,230.94541230495088 42.89411764778197,230.05984273762442 37.55764705874026,231.24060209910385 34.50823529437184,232.71655061561614 32.22117647062987,235.07806665776297 17.482352942228317,244.81929973093793 15.449411765672266,247.18080578441732 14.43294117692858,249.54230988956988 13.924705883488059,252.78937485208735 14.178823529742658,255.7412488926202 15.449411765672266,258.3979329257272 17.482352942228317,260.7594277730677 20.02352941222489,262.2353610638529 23.072941176593304,263.1209206727799 26.12235294189304,263.1209206727799 34.254117648117244,259.5786805932876 46.197647059336305,251.9038120454643 51.28000000119209,248.06637005275115 53.31294117681682,246.00005300156772 54.58352941274643,243.04816891113296 54.58352941274643,240.09628177573904 52.550588235259056,234.78287725918926 50.517647058703005,232.42136097350158 47.976470588706434,230.65022248006426 41.877647059969604,229.17427289742045 34.0,233.89730887976475 29.93411764781922,237.43958075041883 17.73647058941424,245.40967642725445 15.957647059112787,247.47599390451796 14.941176471300423,250.132685611723 13.924705883488059,255.44606162584387 15.195294118486345,257.8075589099899 19.515294117853045,261.6449878390413 22.056470589712262,262.8257341666613 25.105882354080677,263.1209206727799 27.64705882407725,262.53054763027467 41.877647059969604,253.97012483305298 48.7388235302642,249.24712198320776 50.77176470588893,247.18080578441732 52.29647058900446,244.81929973093793 51.788235294632614,235.96363467071205 47.46823529433459,232.12617130042054 44.418823529966176,231.83098159683868 41.877647059969604,230.35503262421116 38.574117647483945,230.65022248006426 36.03294117748737,231.83098159683868 28.917647059075534,236.8492024105508 26.884705883450806,238.9155260694679 16.974117648787796,244.81929973093793 14.941176471300423,247.18080578441732 13.924705883488059,249.54230988956988 13.416470590047538,252.1989996782504 13.670588235370815,255.44606162584387 14.941176471300423,257.8075589099899 16.720000000670552,259.8738674346823 19.261176471598446,261.6449878390413 22.564705883152783,262.53054763027467 28.15529411751777,261.94017446693033 32.729411765001714,258.69311988772824 38.32000000029802,256.62681051087566 52.550588235259056,247.18080578441732 54.837647058069706,242.16260309051722 54.58352941274643,235.66844536340795 51.53411764744669,230.65022248006426 45.43529411870986,229.76465282170102 42.89411764778197,228.58389285230078 40.098823530599475,228.58389285230078 37.55764705874026,229.17427289742045 25.61411764845252,238.6203370669391 16.21176470723003,245.11448809411377 14.43294117692858,247.47599390451796 13.416470590047538,249.837497765664 12.90823529381305,252.78937485208735 13.924705883488059,255.7412488926202 15.703529412858188,258.3979329257272 17.73647058941424,260.46424102410674 23.581176470965147,262.53054763027467 31.967058824375272,259.5786805932876" stroke="#fffc00" stroke-linecap="round" stroke-linejoin="round" stroke-width="0.5"><title>2021-01-28 3.1km</title><desc>5958643208</desc></polyline><polyline fill="none" points="78.95031847059727,252.07303339778446 78.6751592354849,255.26933177933097 79.50063694268465,258.14599750190973 81.70191082824022,261.0226605546195 83.90318471379578,262.6208055408206 86.92993630561978,264.218949703034 89.6815286623314,264.85820713755675 92.98343948926777,264.53857843670994 95.45987261086702,261.9815476452932 98.48662420269102,260.7030314588919 102.88917197473347,256.2282206492964 106.19108280260116,254.94970208825544 108.94267515931278,253.3515531460289 111.41910827998072,250.79451312241144 119.6738853501156,245.68042674427852 121.32484076358378,243.12338038929738 121.59999999962747,239.9270694782026 121.32484076358378,236.41112366877496 120.22420382127166,233.2148058328312 118.02292993664742,230.97738138656132 115.54649681504816,229.37922007846646 112.24458598718047,228.73995532398112 109.49299362953752,227.14179286221042 103.43949044588953,228.73995532398112 100.41273885406554,230.33811696222983 96.0101910829544,234.49333336320706 88.30573248304427,239.9270694782026 81.15159235708416,246.0000573899597 79.50063694268465,248.23747098795138 78.40000000037253,254.3104426106438 80.3261146498844,260.3834023291711 82.52738853450865,262.6208055408206 89.40636942721903,263.8993209367618 92.43312101904303,261.9815476452932 95.73503184691072,261.3422896184493 98.48662420269102,259.1048854836263 103.98980891611427,256.5478502078913 110.86878980882466,250.79451312241144 116.64713375736028,247.9178405732382 119.3987261140719,245.68042674427852 120.77452229335904,243.12338038929738 120.49936305638403,239.28780690091662 121.04968152847141,236.09149203379638 117.74777070060372,230.97738138656132 114.44585987273604,228.73995532398112 107.84203821700066,227.14179286221042 104.26496815308928,227.7810579459183 85.55414012726396,241.52522534620948 83.07770700659603,243.76264217612334 81.15159235708416,246.31968800304458 79.50063694268465,249.19636203581467 78.95031847059727,252.39266338385642 79.22547770757228,255.5889614354819 80.60127388499677,258.78525618906133 82.52738853450865,261.6619186482858 85.55414012726396,263.5796921374276 91.88280254788697,264.218949703034 97.93630573246628,261.9815476452932 100.41273885406554,259.42451474489644 101.78853503149003,256.5478502078913 104.26496815308928,254.3104426106438 106.19108280260116,252.07303339778446 108.66751592233777,250.47488297033124 111.96942675113678,249.51599231897853 114.44585987273604,247.9178405732382 117.47261146456003,247.59821012453176 119.94904458615929,245.68042674427852 119.94904458615929,235.7718603652902 118.84840764198452,232.89517386839725 116.37197452224791,230.65774919092655 110.0433121016249,229.0595877172891 107.29171974491328,228.10069043794647 101.23821656033397,229.69885240634903 94.08407643344253,235.7718603652902 88.30573248304427,239.607438206207 81.15159235708416,245.36079606506974 79.22547770757228,248.23747098795138 79.22547770757228,254.94970208825544 81.42675159219652,260.3834023291711 83.90318471379578,262.6208055408206 89.95668789744377,264.85820713755675 94.90955414064229,261.3422896184493 101.78853503149003,258.14599750190973 103.7146496810019,255.90859105903655 112.24458598718047,251.43377332598902 114.17070063576102,248.87673171935603 119.3987261140719,245.68042674427852 120.49936305638403,242.8037494472228 119.94904458615929,236.09149203379638 116.09681528713554,231.2970135495998 113.07006369438022,230.01848470093682 111.41910827998072,227.14179286221042 101.51337579637766,228.73995532398112 98.76178343966603,230.65774919092655 94.3592356685549,235.13259693002328 83.90318471379578,242.8037494472228 80.3261146498844,247.59821012453176 79.77579617779702,250.47488297033124 79.77579617779702,253.99081282131374 80.3261146498844,257.18710922426544 81.42675159219652,259.7441439719405 83.90318471379578,261.9815476452932 87.20509554166347,262.6208055408206 90.23184713441879,262.6208055408206 96.28535031806678,261.3422896184493 102.33885350171477,256.5478502078913 116.64713375736028,248.23747098795138 119.12356687895954,246.31968800304458 120.49936305638403,242.8037494472228 120.49936305638403,239.607438206207 119.94904458615929,236.7307552706916 117.74777070060372,230.97738138656132 114.7210191078484,229.37922007846646 111.14394904393703,229.0595877172891 107.84203821700066,227.7810579459183 104.81528662331402,228.42032289807685 102.06369426753372,229.69885240634903 97.3859872603789,234.17370153032243 92.15796178393066,237.68964987900108 82.80254776962101,245.04116535326466 80.60127388499677,247.27857964392751 79.22547770757228,250.47488297033124 78.95031847059727,253.6711830003187 79.50063694268465,259.7441439719405 81.15159235708416,262.3011766090058 84.17834394890815,263.8993209367618 87.75541401281953,264.53857843670994 90.50700636953115,264.53857843670994 93.80891719646752,263.8993209367618 96.56050955411047,261.6619186482858 100.6878980891779,256.8674797322601 108.11719745211303,251.43377332598902 110.86878980882466,248.87673171935603 113.89554140064865,247.27857964392751 118.57324840687215,243.44301129947416 120.22420382127166,240.8859630979132 121.04968152847141,234.49333336320706 119.6738853501156,231.61664567957632 116.64713375736028,230.33811696222983 109.49299362953752,229.0595877172891 106.46624203771353,228.73995532398112 103.7146496810019,229.37922007846646 100.41273885406554,230.97738138656132 98.48662420269102,232.89517386839725 97.11082802526653,235.45222866395488 83.90318471379578,244.40190383070149 81.70191082824022,246.31968800304458 79.77579617779702,248.87673171935603 78.6751592354849,251.43377332598902 78.95031847059727,254.63007236574776 79.22547770757228,257.8263681086246 80.60127388499677,261.0226605546195 83.07770700659603,262.3011766090058 86.37961783446372,263.2600633047987 92.7082802541554,263.5796921374276 95.18471337575465,261.0226605546195 103.98980891611427,254.63007236574776 111.96942675113678,249.83562256931327 115.27133757993579,248.55710137053393 117.47261146456003,246.63931858260185 119.94904458615929,239.607438206207 120.49936305638403,236.41112366877496 118.84840764198452,230.33811696222983 115.82165605016053,228.42032289807685 112.51974522322416,228.10069043794647 105.91592356655747,227.7810579459183 103.16433120891452,228.73995532398112 96.28535031806678,236.09149203379638 83.90318471379578,246.0000573899597 81.70191082824022,247.9178405732382 79.77579617779702,250.15525278635323 78.6751592354849,256.5478502078913 81.42675159219652,261.9815476452932 83.90318471379578,263.5796921374276 86.92993630561978,264.85820713755675 90.23184713441879,264.85820713755675 93.53375796228647,264.218949703034 96.83566879015416,261.3422896184493 102.33885350171477,254.3104426106438 108.11719745211303,252.39266338385642 118.02292993664742,243.76264217612334" stroke="#fffd00" stroke-linecap="round" stroke-linejoin="round" stroke-width="0.5"><title>2021-01-26 3.1km</title><desc>5958643221</desc></polyline><polyline fill="none" points="146.97483443655074,253.47750249691308 145.54437085986137,256.1361442906782 146.402649005875,259.79177317605354 148.11920529790223,262.7827391780447 150.9801324494183,264.44438575720415 157.8463576156646,262.45040975906886 160.99337748251855,262.45040975906886 184.45298013091087,245.5015639483463 186.45562913827598,242.51058190106414 187.59999999962747,239.51959707820788 187.02781457081437,236.52860947698355 185.59735099226236,233.5376190992538 181.30596026405692,229.2172947616782 178.15894039720297,227.55563001218252 174.72582781501114,227.2232969601173 171.57880794629455,228.22029601503164 152.9827814567834,241.84591884794645 148.11920529790223,245.83389511564746 146.11655629053712,248.16021232539788 144.97218543104827,251.15118912700564 144.68609271384776,254.4744934265036 146.402649005875,260.7887621524278 148.69139072671533,262.7827391780447 151.83841059543192,264.44438575720415 155.27152317762375,264.77671497059055 161.85165562853217,263.7797272289172 167.00132450275123,258.4624540612567 172.15099337883294,254.4744934265036 174.72582781501114,251.81585026113316 185.31125827878714,243.83990759844892 187.02781457081437,240.84892400866374 187.3139072842896,237.52560565248132 187.3139072842896,234.202283867402 186.45562913827598,230.87895865458995 184.45298013091087,228.55262896534987 181.5920529793948,226.89096387219615 178.15894039720297,226.5586307514459 171.57880794629455,227.55563001218252 168.71788079477847,229.2172947616782 164.42649006657302,233.5376190992538 151.5523178819567,242.84291337733157 146.97483443655074,248.16021232539788 145.54437085986137,250.81885850825347 144.97218543104827,254.4744934265036 145.25827814638615,257.79779429826885 146.6887417230755,261.45342129841447 148.97748344391584,263.11506856326014 151.83841059543192,264.44438575720415 161.85165562853217,263.44739791285247 164.7125827819109,261.785750819603 168.71788079477847,256.80080439709127 182.4503311254084,247.16321944072843 185.02516556344926,244.83690151106566 186.74172185361385,241.84591884794645 187.59999999962747,238.52260151924565 186.74172185361385,232.20828915038146 184.45298013091087,229.88196042133495 181.87814569473267,227.88796303025447 175.58410595916212,226.22629759646952 169.2900662254542,227.88796303025447 162.42384105920792,234.5346161997877 147.54701986722648,246.16622624802403 145.8304635770619,248.82487407675944 144.97218543104827,251.81585026113316 144.97218543104827,254.80682366760448 145.54437085986137,258.1301241973415 147.54701986722648,260.7887621524278 149.54966887272894,263.11506856326014 152.69668874144554,262.7827391780447 154.41324503161013,265.7737024035305 157.8463576156646,265.7737024035305 160.99337748251855,264.11205651029013 163.5682119205594,262.1180803065654 170.43443708494306,254.4744934265036 175.29801324382424,250.48652785550803 183.88079470209777,245.16923274705186 186.1695364229381,242.84291337733157 187.02781457081437,239.51959707820788 187.3139072842896,235.86394518846646 186.45562913827598,232.20828915038146 184.45298013091087,229.88196042133495 178.7311258278787,226.5586307514459 172.15099337883294,227.2232969601173 168.71788079477847,228.22029601503164 161.5655629131943,235.19928076327778 146.402649005875,246.49855734710582 144.68609271384776,249.82186644664034 144.40000000037253,253.14517211844213 145.25827814638615,256.46847436157987 146.402649005875,259.45944344997406 148.4052980132401,262.45040975906886 151.26622516475618,264.11205651029013 154.41324503161013,264.77671497059055 161.5655629131943,262.1180803065654 171.86490066163242,253.47750249691308 174.1536423843354,250.48652785550803 182.16423841193318,246.16622624802403 184.7390728481114,244.17223893711343 186.45562913827598,241.51358726853505 187.59999999962747,238.19026959734038 187.59999999962747,234.86694849887863 183.5947019867599,228.8849618807435 180.16158940456808,228.55262896534987 177.58675496652722,226.89096387219615 171.00662251748145,227.88796303025447 168.4317880794406,229.2172947616782 160.99337748251855,235.86394518846646 145.8304635770619,246.83088841103017 144.68609271384776,250.154197167838 144.40000000037253,256.80080439709127 145.8304635770619,259.45944344997406 147.54701986722648,261.785750819603 150.12185430526733,263.7797272289172 157.56026490032673,263.44739791285247 160.70728476718068,262.45040975906886 163.5682119205594,260.7887621524278 166.14304635860026,258.1301241973415 168.71788079477847,256.46847436157987 170.72052980028093,253.80983284045942 173.86754966899753,253.80983284045942 175.8701986745,251.15118912700564 178.44503311254084,249.48953569098376 184.45298013091087,246.83088841103017 186.45562913827598,243.50757622509263 187.02781457081437,240.18426061142236 186.74172185361385,237.19327362813056 186.1695364229381,234.202283867402 184.45298013091087,231.54362397058867 178.7311258278787,227.2232969601173 175.58410595916212,226.89096387219615 172.72317880764604,227.2232969601173 169.2900662254542,228.8849618807435 161.5655629131943,235.53161299298517 148.69139072671533,244.83690151106566 146.402649005875,247.16321944072843 145.25827814638615,250.154197167838 144.40000000037253,253.47750249691308 144.68609271384776,256.80080439709127 148.11920529790223,262.45040975906886 154.41324503161013,264.44438575720415 157.8463576156646,264.44438575720415 160.99337748251855,264.11205651029013 167.2874172180891,257.1331343986094 169.8622516542673,255.13915387634188 175.58410595916212,251.81585026113316 183.30860927142203,246.16622624802403 185.31125827878714,243.83990759844892 186.45562913827598,233.86995149985887 182.73642384074628,228.55262896534987 173.0092715229839,226.5586307514459 169.57615894079208,227.88796303025447 162.42384105920792,234.5346161997877 154.1271523181349,240.18426061142236 146.97483443655074,246.83088841103017 145.25827814638615,249.82186644664034 144.68609271384776,253.14517211844213 144.68609271384776,256.80080439709127 147.83311258256435,262.1180803065654 150.69403973594308,264.11205651029013 153.84105960279703,264.77671497059055 161.5655629131943,263.11506856326014 168.71788079477847,256.46847436157987 174.1536423843354,253.14517211844213 179.0172185432166,249.48953569098376 181.5920529793948,246.83088841103017 184.16688741743565,245.16923274705186 186.1695364229381,242.17825039173476 187.02781457081437,238.85493340622634 186.74172185361385,232.5406216897536 184.7390728481114,230.21429320028983 175.29801324382424,226.22629759646952 169.0039735082537,228.22029601503164 164.1403973493725,232.5406216897536" stroke="#fffb00" stroke-linecap="round" stroke-linejoin="round" stroke-width="0.5"><title>2021-01-25 3.2km</title><desc>5958643210</desc></polyline></svg>