<?xml version="1.0" encoding="utf-8" ?>
<svg baseProfile="full" height="300mm" version="1.1" viewBox="0,0,200,300" width="200mm" xmlns="http://www.w3.org/2000/svg" xmlns:ev="http://www.w3.org/2001/xml-events" xmlns:xlink="http://www.w3.org/1999/xlink"><defs /><rect fill="#222222" height="300" width="200" x="0" y="0" /><text fill="#FFFFFF" style="font-size:12px; font-family:Arial; font-weight:bold;" x="10" y="20">Over 3km Runs</text><text fill="#FFFFFF" style="font-size:4px; font-family:Arial" x="10" y="280">ATHLETE</text><text fill="#FFFFFF" style="font-size:9px; font-family:Arial" x="10" y="290">Licardo</text><text fill="#FFFFFF" style="font-size:4px; font-family:Arial" x="120" y="280">STATISTICS</text><text fill="#FFFFFF" style="font-size:3px; font-family:Arial" x="120" y="285">Number: 4</text><text fill="#FFFFFF" style="font-size:3px; font-family:Arial" x="120" y="290">Weekly: 4.0</text><text fill="#FFFFFF" style="font-size:3px; font-family:Arial" x="141" y="285">Total: 12.3 km</text><text fill="#FFFFFF" style="font-size:3px; font-family:Arial" x="141" y="290">Avg: 3.1 km</text><text fill="#FFFFFF" style="font-size:3px; font-family:Arial" x="167" y="285">Min: 3.0 km</text><text fill="#FFFFFF" style="font-size:3px; font-family:Arial" x="167" y="290">Max: 3.1 km</text><polyline fill="none" points="18.820000000298023,88.48650716571137 25.83999999985099,109.18649931997061 44.74000000022352,105.42286962317303 89.56000000052154,73.43192315474153 91.72000000067055,50.849977251607925 77.68000000156462,38.931694213766605 65.26000000163913,40.18625142145902 17.199999999254942,78.4501219666563 17.740000000223517,101.65923759853467 46.90000000037253,107.30468476330861 91.18000000156462,70.29554679477587 92.80000000074506,45.831755662336946 64.7199999988079,39.55897284997627 18.820000000298023,77.8228473411873 17.740000000223517,102.91378186643124 46.35999999940395,106.67741311620921 90.10000000149012,71.55009753303602 93.88000000268221,47.71358924359083 66.33999999985099,38.30441551050171 19.899999998509884,74.05919823329896 19.3600000012666,102.28650976577774 38.80000000074506,111.69558448996395 92.80000000074506,68.41372020216659 89.01999999955297,43.32264331355691 59.85999999940395,40.81352993007749 17.199999999254942,75.31374819483608 21.51999999769032,104.7955977814272 46.35999999940395,104.7955977814272 89.56000000052154,70.29554679477587 95.5,53.35908649349585 87.40000000037253,42.0680867517367 64.17999999970198,39.55897284997627 16.66000000014901,75.94102307828143 16.12000000104308,99.77742071449757 38.25999999791384,107.30468476330861 89.56000000052154,75.31374819483608 92.25999999977648,51.47725465800613 66.88000000081956,38.931694213766605 17.740000000223517,76.5682978965342 20.43999999947846,105.42286962317303 45.28000000119209,107.93195634754375 91.18000000156462,69.6682713269256 86.32000000029802,40.81352993007749 61.47999999858439,39.55897284997627 15.57999999821186,80.95921981940046 14.5,94.1319665601477 25.83999999985099,108.55922786612064 45.82000000029802,106.67741311620921 92.25999999977648,66.53189302794635 93.88000000268221,48.34086697315797 78.22000000067055,38.931694213766605 51.22000000067055,48.96814464125782" stroke="#ff0000" stroke-linecap="round" stroke-linejoin="round" stroke-width="0.5"><title>2021-01-25 3.1km</title></polyline><polyline fill="none" points="104.5,86.29105412913486 109.90000000223517,103.85469923820347 132.58000000193715,111.38196018198505 184.96000000089407,74.37283748574555 185.5,49.281778717413545 164.98000000230968,37.990768492687494 153.10000000149012,40.49988368805498 105.58000000193715,79.39103681407869 107.20000000111759,102.60015483945608 125.02000000141561,110.12741733854637 183.88000000081956,74.37283748574555 180.6400000024587,44.89083278737962 154.72000000067055,38.61804738920182 108.82000000216067,75.62738770665601 112.06000000052154,105.73651534738019 141.76000000163913,105.73651534738019 157.96000000089407,86.91832804353908 184.96000000089407,74.37283748574555 177.9400000013411,44.26355453860015 148.7800000011921,42.381719403900206 108.82000000216067,73.74556227773428 109.3600000012666,103.2274270709604 126.64000000245869,112.0092315073125 183.88000000081956,73.74556227773428 177.40000000223517,46.14538909122348 168.2200000025332,37.990768492687494 148.7800000011921,41.127162323798984 107.74000000208616,78.13648736989126 109.3600000012666,101.97288254508749 138.5200000014156,105.10924337618053 183.88000000081956,75.00011262809858 180.6400000024587,45.51811097143218 155.25999999977648,40.49988368805498 107.74000000208616,77.50921255117282 109.3600000012666,106.36378725385293 133.660000000149,109.50014581996948 182.7999999988824,69.98190967552364 184.42000000178814,46.77266714675352 153.10000000149012,42.381719403900206 106.12000000104308,80.01831144001335 108.28000000305474,103.85469923820347 131.5,109.50014581996948 180.6400000024587,75.62738770665601 182.7999999988824,44.26355453860015 152.56000000052154,40.49988368805498 106.66000000201166,83.15468359319493 109.3600000012666,106.36378725385293 133.660000000149,110.12741733854637 181.18000000156462,70.6091852709651" stroke="#ffff00" stroke-linecap="round" stroke-linejoin="round" stroke-width="0.5"><title>2021-01-26 3.0km</title></polyline><polyline fill="none" points="37.78143712505698,212.0414083604701 18.38023952022195,236.83192425826564 23.71556886099279,250.91739452583715 39.236526945605874,257.6784073500894 89.67964071780443,227.8172042244114 94.52994012087584,212.0414083604701 90.16467065922916,201.89980124216527 70.2784431129694,195.1387193663977 26.140718560665846,221.6195755689405 16.925149699673057,241.3392786984332 37.296407183632255,258.24182470794767 90.64970059879124,227.25378372892737 95.5,213.1682524336502 87.25449101813138,198.51926135085523 70.76347305253148,194.01187157491222 23.71556886099279,223.87325953086838 20.805389219895005,249.7905582394451 42.14670658670366,258.24182470794767 94.52994012087584,223.87325953086838 92.10479041934013,203.0266474080272 79.0089820344001,194.01187157491222 62.03293412923813,196.8289906210266 18.86526945978403,229.5074653653428 14.5,239.6490212189965 20.805389219895005,250.35397641174495 46.99700598604977,257.11498993402347 94.04491017945111,225.00010116258636 92.10479041934013,204.15349334059283 62.03293412923813,196.8289906210266 24.200598802417517,223.30983862793073 20.320359280332923,249.22714001126587 40.691616766154766,258.24182470794767 92.10479041934013,225.00010116258636 90.64970059879124,203.59007040411234 70.76347305253148,193.44844759022817 24.200598802417517,223.87325953086838 19.83532934077084,248.10030337935314 43.601796405389905,257.11498993402347 87.7395209595561,227.25378372892737 89.19461077824235,205.8437618035823 64.45808383077383,196.26556692831218 22.745508981868625,223.30983862793073 19.350299399346113,248.10030337935314 44.08682634495199,255.9881549286656 90.64970059879124,227.8172042244114 94.52994012087584,205.8437618035823 88.70958083868027,196.26556692831218 66.88323353230953,191.75817529158667 21.775449100881815,223.87325953086838 15.470059879124165,238.52218260988593 24.685628740116954,253.17106639640406 51.84730538725853,251.4808125803247" stroke="#ff7800" stroke-linecap="round" stroke-linejoin="round" stroke-width="0.5"><title>2021-01-28 3.1km</title></polyline><polyline fill="none" points="120.41907514445484,226.08785422937945 104.5,229.35113245761022 116.67341040447354,252.19402349414304 133.06069364212453,254.91340869106352 184.09537572227418,223.36845416435972 185.5,207.05202431371436 163.02601156011224,193.4549608635716 119.48265895992517,224.45621435856447 115.73699421994388,248.93075940478593 135.40173410438,254.91340869106352 181.75433525815606,219.01741114165634 184.09537572227418,203.24485008232296 176.6040462423116,195.0866103284061 154.59826589748263,195.0866103284061 118.07803468219936,225.54397432878613 113.3959537576884,245.6674932972528 137.74277456477284,253.82565478002653 180.81791907548904,220.64905269583687 181.75433525815606,201.06932071549818 156.0028901733458,193.4549608635716 118.54624277539551,225.54397432878613 112.4595375712961,234.78992501366884 117.1416184976697,248.93075940478593 136.80635838210583,253.82565478002653 182.22254335321486,218.47353051044047 183.62716762907803,202.70096782548353 159.7485549133271,193.4549608635716 118.07803468219936,225.00009437231347 114.80057803541422,245.6674932972528 133.06069364212453,256.5450391359627 183.62716762907803,216.29800742771477 178.47687861323357,196.17437635874376 152.2572254333645,196.7182592889294 115.73699421994388,226.63173407502472 119.48265895992517,250.5623917011544 138.6791907530278,253.28177774092183 181.28612716682255,220.64905269583687 178.47687861323357,199.9815556956455 154.13005780242383,196.17437635874376 115.26878612674773,227.7194935963489 111.99132947996259,237.5093191890046 119.95086705125868,251.1062690205872 136.33815028890967,255.45728556253016 183.15895953774452,218.47353051044047 175.66763005778193,193.99884407408535 153.66184970922768,196.7182592889294 115.73699421994388,227.175613862928 112.92774566449225,242.40422516828403 123.69653179310262,256.0011623776518 141.02023121528327,252.19402349414304 179.88150289095938,221.73681345162913" stroke="#ff3d00" stroke-linecap="round" stroke-linejoin="round" stroke-width="0.5"><title>2021-01-29 3.1km</title></polyline></svg>