<?xml version="1.0" encoding="utf-8" ?>
<svg baseProfile="full" height="300mm" version="1.1" viewBox="0,0,200,300" width="200mm" xmlns="http://www.w3.org/2000/svg" xmlns:ev="http://www.w3.org/2001/xml-events" xmlns:xlink="http://www.w3.org/1999/xlink"><defs /><rect fill="#222222" height="300" width="200" x="0" y="0" /><text fill="#FFFFFF" style="font-size:12px; font-family:Arial; font-weight:bold;" x="10" y="20">Over 5km Runs</text><text fill="#FFFFFF" style="font-size:4px; font-family:Arial" x="10" y="280">ATHLETE</text><text fill="#FFFFFF" style="font-size:9px; font-family:Arial" x="10" y="290">Licardo</text><text fill="#FFFFFF" style="font-size:4px; font-family:Arial" x="120" y="280">STATISTICS</text><text fill="#FFFFFF" style="font-size:3px; font-family:Arial" x="120" y="285">Number: 12</text><text fill="#FFFFFF" style="font-size:3px; font-family:Arial" x="120" y="290">Weekly: 2.4</text><text fill="#FFFFFF" style="font-size:3px; font-family:Arial" x="141" y="285">Total: 41.7 km</text><text fill="#FFFFFF" style="font-size:3px; font-family:Arial" x="141" y="290">Avg: 3.5 km</text><text fill="#FFFFFF" style="font-size:3px; font-family:Arial" x="167" y="285">Min: 3.1 km</text><text fill="#FFFFFF" style="font-size:3px; font-family:Arial" x="167" y="290">Max: 6.1 km</text><polyline fill="none" points="53.0995762712555,38.46296249955776 53.32838983053807,39.112197039299645 53.643008474609815,41.22220089210896 54.272245762636885,43.98141731295618 54.72987288143486,46.80553372076247 54.75847457628697,47.61705716699362 55.24470338982064,48.883029948192416 55.988347457605414,51.28511943548801 56.588983050896786,53.00552464587963 58.33368644071743,56.96567022035015 58.84851694921963,58.32898855372332 59.53495762718376,59.72476129140705 60.33580508478917,61.70480134541867 61.394067796645686,64.07434260673472 62.1949152542511,66.21665363837383 62.738347457605414,67.25534512955346 63.253177966107614,68.71599977256847 64.2828389829956,70.98811698227655 64.74046610179357,71.73466652882053 65.08368644071743,72.12417000177084 65.71292372886091,72.61104872747092 66.7425847457489,73.19530229552765 66.94279661029577,73.48742871021386 67.0,73.74709642768721 66.97139830514789,73.9743055208819 66.54237288143486,75.11034875301993 66.39936440682504,75.88934767470346 65.91313559329137,77.739463096892 65.65572033915669,79.23253150071832 65.48411016957834,80.95279799241689 65.39830508478917,81.18000236255466 65.22669491532724,81.37474884701078 64.7976694914978,81.47212204823154 62.1949152542511,81.50457977585029 58.24788135592826,81.47212204823154 55.90254237281624,81.53703750041313 54.61546610167716,81.43966431749868 52.699152542394586,81.08262907934841 51.32627118646633,80.75805127099738 48.09427966107614,79.71940024197102 46.26377118646633,78.81057803853764 43.83262711856514,77.47979837015737 43.31779661029577,77.1876753201941 43.003177966107614,76.89555202392512 42.03072033892386,75.79197290519369 41.11546610167716,74.2015144652105 40.228813559398986,72.90317563450662 39.65677966107614,71.96187694129185 38.741525423829444,71.15041049881256 37.769067796645686,70.46877721894998 36.68220338982064,70.01435428767581 35.5667372882599,69.72222494581365 34.99470338993706,69.65730728083872 34.394067796645686,69.62484844386927 34.2796610170044,69.59238960381481 34.308262711856514,69.49501306528691 34.394067796645686,69.43009535773308 34.6800847457489,69.36517763804295 35.25211864407174,69.39763649945962 35.9671610170044,69.52747191442177 36.138771186582744,69.33271877362859 36.19597457628697,68.91075325990096 36.28177966107614,68.87829435290769 36.33898305078037,68.97567106469069 36.253177966107614,69.13796552346321 36.2245762712555,69.26780103574856 36.28177966107614,69.65730728083872 36.28177966107614,69.49501306528691 36.138771186582744,69.17042440612568 36.31038135592826,68.94321216383833 36.39618644071743,68.97567106469069 36.39618644071743,69.04058885725681 36.510593220358714,69.26780103574856 31.648305084789172,69.98189548400114 30.961864406708628,70.20910704546259 25.927966101677157,70.59861223274493 22.89618644071743,71.02057569171302 20.093220339040272,71.21532788407058 14.40148305078037,71.86450106842676 13.0,72.18908720478066" stroke="#ffbe00" stroke-linecap="round" stroke-linejoin="round" stroke-width="0.5"><title>2024-06-30 4.2km</title><desc>11775355756</desc></polyline><polyline fill="none" points="73.59413202933501,74.70342119812267 73.26405867980793,71.03236663847929 73.16503667493816,69.60888743694522 73.09902200498618,69.12190654702135 73.0,67.06159622062114 73.13202933990397,66.72445352034993 73.56112469441723,66.49969156220322 77.38997555023525,66.34985018664156 81.91198044025805,66.31238983402727 84.38753056246787,66.20000875499682 86.99511002458166,65.90032572310884 87.68826405878644,65.75048412295291 91.22004889987875,65.52572161753778 92.40831295843236,65.33841943304287 96.30317848420236,64.96381480115815 98.94376528135035,64.58920981831034 100.19804400985595,64.2520650337683 101.35330073349178,64.17714393197093 103.99388753063977,63.72761702616117 108.15281173598487,63.27808961516712 111.12347188265994,62.82856169887236 112.37775061128195,62.56633684766712 113.10391198040452,62.45395471592201 116.07457212731242,61.81712203967618 120.10146699275356,61.18028834922006 122.8740831296891,60.84314069079119 125.54767726163846,60.28122729511233 126.50488997565117,60.16884452122031 126.76894865534268,59.8691569698276 126.90097799524665,59.53200820600614 127.0,59.04501504544169 126.96699266508222,58.55802129174117 126.76894865534268,57.17195890066796 126.10880195605569,53.87535877758637 126.04278728622012,53.08866609539837 125.61369193147402,50.20411301913555 125.34963325189892,49.08025553857442 124.68948655261192,45.29657880184823" stroke="#fff100" stroke-linecap="round" stroke-linejoin="round" stroke-width="0.5"><title>2024-06-30 3.3km</title><desc>11774673042</desc></polyline><polyline fill="none" points="155.2825278810924,48.235817963286536 154.50823154544923,48.36599562384072 153.90600106224883,49.212149229162605 153.24641529482324,49.86303521611262 149.43228890071623,55.13516678693122 148.97344662772957,55.525691870134324 147.3674986724509,56.72980811443995 146.3637812002562,56.33928438418661 146.13436006382108,56.30674072020338 145.47477429639548,56.37182804517215 144.67180031875614,56.56708994691144 143.4960169941187,56.95761342122569 140.54221986187622,58.35698560118908 139.19437068514526,59.36583181738388 137.90387679240666,60.70010779963923 136.95751460432075,61.969292395486264 135.8390865640249,64.14967562560923 135.2368560807081,65.0934193499561 133.77429633564316,67.7293796275917 133.08603292622138,68.83582613381441 133.0,68.99853855837137 133.02867764199618,69.45413294166792 134.00371747207828,70.00735389016336 136.1545406266814,70.7558278896613 137.35900159319863,70.98362400440965 138.47742963361088,71.04870858122013 139.3090812532464,71.27650450402871 140.16941051522736,71.73209590197075 141.48858204996213,72.8385296681081 141.94742432283238,73.09886651302804 142.63568773248699,73.2941190188285 143.4960169941187,73.42428729502717 144.35634625609964,73.42428729502717 145.27403080184013,73.19649277962162 146.16303770581726,72.77344542631181 147.33882103022188,71.92734917535563 148.14179500786122,71.47175803341088 149.2315454062773,71.04870858122013 150.23526287847199,70.88599711639108 151.03823685611133,70.91853941552108 152.87360594782513,71.14633542363299 153.10302708449308,71.17887769819936 153.9633563462412,71.60192699197796 154.42219861922786,71.73209590197075 155.2251725968672,71.79718033855897 155.82740308030043,71.79718033855897 158.00690387678333,71.4392157860857 159.15400955919176,71.4392157860857 159.84227296861354,71.50430027762195 160.90334572491702,71.73209590197075 161.82103027089033,72.09006015275372 162.5092936803121,72.41548187923036 163.4556558682816,72.96869811491342 164.02920870948583,73.42428729502717 164.54540626658127,73.97750192540116 165.14763674978167,74.72596737695858 165.86457780143246,75.73476608810597 166.15135422197636,76.0927262174664 166.89697291562334,76.54831130348612 167.9293680296978,77.13406267971732 168.35953266068827,77.23168781309505 168.78969729156233,77.1015209625184 169.8220924057532,76.64593660144601 170.68242166750133,76.06018440276966 171.0839086563792,75.60459867696045 171.3706850769231,75.1164704511757 171.62878385558724,74.40054781344952 171.85820499202237,73.13140860490967 172.20233669679146,72.12260233907728 172.74721189588308,71.01616629428463 173.26340945297852,70.23515049542766 174.69729155604728,68.57548609629157 175.98778544866946,67.69683703003102 177.5077004779596,66.55784419411793 178.31067445559893,65.90698946954217 179.60116834833752,64.70290501613636 182.18215613381471,62.00183552937233 183.5873605948873,60.3421318194014 185.50876261282247,57.67357198460377 186.88528943178244,55.39551689111977 187.0,54.97244787274394 186.94264471589122,54.679553635331104 186.77057886356488,54.354115304129664 186.3404142325744,53.9310450181074 184.07488050987013,52.33639084987226 183.93149229953997,52.23875872424105 183.35793945833575,52.141126571339555 182.9277748274617,51.978406255395385 181.49389272427652,51.067171078553656 181.2644715878414,50.839361911057495 180.46149761020206,49.765402395802084 178.769516728702,48.138184685783926 178.0812533191638,47.65001788712107 177.62241104617715,47.42220647976501 176.27456186932977,46.9340386755066 175.64365374401677,46.86894958309131 175.01274561870378,46.99912775561097 174.55390334571712,47.16185040283017 172.6898566117743,48.04055138095282 171.57142857147846,48.4310844358406 170.8258098779479,48.62635079876054 169.27721720654517,48.821617052017245 168.53159851301461,48.821617052017245 167.69994689326268,48.528717631008476 167.49920339882374,48.561262023227755 166.92565055761952,48.951794493128546 166.58151885285042,49.016883195436094 164.00053106748965,49.14706056349678 163.05416887952015,49.016883195436094 161.79235262866132,48.62635079876054 161.47689856612124,48.4310844358406 161.33351035579108,48.30090679958812 161.2761550717987,48.138184685783926 161.76367498666514,45.66479917510878 161.9357408391079,44.493189368309686 162.02177376532927,44.3955550394021 162.62400424852967,44.36301025713328 163.62772172072437,44.20028629942681 170.8258098779479,43.484299980831565 174.23844928306062,43.028671555395704 176.9054699947592,42.86594697300461 177.67976633028593,42.86594697300461 177.7944768985035,42.83340204739943 177.7657992565073,42.768312186934054 177.0775358469691,42.89849189555389 175.5576208179118,42.96358173157205 172.63250132766552,43.354120491596404 167.6139139670413,43.8097484902828 162.39458311209455,44.36301025713328" stroke="red" stroke-linecap="round" stroke-linejoin="round" stroke-width="0.5"><title>2024-06-29 6.1km</title><desc>11767860400</desc></polyline><polyline fill="none" points="15.29090909101069,128.17364705959335 15.29090909101069,131.59513830766082 19.218181816861033,139.19844081811607 22.490909092128277,141.09926399565302 26.090909091755748,142.6199218314141 29.69090909138322,143.0000861918088 36.56363636441529,139.57860553241335 45.72727272845805,132.73563468432985 62.74545454606414,121.7108215901535 65.36363636516035,118.2893211657647 66.34545454569161,114.86781756323762 66.01818181760609,111.44631078466773 63.72727272845805,108.02480083052069 60.45454545505345,106.12396059348248 57.836363637819886,102.7024456972722 54.56363636441529,100.04126524715684 50.6363636367023,98.5205898412969 43.10909090936184,100.80160271492787 39.83636363595724,103.46278261486441 35.9090909101069,104.98345598112792 32.6363636367023,108.40496875997633 16.59999999962747,119.8099884132389 13.981818182393909,123.23148742620833 13.0,126.6529832626693 14.963636364787817,133.8761307077948 16.92727272771299,136.9174517125357 24.12727272696793,140.3389348424971 31.327272728085518,140.3389348424971 34.92727272771299,139.57860553241335 50.96363636292517,130.83480719476938 63.40000000037253,122.09098810865544 65.36363636516035,118.2893211657647 66.67272727191448,111.06614316930063 63.07272727228701,103.46278261486441 57.50909090973437,98.5205898412969 49.654545456171036,98.90075875259936 42.45454545505345,101.56194002507254 35.9090909101069,106.12396059348248 17.909090910106897,120.1901551275514 15.29090909101069,123.23148742620833 14.6363636367023,127.03314927127212 14.6363636367023,130.45464157732204 15.618181817233562,134.25629597110674 17.58181818202138,137.29761666222475 24.12727272696793,141.09926399565302 35.58181818202138,139.19844081811607 39.83636363595724,137.6777815716341 46.05454545468092,132.73563468432985 52.59999999962747,129.3141444947105 58.81818181835115,123.61165378778242 62.09090909175575,121.7108215901535 64.70909090898931,119.0496548677329 66.01818181760609,115.24798478721641 66.01818181760609,111.8264783618506 64.70909090898931,107.64463286125101 60.78181818313897,101.18177138920873 57.18181818164885,99.66109645413235 53.25454545579851,97.38008287642151 49.654545456171036,98.5205898412969 46.38181818090379,100.04126524715684 43.43636363558471,102.7024456972722 39.83636363595724,103.84295101463795 37.21818181872368,106.12396059348248 27.400000002235174,112.20664589921944 18.563636364415288,119.0496548677329 14.6363636367023,125.89265112974681 14.963636364787817,133.11580006498843 16.92727272771299,136.15712169674225 23.145454544574022,140.3389348424971 27.400000002235174,141.09926399565302 35.25454545393586,140.3389348424971 44.74545454606414,135.39679152495228 47.3636363632977,132.73563468432985 56.85454545542598,126.6529832626693 62.74545454606414,122.09098810865544 66.01818181760609,115.24798478721641 65.36363636516035,110.68597551435232 60.78181818313897,103.84295101463795 54.236363638192415,100.42143400083296 50.6363636367023,99.2809276226908 40.16363636404276,103.84295101463795 19.54545454494655,117.90915425564162 16.92727272771299,120.95048843766563 15.29090909101069,124.37198639195412 14.6363636367023,128.55381291126832 15.29090909101069,132.35546926502138 17.254545455798507,135.39679152495228 20.52727272734046,138.05794644285925 23.800000000745058,139.57860553241335 27.072727274149656,139.9587702078279 31.65454545430839,139.9587702078279 34.600000001490116,137.6777815716341 49.0,131.97530380520038 63.72727272845805,121.7108215901535 66.34545454569161,117.90915425564162 67.0,109.9256400859449 62.09090909175575,104.60328769753687 60.12727272696793,101.18177138920873 48.67272727377713,98.90075875259936 44.74545454606414,100.04126524715684 38.20000000111759,104.22311937646009 32.6363636367023,109.16530450084247 29.036363637074828,111.06614316930063 17.58181818202138,119.8099884132389 14.309090908616781,126.2728172163479 14.963636364787817,133.49596540722996 19.218181816861033,138.81827606563456 22.81818181835115,140.71909943898208 26.745454544201493,141.85959299188107 34.92727272771299,141.85959299188107 38.527272729203105,140.71909943898208 41.80000000074506,138.81827606563456 44.41818181797862,135.77695663110353 47.69090909138322,133.8761307077948 56.20000000111759,126.2728172163479 59.14545454643667,124.37198639195412 62.41818181797862,122.85132102668285 65.36363636516035,120.1901551275514 65.69090909138322,112.58681339700706 63.72727272845805,109.16530450084247 62.41818181797862,104.98345598112792 55.5454545468092,99.2809276226908 52.2727272734046,98.90075875259936 48.01818181946874,99.66109645413235 37.87272727303207,105.36362422490492 31.98181818239391,109.9256400859449 25.76363636367023,112.96698085754178 16.92727272771299,120.1901551275514 14.963636364787817,123.99182010930963 13.981818182393909,127.79348116880283 14.6363636367023,131.59513830766082 15.94545454531908,135.01662637921982 18.563636364415288,138.43811127380468 22.16363636404276,140.71909943898208 25.76363636367023,141.85959299188107 41.14545454643667,137.29761666222475 50.96363636292517,130.45464157732204 62.74545454606414,121.33065503370017 64.70909090898931,117.5289873057045 65.03636363707483,113.7273156568408 64.70909090898931,109.9256400859449 63.40000000037253,106.50412871851586 58.49090909212828,100.04126524715684 55.5454545468092,97.76025190460496 51.29090909101069,96.99991380842403 47.69090909138322,97.38008287642151 40.81818181835115,102.32227717875503 31.98181818239391,109.54547231341712 19.218181816861033,117.90915425564162 16.59999999962747,121.33065503370017 14.309090908616781,128.93397872289643 14.963636364787817,132.73563468432985 16.59999999962747,136.53728672349826 22.81818181835115,140.71909943898208 30.34545454569161,140.71909943898208 33.94545454531908,139.9587702078279 41.47272727265954,136.15712169674225 48.34545454569161,130.45464157732204 51.61818181909621,128.93397872289643 58.49090909212828,123.99182010930963 61.10909090936184,121.7108215901535 63.07272727228701,119.0496548677329" stroke="#fffb00" stroke-linecap="round" stroke-linejoin="round" stroke-width="0.5"><title>2021-02-24 3.1km</title><desc>5958643139</desc></polyline><polyline fill="none" points="73.0,132.66243977635168 75.01242236047983,136.16893231472932 85.74534161388874,142.01307931379415 93.45962732844055,140.45464099850506 107.21118012443185,132.27282929304056 113.91925465874374,127.59750036080368 119.62111801281571,122.53255415265448 125.65838509425521,112.79225389193743 125.32298136688769,108.89612675388344 122.63975155353546,101.49347411934286 116.60248447209597,97.59733532508835 109.5590062122792,97.98694938467816 102.51552795059979,100.32463290239684 90.44099378958344,110.06496531749144 87.75776397436857,113.18186638480984 76.01863354071975,122.92216564109549 75.3478260859847,134.22088130633347 77.69565217383206,137.33776243869215 83.73291925527155,140.84425063733943 87.4223602488637,141.62346979486756 91.11180124245584,141.62346979486756 94.13043478317559,140.0650313186925 107.54658385179937,131.88321877014823 122.97515527904034,120.19488438172266 127.0,109.28573964885436 124.31677018664777,101.88308777753264 121.29813664592803,99.5454052244313 117.60869565233588,97.59733532508835 105.19875776395202,98.37656340422109 77.02484472095966,119.41566080297343 74.67701863124967,123.3117770885583 74.34161490574479,127.59750036080368 74.34161490574479,131.49360820581205 76.01863354071975,135.38971203379333 83.06211180053651,140.0650313186925 87.08695652149618,141.2338602358941 91.11180124245584,141.2338602358941 94.80124223604798,140.0650313186925 116.60248447209597,124.87022247794084 122.63975155353546,120.19488438172266 124.98757763952017,116.6883770104032 126.3291925471276,109.67535250354558 124.31677018664777,101.88308777753264 121.96894410066307,99.15579132502899 110.2298136651516,98.37656340422109 103.18633540347219,100.71424668119289 89.77018633298576,111.23380351928063 86.41614906862378,112.79225389193743 83.73291925527155,115.90915270894766 77.02484472095966,121.3637194482144 74.67701863124967,131.49360820581205 77.69565217383206,138.8962020392064 81.04968944005668,141.62346979486756 88.42857142910361,142.01307931379415 96.4782608691603,139.2858118393924 121.63354037329555,121.3637194482144 124.6521739140153,118.24682513298467 126.3291925471276,110.4545780911576 125.99378881976008,105.77922214963473 124.31677018664777,101.88308777753264 121.29813664592803,99.15579132502899 113.91925465874374,97.59733532508835 106.20496894419193,98.37656340422109 90.10559006221592,110.84419082570821 80.7142857145518,117.07798910187557 75.68322981335223,123.3117770885583 74.67701863124967,126.81827830942348 74.34161490574479,130.71438695932738 75.01242236047983,134.22088130633347 79.70807453431189,140.0650313186925 91.11180124245584,142.01307931379415 107.54658385179937,131.88321877014823 116.60248447209597,123.70138849620707 120.29192546568811,122.14294262509793 122.97515527904034,119.8052726117894 125.65838509425521,115.90915270894766 125.32298136688769,101.10386042040773 112.5776397511363,95.64926441945136 109.22360248491168,96.81810708343983 102.51552795059979,100.71424668119289 96.81366459652781,105.77922214963473 84.40372670814395,114.74031595489942 75.68322981335223,122.14294262509793 74.00621118023992,129.15594398160465 75.68322981335223,136.5585423966404 81.04968944005668,142.01307931379415 87.75776397436857,144.3507355803158 91.44720496796072,143.57151698553935 97.81987577676773,139.2858118393924 100.50310559011996,136.16893231472932 106.87577639892697,131.10399760282598 121.63354037329555,119.41566080297343 124.98757763952017,112.40264135948382 123.98136645928025,103.83115546638146 114.59006211161613,97.20772122358903 106.87577639892697,97.98694938467816 91.44720496796072,108.89612675388344 77.02484472095966,120.19488438172266 74.67701863124967,131.88321877014823 79.03726707957685,138.8962020392064 82.72670807503164,139.2858118393924 86.41614906862378,140.84425063733943 89.77018633298576,141.2338602358941 97.48447204940021,138.11698231985793 122.63975155353546,118.24682513298467 124.6521739140153,114.74031595489942 125.32298136688769,111.23380351928063 125.32298136688769,106.94806167855859 121.29813664592803,99.5454052244313 113.91925465874374,95.64926441945136 106.20496894419193,97.20772122358903 78.36645962484181,119.02604895294644 74.34161490574479,133.0520502203144 76.01863354071975,136.16893231472932 78.70186335407197,138.50659219943918 85.74534161388874,142.01307931379415 96.4782608691603,138.50659219943918 112.91304347850382,127.20788935478777 121.63354037329555,119.8052726117894" stroke="#fffd00" stroke-linecap="round" stroke-linejoin="round" stroke-width="0.5"><title>2021-02-21 3.1km</title><desc>5958643188</desc></polyline><polyline fill="none" points="135.68322981335223,123.50658136513084 133.33540372550488,127.40269322972745 133.33540372550488,130.90919047174975 134.00621118023992,134.80529470043257 139.37267080508173,141.03905310481787 143.0621118005365,142.987100497121 147.08695652149618,144.15592844923958 154.1304347831756,140.6494435062632 175.93167701922357,126.62347117834724 181.63354037329555,122.33774702157825 183.98136645928025,119.2208536718972 185.6583850942552,114.93512111506425 185.6583850942552,111.42860904103145 184.6521739140153,107.14286764268763 182.30434782616794,104.02596175274812 176.60248447209597,98.96098419395275 172.5776397511363,97.0129140925128 164.52795031107962,99.35059809335507 157.81987577676773,104.02596175274812 151.44720496796072,107.14286764268763 142.72670807503164,114.54550882382318 139.03726707957685,116.10395774897188 135.3478260859847,122.72735851001926 134.67701863124967,126.62347117834724 135.3478260859847,130.51957982825115 136.68944099359214,134.41568445810117 139.37267080508173,137.9221751887817 142.39130434766412,139.87022418761626 146.41614906862378,141.03905310481787 150.10559006221592,140.6494435062632 164.1925465837121,134.02607417525724 170.900621118024,129.74035841878504 177.27329192496836,125.4546378001105 182.97515527904034,119.61046548071317 184.98757763952017,116.88318197079934 185.99378881976008,112.5974467608612 184.98757763952017,108.7013196228072 183.31055900640786,105.19480176176876 180.96273292042315,102.07789426413365 177.60869565233588,98.96098419395275 170.2298136651516,97.0129140925128 166.20496894419193,97.79214225360192 143.73291925527155,112.9870592537336 135.68322981335223,121.16891231713817 134.00621118023992,124.67541534686461 133.67080745100975,129.35074765468016 135.01242236047983,133.24685349036008 137.36024844646454,136.75334530719556 141.04968944005668,138.70139490813017 144.73913043551147,140.6494435062632 152.45341615006328,140.25983386742882 162.8509316779673,134.80529470043257 178.95031055994332,123.89619273226708 184.31677018664777,118.441629932262 185.6583850942552,111.0389963882044 185.3229813668877,107.14286764268763 183.31055900640786,102.85712138004601 179.95652174018323,100.51943955011666 176.60248447209597,98.96098419395275 169.22360248491168,98.57137025357224 165.53416149131954,99.35059809335507 161.8447204977274,101.29866698826663 155.8074534162879,105.5844150185585 151.78260869532824,107.53248069807887 139.03726707957685,118.05201800190844 136.01863354071975,120.38968897936866 134.3416149057448,123.89619273226708 133.67080745100975,128.18191512068734 134.3416149057448,132.07802216196433 136.35403726622462,135.9741251836531 139.7080745343119,136.75334530719556 142.39130434766412,139.48061446868815 146.41614906862378,139.87022418761626 153.79503105580807,139.09100470831618 157.81987577676773,137.14295530761592 171.9068322982639,128.96113685052842 178.27950310520828,124.67541534686461 184.31677018664777,118.441629932262 185.99378881976008,115.32473336602561 187.0,111.0389963882044 186.3291925471276,107.53248069807887 184.6521739140153,103.63634833530523 175.26086956635118,97.0129140925128 167.54658385179937,97.79214225360192 150.44099378958344,109.09093251777813 144.06832297891378,112.5974467608612 135.68322981335223,120.38968897936866 133.0,127.79230419569649 134.00621118023992,132.07802216196433 136.01863354071975,135.9741251836531 139.37267080508173,138.70139490813017 143.39751552790403,140.25983386742882 151.44720496796072,140.25983386742882 169.89440993778408,130.51957982825115 182.63975155353546,121.16891231713817 185.3229813668877,118.441629932262 186.3291925471276,113.76628411840647 187.0,110.25977096008137 184.98757763952017,106.36364141106606 176.2670807465911,98.96098419395275 172.5776397511363,97.79214225360192 168.55279503203928,97.79214225360192 164.8633540365845,98.96098419395275 152.11801242269576,106.75325454748236 142.39130434766412,113.76628411840647 133.67080745100975,122.33774702157825 133.0,126.23386009270325 134.3416149057448,133.24685349036008 136.68944099359214,136.36373526556417 142.0559006202966,141.03905310481787 145.40993788838387,141.81827218271792 153.12422360293567,141.42866266379133 160.83850931748748,138.31178506836295 178.6149068325758,125.06502659362741 184.31677018664777,119.61046548071317 186.3291925471276,115.71434557787143 186.3291925471276,112.20783422840759 182.97515527904034,105.19480176176876 179.2857142854482,104.41557512921281 174.25465838611126,98.96098419395275 170.56521739065647,98.57137025357224 163.18633540347219,100.51943955011666 146.08074534125626,111.42860904103145 142.72670807503164,114.54550882382318 136.68944099359214,119.2208536718972 135.01242236047983,122.33774702157825 133.67080745100975,129.35074765468016 135.01242236047983,132.46763264527544 137.36024844646454,135.1949049027171 144.40372670814395,139.87022418761626 147.75776397436857,139.87022418761626 151.44720496796072,139.48061446868815 155.8074534162879,137.5325652686879 166.54037267155945,132.07802216196433 176.60248447209597,125.84424896584824 182.63975155353546,121.16891231713817 185.6583850942552,118.05201800190844 187.0,109.09093251777813 184.98757763952017,105.5844150185585 182.30434782616794,102.07789426413365 175.59627329185605,97.0129140925128 171.5714285708964,95.84407155076042 163.18633540347219,98.96098419395275 150.77639751508832,106.75325454748236 138.70186335407197,117.27279402175918 136.35403726622462,120.00007725064643 135.01242236047983,123.50658136513084 134.3416149057448,130.90919047174975 136.35403726622462,134.80529470043257 138.70186335407197,137.5325652686879 142.39130434766412,139.09100470831618 150.10559006221592,139.48061446868815 153.45962732844055,138.31178506836295 157.1490683220327,137.5325652686879 163.85714285820723,134.41568445810117 170.56521739065647,130.51957982825115 183.31055900640786,120.77930066781119" stroke="#fffc00" stroke-linecap="round" stroke-linejoin="round" stroke-width="0.5"><title>2021-02-19 3.1km</title><desc>5958643211</desc></polyline><polyline fill="none" points="25.272727271541953,173.89024903532118 21.415584415197372,175.11221511266194 17.909090908244252,177.55614612996578 14.753246754407883,185.2952510402538 14.402597403153777,188.96113754669204 16.857142858207226,196.29290034691803 20.01298701390624,199.5514572209213 24.22077921964228,201.18073464999907 32.987012987956405,201.99537311214954 39.29870129749179,197.51485948823392 42.10389610379934,194.25630093505606 45.61038961075246,191.40505999326706 56.480519481003284,184.88793010776863 62.792207792401314,180.00007563573308 65.59740259870887,176.74150262540206 67.0,172.26096034632064 66.29870129749179,167.37309024180286 61.74025974050164,160.04127374012023 54.72727272845805,156.3753603841178 50.519480518996716,156.78268425771967 47.01298701390624,157.19000809104182 43.50649350695312,159.22662662225775 34.38961038924754,167.37309024180286 17.558441558852792,180.00007563573308 15.454545455053449,183.25864595570602 14.402597403153777,187.33185507520102 15.103896103799343,195.47826070687734 20.714285714551806,202.40269228001125 28.77922078035772,204.03196853259578 32.28571428544819,202.81001140573062 35.792207792401314,200.3660960183479 45.61038961075246,192.21970047149807 51.92207792215049,187.73917575576343 62.792207792401314,179.5927541560959 65.24675324745476,176.33418081025593 66.64935065060854,172.26096034632064 65.24675324745476,164.92915292060934 62.792207792401314,160.8559206908103 59.28571428731084,158.41197933536023 55.42857142910361,157.19000809104182 50.519480518996716,156.78268425771967 47.01298701390624,157.5973318805918 43.155844155699015,159.22662662225775 36.844155844300985,164.92915292060934 16.857142858207226,180.8147184678819 14.753246754407883,184.48060913314112 13.701298702508211,188.55381699139252 14.051948051899672,192.62702064728364 15.805194806307554,196.70022010360844 20.714285714551806,202.81001140573062 29.12987012974918,203.21733049023896 32.987012987956405,202.40269228001125 36.14285714365542,200.3660960183479 38.59740259870887,197.10753981675953 41.40259740315378,194.66362089989707 54.72727272845805,185.7025719319936 61.38961038924754,180.40739707206376 64.19480519369245,177.1488243979402 66.29870129749179,173.4829269258771 66.64935065060854,169.40970352035947 64.19480519369245,161.670567472931 61.38961038924754,158.41197933536023 57.18181818164885,157.5973318805918 48.76623376645148,157.19000809104182 45.25974025949836,158.819303000113 35.792207792401314,166.5584446361754 25.623376624658704,173.89024903532118 22.116883117705584,175.11221511266194 16.50649350695312,181.22203982062638 13.701298702508211,189.36845805915073 14.402597403153777,193.8489809257444 18.259740259498358,200.3660960183479 24.922077922150493,204.43928749021143 29.480519481003284,203.21733049023896 37.54545454494655,199.5514572209213 43.50649350695312,193.8489809257444 63.14285714365542,179.5927541560959 65.59740259870887,175.11221511266194 67.0,171.4463157481514 66.29870129749179,166.96576746040955 65.24675324745476,162.89253733097576 62.792207792401314,159.6339502017945 59.6363636367023,156.78268425771967 55.42857142910361,155.9680364683736 51.22077921964228,156.3753603841178 43.50649350695312,158.41197933536023 37.54545454494655,164.1145068113692 17.909090908244252,179.1854326352477 14.402597403153777,187.33185507520102 14.402597403153777,191.40505999326706 15.454545455053449,195.88558054808527 17.909090908244252,199.5514572209213 22.116883117705584,201.58805390144698 25.97402597591281,202.81001140573062 30.18181818164885,202.81001140573062 34.038961039856076,201.18073464999907 40.350649351254106,195.88558054808527 57.532467532902956,183.25864595570602 64.54545454494655,177.1488243979402 66.64935065060854,173.0756047742907 66.64935065060854,168.18773567839526 62.44155844114721,160.8559206908103 58.93506493419409,159.22662662225775 50.519480518996716,157.19000809104182 46.31168831139803,158.00465562846512 42.805194806307554,159.6339502017945 33.337662337347865,167.78041298128664 17.558441558852792,180.40739707206376 15.454545455053449,183.66596705722623 13.701298702508211,186.92453435179777 13.350649351254106,190.99773968895897 14.402597403153777,194.66362089989707 16.50649350695312,197.92217911942862 19.31168831139803,200.77341535501182 26.675324676558375,203.21733049023896 30.532467532902956,203.21733049023896 34.38961038924754,201.58805390144698 37.194805193692446,198.32949870824814 40.70129870250821,195.47826070687734 47.01298701390624,191.40505999326706 50.168831169605255,188.96113754669204 53.675324676558375,186.92453435179777 63.14285714365542,179.5927541560959 65.24675324745476,176.33418081025593 65.94805194810033,172.26096034632064 65.59740259870887,168.59505833499134 62.792207792401314,160.04127374012023 55.42857142910361,157.19000809104182 51.57142857089639,156.78268425771967 46.662337662652135,157.5973318805918 34.038961039856076,167.78041298128664 26.675324676558375,172.26096034632064 17.207792207598686,180.40739707206376 14.753246754407883,183.66596705722623 13.350649351254106,188.14649639395066 13.0,192.21970047149807 16.857142858207226,199.95877664047293 20.01298701390624,203.21733049023896 28.077922077849507,204.43928749021143 32.28571428544819,203.21733049023896 35.792207792401314,200.77341535501182 42.10389610379934,194.66362089989707 45.61038961075246,192.62702064728364 61.74025974050164,180.00007563573308 64.54545454494655,176.74150262540206 65.94805194810033,172.66828258126043 65.59740259870887,164.92915292060934 64.19480519369245,161.26324410317466 57.532467532902956,155.56071250955574 49.467532467097044,156.3753603841178 45.61038961075246,157.5973318805918 25.97402597591281,172.66828258126043 16.50649350695312,181.22203982062638 14.402597403153777,184.88793010776863 13.350649351254106,188.96113754669204 13.350649351254106,192.62702064728364 14.402597403153777,196.70022010360844 16.857142858207226,200.3660960183479 20.3636363632977,202.81001140573062 24.922077922150493,203.62464953260496 29.12987012974918,204.03196853259578 32.6363636367023,202.40269228001125 36.49350649304688,199.95877664047293 48.76623376645148,188.96113754669204 55.07792207784951,184.88793010776863 61.74025974050164,179.1854326352477" stroke="#fffc00" stroke-linecap="round" stroke-linejoin="round" stroke-width="0.5"><title>2021-02-03 3.1km</title><desc>5958643285</desc></polyline><polyline fill="none" points="82.8181818202138,175.51953659229912 76.15584415756166,181.22203994751908 74.05194805376232,184.8879306127783 73.0,189.36845902632922 73.35064935311675,193.03434212692082 75.4545454569161,196.29290202772245 81.06493506580591,202.4026945917867 84.92207792215049,203.62465196987614 92.63636363856494,202.4026945917867 96.14285714365542,200.3660981201101 102.10389610566199,194.66362241469324 122.44155844300985,180.81471855170093 126.64935065060854,173.89024840551428 127.0,169.81702499999665 124.5454545468092,161.67056558281183 121.38961039111018,158.8193008149974 117.88311688415706,156.782681863755 113.67532467655838,155.56070998776704 109.8181818202138,156.3753579480108 105.96103896200657,158.00465336022899 99.64935065060854,162.89253556588665 96.49350649490952,164.9291513664648 94.38961039111018,168.18773446092382 88.07792207971215,172.26095954701304 75.80519480630755,182.44400388072245 74.40259740501642,185.70257251989096 73.70129870250821,189.7757795387879 74.40259740501642,193.84898235462606 76.50649350881577,197.9221809678711 82.11688311770558,203.62465196987614 85.97402597405016,204.43929001223296 90.5324675347656,203.62465196987614 94.03896103985608,201.99537538108416 104.20779220946133,193.03434212692082 120.68831169046462,181.22203994751908 123.49350649490952,178.37078929925337 124.89610389620066,174.70489258202724 126.64935065060854,171.44631486642174 126.64935065060854,166.96576611581258 121.74025974236429,160.85591871570796 118.23376623541117,158.4119771081023 110.51948052085936,156.3753579480108 102.80519480630755,159.63394810189493 96.14285714365542,164.9291513664648 93.68831169046462,168.18773446092382 80.01298701390624,178.37078929925337 74.75324675440788,184.8879306127783 74.05194805376232,188.9611384710297 74.05194805376232,193.03434212692082 75.10389610566199,196.7002218265552 77.55844156071544,199.95877870055847 81.06493506580591,202.4026945917867 85.2727272734046,203.62465196987614 89.12987013161182,203.62465196987614 92.9870129879564,202.4026945917867 104.9090909101069,191.81238147290424 112.2727272734046,187.33185583143495 118.23376623541117,182.85132510727271 121.03896103985608,180.40739711537026 123.49350649490952,177.14882410503924 125.59740259870887,173.89024840551428 126.64935065060854,169.4097024279181 126.29870130121708,165.74379739142023 124.89610389620066,162.07788895256817 122.09090909175575,159.63394810189493 118.23376623541117,157.597329570679 114.02597402594984,156.3753579480108 109.46753246895969,156.782681863755 105.61038961075246,158.00465336022899 83.16883116960526,175.1122146078851 77.55844156071544,180.40739711537026 75.4545454569161,184.0732885368634 74.40259740501642,187.7391765548382 74.40259740501642,191.81238147290424 75.4545454569161,195.8855821865145 77.55844156071544,199.144139733864 80.36363636516035,201.99537538108416 84.57142857462168,202.81001375964843 92.28571428731084,203.2173328853678 95.79220779426396,200.3660981201101 104.9090909101069,192.21970173274167 115.42857143096626,184.8879306127783 124.89610389620066,176.33418043190613 126.64935065060854,168.18773446092382 126.29870130121708,164.11450517270714 123.84415584616363,160.85591871570796 116.48051948286593,157.19000573735684 108.41558441706002,157.19000573735684 104.55844156071544,158.8193008149974 85.2727272734046,173.0756040608976 76.50649350881577,180.81471855170093 74.75324675440788,184.8879306127783 74.05194805376232,189.36845902632922 74.05194805376232,193.84898235462606 76.15584415756166,197.5148612963967 79.31168831326067,200.3660981201101 82.46753246895969,202.4026945917867 86.67532467842102,203.2173328853678 90.5324675347656,202.81001375964843 94.03896103985608,201.180736834649 107.01298701390624,190.59042043797672 110.16883116960526,188.9611384710297 123.49350649490952,179.18543255119585 125.59740259870887,175.1122146078851 126.29870130121708,171.03899246221408 125.94805194996297,166.5584432494361 120.68831169046462,159.63394810189493 117.1818181835115,157.597329570679 112.97402597405016,155.96803398919292 108.41558441706002,155.96803398919292 104.9090909101069,157.597329570679 91.93506493605673,168.18773446092382 88.42857143096626,170.22434752993286 76.50649350881577,180.40739711537026 74.05194805376232,183.6659674353432 73.35064935311675,187.33185583143495 73.0,195.07094237953424 75.80519480630755,198.3295005990658 78.96103896200657,200.77341749798506 82.46753246895969,202.81001375964843 90.5324675347656,202.81001375964843 94.03896103985608,201.58805612963624 97.89610389620066,199.144139733864 100.35064935311675,195.8855821865145 106.31168831326067,190.59042043797672 119.6363636367023,182.03668261086568 124.89610389620066,176.7415022898931 125.94805194996297,173.0756040608976 125.94805194996297,168.59505715803243 125.24675324745476,164.5218282910064 122.79220779240131,161.67056558281183 115.77922078035772,157.597329570679 111.92207792215049,157.19000573735684 107.36363636516035,157.597329570679 103.50649350881577,159.22662447975017 77.20779220946133,180.00007563573308 74.40259740501642,183.2586462928448 73.0,187.33185583143495 73.0,191.40506116859615 74.40259740501642,195.4782623045612 80.01298701390624,201.180736834649 88.07792207971215,202.4026945917867 91.93506493605673,201.99537538108416 95.44155844300985,200.3660981201101 98.24675324745476,197.10754158324562 104.55844156071544,191.81238147290424 108.76623376831412,190.18310000863858 115.42857143096626,185.70257251989096 125.24675324745476,177.14882410503924 126.29870130121708,173.48292625392787 126.64935065060854,169.4097024279181 126.29870130121708,165.74379739142023 123.84415584616363,162.07788895256817 121.03896103985608,158.8193008149974 117.1818181835115,156.782681863755 112.6233766246587,156.3753579480108 108.76623376831412,156.3753579480108 104.9090909101069,157.597329570679 101.75324675440788,159.63394810189493 85.97402597405016,173.48292625392787 75.4545454569161,181.22203994751908 74.05194805376232,185.2952515874058 74.40259740501642,193.4416622624267 76.50649350881577,197.5148612963967 78.96103896200657,200.3660981201101 86.67532467842102,203.62465196987614 94.74025974236429,200.77341749798506 104.20779220946133,191.81238147290424 107.71428571641445,190.59042043797672 121.38961039111018,181.22203994751908 124.19480519555509,177.96346760960296 125.94805194996297,174.29757051495835" stroke="#fffb00" stroke-linecap="round" stroke-linejoin="round" stroke-width="0.5"><title>2021-02-02 3.1km</title><desc>5958643137</desc></polyline><polyline fill="none" points="144.57142856903374,167.98407493997365 137.55844155699015,178.98176849167794 134.40259740129113,186.72086781356484 134.75324675254524,190.38675167271867 138.2597402576357,193.64531224453822 140.71428571268916,197.311189673841 144.22077922150493,199.75510606961325 149.48051947914064,199.347786774626 157.5454545430839,197.71850917860866 165.2597402576357,194.8672717665322 178.9350649341941,185.49890577141196 181.740259738639,182.2403384768404 184.896103894338,180.2037325508427 187.0,176.53783923923038 187.0,172.46462045493536 187.0,168.39139746990986 185.24675324559212,164.7254931894131 182.79220779053867,161.46690875058994 175.0779220778495,157.80099804187194 171.22077921964228,157.39367441972718 163.50649350509048,159.02296865568496 154.740259738639,167.16942975460552 148.0779220778495,171.2426540008746 138.61038960888982,178.57444705534726 135.4545454531908,181.8330173753202 134.05194805189967,185.9062264948152 134.05194805189967,190.38675167271867 135.10389610379934,194.45995196769945 137.2077922075987,198.12582864053547 148.77922077849507,201.3843828253448 153.33766233734787,200.16242532106116 156.49350649304688,198.53314806008711 159.2987012974918,195.6819112363737 166.31168831139803,189.97943141288124 172.97402597405016,185.9062264948152 182.44155843928456,178.57444705534726 184.19480519369245,175.31587404501624 185.59740259684622,171.64997619390488 185.24675324559212,167.5767523678951 184.19480519369245,163.50352434022352 181.740259738639,160.24493889254518 178.23376623168588,159.4302921104245 174.02597402594984,157.39367441972718 170.1688311677426,156.5790270480793 166.31168831139803,156.9863507549744 162.4545454531908,158.6156451597344 159.64935064688325,161.46690875058994 152.98701298609376,165.94746166141704 147.02597402594984,172.0572983454913 136.85714285634458,178.57444705534726 134.40259740129113,182.2403384768404 133.70129870064557,185.9062264948152 134.75324675254524,194.8672717665322 137.90909090824425,198.12582864053547 140.3636363632977,201.3843828253448 144.57142856903374,203.0136589098256 149.12987012974918,203.828296699794 153.33766233734787,202.60633995220996 158.59740259498358,196.4965505390428 181.740259738639,177.7598040548619 183.84415584243834,173.68658653227612 184.896103894338,170.02068716776557 183.14285714179277,166.35478440090083 178.58441558293998,159.83761552278884 175.42857142724097,157.39367441972718 166.6623376607895,158.2083216214087 163.15584415569901,157.80099804187194 154.38961038924754,165.94746166141704 150.5324675310403,168.39139746990986 137.90909090824425,178.57444705534726 134.40259740129113,185.9062264948152 134.05194805189967,189.97943141288124 135.10389610379934,194.45995196769945 141.41558441519737,199.75510606961325 148.77922077849507,202.19902095221914 152.63636363483965,201.3843828253448 164.55844155699015,190.79407189111225 174.02597402594984,185.09158500726335 182.79220779053867,176.9451608862728 184.5454545430839,173.2792645478621 184.896103894338,168.79871995700523 184.5454545430839,165.1328160557896 182.44155843928456,161.8742319517769 179.28571428358555,159.4302921104245 177.18181818164885,156.171703300206 168.76623376458883,156.5790270480793 164.90909090824425,157.39367441972718 161.75324675254524,159.02296865568496 158.94805194810033,162.28155511268415 142.46753246709704,175.31587404501624 138.96103896014392,176.9451608862728 136.15584415569901,180.2037325508427 134.05194805189967,183.86962245986797 133.35064934939146,187.53550896630622 134.75324675254524,195.6819112363737 137.2077922075987,199.347786774626 141.41558441519737,200.97706369962543 149.48051947914064,202.19902095221914 153.33766233734787,201.3843828253448 156.14285714179277,198.94046743796207 158.59740259498358,196.0892309078481 164.55844155699015,190.79407189111225 181.03896103799343,178.98176849167794 183.84415584243834,175.72319581755437 184.896103894338,172.0572983454913 185.59740259684622,168.39139746990986 185.24675324559212,164.7254931894131 183.14285714179277,160.652262220392 179.98701298609376,158.6156451597344 177.18181818164885,156.171703300206 173.67532467283309,156.9863507549744 169.11688311584294,156.5790270480793 165.61038960888982,156.9863507549744 136.85714285634458,179.38908988749608 134.75324675254524,182.64765953551978 133.0,185.9062264948152 133.35064934939146,189.97943141288124 134.05194805189967,194.05263212649152 136.50649350509048,197.311189673841 139.31168831139803,199.75510606961325 147.3766233753413,200.97706369962543 150.88311688229442,199.75510606961325 154.740259738639,199.75510606961325 160.35064934939146,192.83067235467024 163.50649350509048,190.38675167271867 167.3636363632977,189.1647907642182 174.02597402594984,185.09158500726335 183.84415584243834,177.35248249117285 185.24675324559212,173.2792645478621 184.896103894338,169.2060424021911 184.19480519369245,165.1328160557896 182.0909090898931,161.05958550586365 178.58441558293998,157.80099804187194 174.7272727265954,156.171703300206 170.1688311677426,156.171703300206 166.31168831139803,156.9863507549744 137.55844155699015,178.57444705534726 135.10389610379934,181.8330173753202 133.35064934939146,185.49890577141196 133.0,189.57211110857315 135.4545454531908,196.90387012786232 142.8181818164885,202.19902095221914 146.67532467283309,200.56974453176372 150.5324675310403,201.3843828253448 154.38961038924754,199.347786774626 157.896103894338,196.4965505390428 164.90909090824425,189.1647907642182 172.6233766209334,185.9062264948152 182.79220779053867,178.1671255757101 184.896103894338,174.09390847338364 186.2987012974918,170.02068716776557 180.33766233734787,159.02296865568496 177.18181818164885,157.39367441972718 173.67532467283309,156.171703300206 165.61038960888982,157.39367441972718 161.75324675254524,159.4302921104245 155.0909090898931,165.54013888002373 135.8051948044449,180.61105382069945 134.05194805189967,184.27694335160777 133.70129870064557,188.35014994861558 134.40259740129113,192.42335234535858 136.50649350509048,195.6819112363737 137.90909090824425,199.75510606961325 141.41558441519737,201.79170190985315 149.48051947914064,202.60633995220996 153.68831168673933,200.16242532106116 159.64935064688325,194.05263212649152 165.96103896014392,188.75747037795372 173.32467532344162,185.09158500726335 182.44155843928456,177.35248249117285" stroke="#ffff00" stroke-linecap="round" stroke-linejoin="round" stroke-width="0.5"><title>2021-02-01 3.1km</title><desc>5958643201</desc></polyline><polyline fill="none" points="28.564705884084105,231.14440758666024 20.30588235333562,238.15513917151839 18.08235294185579,241.10702204308473 16.1764705888927,244.0589024790097 15.858823530375957,247.37976505653933 16.1764705888927,250.70062455255538 17.129411766305566,254.0214809635654 19.352941177785397,256.9733507416677 25.388235293328762,260.6631845377851 29.517647059634328,261.40115084080026 33.01176470704377,260.2942013295833 43.1764705888927,256.23538352549076 58.74117647111416,243.68991755764 62.2352941185236,241.84499238058925 64.45882353000343,238.524124663556 65.72941176593304,231.14440758666024 64.77647058852017,227.82352993474342 62.55294117704034,224.8716360994149 53.34117647074163,220.07480342197232 49.847058825194836,220.07480342197232 46.35294117592275,221.18176538101397 43.1764705888927,223.02670121681876 40.0,225.60960978781804 36.505882354453206,226.71657003159635 20.62352941185236,237.41716807195917 17.764705883339047,240.00006625195965 15.858823530375957,243.68991755764 14.905882354825735,250.70062455255538 16.1764705888927,254.0214809635654 20.62352941185236,259.18725147657096 27.929411767050624,261.40115084080026 31.74117647111416,261.0321677082684 38.09411764703691,258.0803012799006 63.18823529407382,241.47600723034702 65.41176470555365,238.89311011740938 66.04705882258713,235.2032538629137 66.04705882258713,231.88237997959368 63.505882354453206,224.8716360994149 60.6470588222146,222.28872699616477 57.15294117666781,220.8127780999057 50.16470588371158,219.336828594096 43.49411764740944,223.02670121681876 40.95294117741287,225.24062296305783 28.24705882370472,232.6203522195574 19.352941177785397,239.26209553400986 16.811764707788825,241.84499238058925 15.223529413342476,245.16585701447912 15.223529413342476,248.85570299066603 15.858823530375957,252.9145291701425 17.447058824822307,256.23538352549076 19.988235294818878,259.18725147657096 27.294117648154497,261.77013393491507 31.423529412597418,261.40115084080026 34.91764706000686,260.6631845377851 45.08235294185579,255.1284324170556 62.87058823555708,242.21397749171592 65.72941176593304,239.26209553400986 67.0,231.88237997959368 64.14117647148669,225.60960978781804 61.91764706000686,222.28872699616477 55.56470588222146,219.336828594096 51.75294117629528,219.336828594096 44.129411766305566,221.55075262393802 29.517647059634328,231.14440758666024 18.40000000037253,240.00006625195965 15.858823530375957,242.58296256582253 13.0,249.22468737978488 17.129411766305566,256.23538352549076 22.84705882333219,260.2942013295833 26.976470589637756,261.40115084080026 34.28235294111073,261.0321677082684 44.129411766305566,255.4974161570426 62.55294117704034,242.58296256582253 65.09411764703691,239.63108091172762 66.6823529433459,236.67919682199135 66.6823529433459,232.98933828412555 64.14117647148669,225.97859657369554 58.10588235408068,221.18176538101397 51.1176470592618,220.07480342197232 44.44705882295966,221.55075262393802 40.63529411889613,223.39568826952018 37.77647058852017,226.3475833220873 19.352941177785397,238.524124663556 16.811764707788825,241.47600723034702 15.541176471859217,244.42788736196235 14.905882354825735,248.48671856499277 15.223529413342476,252.17656111577526 16.811764707788825,255.4974161570426 19.352941177785397,258.44928471627645 22.52941176481545,260.2942013295833 26.34117647074163,261.40115084080026 30.15294117666781,261.40115084080026 40.317647060379386,256.9733507416677 55.24705882370472,247.37976505653933 61.600000001490116,242.58296256582253 64.14117647148669,240.00006625195965 65.72941176593304,236.3102111387998 65.72941176593304,232.6203522195574 63.18823529407382,225.97859657369554 60.6470588222146,223.02670121681876 57.470588237047195,220.8127780999057 49.847058825194836,218.96784112160094 40.0,224.8716360994149 34.91764706000686,229.2994759378489 19.670588236302137,239.26209553400986 17.447058824822307,241.84499238058925 16.1764705888927,245.16585701447912 14.905882354825735,251.80757703236304 16.49411764740944,254.75944863748737 21.894117647781968,259.556234798627 25.070588236674666,261.0321677082684 28.882352942600846,261.40115084080026 32.0588235296309,260.6631845377851 49.847058825194836,249.96265604137443 58.42352941259742,244.0589024790097 60.96470588259399,241.47600723034702 62.87058823555708,238.524124663556 62.2352941185236,227.45454333839007 56.83529411815107,222.65771412546746 53.02352941222489,222.28872699616477 49.847058825194836,220.44379078014754 45.717647060751915,220.8127780999057 42.54117647185922,222.28872699616477 33.64705882407725,228.56150301313028 31.105882354080677,231.14440758666024 18.717647060751915,238.524124663556 16.1764705888927,241.47600723034702 14.905882354825735,244.42788736196235 14.270588237792253,247.7487495976966 14.58823529444635,251.80757703236304 16.1764705888927,254.75944863748737 18.40000000037253,257.34233429306187 21.576470589265227,259.556234798627 25.705882353708148,260.6631845377851 32.69411764666438,259.9252180834301 38.411764707416296,255.8663998595439 45.40000000037253,253.28351313853636 63.18823529407382,241.47600723034702 66.04705882258713,235.2032538629137 65.72941176593304,227.08555670431815 61.91764706000686,220.8127780999057 54.2941176481545,219.70581602700986 51.1176470592618,218.22986606531776 47.623529413715005,218.22986606531776 44.44705882295966,218.96784112160094 29.517647059634328,230.77542133349925 17.764705883339047,238.89311011740938 15.541176471859217,241.84499238058925 14.270588237792253,244.79687220673077 13.635294117033482,248.48671856499277 14.905882354825735,252.17656111577526 17.129411766305566,255.4974161570426 19.670588236302137,258.0803012799006 26.976470589637756,260.6631845377851 37.45882353000343,256.9733507416677" stroke="#fffb00" stroke-linecap="round" stroke-linejoin="round" stroke-width="0.5"><title>2021-01-28 3.1km</title><desc>5958643208</desc></polyline><polyline fill="none" points="73.68789808824658,247.5912917475216 73.34394904412329,251.5866647241637 74.37579617835581,255.18249687762 77.12738853693008,258.778325693449 79.87898089177907,260.77600692608394 83.66242038272321,262.7736871286761 87.10191082768142,263.5727589218877 91.22929936274886,263.1732230458874 94.32484076358378,259.97693455661647 98.10828025452793,258.3787893236149 103.61146496981382,252.78527581156231 107.73885350301862,251.1871276104357 111.17834394983947,249.18944143271074 114.27388535067439,245.9931414029561 124.59235668927431,239.60053343046457 126.65605095587671,236.40422548656352 127.0,232.40883684786968 126.65605095587671,228.0139045859687 125.2802547775209,224.0185072910972 122.52866242080927,221.22172673325986 119.43312101997435,219.22402509814128 115.30573248490691,218.42494415515102 111.86624203808606,216.42724107811227 104.29936305806041,218.42494415515102 100.51592356711626,220.4226462028455 95.01273885369301,225.6166667039506 85.38216560520232,232.40883684786968 76.43949044682086,240.00007173744962 74.37579617835581,242.79683873499744 73.0,250.38805326330476 75.40764331258833,257.97925291163847 78.15923566929996,260.77600692608394 86.75796178355813,262.37415117095225 90.54140127450228,259.97693455661647 94.66878980956972,259.17786202323623 98.10828025452793,256.38110685464926 104.98726114630699,253.18481275974773 113.5859872624278,245.9931414029561 120.80891719833016,242.39730071648955 124.24840764328837,239.60053343046457 125.96815286763012,236.40422548656352 125.62420382164419,231.60975862620398 126.31210191175342,227.6143650424201 122.18471337668598,221.22172673325986 118.05732484161854,218.42494415515102 109.80254777148366,216.42724107811227 105.33121019229293,217.22632243251428 81.94267516024411,234.40653168270364 78.84713375940919,237.20330272009596 76.43949044682086,240.39961000415497 74.37579617835581,243.99545254488476 73.68789808824658,247.99082923005335 74.03184713423252,251.9862017945852 75.75159235671163,255.9815702366177 78.15923566929996,259.57739831041545 81.94267516024411,261.97461517201737 89.8535031862557,262.7736871286761 97.42038216628134,259.97693455661647 100.51592356711626,256.78064343123697 102.23566878959537,253.18481275974773 105.33121019229293,250.38805326330476 107.73885350301862,247.5912917475216 110.83439490385354,245.59360371320508 114.96178343892097,244.39499039878137 118.05732484161854,242.39730071648955 121.84076433070004,241.99776265583932 124.9363057333976,239.60053343046457 124.9363057333976,227.21482545672916 123.56050955317914,223.6189673356712 120.46496815234423,220.82218648889102 112.55414012819529,218.824484646786 109.11464968137443,217.6258630475495 101.54777070134878,219.6235655080527 92.60509554296732,227.21482545672916 85.38216560520232,232.00929775787517 76.43949044682086,239.20099508133717 74.03184713423252,242.79683873499744 74.03184713423252,251.1871276104357 76.78343949094415,257.97925291163847 79.87898089177907,260.77600692608394 87.44585987180471,263.5727589218877 93.6369426753372,259.17786202323623 102.23566878959537,255.18249687762 104.6433121021837,252.3857388237957 115.30573248490691,246.7922166576609 117.7133757956326,243.59591464931145 124.24840764328837,239.60053343046457 125.62420382164419,236.0046868091449 124.9363057333976,227.6143650424201 120.12101910822093,221.62126693711616 116.33757961913943,220.02310587628745 114.27388535067439,216.42724107811227 101.89171974547207,218.42494415515102 98.45222930051386,220.82218648889102 92.94904458709061,226.41574616264552 79.87898089177907,236.0046868091449 75.40764331258833,241.99776265583932 74.7197452224791,245.59360371320508 74.7197452224791,249.988516026875 75.40764331258833,253.98388653062284 76.78343949094415,257.18017996498384 79.87898089177907,259.97693455661647 84.00636942870915,260.77600692608394 87.78980891779065,260.77600692608394 95.3566878978163,259.17786202323623 102.92356687784195,253.18481275974773 120.80891719833016,242.79683873499744 123.90445859916508,240.39961000415497 125.62420382164419,236.0046868091449 125.62420382164419,232.00929775787517 124.9363057333976,228.4134440885391 122.18471337668598,221.22172673325986 118.40127388574183,219.22402509814128 113.9299363065511,218.824484646786 109.80254777148366,217.22632243251428 106.01910828053951,218.02540362277068 102.5796178355813,219.6235655080527 96.73248407617211,225.21712691290304 90.19745223037899,229.61206234898418 78.50318471342325,238.80145669169724 75.75159235671163,241.5982245549094 74.03184713423252,245.59360371320508 73.68789808824658,249.5889787506312 74.37579617835581,257.18017996498384 76.43949044682086,260.37647076160647 80.22292993590236,262.37415117095225 84.69426751695573,263.1732230458874 88.13375796191394,263.1732230458874 92.26114649698138,262.37415117095225 95.70063694380224,259.57739831041545 100.85987261123955,253.58434966555797 110.14649681560695,246.7922166576609 113.5859872624278,243.59591464931145 117.36942675150931,241.5982245549094 123.21656050905585,236.8037641244009 125.2802547775209,233.6074538724497 126.31210191175342,225.6166667039506 124.59235668927431,222.02080709976144 120.80891719833016,220.4226462028455 111.86624203808606,218.824484646786 108.08280254714191,218.42494415515102 104.6433121021837,219.22402509814128 100.51592356711626,221.22172673325986 98.10828025452793,223.6189673356712 96.38853503204882,226.8152858298272 79.87898089177907,238.00237978855148 77.12738853693008,240.39961000415497 74.7197452224791,243.59591464931145 73.34394904412329,246.7922166576609 73.68789808824658,250.78759045735933 74.03184713423252,254.78296013595536 75.75159235671163,258.778325693449 78.84713375940919,260.37647076160647 82.97452229447663,261.57507913117297 90.88535031862557,261.97461517201737 93.98089171946049,258.778325693449 104.98726114630699,250.78759045735933 114.96178343892097,244.7945282116998 119.08917197585106,243.19637671322562 121.84076433070004,240.79914822848514 124.9363057333976,232.00929775787517 125.62420382164419,228.0139045859687 123.56050955317914,220.4226462028455 119.77707006409764,218.02540362277068 115.6496815290302,217.6258630475495 107.39490445889533,217.22632243251428 103.95541401207447,218.42494415515102 95.3566878978163,227.6143650424201 79.87898089177907,240.00007173744962 77.12738853693008,242.39730071648955 74.7197452224791,245.19406598294154 73.34394904412329,253.18481275974773 76.78343949094415,259.97693455661647 79.87898089177907,261.97461517201737 83.66242038272321,263.5727589218877 87.78980891779065,263.5727589218877 91.91719745285809,262.7736871286761 96.04458598792553,259.17786202323623 102.92356687784195,250.38805326330476 110.14649681560695,247.99082923005335 122.52866242080927,237.20330272009596" stroke="#fffc00" stroke-linecap="round" stroke-linejoin="round" stroke-width="0.5"><title>2021-01-26 3.1km</title><desc>5958643221</desc></polyline><polyline fill="none" points="136.2185430470854,249.34687812114134 134.43046357668936,252.67018036334775 135.5033112578094,257.2397164700087 137.64900662191212,260.9784239726141 141.2251655627042,263.0554821966216 149.8079470191151,260.56301219877787 153.74172185361385,260.56301219877787 183.06622516550124,239.37695493525825 185.56953642331064,235.6382273763884 187.0,231.89949634787627 186.28476821258664,228.16076184622943 184.4966887421906,224.42202387400903 179.13245033100247,219.02161845215596 175.1986754965037,216.94453751528636 170.90728476829827,216.5291212000884 166.9735099337995,217.77537001878954 143.7284768205136,234.80739855999127 137.64900662191212,239.79236889467575 135.14569536410272,242.70026540686376 133.715231789276,246.43898640875705 133.35761589370668,250.5931167830713 135.5033112578094,258.4859526907094 138.36423840932548,260.9784239726141 142.2980132456869,263.0554821966216 146.58940397389233,263.47089371318 154.81456953659654,262.2246590361465 161.25165563076735,255.5780675765127 167.6887417230755,250.5931167830713 170.90728476829827,247.26981282653287 184.13907284848392,237.29988449811935 186.28476821258664,233.56115501071326 186.64238410629332,229.40700706583448 186.64238410629332,225.25285483407788 185.56953642331064,221.0986983180046 183.06622516550124,218.19078620662913 179.49006622470915,216.11370484018698 175.1986754965037,215.69828843930736 166.9735099337995,216.94453751528636 163.39735099487007,219.02161845215596 158.03311258368194,224.42202387400903 141.9403973519802,236.05364172160625 136.2185430470854,242.70026540686376 134.43046357668936,246.02357313549146 133.715231789276,250.5931167830713 134.07284768298268,254.74724287283607 135.86092715337873,259.3167766232509 138.7218543048948,261.3938357040752 142.2980132456869,263.0554821966216 154.81456953659654,261.8092473910656 158.39072847738862,259.73218852467835 163.39735099487007,253.5010054963641 180.56291390769184,241.4540243006777 183.78145695477724,238.54612688883208 185.92715231701732,234.80739855999127 187.0,230.65325189917348 185.92715231701732,222.76036143791862 183.06622516550124,219.8524505267851 179.84768211841583,217.3599537878763 171.9801324494183,215.2828719955869 164.11258278228343,217.3599537878763 155.5298013240099,225.66827024985105 136.9337748363614,240.20778280985542 134.78807947039604,243.5310925960075 133.715231789276,247.26981282653287 133.715231789276,251.008529584622 134.43046357668936,255.16265524667688 136.9337748363614,258.4859526907094 139.43708609230816,261.3938357040752 143.37086092680693,260.9784239726141 145.51655629090965,264.7171280044131 149.8079470191151,264.7171280044131 153.74172185361385,262.64007063792087 156.96026490069926,260.1476003830321 165.54304635711014,250.5931167830713 171.62251655571163,245.60815981938504 182.35099337808788,238.96154093393125 185.21192052960396,236.05364172160625 186.28476821258664,231.89949634787627 186.64238410629332,227.32993148546666 185.56953642331064,222.76036143791862 183.06622516550124,219.8524505267851 175.91390728577971,215.69828843930736 167.6887417230755,216.5291212000884 163.39735099487007,217.77537001878954 154.45695364288986,226.49910095427185 135.5033112578094,240.62319668382406 133.35761589370668,244.777333058184 133.0,248.9314651482273 134.07284768298268,253.08559295209125 135.5033112578094,256.8243043124676 138.0066225156188,260.56301219877787 141.58278145641088,262.64007063792087 145.51655629090965,263.47089371318 154.45695364288986,260.1476003830321 167.33112582750618,249.34687812114134 170.1920529808849,245.60815981938504 180.20529801398516,240.20778280985542 183.42384105920792,237.7152986715082 185.56953642331064,234.39198408578523 187.0,230.23783699679188 187.0,226.08368562348187 181.9933774843812,218.60620235092938 177.70198675617576,218.19078620662913 174.48344370909035,216.11370484018698 166.25827814638615,217.3599537878763 163.03973509930074,219.02161845215596 153.74172185361385,227.32993148546666 134.78807947039604,241.03861051378772 133.35761589370668,245.19274645973928 133.0,253.5010054963641 134.78807947039604,256.8243043124676 136.9337748363614,259.73218852467835 140.15231788158417,262.2246590361465 149.4503311254084,261.8092473910656 153.38410595990717,260.56301219877787 156.96026490069926,258.4859526907094 160.17880794778466,255.16265524667688 163.39735099487007,253.08559295209125 165.90066225081682,249.7622910507489 169.83443708717823,249.7622910507489 172.33774834498763,246.43898640875705 175.55629139207304,244.3619196137879 183.06622516550124,241.03861051378772 185.56953642331064,236.88447028119117 186.28476821258664,232.73032576451078 185.92715231701732,228.9915920351632 185.21192052960396,225.25285483407788 183.06622516550124,221.92952996329404 175.91390728577971,216.5291212000884 171.9801324494183,216.11370484018698 168.40397351048887,216.5291212000884 164.11258278228343,218.60620235092938 154.45695364288986,226.91451624128968 138.36423840932548,238.54612688883208 135.5033112578094,241.4540243006777 134.07284768298268,245.19274645973928 133.0,249.34687812114134 133.35761589370668,253.5010054963641 137.64900662191212,260.56301219877787 145.51655629090965,263.0554821966216 149.8079470191151,263.0554821966216 153.74172185361385,262.64007063792087 161.60927152261138,253.91641799826175 164.82781456969678,251.42394234542735 171.9801324494183,247.26981282653287 181.63576159067452,240.20778280985542 184.13907284848392,237.29988449811935 185.56953642331064,224.83743937476538 180.92052980139852,218.19078620662913 168.76158940419555,215.69828843930736 164.4701986759901,217.3599537878763 155.5298013240099,225.66827024985105 145.15894039720297,232.73032576451078 136.2185430470854,241.03861051378772 134.07284768298268,244.777333058184 133.35761589370668,248.9314651482273 133.35761589370668,253.5010054963641 137.29139072820544,260.1476003830321 140.86754966899753,262.64007063792087 144.8013245034963,263.47089371318 154.45695364288986,261.3938357040752 163.39735099487007,253.08559295209125 170.1920529808849,248.9314651482273 176.2715231794864,244.3619196137879 179.49006622470915,241.03861051378772 182.70860927179456,238.96154093393125 185.21192052960396,235.22281298972666 186.28476821258664,231.06866675778292 185.92715231701732,223.1757771121338 183.42384105920792,220.2678665004205 171.62251655571163,215.2828719955869 163.7549668867141,217.77537001878954 157.67549668811262,223.1757771121338" stroke="#fff800" stroke-linecap="round" stroke-linejoin="round" stroke-width="0.5"><title>2021-01-25 3.2km</title><desc>5958643210</desc></polyline></svg>