<?xml version="1.0" encoding="utf-8" ?>
<svg baseProfile="full" height="300mm" version="1.1" viewBox="0,0,200,300" width="200mm" xmlns="http://www.w3.org/2000/svg" xmlns:ev="http://www.w3.org/2001/xml-events" xmlns:xlink="http://www.w3.org/1999/xlink"><defs /><rect fill="#222222" height="300" width="200" x="0" y="0" /><text fill="#FFFFFF" style="font-size:12px; font-family:Arial; font-weight:bold;" x="10" y="20">Over 3km Runs</text><text fill="#FFFFFF" style="font-size:4px; font-family:Arial" x="10" y="280">ATHLETE</text><text fill="#FFFFFF" style="font-size:9px; font-family:Arial" x="10" y="290">Licardo</text><text fill="#FFFFFF" style="font-size:4px; font-family:Arial" x="120" y="280">STATISTICS</text><text fill="#FFFFFF" style="font-size:3px; font-family:Arial" x="120" y="285">Number: 18</text><text fill="#FFFFFF" style="font-size:3px; font-family:Arial" x="120" y="290">Weekly: 3.6</text><text fill="#FFFFFF" style="font-size:3px; font-family:Arial" x="141" y="285">Total: 53.3 km</text><text fill="#FFFFFF" style="font-size:3px; font-family:Arial" x="141" y="290">Avg: 3.0 km</text><text fill="#FFFFFF" style="font-size:3px; font-family:Arial" x="167" y="285">Min: 1.6 km</text><text fill="#FFFFFF" style="font-size:3px; font-family:Arial" x="167" y="290">Max: 3.2 km</text><polyline fill="none" points="14.410000000149012,59.24325358285569 17.919999999925494,69.5932496599853 27.37000000011176,67.71143481158651 49.78000000026077,51.71596157737076 50.860000000335276,40.42498862580396 43.84000000078231,34.4658471068833 37.630000000819564,35.09312571072951 13.599999999627471,54.22506098332815 13.870000000111759,65.82961879926734 28.450000000186265,68.65234238165431 50.59000000078231,50.14777339738794 51.40000000037253,37.91587783116847 37.35999999940395,34.779486424988136 14.410000000149012,53.91142367059365 13.870000000111759,66.45689093321562 28.179999999701977,68.3387065581046 50.05000000074506,50.77504876651801 51.940000001341105,38.856794621795416 38.169999999925494,34.152207755250856 14.949999999254942,52.02959911664948 14.6800000006333,66.14325488288887 24.40000000037253,70.84779224498197 51.40000000037253,49.206860101083294 49.50999999977648,36.661321656778455 34.92999999970198,35.40676496503875 13.599999999627471,52.65687409741804 15.75999999884516,67.3977988907136 28.179999999701977,67.3977988907136 49.78000000026077,50.14777339738794 52.75,41.679543246747926 48.700000000186265,36.03404337586835 37.08999999985099,34.779486424988136 13.330000000074506,52.970511539140716 13.06000000052154,64.88871035724878 24.12999999895692,68.65234238165431 49.78000000026077,52.65687409741804 51.12999999988824,40.738627329003066 38.44000000040978,34.4658471068833 13.870000000111759,53.2841489482671 15.21999999973923,67.71143481158651 27.640000000596046,68.96597817377187 50.59000000078231,49.8341356634628 48.16000000014901,35.40676496503875 35.739999999292195,34.779486424988136 12.78999999910593,55.47960990970023 12.25,62.06598328007385 17.919999999925494,69.27961393306032 27.91000000014901,68.3387065581046 51.12999999988824,48.26594651397318 51.940000001341105,39.170433486578986 44.110000000335276,34.4658471068833 30.610000000335276,39.48407232062891" stroke="#ff1300" stroke-linecap="round" stroke-linejoin="round" stroke-width="0.5"><title>2021-01-25 3.1km</title></polyline><polyline fill="none" points="57.25,58.14552706456743 59.95000000111759,66.92734961910173 71.29000000096858,70.69098009099253 97.48000000044703,52.186418742872775 97.75,39.64088935870677 87.49000000115484,33.99538424634375 81.55000000074506,35.24994184402749 57.790000000968575,54.695518407039344 58.60000000055879,66.30007741972804 67.5100000007078,70.06370866927318 96.94000000040978,52.186418742872775 95.32000000122935,37.44541639368981 82.36000000033528,34.30902369460091 59.410000001080334,52.813693853328004 61.03000000026077,67.8682576736901 75.88000000081956,67.8682576736901 83.98000000044703,58.45916402176954 97.48000000044703,52.186418742872775 93.97000000067055,37.13177726930007 79.39000000059605,36.1908597019501 59.410000001080334,51.87278113886714 59.6800000006333,66.6137135354802 68.32000000122935,71.00461575365625 96.94000000040978,51.87278113886714 93.70000000111759,38.07269454561174 89.1100000012666,33.99538424634375 79.39000000059605,35.56358116189949 58.87000000104308,54.06824368494563 59.6800000006333,65.98644127254374 74.2600000007078,67.55462168809026 96.94000000040978,52.50005631404929 95.32000000122935,37.75905548571609 82.62999999988824,35.24994184402749 58.87000000104308,53.75460627558641 59.6800000006333,68.18189362692647 71.8300000000745,69.75007290998474 96.3999999994412,49.99095483776182 97.21000000089407,38.38633357337676 81.55000000074506,36.1908597019501 58.06000000052154,55.009155720006675 59.14000000152737,66.92734961910173 70.75,69.75007290998474 95.32000000122935,52.813693853328004 96.3999999994412,37.13177726930007 81.28000000026077,35.24994184402749 58.33000000100583,56.577341796597466 59.6800000006333,68.18189362692647 71.8300000000745,70.06370866927318 95.59000000078231,50.30459263548255" stroke="#ff1b00" stroke-linecap="round" stroke-linejoin="round" stroke-width="0.5"><title>2021-01-26 3.0km</title></polyline><polyline fill="none" points="113.89071856252849,46.02070418023504 104.19011976011097,58.41596212913282 106.8577844304964,65.45869726291858 114.61826347280294,68.8392036750447 139.83982035890222,53.9086021122057 142.26497006043792,46.02070418023504 140.08233532961458,40.949900621082634 130.1392215564847,37.569359683198854 108.07035928033292,50.809787784470245 103.46257484983653,60.669639349216595 113.64820359181613,69.12091235397384 140.32485029939562,53.62689186446369 142.75,46.5841262168251 138.6272455090657,39.259630675427616 130.38173652626574,37.00593578745611 106.8577844304964,51.93662976543419 105.4026946099475,64.89527911972255 116.07335329335183,69.12091235397384 142.26497006043792,51.93662976543419 141.05239520967007,41.5133237040136 134.50449101720005,37.00593578745611 126.01646706461906,38.4144953105133 104.43263472989202,54.7537326826714 102.25,59.82451060949825 105.4026946099475,65.17698820587248 118.49850299302489,68.55749496701173 142.02245508972555,52.50005058129318 141.05239520967007,42.076746670296416 126.01646706461906,38.4144953105133 107.10029940120876,51.654919313965365 105.16017964016646,64.61357000563294 115.34580838307738,69.12091235397384 141.05239520967007,52.50005058129318 140.32485029939562,41.79503520205617 130.38173652626574,36.724223795114085 107.10029940120876,51.93662976543419 104.91766467038542,64.05015168967657 116.80089820269495,68.55749496701173 138.86976047977805,53.62689186446369 139.59730538912117,42.921880901791155 127.22904191538692,38.13278346415609 106.37275449093431,51.654919313965365 104.67514969967306,64.05015168967657 117.043413172476,67.9940774643328 140.32485029939562,53.9086021122057 142.26497006043792,42.921880901791155 139.35479041934013,38.13278346415609 128.44161676615477,35.879087645793334 105.88772455044091,51.93662976543419 102.73502993956208,59.261091304942966 107.34281437005848,66.58553319820203 120.92365269362926,65.74040629016235" stroke="#ff1700" stroke-linecap="round" stroke-linejoin="round" stroke-width="0.5"><title>2021-01-28 3.1km</title></polyline><polyline fill="none" points="155.20953757222742,53.04392711468972 147.25,54.67556622880511 153.33670520223677,66.09701174707152 161.53034682106227,67.45670434553176 187.0476878611371,51.68422708217986 187.75,43.52601215685718 176.51300578005612,36.72748043178581 154.7413294799626,52.22810717928223 152.86849710997194,64.46537970239297 162.70086705219,67.45670434553176 185.87716762907803,49.50870557082817 187.0476878611371,41.62242504116148 183.3020231211558,37.54330516420305 172.29913294874132,37.54330516420305 154.03901734109968,52.77198716439307 151.6979768788442,62.8337466486264 163.87138728238642,66.91282739001326 185.40895953774452,50.324526347918436 185.87716762907803,40.53466035774909 173.0014450866729,36.72748043178581 154.27312138769776,52.77198716439307 151.22976878564805,57.39496250683442 153.57080924883485,64.46537970239297 163.4031791910529,66.91282739001326 186.11127167660743,49.236765255220234 186.81358381453902,41.350483912741765 174.87427745666355,36.72748043178581 154.03901734109968,52.500047186156735 152.4002890177071,62.8337466486264 161.53034682106227,68.27251956798136 186.81358381453902,48.14900371385738 184.23843930661678,38.08718817937188 171.12861271668226,38.3591296444647 152.86849710997194,53.31586703751236 154.7413294799626,65.2811958505772 164.3395953765139,66.64088887046091 185.64306358341128,50.324526347918436 184.23843930661678,39.990777847822756 172.06502890121192,38.08718817937188 152.63439306337386,53.859746798174456 150.9956647399813,58.7546595945023 154.97543352562934,65.5531345102936 163.16907514445484,67.72864278126508 186.57947976887226,49.236765255220234 182.83381502889097,36.99942203704268 171.83092485461384,38.3591296444647 152.86849710997194,53.587806931464 151.46387283224612,61.202112584142014 156.8482658965513,68.00058118882589 165.51011560764164,66.09701174707152 184.9407514454797,50.868406725814566" stroke="#ff1500" stroke-linecap="round" stroke-linejoin="round" stroke-width="0.5"><title>2021-01-29 3.1km</title></polyline><polyline fill="none" points="20.296357615850866,92.37056945660152 12.25,106.3907949081622 20.028145694173872,116.36069340980612 35.852649006061256,112.93354451283813 51.1407284764573,101.7173936557956 52.75,95.79774168832228 49.26324503310025,87.07402290264145 34.779801324009895,85.51621332531795 13.32284768205136,102.96363469702192 14.395695365034044,115.1144578976091 27.001655627973378,116.98381097358651 48.995033111423254,100.15959163173102 48.72682119254023,86.13933725352399 33.975165562704206,84.89308926928788 12.518211919814348,102.96363469702192 12.518211919814348,112.93354451283813 20.296357615850866,119.16472143353894 26.73344370815903,118.54160432028584 50.06788079440594,96.73242435022257 43.89900662191212,83.95840294426307 34.243377483449876,84.26996508520097 15.200331125408411,100.15959163173102 12.786423841491342,112.31042611273006 26.46523178834468,117.9184870775789 49.26324503310025,98.91334943380207 50.604304634965956,90.18963964795694 44.971854304894805,83.33527856669389 33.17052980046719,85.51621332531795 13.591059602797031,101.7173936557956 14.395695365034044,116.36069340980612 26.73344370815903,117.9184870775789 50.06788079440594,98.29022814123891 49.79966887459159,86.76246105204336 36.120860925875604,83.95840294426307 12.518211919814348,103.58675502496772 13.859271523542702,114.49133994826116 28.07450331095606,116.67225220822729 50.336092714220285,99.22491003153846 48.72682119254023,87.07402290264145 36.657284767366946,83.64684077119455 12.786423841491342,102.96363469702192 13.32284768205136,114.17978092492558 24.58774834405631,117.60692840861157 49.26324503310025,99.84803113061935 51.94536423776299,93.92837549862452 47.385761588811874,85.51621332531795 36.120860925875604,83.95840294426307 13.32284768205136,102.028953964822 15.200331125408411,116.36069340980612 23.783112581819296,118.85316289332695 49.26324503310025,99.53647059691139" stroke="#4dd2ff" stroke-linecap="round" stroke-linejoin="round" stroke-width="0.5"><title>2021-02-01 3.0km</title></polyline><polyline fill="none" points="64.61363636422902,97.58416095585562 57.51298701390624,108.27634426974691 66.45454545505345,118.66299966396764 94.33116883225739,101.55554783646949 97.75,93.61276874993928 95.90909090917557,87.50292418710887 88.01948051992804,82.92053249082528 74.87012987118214,89.64137121825479 58.56493506580591,105.52692938991822 59.8798701306805,114.69163572601974 67.2435064939782,119.57946750917472 93.01623376645148,101.8610389137175 97.48701298702508,94.8347361497581 91.43831168860197,84.75349002028815 79.86688311770558,85.66996835987084 58.56493506580591,104.61045719659887 58.82792207784951,113.46967652067542 63.298701299354434,117.74653153587133 72.24025974050164,118.05202094372362 96.69805194810033,96.3621946903877 94.06818181835115,85.66996835987084 81.70779220853001,84.75349002028815 59.353896104730666,103.99947557644919 63.035714286379516,117.44104209728539 71.97727272845805,118.35751031967811 96.43506493605673,98.50063532404602 95.38311688415706,86.89193903678097 80.91883117053658,85.36447561113164 59.8798701306805,101.8610389137175 58.038961038924754,111.63673676596954 61.983766234479845,116.21908402536064 73.29220779333264,116.8300631234888 96.69805194810033,97.58416095585562 93.01623376645148,85.66996835987084 81.44480519555509,84.44799717795104 58.301948052830994,103.99947557644919 59.616883117705584,114.99712544912472 73.29220779333264,117.13555262587033 96.43506493605673,98.50063532404602 94.59415584430099,87.50292418710887 80.3928571427241,85.36447561113164 58.56493506580591,103.6939847196918 57.25,109.80379587644711 62.7727272734046,117.13555262587033 74.08116883225739,116.52457359014079 96.69805194810033,99.11161807877943 93.2792207794264,85.36447561113164 78.81493506580591,85.97546107624657 59.353896104730666,102.16652996069752 61.720779220573604,116.52457359014079 73.81818181835115,116.8300631234888 97.22402597498149,96.97317788633518" stroke="#ff1a00" stroke-linecap="round" stroke-linejoin="round" stroke-width="0.5"><title>2021-02-02 3.0km</title></polyline><polyline fill="none" points="111.19155844207853,96.51493980339728 103.301948052831,108.12359776906669 107.50974026042968,115.76084792823531 116.97727272752672,117.8992744430434 142.75,95.59846486872993 138.54220779333264,86.43369991425425 130.38961039017886,83.68426489713602 105.66883116960526,101.40280133578926 103.82792207878083,113.01144013926387 113.82142857275903,119.4267210084945 139.3311688322574,101.0973102261778 141.17207792308182,89.79411702416837 136.96428571548313,85.21172911045142 127.49675324838609,84.29525067727081 104.87987013161182,101.70829241303727 104.09090909175575,113.62241986929439 114.0844155838713,118.81574247661047 138.54220779333264,101.70829241303727 142.4870129879564,93.15453032031655 138.54220779333264,85.21172911045142 129.07467532530427,84.29525067727081 108.82467532530427,97.73690594360232 103.03896103892475,111.48399026528932 111.19155844207853,119.4267210084945 141.43506493605673,97.73690594360232 137.22727272752672,83.68426489713602 125.12987013161182,84.90623633028008 105.93181818164885,100.79181908536702 103.03896103892475,106.90163591550663 105.93181818164885,115.76084792823531 117.76623376645148,117.28829559660517 140.64610389713198,98.9588715780992 139.06818181835115,86.73919253610075 124.34090909175575,85.82271457556635 103.82792207878083,103.84672907576896 106.98376623447984,116.67731662280858 118.29220779333264,117.28829559660517 141.43506493605673,98.34788882336579 139.3311688322574,86.43369991425425 127.49675324838609,84.60074351960793 103.301948052831,104.15221990202554 102.25,110.5675199625548 107.50974026042968,118.51025316328742 116.45129870157689,118.51025316328742 140.64610389713198,98.9588715780992 140.38311688322574,87.35017768642865 135.3863636367023,83.07327899127267 126.44480519555509,84.29525067727081 104.61688311770558,102.31927447463386 104.87987013161182,116.37182708946057 116.97727272752672,118.20476381899789 138.80519480537623,100.79181908536702" stroke="#ff1a00" stroke-linecap="round" stroke-linejoin="round" stroke-width="0.5"><title>2021-02-03 3.0km</title></polyline><polyline fill="none" points="147.75943396240473,104.35683781025 149.03301886841655,112.3456995638553 156.41981132235378,116.48806356498972 165.5896226419136,115.60041464073583 183.41981132049114,103.76506938785315 187.75,95.77618373278528 184.4386792453006,90.45024760183878 178.3254716983065,84.82841539965011 171.95754716917872,85.71607384830713 149.54245283082128,100.51034088130109 147.5047169821337,112.04981619329192 159.73113207612187,118.2633605916053 182.400943396613,103.46918513043784 185.45754716917872,94.88852839777246 171.95754716917872,84.23664294905029 148.52358490601182,102.58153217635117 148.0141509436071,113.23334949696437 162.53301886748523,117.07982936338522 184.4386792453006,100.80622544349171 177.5613207546994,85.12430158047937 171.702830189839,85.12430158047937 149.54245283082128,101.10210997541435 147.25,111.45804935717024 153.3632075479254,117.96747783035971 162.7877358496189,117.67159503884614 184.1839622631669,101.10210997541435 184.94811320770532,89.26670489623211 174.50471698120236,83.94075667695142 148.26886792574078,102.28564779739827 147.5047169821337,112.93746621604078 161.5141509436071,117.67159503884614 183.92924528289586,101.39799447660334 184.94811320770532,92.52144616167061 179.34433962311596,86.01195993716829 167.88207547273487,86.01195993716829 147.25,103.46918513043784 148.52358490601182,114.71276544034481 161.76886792480946,118.55924332281575 184.1839622631669,101.10210997541435 185.7122641503811,95.48029865208082 180.87264150939882,87.49138992163353 168.90094339568168,86.60373202292249 147.5047169821337,103.76506938785315 150.5613207546994,116.78394647943787 162.02358490601182,117.96747783035971 184.94811320770532,99.3268023270648 184.94811320770532,90.74613320198841 180.61792452912778,86.30784599552862 168.39150943420827,86.30784599552862 149.2877358496189,101.69387894752435 149.79716981202364,115.00864853779785 160.24056603759527,118.55924332281575 185.20283018890768,101.69387894752435" stroke="#ff1c00" stroke-linecap="round" stroke-linejoin="round" stroke-width="0.5"><title>2021-02-05 3.0km</title></polyline><polyline fill="none" points="19.633977900259197,154.2887243856676 26.346685082651675,155.0684846942313 21.87154696136713,157.40776417334564 25.227900553494692,163.90575132938102 41.56215469632298,157.92760376189835 52.52624309435487,146.4911080247257 44.91850828751922,136.09424867061898 21.20027624350041,151.42960118851624 22.095303867943585,161.04663904453628 32.388121547177434,163.12599375494756 52.75,147.27087074657902 46.70856353547424,136.61409265757538 41.56215469632298,136.09424867061898 21.87154696136713,150.6498397537507 21.424033150076866,160.52680010022596 33.28314917162061,162.86607450968586 51.85497237555683,148.31055400101468 46.93232044298202,137.65378030901775 39.548342540860176,137.1339365367312 20.976519336923957,151.9494420113042 22.54281768016517,161.30655847745948 32.1643646415323,163.90575132938102 52.52624309435487,146.4911080247257 46.48480662982911,136.09424867061898 38.653314917348325,137.65378030901775 20.752762431278825,152.2093623825349 21.20027624350041,160.26688058674335 33.05939226504415,163.12599375494756 52.07872928120196,149.09031615965068 52.75,143.89189720805734 46.93232044298202,138.9533892699983 32.388121547177434,139.73315432528034 12.473756906576455,153.76888404600322 12.25,161.04663904453628 22.319060772657394,163.12599375494756 42.90469613298774,156.10816473071463 52.75,145.19150295178406 43.12845303956419,136.09424867061898 20.976519336923957,151.9494420113042 21.424033150076866,160.52680010022596 31.045580110512674,163.12599375494756 50.73618784546852,150.12999866274185 51.18370165769011,141.29268371057697 44.47099447529763,137.3938584360294 35.52071823272854,138.17362397396937 22.095303867943585,150.12999866274185 21.424033150076866,160.78671958553605 31.269337016157806,163.6458321644459 50.95994475111365,149.87007807777263 51.18370165769011,139.9930759561248" stroke="#4dd2ff" stroke-linecap="round" stroke-linejoin="round" stroke-width="0.5"><title>2021-02-06 3.0km</title></polyline><polyline fill="none" points="59.20180722884834,153.82604667311534 60.17771084327251,161.7614301352296 68.71686747018248,165.7291132719256 94.33433734904975,150.42516102921218 97.01807228848338,143.0565610243939 83.11144578270614,133.42066965880804 58.46987951826304,151.2753828347195 60.17771084327251,162.61164843314327 71.15662650577724,165.16230174619704 96.04216867405921,148.724716628436 95.55421686731279,140.5058871882502 84.08734939806163,134.2708967269864 59.689759036526084,149.29153154580854 60.17771084327251,162.04483626410365 71.15662650577724,165.16230174619704 95.79819277115166,149.00812410190701 93.846385541372,138.2386195671279 79.93975903652608,136.25475886370987 59.689759036526084,149.57493896060623 59.689759036526084,161.7614301352296 70.1807228922844,165.7291132719256 95.31024096347392,150.14175370242447 97.75,143.33996908273548 83.11144578270614,134.2708967269864 58.95783132594079,150.42516102921218 60.909638554789126,163.461866467027 71.88855421636254,165.7291132719256 96.04216867405921,149.29153154580854 95.55421686731279,140.5058871882502 80.67168674711138,135.97135007451288 58.71385542117059,152.12560437759385 61.153614458628,164.02867834363133 73.59638554230332,164.8788959395606 95.79819277115166,148.724716628436 85.30722891539335,134.2708967269864 81.40361445769668,134.8377146271523 59.689759036526084,149.8583463456016 57.25,157.2269281060435 60.66566265095025,163.74527241964824 71.64457831438631,165.16230174619704 96.77409638464451,147.8744940336328 93.35843373462558,137.6718023691792 85.30722891539335,133.7040787115693 78.71987951826304,135.40453240904026 58.71385542117059,151.55879004509188 62.37349397595972,164.59549010335468 72.13253012113273,166.57933034119196 96.77409638464451,148.724716628436" stroke="#ff1500" stroke-linecap="round" stroke-linejoin="round" stroke-width="0.5"><title>2021-02-08 3.1km</title></polyline><polyline fill="none" points="103.6000000005588,155.01825253735296 104.6800000006333,164.4273481303826 113.05000000074506,168.19097821461037 139.24000000022352,151.568243523594 141.12999999988824,139.0227231986355 137.3500000005588,133.69086138485 128.98000000044703,132.4363043049816 104.41000000108033,152.50915546063334 102.52000000141561,161.9182588190306 115.48000000044703,168.5046138446778 140.86000000033528,149.6864187750034 139.77999999932945,136.51361292111687 131.95000000018626,131.49538615555502 103.33000000100583,152.50915546063334 104.6800000006333,164.74098414904438 116.29000000096858,168.5046138446778 141.3999999994412,148.43186829565093 141.12999999988824,136.19997399137355 129.5200000014156,132.12266495334916 105.21999999973923,150.94096873654053 103.06000000052154,162.23189509660006 117.1000000005588,167.87734255194664 140.05000000074506,150.62733129505068 142.21000000089407,138.39544582366943 129.25,132.4363043049816 104.14000000152737,152.1955181809608 104.41000000108033,163.80007599643432 109.27000000048429,167.56370685691945 118.99000000115484,166.6227995788213 141.3999999994412,150.62733129505068 140.32000000122935,135.57269603433087 128.71000000089407,132.7499436228536 104.41000000108033,151.568243523594 103.87000000104308,163.48643988068216 117.64000000059605,167.2500711302273 141.12999999988824,149.3727812038269 142.75,140.27727756113745 129.25,132.7499436228536 104.41000000108033,151.88188086799346 102.25,160.66371338744648 107.92000000085682,167.2500711302273 116.8300000000745,167.87734255194664 140.32000000122935,151.25460614589974 142.48000000044703,139.0227231986355 138.4300000006333,133.69086138485 129.25,132.7499436228536 104.41000000108033,151.568243523594 104.95000000111759,164.11371208005585 116.29000000096858,167.87734255194664 139.24000000022352,150.62733129505068" stroke="#4dd2ff" stroke-linecap="round" stroke-linejoin="round" stroke-width="0.5"><title>2021-02-09 3.0km</title></polyline><polyline fill="none" points="147.25,154.34502608026378 149.0557324839756,162.7353075989522 161.6958598718047,165.7318308390677 177.94745222944766,156.14294558833353 187.75,145.0557575575076 174.33598726149648,134.26818263856694 148.79777070134878,150.44952999427915 148.0238853506744,162.13600257970393 158.08439490385354,166.93043926986866 186.20222929958254,150.1498762324918 187.49203821644187,144.1567945110146 179.49522292986512,134.86749340663664 163.50159235764295,140.26128476136364 147.50796178355813,153.14641245640814 151.63535031862557,165.7318308390677 163.50159235764295,166.33113511605188 187.49203821644187,146.25437452015467 183.8805732484907,138.46335542341694 170.20859872549772,135.46680405270308 149.31369426753372,148.6516069616191 151.37738853413612,165.43217865447514 162.2117834398523,166.63078720890917 184.9124203817919,152.24745191354305 184.39649681467563,139.06266532675363 177.68949044588953,133.06956073013134 155.50477707013488,144.45644889120013" stroke="#4dd2ff" stroke-linecap="round" stroke-linejoin="round" stroke-width="0.5"><title>2021-02-17 1.6km</title></polyline><polyline fill="none" points="16.37738853506744,202.94520278507844 13.02388535067439,203.54450928838924 14.055732484906912,212.83374427026138 21.794585986994207,215.8302653466817 47.84872611518949,200.24832199211232 51.97611464932561,191.8580101793632 38.562101911753416,181.96939728572033 15.603503186255693,197.25178484153003 14.055732484906912,211.03583014104515 26.69585987366736,215.5306133783888 49.91242038272321,200.5479755376 51.7181528666988,187.36319031077437 38.562101911753416,181.96939728572033 14.829617835581303,198.45040007284842 13.02388535067439,209.23791489796713 25.921974522061646,214.93130934843794 50.94426751602441,199.04970750305802 52.49203821644187,190.35973766213283 46.04299363028258,183.16801882372238 37.272292993962765,182.26905271713622 14.829617835581303,198.45040007284842 14.57165605109185,211.93478734372184 25.406050955876708,215.8302653466817 51.7181528666988,198.15074631106108 52.75,189.76042843959294 41.65764331165701,181.07043080870062 16.11942675244063,196.6524770401884 13.281847134232521,210.4365251827985 26.69585987366736,214.33200519462116 51.46019108314067,197.55143869575113 49.13853503204882,186.46422550198622 37.78821656201035,182.86836348520592 14.57165605109185,199.04970750305802 12.25,209.53756751632318 18.18312101904303,215.5306133783888 26.43789809010923,216.4295691915322 49.91242038272321,200.24832199211232 50.68630573246628,189.1611190927215 37.78821656201035,183.16801882372238 14.055732484906912,199.94866841635667 14.829617835581303,212.23443968384527 25.406050955876708,215.8302653466817 50.68630573246628,199.04970750305802 48.88057324755937,184.96595020289533 37.014331210404634,181.96939728572033 12.76592356711626,201.14728253497742 14.57165605109185,212.23443968384527 22.568471337668598,215.5306133783888 50.94426751602441,199.64901480963454" stroke="#ff1900" stroke-linecap="round" stroke-linejoin="round" stroke-width="0.5"><title>2021-02-18 3.0km</title></polyline><polyline fill="none" points="59.26242236047983,201.5260395030491 57.75310559011996,209.70786682260223 67.56366459559649,216.72084285737947 89.19720496889204,203.86370686278678 96.74378881976008,192.1753507705871 86.93322981335223,181.36357844411395 61.52639751508832,195.97407179116271 59.01086956448853,206.49358033761382 64.04192546568811,213.79877161956392 69.8276397511363,214.09097887948155 94.73136645834893,198.60395258991048 94.98291925434023,187.49999482906424 84.9208074528724,181.36357844411395 65.04813664592803,193.6363979196176 57.75310559011996,205.6169561170973 63.03571428544819,212.92214965983294 71.84006211068481,214.09097887948155 91.7127329185605,201.81824802840129 96.4922360247001,188.96104438998736 84.41770186368376,182.53242068458349 61.52639751508832,197.14290800318122 57.501552794128656,204.74033162579872 59.51397515553981,210.87669736682437 67.06055900640786,213.79877161956392 90.95807453338057,202.11045652348548 97.4984472040087,192.1753507705871 88.94565217383206,181.36357844411395 65.29968944005668,193.0519791508559 57.25,204.74033162579872 61.7779503101483,212.92214965983294 70.83385093137622,213.79877161956392 94.47981366422027,199.48057898017578 96.2406832287088,188.66883453796618 83.66304347850382,181.94799962523393 61.52639751508832,196.55848995759152 57.501552794128656,200.64941374538466 58.25621117930859,208.539035795955 63.79037267062813,214.6753933073487 72.34316770173609,214.96760047669522 91.46118012443185,202.40266498923302 97.24689440988004,192.75976972142234 85.17236024793237,182.82463116990402 66.80900621041656,192.4675602603238 57.501552794128656,205.90916422009468 68.31832298077643,213.79877161956392 94.2282608691603,199.48057898017578 97.75,190.71430286788382 85.92701863311231,180.77915714285336 59.51397515553981,198.60395258991048 59.51397515553981,209.70786682260223 64.29347826074809,213.21435701008886 75.36180124152452,212.04552743048407 94.98291925434023,199.48057898017578" stroke="#ff1c00" stroke-linecap="round" stroke-linejoin="round" stroke-width="0.5"><title>2021-02-19 3.0km</title></polyline><polyline fill="none" points="102.25,203.7800816348754 104.28773584961891,211.76893514790572 117.53301886841655,215.61541223688982 141.9858490563929,198.75005134101957 141.9858490563929,188.09819336235523 135.61792452819645,182.18047739192843 129.5047169821337,182.18047739192843 104.28773584961891,199.34182006819174 106.83490566164255,212.65658416436054 121.35377358552068,213.24835002305917 142.75,196.9747444249224 140.7122641503811,186.02699416154064 128.4858490563929,182.4763634807896 104.54245283082128,199.04593571997248 105.8160377368331,212.36070118960924 117.53301886841655,214.7277641352266 141.4764150949195,198.15828249114566 142.24056603759527,189.87350577278994 132.5613207546994,181.58870512410067 126.70283018890768,182.77224953914993 104.79716981295496,198.75005134101957 103.26886792574078,207.03480241890065 108.87264151033014,213.54423290700652 125.68396226502955,210.88128585577942 141.4764150949195,197.56651351903565 142.49528301972896,191.94470219570212 133.07075471803546,183.65990752959624 123.900943396613,184.25167937087826 103.77830188721418,200.8212413538713 109.38207547273487,213.54423290700652 121.099056603387,212.95246710861102 142.49528301972896,194.60766682820395 138.1650943402201,184.25167937087826 129.5047169821337,182.18047739192843 106.58018867950886,196.67885983223096 103.52358490601182,207.92245290079154 114.73113207612187,215.91129487589933 140.7122641503811,199.34182006819174 141.73113207612187,190.76116156601347 130.52358490601182,181.58870512410067 105.8160377368331,197.56651351903565 104.28773584961891,208.8101031074766 118.29716981202364,212.95246710861102 138.92924528382719,200.8212413538713 141.22169811371714,187.50642231456004 128.4858490563929,181.88459127303213 105.8160377368331,197.56651351903565 103.01415094360709,203.18831382272765 106.07075471803546,211.1771689839661 117.78773584961891,213.24835002305917 137.14622641634196,202.00477783218957 142.24056603759527,191.35293194139376 127.46698113251477,182.77224953914993 105.051886793226,198.75005134101957" stroke="#ff0000" stroke-linecap="round" stroke-linejoin="round" stroke-width="0.5"><title>2021-02-20 3.2km</title></polyline><polyline fill="none" points="147.25,208.63861225917935 157.05254777055234,215.8302672947757 162.98566878959537,214.93131138919853 183.36464968137443,201.1472859971691 187.75,193.3562861897517 185.68630573153496,184.66630021296442 175.36783439479768,181.9694027272053 149.82961783464998,201.1472859971691 149.3136942666024,209.8372226683423 161.17993630561978,215.5306153567508 185.68630573153496,199.34936481970362 186.7181528666988,185.2656104255002 172.27229299396276,182.568713495275 150.60350318439305,198.7500575131271 149.57165605109185,210.73618015111424 164.01751592289656,214.33200729754753 187.49203821551055,196.65248096571304 184.9124203827232,182.86836883379146 170.72452229261398,184.36664506001398 150.60350318439305,199.9486720021814 151.11942675244063,213.73270308133215 165.30732484068722,214.03235520469025 186.9761146493256,197.85109632113017 186.7181528666988,185.2656104255002 172.7882165601477,182.2690581267234 153.18312101904303,196.9521348515991 149.0557324839756,210.1368751928676 161.43789808824658,215.8302672947757 185.9442675150931,198.7500575131271 187.75,184.36664506001398 177.94745222851634,180.47112526348792 149.57165605109185,200.8476325450465 149.3136942666024,211.93478969391435 161.6958598718047,217.02887473651208 184.9124203827232,198.7500575131271 186.46019108220935,186.763885415392 173.3041401281953,181.9694027272053 150.60350318439305,199.34936481970362 148.79777070041746,208.03930686879903 152.1512738848105,213.73270308133215 166.08121019043028,213.1333987431135 186.9761146493256,195.1542110776063 184.3964968137443,183.4676794174593 172.7882165601477,181.3700918345712 151.37738853413612,198.1507500829175 149.82961783464998,211.33548498386517 157.05254777055234,216.1299192016013 165.30732484068722,213.43305092770606 184.65445859823376,199.04971118154936" stroke="#ff1c00" stroke-linecap="round" stroke-linejoin="round" stroke-width="0.5"><title>2021-02-21 3.0km</title></polyline><polyline fill="none" points="13.556451613083482,251.9010968983639 14.07903225813061,261.31019394798204 21.917741935700178,265.862972040195 50.39838709682226,248.8658978822641 50.92096774280071,239.15323999198154 40.46935483906418,229.7440720850136 15.124193548224866,247.34829720086418 15.124193548224866,259.79259968502447 27.404838710092008,264.3453801255673 49.09193548373878,249.77645791624673 52.75,238.54619780927896 49.09193548373878,233.3863341989927 37.595161290839314,230.35111608286388 15.646774193271995,246.43773641600274 15.385483872145414,260.0961186005734 26.098387096077204,264.04186164890416 50.659677418880165,247.9553375672549 50.659677418880165,236.72507050889544 43.34354838728905,230.35111608286388 37.072580644860864,230.95815995661542 15.385483872145414,247.65181740000844 13.033870968036354,258.88204275094904 26.620967742986977,264.04186164890416 50.659677418880165,246.43773641600274 48.046774194575846,232.17224732856266 39.94677419401705,229.13702795980498 17.21451612841338,245.52717534871772 12.25,256.75740881008096 24.791935483925045,264.64889857079834 50.13709677476436,247.65181740000844 49.09193548373878,233.3863341989927 41.253225807100534,229.13702795980498 15.90806451626122,246.7412567087449 13.556451613083482,257.66796640097164 25.575806451961398,264.9524169852957 49.875806451775134,248.5623778088484 48.83064516168088,236.42154918331653 38.64032258093357,230.6546380361542 14.340322580188513,248.8658978822641 14.07903225813061,257.66796640097164 26.882258064113557,263.43482460128143 48.56935483869165,247.9553375672549 51.44354838784784,242.49196975817904 48.046774194575846,233.68985583866015 39.94677419401705,229.7440720850136 15.385483872145414,247.04477697075345 13.295161290094256,258.2750046395231 26.620967742986977,264.04186164890416 49.61451612971723,248.25885770423338" stroke="#4dd2ff" stroke-linecap="round" stroke-linejoin="round" stroke-width="0.5"><title>2021-02-22 3.0km</title></polyline><polyline fill="none" points="58.25,253.30815020692535 60.99999999906868,261.72986853076145 69.0,264.9243068215437 94.24999999906868,248.37126913154498 97.0,240.53032256872393 85.24999999906868,230.6565069409553 59.25000000093132,246.91924363817088 57.75,257.9546186046209 64.75,262.6010793338064 73.0,262.3106757623609 94.75,248.6616741400212 97.49999999906868,240.53032256872393 94.75,234.4317934764549 84.5,230.94691377668642 60.25,247.20964879659005 58.25,258.2450226251967 64.75,263.1818863854278 73.5,261.72986853076145 94.0,248.6616741400212 95.99999999906868,237.9166688611731 87.25,230.0756931786891 60.75000000093132,246.6288384492509 58.0,257.37381047476083 64.25000000093132,262.89148287428543 73.25,262.6010793338064 94.24999999906868,248.6616741400212 96.5,240.2399167213589 84.99999999906868,231.527727359673 61.25,245.7576227041427 58.25,256.79300222476013 70.5,262.3106757623609 95.25,248.6616741400212 97.75,239.36869899835438 92.25,232.68935416615568 83.75,230.94691377668642 59.75,247.20964879659005 58.0,257.6642145556398 64.0,262.89148287428543 73.25,264.0530967381783 96.25,247.50005392567255 94.0,235.8838254113216 83.0,231.527727359673 59.25000000093132,247.50005392567255 57.25,253.30815020692535 60.5,261.1490611799527 65.99999999906868,263.76269331690855 78.0,260.2778499277774 94.24999999906868,248.0808640930336 94.99999999906868,237.04545041895472 89.0,230.36610007518902 83.0,230.0756931786891 59.0,248.0808640930336 59.25000000093132,259.9874461167492 72.5,262.3106757623609 94.75,246.33843323099427" stroke="#ff1500" stroke-linecap="round" stroke-linejoin="round" stroke-width="0.5"><title>2021-02-24 3.1km</title></polyline></svg>