<?xml version="1.0" encoding="utf-8" ?>
<svg baseProfile="full" height="300mm" version="1.1" viewBox="0,0,200,300" width="200mm" xmlns="http://www.w3.org/2000/svg" xmlns:ev="http://www.w3.org/2001/xml-events" xmlns:xlink="http://www.w3.org/1999/xlink"><defs /><rect fill="#222222" height="300" width="200" x="0" y="0" /><text fill="#FFFFFF" style="font-size:12px; font-family:Arial; font-weight:bold;" x="10" y="20">Over 5km Runs</text><text fill="#FFFFFF" style="font-size:4px; font-family:Arial" x="10" y="280">ATHLETE</text><text fill="#FFFFFF" style="font-size:9px; font-family:Arial" x="10" y="290">Licardo</text><text fill="#FFFFFF" style="font-size:4px; font-family:Arial" x="120" y="280">STATISTICS</text><text fill="#FFFFFF" style="font-size:3px; font-family:Arial" x="120" y="285">Number: 13</text><text fill="#FFFFFF" style="font-size:3px; font-family:Arial" x="120" y="290">Weekly: 2.2</text><text fill="#FFFFFF" style="font-size:3px; font-family:Arial" x="141" y="285">Total: 52.1 km</text><text fill="#FFFFFF" style="font-size:3px; font-family:Arial" x="141" y="290">Avg: 4.0 km</text><text fill="#FFFFFF" style="font-size:3px; font-family:Arial" x="167" y="285">Min: 3.1 km</text><text fill="#FFFFFF" style="font-size:3px; font-family:Arial" x="167" y="290">Max: 10.4 km</text><polyline fill="none" points="30.587062566308305,42.92698998042033 29.945705196238123,43.16093703356455 29.09819724294357,43.732806777756196 28.869141039438546,43.966753151791636 28.0674443267053,45.03250636073062 27.40318133623805,46.09825547813671 26.48695652175229,47.21598796165199 25.77688229060732,48.33371594490018 25.502014846308157,48.56765844160691 23.784093319205567,49.52941996816662 23.44050901394803,49.55541347665712 22.936585365911014,49.451439427939476 22.593001060537063,49.42544590967009 21.699681866564788,49.5814069827029 21.012513255584054,49.78935494387406 19.821420996799134,50.36121103388723 18.630328738014214,51.011046069994336 17.782820784836076,51.53091300369124 17.0040296924999,52.154752039175946 16.179427359602414,53.11650113918586 15.629692470887676,53.81831594731193 15.286108165513724,54.36417068261653 14.736373276798986,55.48186988741509 13.155885471845977,58.31508724775631 12.629056203644723,59.58872599923052 13.064262990606949,59.874644099589204 14.140827147406526,60.498464387637796 14.805090137873776,60.78438155123149 15.996182396658696,61.04430598995532 17.07274655357469,61.12228327401681 17.622481442289427,61.304230185225606 18.813573701074347,62.00602429738501 19.11134676565416,62.29193990860949 19.63817603397183,62.70781663569505 20.82926829275675,63.01972377221682 21.699681866564788,62.99373152424232 22.432661717990413,62.78579345266917 23.096924708457664,62.42190145273344 23.829904559999704,61.82407784604584 24.379639448598027,61.48617697725422 24.998091198387556,61.22625295227044 25.799787911004387,61.04430598995532 26.44114528107457,61.01831355699687 28.021633085911162,61.12228327401681 28.342311771120876,61.09629084850894 28.617179215303622,61.252245365671115 29.052386002265848,61.564154137304286 29.487592788995244,61.66812365001533 30.106044538901187,61.694116022088565 30.930646871798672,61.694116022088565 31.52619300119113,61.53816175306565 33.17539766721893,61.408199795288965 34.68716861086432,61.64213127543917 35.07656415703241,61.74610075901728 35.94697773072403,62.10999364464078 36.54252386011649,62.44789375428809 37.45874867448583,63.17567720913212 37.96267232240643,63.64353699426283 38.60402969259303,64.5532620974991 39.291198303340934,65.22905595903285 39.818027571658604,65.64492828710354 40.459384941728786,66.13877586767194 40.596818663878366,66.19075977252214 40.75715800654143,66.13877586767194 41.19236479338724,65.8528642175952 41.92534464481287,65.54096026351908 42.36055143165868,65.25504799780902 42.72704135754611,64.91715130425291 42.979003181448206,64.5272699930938 43.139342523994856,64.18937241387903 43.276776246144436,63.74750572833 43.46002120897174,62.837777985143475 43.757794273784384,61.928047261433676 43.94103923661169,61.53816175306565 44.49077412521001,60.57644182504737 45.17794273607433,59.6407111302542 45.49862142116763,59.276815008430276 45.81930010614451,58.99089629238006 46.2086956523126,58.67898463003803 46.8958642630605,58.289094559295336 47.88080593862105,57.56129829573911 48.8657476141816,56.729528801253764 50.17136797460262,55.50786283859634 51.06468716869131,54.5721150613972 52.576458112569526,52.804582877171924 53.10328738077078,52.07677223641076 53.9737009544624,50.98505269770976 55.25641569471918,48.95756216478185 55.60000000009313,48.33371594490018 55.60000000009313,48.09977325098589 55.577094379696064,47.96980500253267 55.41675503726583,47.735862002009526 55.18769883364439,47.47592510355753 53.12619300116785,46.150243135285564 52.41611877002288,45.864310900418786 51.706044538877904,45.42241504901904 51.156309650163166,44.928530618024524 50.056839872850105,43.68081866792636 49.0489925770089,42.77102516879677 48.68250265123788,42.5110836213571 47.92661717941519,42.069182432140224 47.376882290584035,41.861228687892435 46.62099681876134,41.80924022747786 46.02545068936888,41.91321713855723 45.22375397675205,42.22514763812069 43.48292682936881,43.03096647275379 43.093531283317134,43.186931138363434 42.65832449635491,43.26491343823727 41.352704135817476,43.39488388944301 39.886744432733394,43.65482460928615 39.405726405093446,43.55084835056914 39.17667020158842,43.52485427982174 37.183881230303086,43.706812724034535 35.87826086964924,43.602836484787986 35.259809119976126,43.47286613099277 33.67932131502312,42.92698998042033 32.39660657488275,42.61506026951247 31.801060445490293,42.61506026951247 30.35800636280328,42.9529841071635 29.60212089086417,43.16093703356455 29.327253446448594,43.34289571631234 27.83838812308386,45.31843945232686 26.55567338282708,47.11201303676353 25.799787911004387,48.307722321973415 25.639448568457738,48.489677631267114 24.769034994766116,49.087529950775206 24.081866384018213,49.65938748646295 23.967338282149285,49.711374476755736 22.890774125116877,49.39945238895598 22.20360551448539,49.47743294379325 21.21866383892484,49.73736796819139 20.714740190887824,49.94531581256888 18.218027571681887,51.16700625233352 17.34761399787385,51.8428326966241 16.637539766728878,52.59663717454532 15.515164369018748,54.00026764499489 15.286108165513724,54.416156791878166 14.942523860139772,55.24793321688776 14.026299045654014,56.65155028333538 13.201696712640114,58.10714567225659 12.400000000023283,59.40677796385717 12.60615058336407,59.53674085845705 13.728525980957784,60.056591828441015 14.461505832499824,60.52445686922874 14.988335100701079,60.78438155123149 15.492258748738095,60.94033624365693 17.095652173971757,61.148275697254576 17.80572640511673,61.382207396411104 18.653234358527698,61.928047261433676 19.248780487920158,62.39590914873406 19.546553552616388,62.70781663569505 19.913043478387408,62.8637702477281 20.57730646885466,63.01972377221682 21.585153764579445,62.9677392738522 22.180699893971905,62.81178572017234 22.799151643761434,62.5258706441964 23.646659597172402,61.85007020350895 24.539978791144677,61.382207396411104 25.18133616121486,61.148275697254576 26.051749735022895,60.96632868386223 26.7389183457708,60.96632868386223 28.433934252359904,61.148275697254576 29.144008483621292,61.460184585652314 30.266383881215006,61.72010839174618 30.793213149532676,61.694116022088565 31.778154825093225,61.434192191722104 32.671474019181915,61.382207396411104 33.496076352195814,61.408199795288965 34.664262990583666,61.590146519156406 35.191092258901335,61.7980854861089 36.01569459179882,62.18797062948579 37.00063626735937,62.837777985143475 37.59618239675183,63.30563833969063 37.93976670212578,63.695521366171306 38.19172852614429,64.00742739328416 38.60402969259303,64.70921467311564 38.85599151649512,64.99512750076246 40.413573701051064,66.08679195324657 40.55100742331706,66.11278391169617 41.10074231179897,65.95683212438598 41.948250265209936,65.54096026351908 42.42926829284988,65.17707187423366 42.81866383890156,64.7352067604952 43.07062566280365,64.37131731532281 43.208059385069646,64.08540384517983 43.29968186642509,63.77349790575681 43.505832449765876,62.62983979683486 43.64326617191546,62.16197830357123 43.757794273784384,61.85007020350895 44.14718981983606,61.09629084850894 44.3762460234575,60.7064041721751 44.74273594934493,60.21254692960065 45.26956521754619,59.562733430066146 45.79639448586386,59.04288153539528 46.30031813378446,58.70497728191549 47.697560975677334,57.69126205405337 49.43838812306058,56.18367871636292 50.67529162252322,54.98800335175474 51.82057264063042,53.74033661172143 52.69098621432204,52.67461683120928 53.37815482506994,51.81683940230869 54.592152704368345,50.07528313616058 55.393849416752346,48.77560716212611 55.55418875941541,48.38570318339043 55.60000000009313,48.177754170872504 55.55418875941541,47.943811345583526 55.41675503726583,47.76185567842913 55.02735949109774,47.42393769463524 53.69883351016324,46.566144042124506 52.9658536586212,45.96828629259835 52.18706256640144,45.78632933064364 51.43117709446233,45.344433355203364 51.110498409485444,45.03250636073062 50.03393425245304,43.75880082900403 49.0489925770089,42.849007585522486 48.0411452811677,42.14716504604439 47.766277836752124,42.01719401057926 47.35397667030338,41.887222914461745 46.73552492063027,41.80924022747786 46.27741251338739,41.861228687892435 43.39130434789695,42.978978231491055 42.246023329906166,43.23891934068524 41.123647932196036,43.42087797241402 39.97836691420525,43.65482460928615 39.405726405093446,43.49886020660051 39.17667020158842,43.47286613099277 38.23753976682201,43.55084835056914 37.2984093320556,43.68081866792636 35.87826086964924,43.62883054828853 35.09946977731306,43.47286613099277 33.564793213270605,42.92698998042033 32.900530222803354,42.74503102499875 32.62566277838778,42.69304273009766 31.320042417850345,42.667048579023685 30.014422057312913,42.900995851203334 29.487592788995244,43.10894881654531 29.09819724294357,43.706812724034535 27.815482502803206,45.266451639385195 27.51770943799056,45.70834773906972 27.128313891822472,46.410181275132345 26.509862142265774,47.13800677162362 26.097560975700617,47.83983669325244 25.570731707382947,48.46368402300868 25.135524920537136,48.8016007411934 24.5857900318224,49.165510593215004 23.898621421074495,49.451439427939476 23.715376458130777,49.50342645714409 23.348886532359757,49.47743294379325 22.91367974563036,49.34746534031001 21.768398727523163,49.55541347665712 21.035418875981122,49.76336145721143 19.89013785799034,50.33521760086296" stroke="red" stroke-linecap="round" stroke-linejoin="round" stroke-width="0.5"><title>2024-07-02 10.4km</title><desc>11790795955</desc></polyline><polyline fill="none" points="110.47966101707425,36.77036999966367 110.66271186457016,37.28975763145718 110.91440677980427,38.97776071369299 111.41779661027249,41.18513385037659 111.7838983052643,43.444426976609975 111.80677966109943,44.093645733606536 112.19576271192636,45.106423958583036 112.79067796620075,47.02809554839041 113.27118644083384,48.404419716709526 114.66694915259723,51.5725361762743 115.0788135593757,52.66319084298448 115.62796610186342,53.77980903311982 116.26864406792447,55.3638410763524 117.11525423743296,57.25947408541106 117.75593220349401,58.973322910722345 118.19067796610761,59.80427610364859 118.6025423730025,60.972799818060594 119.42627118644305,62.7904935858096 119.79237288143486,63.38773322306224 120.06694915262051,63.69933600141667 120.57033898320515,64.08883898195927 121.39406779664569,64.55624183642794 121.55423728830647,64.78994296817109 121.60000000009313,64.99767714214977 121.57711864414159,65.17944441671716 121.23389830521774,66.0882790024043 121.11949152557645,66.71147813976859 120.7305084746331,68.19157047753106 120.52457627130207,69.38602520056884 120.38728813570924,70.76223839394515 120.31864406797104,70.94400189004955 120.18135593237821,71.09979907760862 119.83813559333794,71.17769763857359 117.75593220349401,71.20366382069187 114.59830508485902,71.17769763857359 112.72203389834613,71.22963000033633 111.69237288145814,71.15173145401059 110.15932203398552,70.86610326348455 109.06101694924291,70.60644101680373 106.47542372893076,69.77552019356517 105.01101694919635,69.04846243083011 103.06610169494525,67.98383869612007 102.65423728828318,67.7501402561611 102.40254237293266,67.5164416191401 101.62457627116237,66.63357832416659 100.89237288141157,65.36121157216257 100.1830508474959,64.32254050762276 99.72542372893076,63.56950155305094 98.99322033906356,62.92032839905005 98.21525423729327,62.375021775165806 97.34576271194965,62.01148343013483 96.45338983065449,61.77777995663928 95.99576271197293,61.72584582466516 95.51525423733983,61.69987875508377 95.42372881365009,61.67391168305767 95.44661016960163,61.59601045222371 95.51525423733983,61.544076286198106 95.74406779673882,61.49214211045182 96.20169491530396,61.51810919956188 96.7737288136268,61.62197753152577 96.91101694933604,61.46617501889705 96.95677966112271,61.12860260793241 97.02542372886091,61.10263548232615 97.071186440764,61.18053685175255 97.00254237290937,61.31037241878221 96.97966101707425,61.41424082859885 97.02542372886091,61.72584582466516 97.02542372886091,61.59601045222371 96.91101694933604,61.3363395248889 97.04830508481245,61.15456973109394 97.11694915266708,61.18053685175255 97.11694915266708,61.232471085793804 97.20847457635682,61.41424082859885 93.31864406797104,61.985516387212556 92.76949152548332,62.16728563638753 88.7423728815047,62.47888978620176 86.31694915262051,62.816460553352954 84.07457627123222,62.97226230727392 79.52118644071743,63.49160085475887 78.40000000002328,63.75126976383035" stroke="#ffd700" stroke-linecap="round" stroke-linejoin="round" stroke-width="0.5"><title>2024-06-30 4.2km</title><desc>11775355756</desc></polyline><polyline fill="none" points="144.87530562351458,65.76273695850978 144.61124694393948,62.82589331080089 144.53202934004366,61.687109949591104 144.4792176040355,61.297525237634545 144.40000000002328,59.64927697653184 144.50562347192317,59.37956281629158 144.84889975562692,59.199753249791684 147.91198044025805,59.07988014933653 151.52958435215987,59.0499118672451 153.51002445002086,58.96000700400327 155.59608801966533,58.72026057849871 156.15061124705244,58.60038729838561 158.97603911987972,58.42057729404769 159.9266503667459,58.27073554645176 163.04254278738517,57.971051840955624 165.15501222503372,57.67136785466573 166.15843520790804,57.401652027037926 167.08264058688655,57.34171514559421 169.1951100245351,56.98209362095804 172.52224938885774,56.62247169215698 174.8987775060814,56.262849359132815 175.90220048907213,56.0530694781628 176.4831295843469,55.96316377274343 178.8596577019198,55.45369763177587 182.08117359422613,54.94423067939351 184.29926650377456,54.67451255265041 186.43814180942718,54.224981836101506 187.20391198061407,54.13507561699953 187.41515892429743,53.8953255758679 187.52078239631373,53.62560656480491 187.60000000009313,53.23601203635917 187.57359413208906,52.84641703343368 187.41515892429743,51.73756712055183 186.8870415649144,49.1002870220982 186.83422982902266,48.470932876341976 186.49095354531892,46.16329041530844 186.27970660151914,45.264204430859536 185.7515892421361,42.23726304149022" stroke="#fff600" stroke-linecap="round" stroke-linejoin="round" stroke-width="0.5"><title>2024-06-30 3.3km</title><desc>11774673042</desc></polyline><polyline fill="none" points="30.22602230485063,92.58865437060012 29.60658523638267,92.69279649906093 29.12480084982235,93.3697193833068 28.597132235881872,93.8904281728901 25.545831120572984,98.10813342954498 25.178757302230224,98.42055349610746 23.893998937914148,99.38384649151703 23.091024960274808,99.071427507326 22.907488051103428,99.04539257613942 22.37981943716295,99.09746243612608 21.737440255004913,99.25367195750005 20.79681359534152,99.56609073697473 18.433775889570825,100.6855884809338 17.355496548116207,101.49266545390128 16.32310143392533,102.56008623971138 15.566011683549732,103.57543391635409 14.671269251266494,105.31974050047575 14.189484864589758,106.07473547995323 13.019437068607658,108.18350370205007 12.468826340977103,109.06866090703988 12.400000000023283,109.19883084666799 12.422942113713361,109.56330635331688 13.202973977662623,110.00588311211322 14.923632501391694,110.60466231169994 15.887201274628751,110.7868992034928 16.78194370691199,110.838966864947 17.44726500264369,111.02120360321715 18.135528412181884,111.3856767215766 19.19086564006284,112.27082373446319 19.5579394584056,112.47909321039333 20.108550186036155,112.6352952150337 20.79681359534152,112.73942983601592 21.485077004879713,112.73942983601592 22.219224641565233,112.55719422365655 22.93043016467709,112.21875634105527 23.87105682422407,111.54187934024958 24.513436006382108,111.17740642672288 25.385236325091682,110.838966864947 26.188210302847438,110.70879769307794 26.830589485005476,110.73483153237612 28.298884758376516,110.91706833889475 28.482421667664312,110.94310215854784 29.17068507708609,111.28154159357655 29.53775889542885,111.3856767215766 30.18013807758689,111.43774427083554 30.661922464263625,111.43774427083554 32.405523101449944,111.15137262883945 33.32320764742326,111.15137262883945 33.8738183749374,111.20344022207428 34.7226765799569,111.3856767215766 35.45682421675883,111.67204812218552 36.00743494427297,111.93238550337264 36.76452469464857,112.37495849191328 37.22336696763523,112.73942983601592 37.636325013358146,113.18200154029182 38.11810939991847,113.78077390155522 38.691662241122685,114.58781287047896 38.92108337767422,114.87418097394402 39.51757833256852,115.23864904275979 40.34349442378152,115.70725014375057 40.68762612855062,115.78535025045858 41.0317578332033,115.68121676999726 41.857673924649134,115.31674928113353 42.54593733407091,114.84814752219245 42.86712692514993,114.48367894155672 43.096548061585054,114.09317636091146 43.30302708444651,113.52043825073633 43.48656399361789,112.50512688388699 43.76186935743317,111.69808187123272 44.19776951672975,110.8129330353986 44.61072756245267,110.18812039631302 45.757833244861104,108.8603888770158 46.79022835905198,108.15746962398407 48.00616038241424,107.2462753552827 48.648539564572275,106.72559157561045 49.68093467876315,105.76232401290326 51.745724907144904,103.60146842349786 52.86988847597968,102.27370545550366 54.40701009030454,100.1388575876772 55.508231545449235,98.31641351289 55.60000000009313,97.97795829817187 55.554115772712976,97.74364290825906 55.41646309092175,97.48329224329791 55.072331386152655,97.14483601445681 53.25990440801252,95.86911267988035 53.14519383967854,95.79100697938702 52.68635156669188,95.71290125703672 52.3422198620392,95.58272500429302 51.19511417951435,94.85373686283128 51.01157727034297,94.671489528846 50.36919808818493,93.81232191663003 49.01561338303145,92.51054774862132 48.465002655400895,92.12001430967939 48.09792883694172,91.93776518380037 47.0196494954871,91.54723094037035 46.51492299535312,91.4951596664614 46.0101964949863,91.59930220447131 45.64312267664354,91.72948032224667 44.15188528946601,92.43244110475644 43.257142857299186,92.74486754866666 42.66064790240489,92.90108063898515 41.42177376523614,93.0572936416138 40.82527881045826,93.0572936416138 40.15995751461014,92.8229741047835 39.99936271912884,92.84900961857056 39.54052044614218,93.1614355944912 39.265215082326904,93.21350655631977 37.200424854061566,93.31764845075668 36.44333510368597,93.21350655631977 35.433882103068754,92.90108063898515 35.181518852943555,92.74486754866666 35.066808284725994,92.64072543964721 35.02092405746225,92.51054774862132 35.410939989378676,90.5318393400521 35.548592671286315,89.594551494607 35.61741901235655,89.5164440314984 36.09920339891687,89.49040820568916 36.90217737655621,89.36022903953562 42.66064790240489,88.78743998464779 45.39075942651834,88.42293724429328 47.524375995853916,88.29275757836876 48.143813064321876,88.29275757836876 48.23558151884936,88.26672163789044 48.212639405275695,88.21464974951232 47.66202867764514,88.31879351643147 46.4460966543993,88.37086538525182 44.10600106220227,88.68329639325384 40.09113117365632,89.04779879222042 35.91566648974549,89.49040820568916" stroke="red" stroke-linecap="round" stroke-linejoin="round" stroke-width="0.5"><title>2024-06-29 6.1km</title><desc>11767860400</desc></polyline><polyline fill="none" points="80.23272727243602,108.53891764744185 80.23272727243602,111.27611064584926 83.37454545404762,117.35875265439972 85.99272727314383,118.87941119633615 88.87272727303207,120.09593746485189 91.75272727292031,120.40006895340048 97.25090909190476,117.66288442560472 104.58181818202138,112.18850774713792 118.19636363629252,103.3686572718434 120.29090909101069,100.63145693251863 121.07636363711208,97.8942540504504 120.8145454544574,95.15704862750135 118.98181818146259,92.41984066413715 116.3636363632977,90.89916847459972 114.26909090951085,88.16195655753836 111.65090909134597,86.03301219735295 108.50909090880305,84.81647187285125 102.48727272823453,86.64128217170946 99.86909090913832,88.77022609161213 96.72727272752672,89.9867647846695 94.10909090936184,92.7239750076551 81.27999999932945,101.84799073031172 79.1854545455426,104.58518994087353 78.40000000037253,107.32238660985604 79.97090909164399,113.10090456600301 81.54181818198413,115.53396136965603 87.30181818176061,118.27114787371829 93.06181818246841,118.27114787371829 95.94181818235666,117.66288442560472 108.7709090905264,110.66784575558268 118.72000000067055,103.67279048659839 120.29090909101069,100.63145693251863 121.33818181790411,94.85291453520767 118.45818181801587,88.77022609161213 114.00727272685617,84.81647187285125 107.7236363645643,85.12060700170696 101.9636363638565,87.24955201987177 96.72727272752672,90.89916847459972 82.32727272808552,102.15212410176173 80.23272727243602,104.58518994087353 79.70909090898931,107.62651941692457 79.70909090898931,110.36371326167136 80.49454545415938,113.40503677655943 82.06545454543084,115.83809332945384 87.30181818176061,118.87941119633615 96.46545454580337,117.35875265439972 99.86909090913832,116.14222525712103 104.84363636374474,112.18850774713792 110.0800000000745,109.45131559553556 115.05454545468092,104.88932302989997 117.6727272728458,103.3686572718434 119.76727272756398,101.23972389404662 120.8145454544574,98.19838782958686 120.8145454544574,95.46118268929422 119.76727272756398,92.11570628872141 116.62545454595238,86.94541711127385 113.74545454513282,85.72887716302648 110.60363636445254,83.90406630095094 107.7236363645643,84.81647187285125 105.10545454546809,86.03301219735295 102.74909090809524,88.16195655753836 99.86909090913832,89.0743608113844 97.77454545442015,90.89916847459972 89.92000000085682,95.76531671918929 82.85090909060091,101.23972389404662 79.70909090898931,106.71412090375088 79.97090909164399,112.49264005175792 81.54181818198413,114.92569735716097 86.51636363659054,118.27114787371829 89.92000000085682,118.87941119633615 96.20363636314869,118.27114787371829 103.79636363685131,114.31743321963586 105.89090909063816,112.18850774713792 113.48363636434078,107.32238660985604 118.19636363629252,103.67279048659839 120.8145454544574,98.19838782958686 120.29090909101069,94.54878041124903 116.62545454595238,89.0743608113844 111.38909090962261,86.3371472004801 108.50909090880305,85.42474209796637 100.13090909086168,89.0743608113844 83.6363636367023,100.3273234043736 81.54181818198413,102.76039074989967 80.23272727243602,105.49758911319077 79.70909090898931,108.84305032878183 80.23272727243602,111.88437541178428 81.80363636370748,114.31743321963586 84.42181818187237,116.44635715405457 87.04000000003725,117.66288442560472 89.65818181820214,117.96701616607606 93.32363636419177,117.96701616607606 95.6800000006333,116.14222525712103 107.20000000018626,111.58024304383434 118.98181818146259,103.3686572718434 121.07636363711208,100.3273234043736 121.59999999962747,93.94051206856966 117.6727272728458,89.68263015779667 116.10181818250567,86.94541711127385 106.93818181846291,85.12060700170696 103.79636363685131,86.03301219735295 98.56000000052154,89.37849550088868 94.10909090936184,93.33224360039458 91.2290909094736,94.85291453520767 82.06545454543084,101.84799073031172 79.44727272726595,107.01825377275236 79.97090909164399,112.79677232541144 83.37454545404762,117.05462085222825 86.25454545486718,118.57527955109254 89.39636363554746,119.48767439322546 95.94181818235666,119.48767439322546 98.82181818317622,118.57527955109254 101.43999999947846,117.05462085222825 103.53454545419663,114.62156530469656 106.15272727329284,113.10090456600301 112.96000000089407,107.01825377275236 115.31636363640428,105.49758911319077 117.93454545456916,104.28105682111345 120.29090909101069,102.15212410176173 120.55272727273405,96.06945071741939 118.98181818146259,93.33224360039458 117.93454545456916,89.9867647846695 112.43636363651603,85.42474209796637 109.81818181835115,85.12060700170696 106.4145454550162,85.72887716302648 98.29818181786686,90.29089937964454 93.5854545449838,93.94051206856966 88.61090909037739,96.37358468584716 81.54181818198413,102.15212410176173 79.97090909164399,105.19345608726144 79.1854545455426,108.23478493466973 79.70909090898931,111.27611064584926 80.75636363681406,114.01330110314302 82.85090909060091,116.75048901885748 85.73090909048915,118.57527955109254 88.61090909037739,119.48767439322546 100.91636363696307,115.83809332945384 108.7709090905264,110.36371326167136 118.19636363629252,103.0645240265876 119.76727272756398,100.02318984433077 120.02909090928733,96.98185252537951 119.76727272756398,93.94051206856966 118.72000000067055,91.20330297457986 114.79272727388889,86.03301219735295 112.43636363651603,84.20820152340457 109.03272727318108,83.59993104659952 106.15272727329284,83.90406630095094 100.65454545430839,87.8578217427712 93.5854545449838,93.63637785054743 83.37454545404762,100.3273234043736 81.27999999932945,103.0645240265876 79.44727272726595,109.14718297799118 79.97090909164399,112.18850774713792 81.27999999932945,115.2298293786589 86.25454545486718,118.57527955109254 92.2763636354357,118.57527955109254 95.15636363625526,117.96701616607606 101.17818181868643,114.92569735716097 106.67636363673955,110.36371326167136 109.29454545490444,109.14718297799118 114.79272727388889,105.19345608726144 116.88727272674441,103.3686572718434 118.45818181801587,101.23972389404662" stroke="#fffd00" stroke-linecap="round" stroke-linejoin="round" stroke-width="0.5"><title>2021-02-24 3.1km</title><desc>5958643139</desc></polyline><polyline fill="none" points="144.40000000037253,112.12995182117447 146.00993788894266,114.93514585169032 154.59627329278737,119.61046345089562 160.76770186424255,118.36371279880404 171.7689441004768,111.81826343433931 177.13540372811258,108.07800028868951 181.69689441099763,104.02604332217015 186.52670807670802,96.23380311345682 186.258385094814,93.11690140306018 184.11180124338716,87.19477929547429 179.2819875786081,84.07786825997755 173.64720497094095,84.38955950760283 168.01242236141115,86.25970632187091 158.35279503278434,94.05197225394659 156.2062111813575,96.54549310775474 146.81490683369339,104.33773251296952 146.27826086990535,113.37670504488051 148.15652173943818,115.87020995095372 152.98633540514857,118.67540050973184 155.9378882003948,119.29877583589405 158.88944099470973,119.29877583589405 161.30434782709926,118.05202505504712 172.03726708237082,111.50657501607202 184.38012422528118,102.1559075054247 187.6000000005588,93.42859171913005 185.4534161509946,87.50647022179328 183.03850931767374,85.63632417935878 180.0869565224275,84.07786825997755 170.15900621190667,84.7012507233303 147.6198757775128,101.53252864233218 145.74161490704864,104.64942167093977 145.47329192608595,108.07800028868951 145.47329192608595,111.19488656450994 146.81490683369339,114.31176962703466 152.44968944229186,118.05202505504712 155.66956521756947,118.98708818852901 158.88944099470973,118.98708818852901 161.84099378995597,118.05202505504712 179.2819875786081,105.89617798221298 184.11180124338716,102.1559075054247 185.99006211292,99.35070160822943 187.0633540386334,93.74028200283647 185.4534161509946,87.50647022179328 183.57515528146178,85.32463306002319 174.18385093286633,84.7012507233303 168.54906832333654,86.57139734481461 157.816149068065,94.98704281519167 155.13291925564408,96.23380311345682 152.98633540514857,98.72732216725126 147.6198757775128,103.09097555861808 145.74161490704864,111.19488656450994 148.15652173943818,117.11696163122542 150.83975155372173,119.29877583589405 156.7428571442142,119.61046345089562 163.1826086966321,117.42864947160706 183.30683229956776,103.09097555861808 185.7217391319573,100.59746010624804 187.0633540386334,94.36366247292608 186.7950310576707,90.62337771966122 185.4534161509946,87.50647022179328 183.03850931767374,85.32463306002319 177.13540372811258,84.07786825997755 170.96397515572608,84.7012507233303 158.08447205089033,94.67535266047344 150.57142857275903,99.66239128145389 146.54658385086805,104.64942167093977 145.74161490704864,107.45462264749222 145.47329192608595,110.57150956732221 146.00993788894266,113.37670504488051 149.7664596280083,118.05202505504712 158.88944099470973,119.61046345089562 172.03726708237082,111.50657501607202 179.2819875786081,104.96111079701222 182.23354037385434,103.71435409993865 184.38012422528118,101.84421808947809 186.52670807670802,98.72732216725126 186.258385094814,86.88308833632618 176.06211180239916,82.51941153570078 173.37888198904693,83.4544856667053 168.01242236141115,86.57139734481461 163.45093167759478,90.62337771966122 153.52298136707395,97.79225276387297 146.54658385086805,103.71435409993865 145.20496894512326,109.32475518528372 146.54658385086805,115.24683391721919 150.83975155372173,119.61046345089562 156.2062111813575,121.48058846429922 159.15776397567242,120.85721358843148 164.2559006223455,117.42864947160706 166.40248447284102,114.93514585169032 171.50062112044543,110.88319808221422 183.30683229956776,101.53252864233218 185.99006211292,95.92211308772676 185.18509316910058,89.0649243730586 177.6720496909693,83.76617697882466 171.50062112044543,84.38955950760283 159.15776397567242,93.11690140306018 147.6198757775128,102.1559075054247 145.74161490704864,111.50657501607202 149.2298136651516,117.11696163122542 152.18136646132916,117.42864947160706 155.13291925564408,118.67540050973184 157.816149068065,118.98708818852901 163.9875776404515,116.49358585570008 184.11180124338716,100.59746010624804 185.7217391319573,97.79225276387297 186.258385094814,94.98704281519167 186.258385094814,91.55844934284687 183.03850931767374,85.63632417935878 177.13540372811258,82.51941153570078 170.96397515572608,83.76617697882466 148.6931677022949,101.22083916235715 145.47329192608595,112.44164017611183 146.81490683369339,114.93514585169032 148.9614906841889,116.80527375964448 154.59627329278737,119.61046345089562 163.1826086966321,116.80527375964448 176.33043478336185,107.76631148369052 183.30683229956776,101.84421808947809" stroke="#fffe00" stroke-linecap="round" stroke-linejoin="round" stroke-width="0.5"><title>2021-02-21 3.1km</title><desc>5958643188</desc></polyline><polyline fill="none" points="14.546583850868046,152.8052650920581 12.668322981335223,155.9221545837354 12.668322981335223,158.7273523772601 13.204968945123255,161.8442357601598 17.49813664611429,166.8312424835749 20.449689442291856,168.38968039746396 23.66956521756947,169.3247427593451 29.304347827099264,166.51955480477773 46.74534161668271,155.2987769425381 51.30683229956776,151.87019761721604 53.18509316910058,149.37668293737806 54.52670807670802,145.94809689209796 54.52670807670802,143.14288723282516 53.72173913195729,139.7142941141501 51.84347826242447,137.22076940187253 47.281987578608096,133.16878735506907 44.06211180239916,131.61033127387054 37.622360249981284,133.48047847440466 32.25590062234551,137.22076940187253 27.157763975672424,139.7142941141501 20.181366461329162,145.63640705891885 17.229813665151596,146.88316619908437 14.278260869905353,152.1818868080154 13.741614907048643,155.2987769425381 14.278260869905353,158.4156638623681 15.351552795618773,161.53254756634124 17.49813664611429,164.33774015074596 19.913043478503823,165.896179350093 23.132919255644083,166.8312424835749 26.084472050890326,166.51955480477773 37.35403726808727,161.2208593399264 42.72049689479172,157.7922867347952 47.818633541464806,154.36371023999527 52.38012422528118,149.68837238452397 53.990062112919986,147.50654557649978 54.79503105767071,144.0779574085027 53.990062112919986,140.96105569810607 52.64844720624387,138.15584140922874 50.77018633764237,135.66231541126035 48.0869565224275,133.16878735506907 42.183850932866335,131.61033127387054 38.963975155726075,132.2337138026487 20.986335405148566,144.38964740280062 14.546583850868046,150.93512985366397 13.204968945123255,153.74033227725886 12.936645963229239,157.4805981235113 14.009937888942659,160.5974827921018 15.888198758475482,163.40267624566332 18.839751553721726,164.9611159262713 21.79130434896797,166.51955480477773 27.962732921354473,166.20786709384993 36.28074534330517,161.8442357601598 49.16024844907224,153.1169541857671 53.4534161509946,148.75330394576304 54.52670807670802,142.83119711023755 54.258385094814,139.7142941141501 52.64844720624387,136.28569710394368 49.965217392891645,134.4155516398605 47.281987578608096,133.16878735506907 41.37888198904693,132.85709620290436 38.42732919380069,133.48047847440466 35.47577639948577,135.03893359052017 30.645962733775377,138.4675320147071 27.426086956635118,140.02598455827683 17.229813665151596,148.44161440129392 14.814906833693385,150.31175118335523 13.473291926085949,153.1169541857671 12.936645963229239,156.54553209641017 13.473291926085949,159.6624177293852 15.083229814656079,162.7793001467362 17.766459628008306,163.40267624566332 19.913043478503823,165.58449157490395 23.132919255644083,165.896179350093 29.036024845205247,165.27280376665294 32.25590062234551,163.7143642459996 43.52546583954245,157.1689094803296 48.62360248621553,153.74033227725886 53.4534161509946,148.75330394576304 54.79503105767071,146.2597866926808 55.60000000055879,142.83119711023755 55.063354038633406,140.02598455827683 53.72173913195729,136.90907866810448 46.208695653826,131.61033127387054 40.03726708237082,132.2337138026487 26.352795032784343,141.27274601417594 21.254658385179937,144.0779574085027 14.546583850868046,150.31175118335523 12.400000000372529,156.23384335637093 13.204968945123255,159.6624177293852 14.814906833693385,162.7793001467362 17.49813664611429,164.9611159262713 20.71801242325455,166.20786709384993 27.157763975672424,166.20786709384993 41.91552795190364,158.4156638623681 52.11180124338716,150.93512985366397 54.258385094814,148.75330394576304 55.063354038633406,145.01302729453892 55.60000000055879,142.20781676797196 53.990062112919986,139.09091312880628 47.013664598576725,133.16878735506907 44.06211180239916,132.2337138026487 40.842236027121544,132.2337138026487 37.89068323094398,133.16878735506907 27.694409938529134,139.40260363789275 19.913043478503823,145.01302729453892 12.936645963229239,151.87019761721604 12.400000000372529,154.98708807397634 13.473291926085949,160.5974827921018 15.351552795618773,163.09098821226507 19.64472049754113,166.8312424835749 22.32795031182468,167.4546177459415 28.49937888327986,167.14293013093993 34.67080745473504,164.64942805469036 48.89192546810955,154.0520212748088 53.4534161509946,149.68837238452397 55.063354038633406,146.57147646229714 55.063354038633406,143.76626738277264 52.38012422528118,138.15584140922874 49.428571430034935,137.53246010327712 45.403726710006595,133.16878735506907 42.45217391382903,132.85709620290436 36.54906832333654,134.4155516398605 22.864596273750067,143.14288723282516 20.181366461329162,145.63640705891885 15.351552795618773,149.37668293737806 14.009937888942659,151.87019761721604 12.936645963229239,157.4805981235113 14.009937888942659,159.97410611622036 15.888198758475482,162.15592392208055 21.522981367073953,165.896179350093 24.206211181357503,165.896179350093 27.157763975672424,165.58449157490395 30.645962733775377,164.02605221490376 39.232298138551414,159.6624177293852 47.281987578608096,154.67539917258546 52.11180124338716,150.93512985366397 54.52670807670802,148.44161440129392 55.60000000055879,141.27274601417594 53.990062112919986,138.4675320147071 51.84347826242447,135.66231541126035 46.47701863478869,131.61033127387054 43.257142858579755,130.67525724042207 36.54906832333654,133.16878735506907 26.621118013747036,139.40260363789275 16.961490684188902,147.81823521712795 15.083229814656079,150.00006180047058 14.009937888942659,152.8052650920581 13.473291926085949,158.7273523772601 15.083229814656079,161.8442357601598 16.961490684188902,164.02605221490376 19.913043478503823,165.27280376665294 26.084472050890326,165.58449157490395 28.767701864242554,164.64942805469036 31.719254659488797,164.02605221490376 37.0857142880559,161.53254756634124 42.45217391382903,158.4156638623681 52.64844720624387,150.62344053410925" stroke="#fffd00" stroke-linecap="round" stroke-linejoin="round" stroke-width="0.5"><title>2021-02-19 3.1km</title><desc>5958643211</desc></polyline><polyline fill="none" points="88.21818181779236,145.11219922825694 85.13246753253043,146.089772090083 82.3272727271542,148.04491690406576 79.8025974035263,154.23620083229616 79.52207792177796,157.1689100372605 81.48571428656578,163.03432027739473 84.01038961112499,165.6411657766439 87.37662337627262,166.94458771985956 94.38961039017886,167.59629848971963 99.43896103836596,164.0118875906337 101.6831168839708,161.40504074795172 104.4883116884157,159.12404799461365 113.1844155844301,153.91034408612177 118.23376623447984,150.00006050849333 120.47792207822204,147.39320210041478 121.6000000005588,143.80876827705652 121.03896103892475,139.89847219339572 117.39220779296011,134.03301899204962 111.78181818220764,131.10028830729425 108.4155844161287,131.4261474062223 105.61038961168379,131.7520064727869 102.80519480537623,133.3813012978062 95.5116883115843,139.89847219339572 82.0467532472685,150.00006050849333 80.36363636422902,152.60691676451825 79.52207792177796,155.86548406025395 80.083116883412,162.38260856550187 84.57142857182771,167.922153824009 91.02337662409991,169.2255748261232 93.82857142854482,168.24800912453793 96.63376623485237,166.29287681449205 104.4883116884157,159.77576037705876 109.53766233753413,156.19134060456418 118.23376623447984,149.67420332483016 120.19740259833634,147.06734464806505 121.31948051974177,143.80876827705652 120.19740259833634,137.94332233653404 118.23376623447984,134.68473655264825 115.42857142910361,132.72958346828818 112.34285714291036,131.7520064727869 108.4155844161287,131.4261474062223 105.61038961168379,132.07786550442688 102.52467532455921,133.3813012978062 97.47532467544079,137.94332233653404 81.48571428656578,150.65177477430552 79.8025974035263,153.58448730641976 78.96103896200657,156.84305359306745 79.24155844189227,160.10161651787348 80.64415584504604,163.36017608293332 84.57142857182771,168.24800912453793 91.30389610305429,168.5738643920049 94.38961039017886,167.922153824009 96.91428571473807,166.29287681449205 98.87792207859457,163.6860318533145 101.12207792233676,161.73089671996422 111.78181818220764,154.56205754564144 117.11168831214309,150.32591765769757 119.35584415588528,147.71905951830558 121.03896103892475,144.78634154074825 121.31948051974177,141.52776281628758 119.35584415588528,135.33645397843793 117.11168831214309,132.72958346828818 113.74545454513282,132.07786550442688 107.01298701390624,131.7520064727869 104.20779220759869,133.05544240004383 96.63376623485237,139.24675570894033 88.4987012995407,145.11219922825694 85.69350649416447,146.089772090083 81.20519480574876,150.97763185645454 78.96103896200657,157.49476644722745 79.52207792177796,161.07918474054895 82.60779220797122,166.29287681449205 87.93766233790666,169.551429992076 91.58441558480263,168.5738643920049 98.03636363707483,165.6411657766439 102.80519480537623,161.07918474054895 118.51428571529686,149.67420332483016 120.47792207822204,146.089772090083 121.6000000005588,143.1570525986608 121.03896103892475,139.57261396828108 120.19740259833634,136.31402986473404 118.23376623447984,133.7071601615753 115.70909090992063,131.4261474062223 112.34285714291036,130.7744291748386 108.97662337590009,131.10028830729425 102.80519480537623,132.72958346828818 98.03636363707483,137.2916054490488 82.3272727271542,149.34834610810503 79.52207792177796,155.86548406025395 79.52207792177796,159.12404799461365 80.36363636422902,162.70846443832852 82.3272727271542,165.6411657766439 85.69350649416447,167.27044312120415 88.77922078035772,168.24800912453793 92.14545454643667,168.24800912453793 95.2311688316986,166.94458771985956 100.28051948081702,162.70846443832852 114.02597402594984,152.60691676451825 119.6363636367023,147.71905951830558 121.31948051974177,144.46048381947912 121.31948051974177,140.55018854280934 117.95324675366282,134.68473655264825 115.1480519482866,133.3813012978062 108.4155844161287,131.7520064727869 105.04935064911842,132.4037245027721 102.24415584467351,133.7071601615753 94.67012987006456,140.22433038498275 82.0467532472685,150.32591765769757 80.36363636422902,152.93277364573441 78.96103896200657,155.53962748148479 78.68051948025823,158.7981917511206 79.52207792177796,161.73089671996422 81.20519480574876,164.33774329535663 83.44935064949095,166.61873228405602 89.34025974106044,168.5738643920049 92.42597402632236,168.5738643920049 95.5116883115843,167.27044312120415 97.75584415532649,164.66359896655194 100.56103896163404,162.38260856550187 105.61038961168379,159.12404799461365 108.13506493531168,157.1689100372605 110.9402597406879,155.53962748148479 118.51428571529686,149.67420332483016 120.19740259833634,147.06734464806505 120.75844155903906,143.80876827705652 120.47792207822204,140.8760466678068 118.23376623447984,134.03301899204962 112.34285714291036,131.7520064727869 109.25714285764843,131.4261474062223 105.32987013086677,132.07786550442688 95.2311688316986,140.22433038498275 89.34025974106044,143.80876827705652 81.76623376552016,150.32591765769757 79.8025974035263,152.93277364573441 78.68051948025823,156.51719711511396 78.40000000037253,159.77576037705876 81.48571428656578,165.9670213125646 84.01038961112499,168.5738643920049 90.46233766246587,169.551429992076 93.82857142854482,168.5738643920049 96.63376623485237,166.61873228405602 101.6831168839708,161.73089671996422 104.4883116884157,160.10161651787348 117.39220779296011,150.00006050849333 119.6363636367023,147.39320210041478 120.75844155903906,144.13462606514804 120.47792207822204,137.94332233653404 119.35584415588528,135.01059528253973 114.02597402594984,130.44857000769116 107.57402597460896,131.10028830729425 104.4883116884157,132.07786550442688 88.77922078035772,144.13462606514804 81.20519480574876,150.97763185645454 79.52207792177796,153.91034408612177 78.68051948025823,157.1689100372605 78.68051948025823,160.10161651787348 79.52207792177796,163.36017608293332 81.48571428656578,166.29287681449205 84.29090909101069,168.24800912453793 87.93766233790666,168.89971962594427 91.30389610305429,169.2255748261232 94.10909090936184,167.922153824009 97.19480519462377,165.9670213125646 107.01298701390624,157.1689100372605 112.06233766302466,153.91034408612177 117.39220779296011,149.34834610810503" stroke="#fffd00" stroke-linecap="round" stroke-linejoin="round" stroke-width="0.5"><title>2021-02-03 3.1km</title><desc>5958643285</desc></polyline><polyline fill="none" points="152.2545454557985,146.41562927374616 146.92467532586306,150.9776319579687 145.24155844189227,153.91034449008293 144.40000000037253,157.49476722092368 144.68051948212087,160.42747370153666 146.36363636516035,163.0343216219917 150.85194805264473,167.9221556733828 153.93766233790666,168.89972157566808 160.10909091122448,167.9221556733828 162.91428571473807,166.2928784962278 167.6831168839708,161.7308979316149 183.95324675459415,150.65177484136075 187.3194805206731,145.11219872441143 187.6000000005588,141.85361999995075 185.6363636367023,135.3364524662029 183.1116883130744,133.05544065195136 180.30649350676686,131.42614549095742 176.9402597406879,130.44856799021363 173.85454545542598,131.10028635850176 170.76883116923273,132.40372268809006 165.7194805201143,136.31402845261618 163.1948051964864,137.9433210932184 161.51168831344694,140.55018756864592 156.4623376633972,143.80876763747074 146.64415584504604,151.9552031045314 145.5220779236406,154.56205801595934 144.96103896200657,157.82062363089062 145.5220779236406,161.07918588351458 147.20519480668008,164.33774477429688 151.69350649416447,168.89972157566808 154.7792207794264,169.55143200978637 158.4259740272537,168.89972157566808 161.2311688316986,167.59630030486733 169.36623376701027,160.42747370153666 182.55064935144037,150.9776319579687 184.79480519611388,148.696631439263 185.91688311751932,145.76391406566836 187.3194805206731,143.15705189318396 187.3194805206731,139.5726128926035 183.3922077929601,134.68473497242667 180.58701298758388,132.72958168643527 174.41558441706002,131.10028635850176 168.24415584560484,133.70715848146938 162.91428571473807,137.9433210932184 160.9506493518129,140.55018756864592 150.010389611125,148.696631439263 145.8025974035263,153.91034449008293 145.24155844189227,157.16891077673063 145.24155844189227,160.42747370153666 146.083116883412,163.3601774610579 148.04675324819982,165.96702296030708 150.85194805264473,167.9221556733828 154.218181819655,168.89972157566808 157.30389610491693,168.89972157566808 160.38961039017886,167.9221556733828 169.927272727713,159.44990517827682 175.81818181928247,155.86548466514796 180.58701298758388,152.2810600856319 182.83116883132607,150.3259176921565 184.79480519611388,147.71905928407796 186.47792207822204,145.11219872441143 187.3194805206731,141.52776194224134 187.03896103985608,138.59503791294992 185.91688311751932,135.6623111621011 183.67272727377713,133.70715848146938 180.58701298758388,132.07786365645006 177.22077922150493,131.10028635850176 173.57402597554028,131.42614549095742 170.48831168934703,132.40372268809006 152.5350649356842,146.08977168635465 148.04675324819982,150.3259176921565 146.36363636516035,153.2586308293976 145.5220779236406,156.19134124391712 145.5220779236406,159.44990517827682 146.36363636516035,162.70846574916504 148.04675324819982,165.3153117869515 150.290909091942,167.59630030486733 153.65714285895228,168.24801100767218 159.82857142947614,168.5738663082011 162.63376623485237,166.2928784962278 169.927272727713,159.77576138614677 178.34285714384168,153.91034449008293 185.91688311751932,147.0673443453852 187.3194805206731,140.55018756864592 187.03896103985608,137.29160413821228 185.0753246769309,134.68473497242667 179.18441558629274,131.75200458988547 172.73246753402054,131.75200458988547 169.6467532487586,133.05544065195136 154.218181819655,144.46048324881122 147.20519480668008,150.65177484136075 145.8025974035263,153.91034449008293 145.24155844189227,157.49476722092368 145.24155844189227,161.07918588351458 146.92467532586306,164.01188903697766 149.44935065042228,166.2928784962278 151.9740259759128,167.9221556733828 155.34025974199176,168.5738663082011 158.4259740272537,168.24801100767218 161.2311688316986,166.9445894677192 171.61038961075246,158.4723363504745 174.135064936243,157.16891077673063 184.79480519611388,149.34834604081698 186.47792207822204,146.08977168635465 187.03896103985608,142.83119396981783 186.75844155997038,139.2467545995023 182.55064935144037,133.70715848146938 179.74545454606414,132.07786365645006 176.3792207799852,130.77442719135433 172.73246753402054,130.77442719135433 169.927272727713,132.07786365645006 159.54805194865912,140.55018756864592 156.7428571442142,142.17947802389972 147.20519480668008,150.3259176921565 145.24155844189227,152.93277394818142 144.68051948212087,155.86548466514796 144.40000000037253,162.0567539036274 146.64415584504604,164.6636004790198 149.16883116960526,166.61873399815522 151.9740259759128,168.24801100767218 158.4259740272537,168.24801100767218 161.2311688316986,167.27044490352273 164.31688311696053,165.3153117869515 166.28051948174834,162.70846574916504 171.04935065004975,158.4723363504745 181.70909090992063,151.6293460887391 185.91688311751932,147.39320183172822 186.75844155997038,144.46048324881122 186.75844155997038,140.8760457264725 186.19740259833634,137.61746263271198 184.23376623354852,135.3364524662029 178.6233766246587,132.07786365645006 175.53766233753413,131.75200458988547 171.8909090925008,132.07786365645006 168.80519480630755,133.381299583707 147.7662337673828,150.00006050849333 145.5220779236406,152.60691703413613 144.40000000037253,155.86548466514796 144.40000000037253,159.1240489347838 145.5220779236406,162.38260984350927 150.010389611125,166.9445894677192 156.4623376633972,167.9221556733828 159.54805194865912,167.59630030486733 162.35324675496668,166.2928784962278 164.59740259870887,163.6860332665965 169.6467532487586,159.44990517827682 173.01298701390624,158.1464800068643 178.34285714384168,154.56205801595934 186.19740259833634,147.71905928407796 187.03896103985608,144.7863410031423 187.3194805206731,141.52776194224134 187.03896103985608,138.59503791294992 185.0753246769309,135.6623111621011 182.83116883132607,133.05544065195136 179.74545454606414,131.42614549095742 176.09870129916817,131.10028635850176 173.01298701390624,131.10028635850176 169.927272727713,132.07786365645006 167.40259740315378,133.70715848146938 154.7792207794264,144.7863410031423 146.36363636516035,150.9776319579687 145.24155844189227,154.23620126978494 145.5220779236406,160.75332980998792 147.20519480668008,164.01188903697766 149.16883116960526,166.2928784962278 155.34025974199176,168.89972157566808 161.79220779333264,166.61873399815522 169.36623376701027,159.44990517827682 172.17142857331783,158.4723363504745 183.1116883130744,150.9776319579687 185.3558441568166,148.37077408772893 186.75844155997038,145.43805641192012" stroke="#fffd00" stroke-linecap="round" stroke-linejoin="round" stroke-width="0.5"><title>2021-02-02 3.1km</title><desc>5958643137</desc></polyline><polyline fill="none" points="21.657142856158316,188.3872599520255 16.046753245405853,197.18541479343548 13.522077921777964,203.37669425085187 13.802597401663661,206.3094013382215 16.607792207039893,208.916249795584 18.571428570896387,211.84895173902623 21.37662337720394,213.80408485559747 25.584415582939982,213.47822941979393 32.03636363521218,212.1748073429335 38.207792207598686,209.89381741313264 49.14805194828659,202.3991246172227 51.392207792028785,199.79227078147233 53.916883116588,198.16298604081385 55.59999999962747,195.23027139133774 55.59999999962747,191.97169636399485 55.59999999962747,188.71311797597446 54.197402596473694,185.78039455157705 52.23376623354852,183.17352700047195 46.06233766209334,180.24079843354411 42.97662337590009,179.91493953578174 36.80519480444491,181.2183749245014 29.79220779146999,187.73554380354472 24.46233766246587,190.99412320088595 16.888311687856913,196.85955764423124 14.3636363632977,199.46641390025616 13.241558441892266,202.72498119599186 13.241558441892266,206.3094013382215 14.083116883412004,209.56796157406643 15.766233766451478,212.5006629123818 25.023376623168588,215.10750626027584 28.670129870064557,214.12994025694206 31.19480519462377,212.82651844830252 33.43896103836596,210.5455289890524 39.04935064911842,205.98354513035156 44.37922077905387,202.72498119599186 51.95324675180018,196.85955764423124 53.35584415495396,194.2526992361527 54.477922078222036,191.31998095521703 54.197402596473694,188.06140189431608 53.35584415495396,184.80281947227195 51.392207792028785,182.19595111417584 48.58701298665255,181.54423368838616 45.220779220573604,179.91493953578174 42.135064935311675,179.26322163851 39.04935064911842,179.5890806040261 35.963636363856494,180.89251612778753 33.71948051825166,183.17352700047195 28.389610389247537,186.75796932913363 23.620779220946133,191.64583867648616 15.485714285634458,196.85955764423124 13.522077921777964,199.79227078147233 12.961038960143924,202.72498119599186 13.802597401663661,209.89381741313264 16.327272727154195,212.5006629123818 18.29090909101069,215.10750626027584 21.657142856158316,216.41092712781392 25.303896103985608,217.0626373598352 28.670129870064557,216.0850719618611 32.87792207673192,211.19724043109454 51.392207792028785,196.20784324384294 53.07532467506826,192.9492692258209 53.916883116588,190.01654973439872 52.51428571436554,187.08382752072066 48.86753246653825,181.87009241827764 46.34285714291036,179.91493953578174 39.32987012900412,180.5666572973132 36.52467532455921,180.24079843354411 29.511688311584294,186.75796932913363 26.425974026322365,188.71311797597446 16.327272727154195,196.85955764423124 13.522077921777964,202.72498119599186 13.241558441892266,205.98354513035156 14.083116883412004,209.56796157406643 19.132467532530427,213.80408485559747 25.023376623168588,215.75921676168218 28.109090908430517,215.10750626027584 37.646753245964646,206.63525751279667 45.220779220573604,202.07326800585724 52.23376623354852,195.55612870887853 53.63636363577098,192.6234116384294 53.916883116588,189.03897596569732 53.63636363577098,186.10625284467824 51.95324675180018,183.49938556132838 49.42857142817229,181.54423368838616 47.74545454606414,178.9373626401648 41.012987012043595,179.26322163851 37.927272726781666,179.91493953578174 35.402597402222455,181.2183749245014 33.15844155848026,183.82524409028701 19.974025974050164,194.2526992361527 17.168831168673933,195.55612870887853 14.92467532493174,198.16298604081385 13.241558441892266,201.09569796803407 12.680519480258226,204.0284071729984 13.802597401663661,210.5455289890524 15.766233766451478,213.47822941979393 19.132467532530427,214.7816509597469 25.584415582939982,215.75921676168218 28.670129870064557,215.10750626027584 30.91428571473807,213.15237395022996 32.87792207673192,210.87138472637162 37.646753245964646,206.63525751279667 50.83116883132607,197.18541479343548 53.07532467506826,194.5785566540435 53.916883116588,191.64583867648616 54.477922078222036,188.71311797597446 54.197402596473694,185.78039455157705 52.51428571436554,182.5218097763136 49.98961038980633,180.89251612778753 47.74545454606414,178.9373626401648 44.940259739756584,179.5890806040261 41.29350649379194,179.26322163851 38.488311687484384,179.5890806040261 15.485714285634458,197.51127191004343 13.802597401663661,200.1181276284624 12.400000000372529,202.72498119599186 12.680519480258226,205.98354513035156 13.241558441892266,209.24210570123978 15.205194804817438,211.84895173902623 17.44935064855963,213.80408485559747 23.90129870083183,214.7816509597469 26.706493506208062,213.80408485559747 29.79220779146999,213.80408485559747 34.2805194798857,208.26453788368963 36.80519480444491,206.3094013382215 39.89090909156948,205.33183261123486 45.220779220573604,202.07326800585724 53.07532467506826,195.8819859928917 54.197402596473694,192.6234116384294 53.916883116588,189.36483392189257 53.35584415495396,186.10625284467824 51.672727272845805,182.84766840469092 48.86753246653825,180.24079843354411 45.78181818127632,178.9373626401648 42.135064935311675,178.9373626401648 39.04935064911842,179.5890806040261 16.046753245405853,196.85955764423124 14.083116883412004,199.46641390025616 12.680519480258226,202.3991246172227 12.400000000372529,205.65768888685852 14.3636363632977,211.52309610228986 20.25454545393586,215.75921676168218 23.34025973919779,214.45579562545754 26.425974026322365,215.10750626027584 29.511688311584294,213.47822941979393 32.316883116960526,211.19724043109454 37.927272726781666,205.33183261123486 44.09870129823685,202.72498119599186 52.23376623354852,196.53370046056807 53.916883116588,193.27512677875347 55.038961038924754,190.01654973439872 50.27012986969203,181.2183749245014 47.74545454606414,179.91493953578174 44.940259739756584,178.9373626401648 38.488311687484384,179.91493953578174 35.402597402222455,181.54423368838616 30.072727273218334,186.432111104019 14.64415584411472,198.48884305660613 13.241558441892266,201.42155468137935 12.961038960143924,204.68011995893903 13.522077921777964,207.93868187628686 15.205194804817438,210.5455289890524 16.327272727154195,213.80408485559747 19.132467532530427,215.43336152774282 25.584415582939982,216.0850719618611 28.950649349950254,214.12994025694206 33.71948051825166,209.24210570123978 38.7688311683014,205.00597630254924 44.659740258939564,202.07326800585724 51.95324675180018,195.8819859928917" stroke="#ffff00" stroke-linecap="round" stroke-linejoin="round" stroke-width="0.5"><title>2021-02-01 3.1km</title><desc>5958643201</desc></polyline><polyline fill="none" points="90.85176470689476,190.9155260694679 84.24470588285476,196.52411133726127 82.46588235348463,198.88561763451435 80.94117647130042,201.24712198320776 80.68705882504582,203.9038120454643 80.94117647130042,206.5604996420443 81.70352941285819,209.21718477085233 83.48235294222832,211.57868059328757 88.31058823503554,214.53054763027467 91.61411764845252,215.1209206727799 94.40941176563501,214.2353610638529 102.54117647185922,210.9883068203926 114.99294117745012,200.95193404634483 117.78823529463261,199.47599390451796 119.56705882400274,196.81929973093793 120.58352941274643,190.9155260694679 119.82117647118866,188.258823947981 118.04235294088721,185.89730887976475 110.6729411771521,182.05984273762442 107.8776470599696,182.05984273762442 105.08235294185579,182.94541230495088 102.54117647185922,184.42136097350158 100.0,186.48768783034757 97.2047058828175,187.3732560253702 84.49882353004068,195.93373445770703 82.21176470723003,198.00005300156772 80.68705882504582,200.95193404634483 79.92470588348806,206.5604996420443 80.94117647130042,209.21718477085233 84.49882353004068,213.3498011813499 90.34352941345423,215.1209206727799 93.39294117782265,214.82573416666128 98.47529411781579,212.46424102410674 118.55058823525906,199.18080578441732 120.32941176462919,197.11448809411377 120.8376470580697,194.16260309051722 120.8376470580697,191.5059039837215 118.8047058833763,185.89730887976475 116.517647058703,183.83098159683868 113.72235294152051,182.65022248006426 108.1317647062242,181.4694628752768 102.7952941171825,184.42136097350158 100.76235294155777,186.1924983705394 90.59764705877751,192.09628177573904 83.48235294222832,197.40967642725445 81.44941176567227,199.47599390451796 80.17882352974266,202.132685611723 80.17882352974266,205.0845623924397 80.68705882504582,208.33162333630025 81.95764705911279,210.9883068203926 83.99058823566884,213.3498011813499 89.83529411815107,215.41610714793205 93.13882353063673,215.1209206727799 95.93411764781922,214.53054763027467 104.0658823531121,210.10274593369104 118.29647058900446,199.7711819934193 120.58352941274643,197.40967642725445 121.6000000005588,191.5059039837215 119.31294117681682,186.48768783034757 117.53411764744669,183.83098159683868 112.45176470652223,181.4694628752768 109.40235294122249,181.4694628752768 103.30352941341698,183.24060209910385 91.61411764845252,190.9155260694679 82.72000000067055,198.00005300156772 80.68705882504582,200.06637005275115 78.40000000037253,205.37974990392104 81.70352941285819,210.9883068203926 86.27764705941081,214.2353610638529 89.58117647096515,215.1209206727799 95.42588235344738,214.82573416666128 103.30352941341698,210.39793292572722 118.04235294088721,200.06637005275115 120.07529411837459,197.70486472942866 121.3458823543042,195.34335745754652 121.3458823543042,192.39147062739357 119.31294117681682,186.78287725918926 114.48470588307828,182.94541230495088 108.89411764778197,182.05984273762442 103.55764705874026,183.24060209910385 100.50823529437184,184.71655061561614 98.22117647062987,187.07806665776297 83.48235294222832,196.81929973093793 81.44941176567227,199.18080578441732 80.43294117692858,201.54230988956988 79.92470588348806,204.78937485208735 80.17882352974266,207.7412488926202 81.44941176567227,210.39793292572722 83.48235294222832,212.75942777306773 86.02352941222489,214.2353610638529 89.0729411765933,215.1209206727799 92.12235294189304,215.1209206727799 100.25411764811724,211.57868059328757 112.1976470593363,203.9038120454643 117.2800000011921,200.06637005275115 119.31294117681682,198.00005300156772 120.58352941274643,195.04816891113296 120.58352941274643,192.09628177573904 118.55058823525906,186.78287725918926 116.517647058703,184.42136097350158 113.97647058870643,182.65022248006426 107.8776470599696,181.17427289742045 100.0,185.89730887976475 95.93411764781922,189.43958075041883 83.73647058941424,197.40967642725445 81.95764705911279,199.47599390451796 80.94117647130042,202.132685611723 79.92470588348806,207.44606162584387 81.19529411848634,209.8075589099899 85.51529411785305,213.64498783904128 88.05647058971226,214.82573416666128 91.10588235408068,215.1209206727799 93.64705882407725,214.53054763027467 107.8776470599696,205.97012483305298 114.7388235302642,201.24712198320776 116.77176470588893,199.18080578441732 118.29647058900446,196.81929973093793 117.78823529463261,187.96363467071205 113.46823529433459,184.12617130042054 110.41882352996618,183.83098159683868 107.8776470599696,182.35503262421116 104.57411764748394,182.65022248006426 102.03294117748737,183.83098159683868 94.91764705907553,188.8492024105508 92.8847058834508,190.9155260694679 82.9741176487878,196.81929973093793 80.94117647130042,199.18080578441732 79.92470588348806,201.54230988956988 79.41647059004754,204.1989996782504 79.67058823537081,207.44606162584387 80.94117647130042,209.8075589099899 82.72000000067055,211.87386743468232 85.26117647159845,213.64498783904128 88.56470588315278,214.53054763027467 94.15529411751777,213.94017446693033 98.72941176500171,210.69311988772824 104.32000000029802,208.62681051087566 118.55058823525906,199.18080578441732 120.8376470580697,194.16260309051722 120.58352941274643,187.66844536340795 117.53411764744669,182.65022248006426 111.43529411870986,181.76465282170102 108.89411764778197,180.58389285230078 106.09882353059947,180.58389285230078 103.55764705874026,181.17427289742045 91.61411764845252,190.6203370669391 82.21176470723003,197.11448809411377 80.43294117692858,199.47599390451796 79.41647059004754,201.837497765664 78.90823529381305,204.78937485208735 79.92470588348806,207.7412488926202 81.70352941285819,210.39793292572722 83.73647058941424,212.46424102410674 89.58117647096515,214.53054763027467 97.96705882437527,211.57868059328757" stroke="#fffc00" stroke-linecap="round" stroke-linejoin="round" stroke-width="0.5"><title>2021-01-28 3.1km</title><desc>5958643208</desc></polyline><polyline fill="none" points="144.95031847059727,204.07303339778446 144.6751592354849,207.26933177933097 145.50063694268465,210.14599750190973 147.70191082824022,213.0226605546195 149.90318471379578,214.62080554082058 152.92993630561978,216.218949703034 155.6815286623314,216.85820713755675 158.98343948926777,216.53857843670994 161.45987261086702,213.98154764529318 164.48662420269102,212.70303145889193 168.88917197473347,208.22822064929642 172.19108280260116,206.94970208825544 174.94267515931278,205.3515531460289 177.41910827998072,202.79451312241144 185.6738853501156,197.68042674427852 187.32484076358378,195.12338038929738 187.59999999962747,191.9270694782026 187.32484076358378,188.41112366877496 186.22420382127166,185.2148058328312 184.02292993664742,182.97738138656132 181.54649681504816,181.37922007846646 178.24458598718047,180.73995532398112 175.49299362953752,179.14179286221042 169.43949044588953,180.73995532398112 166.41273885406554,182.33811696222983 162.0101910829544,186.49333336320706 154.30573248304427,191.9270694782026 147.15159235708416,198.0000573899597 145.50063694268465,200.23747098795138 144.40000000037253,206.3104426106438 146.3261146498844,212.38340232917108 148.52738853450865,214.62080554082058 155.40636942721903,215.8993209367618 158.43312101904303,213.98154764529318 161.73503184691072,213.34228961844929 164.48662420269102,211.10488548362628 169.98980891611427,208.54785020789132 176.86878980882466,202.79451312241144 182.64713375736028,199.9178405732382 185.3987261140719,197.68042674427852 186.77452229335904,195.12338038929738 186.49936305638403,191.28780690091662 187.0496815284714,188.09149203379638 183.74777070060372,182.97738138656132 180.44585987273604,180.73995532398112 173.84203821700066,179.14179286221042 170.26496815308928,179.7810579459183 151.55414012726396,193.52522534620948 149.07770700659603,195.76264217612334 147.15159235708416,198.31968800304458 145.50063694268465,201.19636203581467 144.95031847059727,204.39266338385642 145.22547770757228,207.5889614354819 146.60127388499677,210.78525618906133 148.52738853450865,213.6619186482858 151.55414012726396,215.57969213742763 157.88280254788697,216.218949703034 163.93630573246628,213.98154764529318 166.41273885406554,211.42451474489644 167.78853503149003,208.54785020789132 170.26496815308928,206.3104426106438 172.19108280260116,204.07303339778446 174.66751592233777,202.47488297033124 177.96942675113678,201.51599231897853 180.44585987273604,199.9178405732382 183.47261146456003,199.59821012453176 185.9490445861593,197.68042674427852 185.9490445861593,187.7718603652902 184.84840764198452,184.89517386839725 182.3719745222479,182.65774919092655 176.0433121016249,181.0595877172891 173.29171974491328,180.10069043794647 167.23821656033397,181.69885240634903 160.08407643344253,187.7718603652902 154.30573248304427,191.607438206207 147.15159235708416,197.36079606506974 145.22547770757228,200.23747098795138 145.22547770757228,206.94970208825544 147.42675159219652,212.38340232917108 149.90318471379578,214.62080554082058 155.95668789744377,216.85820713755675 160.90955414064229,213.34228961844929 167.78853503149003,210.14599750190973 169.7146496810019,207.90859105903655 178.24458598718047,203.43377332598902 180.17070063576102,200.87673171935603 185.3987261140719,197.68042674427852 186.49936305638403,194.8037494472228 185.9490445861593,188.09149203379638 182.09681528713554,183.2970135495998 179.07006369438022,182.01848470093682 177.41910827998072,179.14179286221042 167.51337579637766,180.73995532398112 164.76178343966603,182.65774919092655 160.3592356685549,187.13259693002328 149.90318471379578,194.8037494472228 146.3261146498844,199.59821012453176 145.77579617779702,202.47488297033124 145.77579617779702,205.99081282131374 146.3261146498844,209.18710922426544 147.42675159219652,211.7441439719405 149.90318471379578,213.98154764529318 153.20509554166347,214.62080554082058 156.23184713441879,214.62080554082058 162.28535031806678,213.34228961844929 168.33885350171477,208.54785020789132 182.64713375736028,200.23747098795138 185.12356687895954,198.31968800304458 186.49936305638403,194.8037494472228 186.49936305638403,191.607438206207 185.9490445861593,188.7307552706916 183.74777070060372,182.97738138656132 180.7210191078484,181.37922007846646 177.14394904393703,181.0595877172891 173.84203821700066,179.7810579459183 170.81528662331402,180.42032289807685 168.06369426753372,181.69885240634903 163.3859872603789,186.17370153032243 158.15796178393066,189.68964987900108 148.80254776962101,197.04116535326466 146.60127388499677,199.27857964392751 145.22547770757228,202.47488297033124 144.95031847059727,205.6711830003187 145.50063694268465,211.7441439719405 147.15159235708416,214.30117660900578 150.17834394890815,215.8993209367618 153.75541401281953,216.53857843670994 156.50700636953115,216.53857843670994 159.80891719646752,215.8993209367618 162.56050955411047,213.6619186482858 166.6878980891779,208.8674797322601 174.11719745211303,203.43377332598902 176.86878980882466,200.87673171935603 179.89554140064865,199.27857964392751 184.57324840687215,195.44301129947416 186.22420382127166,192.8859630979132 187.0496815284714,186.49333336320706 185.6738853501156,183.61664567957632 182.64713375736028,182.33811696222983 175.49299362953752,181.0595877172891 172.46624203771353,180.73995532398112 169.7146496810019,181.37922007846646 166.41273885406554,182.97738138656132 164.48662420269102,184.89517386839725 163.11082802526653,187.45222866395488 149.90318471379578,196.40190383070149 147.70191082824022,198.31968800304458 145.77579617779702,200.87673171935603 144.6751592354849,203.43377332598902 144.95031847059727,206.63007236574776 145.22547770757228,209.8263681086246 146.60127388499677,213.0226605546195 149.07770700659603,214.30117660900578 152.37961783446372,215.26006330479868 158.7082802541554,215.57969213742763 161.18471337575465,213.0226605546195 169.98980891611427,206.63007236574776 177.96942675113678,201.83562256931327 181.2713375799358,200.55710137053393 183.47261146456003,198.63931858260185 185.9490445861593,191.607438206207 186.49936305638403,188.41112366877496 184.84840764198452,182.33811696222983 181.82165605016053,180.42032289807685 178.51974522322416,180.10069043794647 171.91592356655747,179.7810579459183 169.16433120891452,180.73995532398112 162.28535031806678,188.09149203379638 149.90318471379578,198.0000573899597 147.70191082824022,199.9178405732382 145.77579617779702,202.15525278635323 144.6751592354849,208.54785020789132 147.42675159219652,213.98154764529318 149.90318471379578,215.57969213742763 152.92993630561978,216.85820713755675 156.23184713441879,216.85820713755675 159.53375796228647,216.218949703034 162.83566879015416,213.34228961844929 168.33885350171477,206.3104426106438 174.11719745211303,204.39266338385642 184.02292993664742,195.76264217612334" stroke="#fffd00" stroke-linecap="round" stroke-linejoin="round" stroke-width="0.5"><title>2021-01-26 3.1km</title><desc>5958643221</desc></polyline><polyline fill="none" points="14.974834436550736,253.47750249691308 13.544370859861374,256.1361442906782 14.402649005874991,259.79177317605354 16.119205297902226,262.7827391780447 18.980132449418306,264.44438575720415 25.8463576156646,262.45040975906886 28.993377482518554,262.45040975906886 52.45298013091087,245.5015639483463 54.45562913827598,242.51058190106414 55.59999999962747,239.51959707820788 55.02781457081437,236.52860947698355 53.59735099226236,233.5376190992538 49.30596026405692,229.2172947616782 46.15894039720297,227.55563001218252 42.725827815011144,227.2232969601173 39.578807946294546,228.22029601503164 20.982781456783414,241.84591884794645 16.119205297902226,245.83389511564746 14.116556290537119,248.16021232539788 12.972185431048274,251.15118912700564 12.686092713847756,254.4744934265036 14.402649005874991,260.7887621524278 16.691390726715326,262.7827391780447 19.838410595431924,264.44438575720415 23.27152317762375,264.77671497059055 29.85165562853217,263.7797272289172 35.00132450275123,258.4624540612567 40.150993378832936,254.4744934265036 42.725827815011144,251.81585026113316 53.311258278787136,243.83990759844892 55.02781457081437,240.84892400866374 55.3139072842896,237.52560565248132 55.3139072842896,234.202283867402 54.45562913827598,230.87895865458995 52.45298013091087,228.55262896534987 49.59205297939479,226.89096387219615 46.15894039720297,226.5586307514459 39.578807946294546,227.55563001218252 36.717880794778466,229.2172947616782 32.426490066573024,233.5376190992538 19.552317881956697,242.84291337733157 14.974834436550736,248.16021232539788 13.544370859861374,250.81885850825347 12.972185431048274,254.4744934265036 13.258278146386147,257.79779429826885 14.688741723075509,261.45342129841447 16.977483443915844,263.11506856326014 19.838410595431924,264.44438575720415 29.85165562853217,263.44739791285247 32.712582781910896,261.785750819603 36.717880794778466,256.80080439709127 50.45033112540841,247.16321944072843 53.025165563449264,244.83690151106566 54.74172185361385,241.84591884794645 55.59999999962747,238.52260151924565 54.74172185361385,232.20828915038146 52.45298013091087,229.88196042133495 49.878145694732666,227.88796303025447 43.584105959162116,226.22629759646952 37.29006622545421,227.88796303025447 30.423841059207916,234.5346161997877 15.547019867226481,246.16622624802403 13.830463577061892,248.82487407675944 12.972185431048274,251.81585026113316 12.972185431048274,254.80682366760448 13.544370859861374,258.1301241973415 15.547019867226481,260.7887621524278 17.549668872728944,263.11506856326014 20.69668874144554,262.7827391780447 22.41324503161013,265.7737024035305 25.8463576156646,265.7737024035305 28.993377482518554,264.11205651029013 31.568211920559406,262.1180803065654 38.434437084943056,254.4744934265036 43.29801324382424,250.48652785550803 51.88079470209777,245.16923274705186 54.16953642293811,242.84291337733157 55.02781457081437,239.51959707820788 55.3139072842896,235.86394518846646 54.45562913827598,232.20828915038146 52.45298013091087,229.88196042133495 46.731125827878714,226.5586307514459 40.150993378832936,227.2232969601173 36.717880794778466,228.22029601503164 29.5655629131943,235.19928076327778 14.402649005874991,246.49855734710582 12.686092713847756,249.82186644664034 12.400000000372529,253.14517211844213 13.258278146386147,256.46847436157987 14.402649005874991,259.45944344997406 16.4052980132401,262.45040975906886 19.26622516475618,264.11205651029013 22.41324503161013,264.77671497059055 29.5655629131943,262.1180803065654 39.86490066163242,253.47750249691308 42.1536423843354,250.48652785550803 50.164238411933184,246.16622624802403 52.73907284811139,244.17223893711343 54.45562913827598,241.51358726853505 55.59999999962747,238.19026959734038 55.59999999962747,234.86694849887863 51.5947019867599,228.8849618807435 48.161589404568076,228.55262896534987 45.586754966527224,226.89096387219615 39.006622517481446,227.88796303025447 36.431788079440594,229.2172947616782 28.993377482518554,235.86394518846646 13.830463577061892,246.83088841103017 12.686092713847756,250.154197167838 12.400000000372529,256.80080439709127 13.830463577061892,259.45944344997406 15.547019867226481,261.785750819603 18.121854305267334,263.7797272289172 25.56026490032673,263.44739791285247 28.70728476718068,262.45040975906886 31.568211920559406,260.7887621524278 34.14304635860026,258.1301241973415 36.717880794778466,256.46847436157987 38.72052980028093,253.80983284045942 41.867549668997526,253.80983284045942 43.87019867449999,251.15118912700564 46.44503311254084,249.48953569098376 52.45298013091087,246.83088841103017 54.45562913827598,243.50757622509263 55.02781457081437,240.18426061142236 54.74172185361385,237.19327362813056 54.16953642293811,234.202283867402 52.45298013091087,231.54362397058867 46.731125827878714,227.2232969601173 43.584105959162116,226.89096387219615 40.723178807646036,227.2232969601173 37.29006622545421,228.8849618807435 29.5655629131943,235.53161299298517 16.691390726715326,244.83690151106566 14.402649005874991,247.16321944072843 13.258278146386147,250.154197167838 12.400000000372529,253.47750249691308 12.686092713847756,256.80080439709127 16.119205297902226,262.45040975906886 22.41324503161013,264.44438575720415 25.8463576156646,264.44438575720415 28.993377482518554,264.11205651029013 35.287417218089104,257.1331343986094 37.86225165426731,255.13915387634188 43.584105959162116,251.81585026113316 51.30860927142203,246.16622624802403 53.311258278787136,243.83990759844892 54.45562913827598,233.86995149985887 50.73642384074628,228.55262896534987 41.00927152298391,226.5586307514459 37.576158940792084,227.88796303025447 30.423841059207916,234.5346161997877 22.127152318134904,240.18426061142236 14.974834436550736,246.83088841103017 13.258278146386147,249.82186644664034 12.686092713847756,253.14517211844213 12.686092713847756,256.80080439709127 15.833112582564354,262.1180803065654 18.69403973594308,264.11205651029013 21.84105960279703,264.77671497059055 29.5655629131943,263.11506856326014 36.717880794778466,256.46847436157987 42.1536423843354,253.14517211844213 47.017218543216586,249.48953569098376 49.59205297939479,246.83088841103017 52.166887417435646,245.16923274705186 54.16953642293811,242.17825039173476 55.02781457081437,238.85493340622634 54.74172185361385,232.5406216897536 52.73907284811139,230.21429320028983 43.29801324382424,226.22629759646952 37.003973508253694,228.22029601503164 32.140397349372506,232.5406216897536" stroke="#fffb00" stroke-linecap="round" stroke-linejoin="round" stroke-width="0.5"><title>2021-01-25 3.2km</title><desc>5958643210</desc></polyline></svg>