<?xml version="1.0" encoding="utf-8" ?>
<svg baseProfile="full" height="300mm" version="1.1" viewBox="0,0,200,300" width="200mm" xmlns="http://www.w3.org/2000/svg" xmlns:ev="http://www.w3.org/2001/xml-events" xmlns:xlink="http://www.w3.org/1999/xlink"><defs /><rect fill="#222222" height="300" width="200" x="0" y="0" /><text fill="#FFFFFF" style="font-size:12px; font-family:Arial; font-weight:bold;" x="10" y="20">Over 5km Runs</text><text fill="#FFFFFF" style="font-size:4px; font-family:Arial" x="10" y="280">ATHLETE</text><text fill="#FFFFFF" style="font-size:9px; font-family:Arial" x="10" y="290">Licardo</text><text fill="#FFFFFF" style="font-size:4px; font-family:Arial" x="120" y="280">STATISTICS</text><text fill="#FFFFFF" style="font-size:3px; font-family:Arial" x="120" y="285">Number: 14</text><text fill="#FFFFFF" style="font-size:3px; font-family:Arial" x="120" y="290">Weekly: 2.3</text><text fill="#FFFFFF" style="font-size:3px; font-family:Arial" x="141" y="285">Total: 62.2 km</text><text fill="#FFFFFF" style="font-size:3px; font-family:Arial" x="141" y="290">Avg: 4.4 km</text><text fill="#FFFFFF" style="font-size:3px; font-family:Arial" x="167" y="285">Min: 3.1 km</text><text fill="#FFFFFF" style="font-size:3px; font-family:Arial" x="167" y="290">Max: 10.4 km</text><polyline fill="none" points="34.01148325367831,43.731585834000725 33.322488038334996,43.6012695953832 32.426794258411974,43.6012695953832 31.508133971248753,43.679459345847135 30.520574162714183,43.835838780913036 29.533014354179613,43.914028465544106 29.326315789483488,44.17466058881837 28.821052631596103,44.982618620066205 28.338755980948918,45.58206983731361 27.46602870814968,46.780968398816185 27.05263157899026,47.40647864193306 26.45550239237491,48.39686698518926 25.720574162667617,49.3351263756922 25.376076555112377,49.62181611414417 24.41148325370159,50.27338260351098 23.722488038241863,50.58613397658337 23.01052631577477,50.42975833400851 22.643062201095745,50.42975833400851 21.56363636360038,50.66432176507078 20.828708134009503,51.00313526089303 19.450717703439295,51.550448498426704 18.2334928229684,52.17594802365056 17.797129186685197,52.436572411010275 16.717703349422663,53.4008805223566 16.120574162807316,54.10456271172734 15.362679425859824,55.32948672384373 14.352153110085055,57.20595560854417 14.053588516777381,57.544761142431526 13.502392344526015,58.6654226629762 12.445933014387265,60.48974572130828 12.400000000023283,60.69823902394273 14.949282296700403,61.87101094156969 15.661244019167498,62.05344168478041 16.786602870794013,62.15768776999903 17.475598086137325,62.340118325315416 17.95789473678451,62.57467172082397 18.532057416276075,62.93953216538648 18.784688995336182,63.12196220844635 19.289952153223567,63.591067484230734 19.542583732050844,63.74743573390879 19.95598086132668,63.87774254148826 20.644976076553576,64.00804928815342 21.540669856476597,64.03411063013482 22.0,63.95592659676913 22.298564593307674,63.851681184896734 22.872727272682823,63.56500610074727 23.814354067086242,62.887409274000674 24.6181818182813,62.44436430328642 25.19234449765645,62.26193381633493 25.973205741727725,62.0795032097958 26.570334928343073,62.0795032097958 28.15502392349299,62.235872308403486 28.338755980948918,62.28799532176345 28.75215311010834,62.522548761131475 29.096650717779994,62.65285614205641 30.26794258377049,62.835286372865085 30.520574162714183,62.835286372865085 31.99043062212877,62.60073319697403 33.04688995226752,62.49648727758904 34.01148325367831,62.54861024217098 34.7234449761454,62.626794670766685 35.13684210530482,62.78316346203792 36.17033492831979,63.30439213186037 37.04306220100261,63.851681184896734 38.05358851677738,64.84201102229417 39.04114832542837,66.11901008640416 40.074641148443334,67.0050876274181 40.37320574175101,67.18751500637154 40.53397129185032,67.21357605082449 40.74066985643003,67.13539291036432 41.062200956977904,66.95296549724299 41.84306220093276,66.61417141283164 42.50909090915229,66.19719351225649 42.715789473732,65.96264316872112 43.10622009576764,65.38929705269402 43.28995215310715,64.4771530709404 43.79521531111095,62.93953216538648 44.25454545463435,61.97525709521142 44.75980861252174,61.29765639908146 45.21913875604514,60.75036232522689 45.770334928296506,60.177005474688485 46.39043062203564,59.81214140955126 48.250717703369446,58.326618493010756 49.58277511969209,57.1277696575562 51.190430622082204,55.5640460261493 51.99425837327726,54.54762095530168 52.82105263171252,53.635441449820064 53.48708133981563,52.775383749685716 54.153110047918744,51.732886005105684 55.00287081336137,50.48188355797902 55.27846889954526,50.038818843022455 55.59999999997672,49.38725180461188 55.59999999997672,49.152687297493685 55.55406698572915,49.0223735969339 55.37033492838964,48.70962046680506 55.140669856453314,48.5011181847367 53.46411483257543,47.38041574318777 52.017224880401045,46.75490544157219 51.534928229637444,46.390023783169454 51.09856459335424,45.9730155877769 50.45550239237491,45.13899732299615 50.06507177045569,44.72198725331691 48.89377990446519,43.731585834000725 47.97511961730197,43.15819392778212 47.423923445050605,42.949687487242045 46.64306220097933,42.845434208371444 46.18373205745593,42.87149753177073 45.770334928296506,43.00181411195081 45.01244019146543,43.418826758890646 43.08325358852744,44.17466058881837 42.669856459484436,44.2528501781635 41.383732057525776,44.35710292987642 39.93684210535139,44.51348198423511 39.638277512043715,44.487418814591365 37.34162679431029,44.59167147843982 36.675598086207174,44.64379779569572 35.84880382777192,44.64379779569572 35.29760765552055,44.53954515140504 33.89665071782656,44.04434455759474 32.49569377989974,43.679459345847135 31.416267942637205,43.731585834000725 29.578947368543595,43.96615490972181 29.41818181821145,44.01828134409152 29.280382775119506,44.14859738750965 28.821052631596103,44.95655549434014 28.10909090912901,45.84270039870171 27.603827751241624,46.62459061850677 27.144497607718222,47.224038299609674 25.697607655543834,49.361189091345295 25.46794258384034,49.59575342288008 23.63062200974673,50.612196575209964 23.35502392356284,50.612196575209964 22.872727272682823,50.45582094718702 22.459330143639818,50.45582094718702 21.56363636360038,50.690384356246796 20.16267942590639,51.18557312633493 18.853588516823947,51.837135955283884 18.164593301480636,52.123823116882704 16.878468899638392,53.24450646099285 16.373205741634592,53.791815291682724 15.684210526407696,54.808243122155545 14.696650717756711,56.684715520445025 14.260287081473507,57.414451370423194 13.86985645943787,57.96175200268044 13.180861243978143,59.1605972466059 12.836363636422902,59.83820314431796 12.491866028751247,60.64611571285059 12.928229665150866,61.010978685022565 13.341626794310287,61.2455332003301 14.122488038381562,61.53221067285631 14.765550239244476,61.84494939708384 15.316746411495842,61.97525709521142 16.189473684178665,62.05344168478041 17.360765550285578,62.235872308403486 17.682296650717035,62.340118325315416 17.934928229660727,62.49648727758904 18.555023923516273,63.01771648414433 19.037320574279875,63.538944714848185 19.772248803870752,63.799558464292204 20.78277511964552,64.00804928815342 21.65550239244476,63.95592659676913 22.321531100547872,63.799558464292204 22.91866028716322,63.486821935744956 23.745454545482062,62.861347824684344 24.20478468912188,62.57467172082397 24.870813397224993,62.28799532176345 25.697607655543834,62.0795032097958 26.662200957071036,62.0795032097958 27.971291866037063,62.209810797998216 28.269856459461153,62.18374928526464 28.407655502436683,62.235872308403486 28.729186602984555,62.522548761131475 28.93588516744785,62.60073319697403 30.107177033554763,62.757102002884494 30.933971291873604,62.704979077359894 31.89856459328439,62.522548761131475 32.93205741629936,62.47042579166009 34.31004784698598,62.54861024217098 34.93014354072511,62.757102002884494 35.77990430628415,63.09590078092879 36.58373205747921,63.56500610074727 37.24976076558232,64.0601719696715 37.84688995219767,64.60745953707374 38.28325358859729,65.18080726315384 38.69665071775671,65.80627616326092 39.15598086128011,66.24931578399264 39.50047846895177,66.45780477335211 40.625837320578285,66.9790265635529 40.78660287091043,66.9790265635529 41.911961722536944,66.56204920940218 42.30239234457258,66.30143804594991 42.78468899521977,65.88445967694861 43.014354067039676,65.54566429229453 43.175119617255405,65.2068684954138 43.450717703439295,63.90380389566417 43.70334928238299,63.09590078092879 44.208612440153956,62.10556473230827 44.96650717710145,60.98491706000641 45.770334928296506,60.09882035810733 47.72248803835828,58.69148450513603 49.536842105328105,57.1277696575562 51.48899521538988,55.17311374581186 52.72918660286814,53.713628381694434 54.17607655504253,51.732886005105684 55.25550239242148,50.012756190786604 55.48516746412497,49.59575342288008 55.577033492852934,49.30906365753617 55.55406698572915,49.10056182453991 55.439234449877404,48.86599707574351 55.09473684220575,48.52718097853358 54.635406698682345,48.16230164337321 53.30334928224329,47.224038299609674 52.82105263171252,47.17191246544826 52.47655502404086,47.06766076810891 52.06315789476503,46.80703135373187 51.466028708266094,46.337897792924196 51.12153110047802,46.02514164644526 50.34066985663958,45.03474486403866 48.916746411588974,43.679459345847135 48.43444976082537,43.36670021218015 47.72248803835828,43.02787742073997 47.400956937810406,42.92362417123513 46.620095693855546,42.845434208371444 46.0229665072402,42.949687487242045 44.920574162737466,43.44489002859336 44.231578947394155,43.65339609817602 43.40478468907531,44.04434455759474 42.69282296660822,44.226786984101636 41.49856459337752,44.304976558923954 40.18947368429508,44.487418814591365 39.59234449767973,44.43529246808612 39.064114832668565,44.51348198423511 37.9846889951732,44.56560831607203 36.3540669856593,44.4613556425611 35.366507177008316,44.17466058881837 35.15980861254502,44.04434455759474 35.06794258381706,43.914028465544106 35.022009569453076,43.757649074395886 35.06794258381706,43.36670021218015 35.52727272734046,40.96886851126328 35.52727272734046,40.89067799926852 35.458373205852695,40.81248746535857 35.2287081341492,40.786423949175514 34.378947368473746,40.9167415057309 33.43732057430316,40.96886851126328 32.31196172256023,41.099185982340714 31.186602870817296,41.307693809241755 30.70430622017011,41.464074576913845 29.60191387566738,41.90715294133406 27.994258373277262,42.76724422359257 27.37416267953813,42.97575080083334 26.89186602877453,43.10606733232271 27.098564593470655,43.05394072708441" stroke="red" stroke-linecap="round" stroke-linejoin="round" stroke-width="0.5"><title>2024-07-03 10.1km</title><desc>11799763267</desc></polyline><polyline fill="none" points="96.5870625663083,42.92698998042033 95.94570519623812,43.16093703356455 95.09819724294357,43.732806777756196 94.86914103943855,43.966753151791636 94.0674443267053,45.03250636073062 93.40318133623805,46.09825547813671 92.48695652175229,47.21598796165199 91.77688229060732,48.33371594490018 91.50201484630816,48.56765844160691 89.78409331920557,49.52941996816662 89.44050901394803,49.55541347665712 88.93658536591101,49.451439427939476 88.59300106053706,49.42544590967009 87.69968186656479,49.5814069827029 87.01251325558405,49.78935494387406 85.82142099679913,50.36121103388723 84.63032873801421,51.011046069994336 83.78282078483608,51.53091300369124 83.0040296924999,52.154752039175946 82.17942735960241,53.11650113918586 81.62969247088768,53.81831594731193 81.28610816551372,54.36417068261653 80.73637327679899,55.48186988741509 79.15588547184598,58.31508724775631 78.62905620364472,59.58872599923052 79.06426299060695,59.874644099589204 80.14082714740653,60.498464387637796 80.80509013787378,60.78438155123149 81.9961823966587,61.04430598995532 83.07274655357469,61.12228327401681 83.62248144228943,61.304230185225606 84.81357370107435,62.00602429738501 85.11134676565416,62.29193990860949 85.63817603397183,62.70781663569505 86.82926829275675,63.01972377221682 87.69968186656479,62.99373152424232 88.43266171799041,62.78579345266917 89.09692470845766,62.42190145273344 89.8299045599997,61.82407784604584 90.37963944859803,61.48617697725422 90.99809119838756,61.22625295227044 91.79978791100439,61.04430598995532 92.44114528107457,61.01831355699687 94.02163308591116,61.12228327401681 94.34231177112088,61.09629084850894 94.61717921530362,61.252245365671115 95.05238600226585,61.564154137304286 95.48759278899524,61.66812365001533 96.10604453890119,61.694116022088565 96.93064687179867,61.694116022088565 97.52619300119113,61.53816175306565 99.17539766721893,61.408199795288965 100.68716861086432,61.64213127543917 101.07656415703241,61.74610075901728 101.94697773072403,62.10999364464078 102.54252386011649,62.44789375428809 103.45874867448583,63.17567720913212 103.96267232240643,63.64353699426283 104.60402969259303,64.5532620974991 105.29119830334093,65.22905595903285 105.8180275716586,65.64492828710354 106.45938494172879,66.13877586767194 106.59681866387837,66.19075977252214 106.75715800654143,66.13877586767194 107.19236479338724,65.8528642175952 107.92534464481287,65.54096026351908 108.36055143165868,65.25504799780902 108.72704135754611,64.91715130425291 108.9790031814482,64.5272699930938 109.13934252399486,64.18937241387903 109.27677624614444,63.74750572833 109.46002120897174,62.837777985143475 109.75779427378438,61.928047261433676 109.94103923661169,61.53816175306565 110.49077412521001,60.57644182504737 111.17794273607433,59.6407111302542 111.49862142116763,59.276815008430276 111.81930010614451,58.99089629238006 112.2086956523126,58.67898463003803 112.8958642630605,58.289094559295336 113.88080593862105,57.56129829573911 114.8657476141816,56.729528801253764 116.17136797460262,55.50786283859634 117.06468716869131,54.5721150613972 118.57645811256953,52.804582877171924 119.10328738077078,52.07677223641076 119.9737009544624,50.98505269770976 121.25641569471918,48.95756216478185 121.60000000009313,48.33371594490018 121.60000000009313,48.09977325098589 121.57709437969606,47.96980500253267 121.41675503726583,47.735862002009526 121.18769883364439,47.47592510355753 119.12619300116785,46.150243135285564 118.41611877002288,45.864310900418786 117.7060445388779,45.42241504901904 117.15630965016317,44.928530618024524 116.0568398728501,43.68081866792636 115.0489925770089,42.77102516879677 114.68250265123788,42.5110836213571 113.92661717941519,42.069182432140224 113.37688229058404,41.861228687892435 112.62099681876134,41.80924022747786 112.02545068936888,41.91321713855723 111.22375397675205,42.22514763812069 109.48292682936881,43.03096647275379 109.09353128331713,43.186931138363434 108.65832449635491,43.26491343823727 107.35270413581748,43.39488388944301 105.8867444327334,43.65482460928615 105.40572640509345,43.55084835056914 105.17667020158842,43.52485427982174 103.18388123030309,43.706812724034535 101.87826086964924,43.602836484787986 101.25980911997613,43.47286613099277 99.67932131502312,42.92698998042033 98.39660657488275,42.61506026951247 97.8010604454903,42.61506026951247 96.35800636280328,42.9529841071635 95.60212089086417,43.16093703356455 95.3272534464486,43.34289571631234 93.83838812308386,45.31843945232686 92.55567338282708,47.11201303676353 91.79978791100439,48.307722321973415 91.63944856845774,48.489677631267114 90.76903499476612,49.087529950775206 90.08186638401821,49.65938748646295 89.96733828214929,49.711374476755736 88.89077412511688,49.39945238895598 88.20360551448539,49.47743294379325 87.21866383892484,49.73736796819139 86.71474019088782,49.94531581256888 84.21802757168189,51.16700625233352 83.34761399787385,51.8428326966241 82.63753976672888,52.59663717454532 81.51516436901875,54.00026764499489 81.28610816551372,54.416156791878166 80.94252386013977,55.24793321688776 80.02629904565401,56.65155028333538 79.20169671264011,58.10714567225659 78.40000000002328,59.40677796385717 78.60615058336407,59.53674085845705 79.72852598095778,60.056591828441015 80.46150583249982,60.52445686922874 80.98833510070108,60.78438155123149 81.4922587487381,60.94033624365693 83.09565217397176,61.148275697254576 83.80572640511673,61.382207396411104 84.6532343585277,61.928047261433676 85.24878048792016,62.39590914873406 85.54655355261639,62.70781663569505 85.91304347838741,62.8637702477281 86.57730646885466,63.01972377221682 87.58515376457945,62.9677392738522 88.1806998939719,62.81178572017234 88.79915164376143,62.5258706441964 89.6466595971724,61.85007020350895 90.53997879114468,61.382207396411104 91.18133616121486,61.148275697254576 92.0517497350229,60.96632868386223 92.7389183457708,60.96632868386223 94.4339342523599,61.148275697254576 95.14400848362129,61.460184585652314 96.266383881215,61.72010839174618 96.79321314953268,61.694116022088565 97.77815482509322,61.434192191722104 98.67147401918191,61.382207396411104 99.49607635219581,61.408199795288965 100.66426299058367,61.590146519156406 101.19109225890134,61.7980854861089 102.01569459179882,62.18797062948579 103.00063626735937,62.837777985143475 103.59618239675183,63.30563833969063 103.93976670212578,63.695521366171306 104.19172852614429,64.00742739328416 104.60402969259303,64.70921467311564 104.85599151649512,64.99512750076246 106.41357370105106,66.08679195324657 106.55100742331706,66.11278391169617 107.10074231179897,65.95683212438598 107.94825026520994,65.54096026351908 108.42926829284988,65.17707187423366 108.81866383890156,64.7352067604952 109.07062566280365,64.37131731532281 109.20805938506965,64.08540384517983 109.29968186642509,63.77349790575681 109.50583244976588,62.62983979683486 109.64326617191546,62.16197830357123 109.75779427378438,61.85007020350895 110.14718981983606,61.09629084850894 110.3762460234575,60.7064041721751 110.74273594934493,60.21254692960065 111.26956521754619,59.562733430066146 111.79639448586386,59.04288153539528 112.30031813378446,58.70497728191549 113.69756097567733,57.69126205405337 115.43838812306058,56.18367871636292 116.67529162252322,54.98800335175474 117.82057264063042,53.74033661172143 118.69098621432204,52.67461683120928 119.37815482506994,51.81683940230869 120.59215270436835,50.07528313616058 121.39384941675235,48.77560716212611 121.55418875941541,48.38570318339043 121.60000000009313,48.177754170872504 121.55418875941541,47.943811345583526 121.41675503726583,47.76185567842913 121.02735949109774,47.42393769463524 119.69883351016324,46.566144042124506 118.9658536586212,45.96828629259835 118.18706256640144,45.78632933064364 117.43117709446233,45.344433355203364 117.11049840948544,45.03250636073062 116.03393425245304,43.75880082900403 115.0489925770089,42.849007585522486 114.0411452811677,42.14716504604439 113.76627783675212,42.01719401057926 113.35397667030338,41.887222914461745 112.73552492063027,41.80924022747786 112.27741251338739,41.861228687892435 109.39130434789695,42.978978231491055 108.24602332990617,43.23891934068524 107.12364793219604,43.42087797241402 105.97836691420525,43.65482460928615 105.40572640509345,43.49886020660051 105.17667020158842,43.47286613099277 104.23753976682201,43.55084835056914 103.2984093320556,43.68081866792636 101.87826086964924,43.62883054828853 101.09946977731306,43.47286613099277 99.5647932132706,42.92698998042033 98.90053022280335,42.74503102499875 98.62566277838778,42.69304273009766 97.32004241785035,42.667048579023685 96.01442205731291,42.900995851203334 95.48759278899524,43.10894881654531 95.09819724294357,43.706812724034535 93.8154825028032,45.266451639385195 93.51770943799056,45.70834773906972 93.12831389182247,46.410181275132345 92.50986214226577,47.13800677162362 92.09756097570062,47.83983669325244 91.57073170738295,48.46368402300868 91.13552492053714,48.8016007411934 90.5857900318224,49.165510593215004 89.8986214210745,49.451439427939476 89.71537645813078,49.50342645714409 89.34888653235976,49.47743294379325 88.91367974563036,49.34746534031001 87.76839872752316,49.55541347665712 87.03541887598112,49.76336145721143 85.89013785799034,50.33521760086296" stroke="red" stroke-linecap="round" stroke-linejoin="round" stroke-width="0.5"><title>2024-07-02 10.4km</title><desc>11790795955</desc></polyline><polyline fill="none" points="176.47966101707425,36.77036999966367 176.66271186457016,37.28975763145718 176.91440677980427,38.97776071369299 177.4177966102725,41.18513385037659 177.7838983052643,43.444426976609975 177.80677966109943,44.093645733606536 178.19576271192636,45.106423958583036 178.79067796620075,47.02809554839041 179.27118644083384,48.404419716709526 180.66694915259723,51.5725361762743 181.0788135593757,52.66319084298448 181.62796610186342,53.77980903311982 182.26864406792447,55.3638410763524 183.11525423743296,57.25947408541106 183.755932203494,58.973322910722345 184.19067796610761,59.80427610364859 184.6025423730025,60.972799818060594 185.42627118644305,62.7904935858096 185.79237288143486,63.38773322306224 186.0669491526205,63.69933600141667 186.57033898320515,64.08883898195927 187.3940677966457,64.55624183642794 187.55423728830647,64.78994296817109 187.60000000009313,64.99767714214977 187.5771186441416,65.17944441671716 187.23389830521774,66.0882790024043 187.11949152557645,66.71147813976859 186.7305084746331,68.19157047753106 186.52457627130207,69.38602520056884 186.38728813570924,70.76223839394515 186.31864406797104,70.94400189004955 186.1813559323782,71.09979907760862 185.83813559333794,71.17769763857359 183.755932203494,71.20366382069187 180.59830508485902,71.17769763857359 178.72203389834613,71.22963000033633 177.69237288145814,71.15173145401059 176.15932203398552,70.86610326348455 175.0610169492429,70.60644101680373 172.47542372893076,69.77552019356517 171.01101694919635,69.04846243083011 169.06610169494525,67.98383869612007 168.65423728828318,67.7501402561611 168.40254237293266,67.5164416191401 167.62457627116237,66.63357832416659 166.89237288141157,65.36121157216257 166.1830508474959,64.32254050762276 165.72542372893076,63.56950155305094 164.99322033906356,62.92032839905005 164.21525423729327,62.375021775165806 163.34576271194965,62.01148343013483 162.4533898306545,61.77777995663928 161.99576271197293,61.72584582466516 161.51525423733983,61.69987875508377 161.4237288136501,61.67391168305767 161.44661016960163,61.59601045222371 161.51525423733983,61.544076286198106 161.74406779673882,61.49214211045182 162.20169491530396,61.51810919956188 162.7737288136268,61.62197753152577 162.91101694933604,61.46617501889705 162.9567796611227,61.12860260793241 163.02542372886091,61.10263548232615 163.071186440764,61.18053685175255 163.00254237290937,61.31037241878221 162.97966101707425,61.41424082859885 163.02542372886091,61.72584582466516 163.02542372886091,61.59601045222371 162.91101694933604,61.3363395248889 163.04830508481245,61.15456973109394 163.11694915266708,61.18053685175255 163.11694915266708,61.232471085793804 163.20847457635682,61.41424082859885 159.31864406797104,61.985516387212556 158.76949152548332,62.16728563638753 154.7423728815047,62.47888978620176 152.3169491526205,62.816460553352954 150.07457627123222,62.97226230727392 145.52118644071743,63.49160085475887 144.40000000002328,63.75126976383035" stroke="#ffd700" stroke-linecap="round" stroke-linejoin="round" stroke-width="0.5"><title>2024-06-30 4.2km</title><desc>11775355756</desc></polyline><polyline fill="none" points="12.875305623514578,113.76273695850978 12.611246943939477,110.8258933108009 12.532029340043664,109.6871099495911 12.479217604035512,109.29752523763455 12.400000000023283,107.64927697653184 12.505623471923172,107.37956281629158 12.848899755626917,107.19975324979168 15.911980440258048,107.07988014933653 19.529584352159873,107.0499118672451 21.510024450020865,106.96000700400327 23.59608801966533,106.72026057849871 24.15061124705244,106.60038729838561 26.976039119879715,106.42057729404769 27.92665036674589,106.27073554645176 31.042542787385173,105.97105184095562 33.155012225033715,105.67136785466573 34.15843520790804,105.40165202703793 35.082640586886555,105.34171514559421 37.1951100245351,104.98209362095804 40.522249388857745,104.62247169215698 42.89877750608139,104.26284935913282 43.90220048907213,104.0530694781628 44.4831295843469,103.96316377274343 46.85965770191979,103.45369763177587 50.08117359422613,102.94423067939351 52.29926650377456,102.67451255265041 54.43814180942718,102.2249818361015 55.203911980614066,102.13507561699953 55.41515892429743,101.8953255758679 55.520782396313734,101.62560656480491 55.60000000009313,101.23601203635917 55.573594132089056,100.84641703343368 55.41515892429743,99.73756712055183 54.8870415649144,97.1002870220982 54.83422982902266,96.47093287634198 54.490953545318916,94.16329041530844 54.27970660151914,93.26420443085954 53.751589242136106,90.23726304149022" stroke="#fff600" stroke-linecap="round" stroke-linejoin="round" stroke-width="0.5"><title>2024-06-30 3.3km</title><desc>11774673042</desc></polyline><polyline fill="none" points="96.22602230485063,92.58865437060012 95.60658523638267,92.69279649906093 95.12480084982235,93.3697193833068 94.59713223588187,93.8904281728901 91.54583112057298,98.10813342954498 91.17875730223022,98.42055349610746 89.89399893791415,99.38384649151703 89.09102496027481,99.071427507326 88.90748805110343,99.04539257613942 88.37981943716295,99.09746243612608 87.73744025500491,99.25367195750005 86.79681359534152,99.56609073697473 84.43377588957082,100.6855884809338 83.35549654811621,101.49266545390128 82.32310143392533,102.56008623971138 81.56601168354973,103.57543391635409 80.6712692512665,105.31974050047575 80.18948486458976,106.07473547995323 79.01943706860766,108.18350370205007 78.4688263409771,109.06866090703988 78.40000000002328,109.19883084666799 78.42294211371336,109.56330635331688 79.20297397766262,110.00588311211322 80.9236325013917,110.60466231169994 81.88720127462875,110.7868992034928 82.78194370691199,110.838966864947 83.44726500264369,111.02120360321715 84.13552841218188,111.3856767215766 85.19086564006284,112.27082373446319 85.5579394584056,112.47909321039333 86.10855018603615,112.6352952150337 86.79681359534152,112.73942983601592 87.48507700487971,112.73942983601592 88.21922464156523,112.55719422365655 88.93043016467709,112.21875634105527 89.87105682422407,111.54187934024958 90.51343600638211,111.17740642672288 91.38523632509168,110.838966864947 92.18821030284744,110.70879769307794 92.83058948500548,110.73483153237612 94.29888475837652,110.91706833889475 94.48242166766431,110.94310215854784 95.17068507708609,111.28154159357655 95.53775889542885,111.3856767215766 96.18013807758689,111.43774427083554 96.66192246426363,111.43774427083554 98.40552310144994,111.15137262883945 99.32320764742326,111.15137262883945 99.8738183749374,111.20344022207428 100.7226765799569,111.3856767215766 101.45682421675883,111.67204812218552 102.00743494427297,111.93238550337264 102.76452469464857,112.37495849191328 103.22336696763523,112.73942983601592 103.63632501335815,113.18200154029182 104.11810939991847,113.78077390155522 104.69166224112269,114.58781287047896 104.92108337767422,114.87418097394402 105.51757833256852,115.23864904275979 106.34349442378152,115.70725014375057 106.68762612855062,115.78535025045858 107.0317578332033,115.68121676999726 107.85767392464913,115.31674928113353 108.54593733407091,114.84814752219245 108.86712692514993,114.48367894155672 109.09654806158505,114.09317636091146 109.30302708444651,113.52043825073633 109.48656399361789,112.50512688388699 109.76186935743317,111.69808187123272 110.19776951672975,110.8129330353986 110.61072756245267,110.18812039631302 111.7578332448611,108.8603888770158 112.79022835905198,108.15746962398407 114.00616038241424,107.2462753552827 114.64853956457227,106.72559157561045 115.68093467876315,105.76232401290326 117.7457249071449,103.60146842349786 118.86988847597968,102.27370545550366 120.40701009030454,100.1388575876772 121.50823154544923,98.31641351289 121.60000000009313,97.97795829817187 121.55411577271298,97.74364290825906 121.41646309092175,97.48329224329791 121.07233138615265,97.14483601445681 119.25990440801252,95.86911267988035 119.14519383967854,95.79100697938702 118.68635156669188,95.71290125703672 118.3422198620392,95.58272500429302 117.19511417951435,94.85373686283128 117.01157727034297,94.671489528846 116.36919808818493,93.81232191663003 115.01561338303145,92.51054774862132 114.4650026554009,92.12001430967939 114.09792883694172,91.93776518380037 113.0196494954871,91.54723094037035 112.51492299535312,91.4951596664614 112.0101964949863,91.59930220447131 111.64312267664354,91.72948032224667 110.15188528946601,92.43244110475644 109.25714285729919,92.74486754866666 108.66064790240489,92.90108063898515 107.42177376523614,93.0572936416138 106.82527881045826,93.0572936416138 106.15995751461014,92.8229741047835 105.99936271912884,92.84900961857056 105.54052044614218,93.1614355944912 105.2652150823269,93.21350655631977 103.20042485406157,93.31764845075668 102.44333510368597,93.21350655631977 101.43388210306875,92.90108063898515 101.18151885294355,92.74486754866666 101.066808284726,92.64072543964721 101.02092405746225,92.51054774862132 101.41093998937868,90.5318393400521 101.54859267128631,89.594551494607 101.61741901235655,89.5164440314984 102.09920339891687,89.49040820568916 102.90217737655621,89.36022903953562 108.66064790240489,88.78743998464779 111.39075942651834,88.42293724429328 113.52437599585392,88.29275757836876 114.14381306432188,88.29275757836876 114.23558151884936,88.26672163789044 114.2126394052757,88.21464974951232 113.66202867764514,88.31879351643147 112.4460966543993,88.37086538525182 110.10600106220227,88.68329639325384 106.09113117365632,89.04779879222042 101.91566648974549,89.49040820568916" stroke="red" stroke-linecap="round" stroke-linejoin="round" stroke-width="0.5"><title>2024-06-29 6.1km</title><desc>11767860400</desc></polyline><polyline fill="none" points="146.23272727243602,108.53891764744185 146.23272727243602,111.27611064584926 149.37454545404762,117.35875265439972 151.99272727314383,118.87941119633615 154.87272727303207,120.09593746485189 157.7527272729203,120.40006895340048 163.25090909190476,117.66288442560472 170.58181818202138,112.18850774713792 184.19636363629252,103.3686572718434 186.2909090910107,100.63145693251863 187.07636363711208,97.8942540504504 186.8145454544574,95.15704862750135 184.9818181814626,92.41984066413715 182.3636363632977,90.89916847459972 180.26909090951085,88.16195655753836 177.65090909134597,86.03301219735295 174.50909090880305,84.81647187285125 168.48727272823453,86.64128217170946 165.86909090913832,88.77022609161213 162.72727272752672,89.9867647846695 160.10909090936184,92.7239750076551 147.27999999932945,101.84799073031172 145.1854545455426,104.58518994087353 144.40000000037253,107.32238660985604 145.970909091644,113.10090456600301 147.54181818198413,115.53396136965603 153.3018181817606,118.27114787371829 159.06181818246841,118.27114787371829 161.94181818235666,117.66288442560472 174.7709090905264,110.66784575558268 184.72000000067055,103.67279048659839 186.2909090910107,100.63145693251863 187.33818181790411,94.85291453520767 184.45818181801587,88.77022609161213 180.00727272685617,84.81647187285125 173.7236363645643,85.12060700170696 167.9636363638565,87.24955201987177 162.72727272752672,90.89916847459972 148.32727272808552,102.15212410176173 146.23272727243602,104.58518994087353 145.7090909089893,107.62651941692457 145.7090909089893,110.36371326167136 146.49454545415938,113.40503677655943 148.06545454543084,115.83809332945384 153.3018181817606,118.87941119633615 162.46545454580337,117.35875265439972 165.86909090913832,116.14222525712103 170.84363636374474,112.18850774713792 176.0800000000745,109.45131559553556 181.05454545468092,104.88932302989997 183.6727272728458,103.3686572718434 185.76727272756398,101.23972389404662 186.8145454544574,98.19838782958686 186.8145454544574,95.46118268929422 185.76727272756398,92.11570628872141 182.62545454595238,86.94541711127385 179.74545454513282,85.72887716302648 176.60363636445254,83.90406630095094 173.7236363645643,84.81647187285125 171.1054545454681,86.03301219735295 168.74909090809524,88.16195655753836 165.86909090913832,89.0743608113844 163.77454545442015,90.89916847459972 155.92000000085682,95.76531671918929 148.8509090906009,101.23972389404662 145.7090909089893,106.71412090375088 145.970909091644,112.49264005175792 147.54181818198413,114.92569735716097 152.51636363659054,118.27114787371829 155.92000000085682,118.87941119633615 162.2036363631487,118.27114787371829 169.7963636368513,114.31743321963586 171.89090909063816,112.18850774713792 179.48363636434078,107.32238660985604 184.19636363629252,103.67279048659839 186.8145454544574,98.19838782958686 186.2909090910107,94.54878041124903 182.62545454595238,89.0743608113844 177.3890909096226,86.3371472004801 174.50909090880305,85.42474209796637 166.13090909086168,89.0743608113844 149.6363636367023,100.3273234043736 147.54181818198413,102.76039074989967 146.23272727243602,105.49758911319077 145.7090909089893,108.84305032878183 146.23272727243602,111.88437541178428 147.80363636370748,114.31743321963586 150.42181818187237,116.44635715405457 153.04000000003725,117.66288442560472 155.65818181820214,117.96701616607606 159.32363636419177,117.96701616607606 161.6800000006333,116.14222525712103 173.20000000018626,111.58024304383434 184.9818181814626,103.3686572718434 187.07636363711208,100.3273234043736 187.59999999962747,93.94051206856966 183.6727272728458,89.68263015779667 182.10181818250567,86.94541711127385 172.9381818184629,85.12060700170696 169.7963636368513,86.03301219735295 164.56000000052154,89.37849550088868 160.10909090936184,93.33224360039458 157.2290909094736,94.85291453520767 148.06545454543084,101.84799073031172 145.44727272726595,107.01825377275236 145.970909091644,112.79677232541144 149.37454545404762,117.05462085222825 152.25454545486718,118.57527955109254 155.39636363554746,119.48767439322546 161.94181818235666,119.48767439322546 164.82181818317622,118.57527955109254 167.43999999947846,117.05462085222825 169.53454545419663,114.62156530469656 172.15272727329284,113.10090456600301 178.96000000089407,107.01825377275236 181.31636363640428,105.49758911319077 183.93454545456916,104.28105682111345 186.2909090910107,102.15212410176173 186.55272727273405,96.06945071741939 184.9818181814626,93.33224360039458 183.93454545456916,89.9867647846695 178.43636363651603,85.42474209796637 175.81818181835115,85.12060700170696 172.4145454550162,85.72887716302648 164.29818181786686,90.29089937964454 159.5854545449838,93.94051206856966 154.6109090903774,96.37358468584716 147.54181818198413,102.15212410176173 145.970909091644,105.19345608726144 145.1854545455426,108.23478493466973 145.7090909089893,111.27611064584926 146.75636363681406,114.01330110314302 148.8509090906009,116.75048901885748 151.73090909048915,118.57527955109254 154.6109090903774,119.48767439322546 166.91636363696307,115.83809332945384 174.7709090905264,110.36371326167136 184.19636363629252,103.0645240265876 185.76727272756398,100.02318984433077 186.02909090928733,96.98185252537951 185.76727272756398,93.94051206856966 184.72000000067055,91.20330297457986 180.7927272738889,86.03301219735295 178.43636363651603,84.20820152340457 175.03272727318108,83.59993104659952 172.15272727329284,83.90406630095094 166.6545454543084,87.8578217427712 159.5854545449838,93.63637785054743 149.37454545404762,100.3273234043736 147.27999999932945,103.0645240265876 145.44727272726595,109.14718297799118 145.970909091644,112.18850774713792 147.27999999932945,115.2298293786589 152.25454545486718,118.57527955109254 158.2763636354357,118.57527955109254 161.15636363625526,117.96701616607606 167.17818181868643,114.92569735716097 172.67636363673955,110.36371326167136 175.29454545490444,109.14718297799118 180.7927272738889,105.19345608726144 182.8872727267444,103.3686572718434 184.45818181801587,101.23972389404662" stroke="#fffd00" stroke-linecap="round" stroke-linejoin="round" stroke-width="0.5"><title>2021-02-24 3.1km</title><desc>5958643139</desc></polyline><polyline fill="none" points="12.400000000372529,160.12995182117447 14.009937888942659,162.93514585169032 22.596273292787373,167.61046345089562 28.767701864242554,166.36371279880404 39.7689441004768,159.81826343433931 45.13540372811258,156.0780002886895 49.69689441099763,152.02604332217015 54.52670807670802,144.23380311345682 54.258385094814,141.11690140306018 52.11180124338716,135.1947792954743 47.281987578608096,132.07786825997755 41.64720497094095,132.38955950760283 36.012422361411154,134.2597063218709 26.352795032784343,142.0519722539466 24.206211181357503,144.54549310775474 14.814906833693385,152.33773251296952 14.278260869905353,161.3767050448805 16.156521739438176,163.87020995095372 20.986335405148566,166.67540050973184 23.93788820039481,167.29877583589405 26.88944099470973,167.29877583589405 29.304347827099264,166.05202505504712 40.03726708237082,159.50657501607202 52.38012422528118,150.1559075054247 55.60000000055879,141.42859171913005 53.4534161509946,135.50647022179328 51.03850931767374,133.63632417935878 48.0869565224275,132.07786825997755 38.15900621190667,132.7012507233303 15.619875777512789,149.53252864233218 13.741614907048643,152.64942167093977 13.473291926085949,156.0780002886895 13.473291926085949,159.19488656450994 14.814906833693385,162.31176962703466 20.449689442291856,166.05202505504712 23.66956521756947,166.98708818852901 26.88944099470973,166.98708818852901 29.840993789955974,166.05202505504712 47.281987578608096,153.89617798221298 52.11180124338716,150.1559075054247 53.990062112919986,147.35070160822943 55.063354038633406,141.74028200283647 53.4534161509946,135.50647022179328 51.575155281461775,133.3246330600232 42.183850932866335,132.7012507233303 36.54906832333654,134.5713973448146 25.816149068064988,142.98704281519167 23.132919255644083,144.23380311345682 20.986335405148566,146.72732216725126 15.619875777512789,151.09097555861808 13.741614907048643,159.19488656450994 16.156521739438176,165.11696163122542 18.839751553721726,167.29877583589405 24.742857144214213,167.61046345089562 31.182608696632087,165.42864947160706 51.30683229956776,151.09097555861808 53.72173913195729,148.59746010624804 55.063354038633406,142.36366247292608 54.79503105767071,138.62337771966122 53.4534161509946,135.50647022179328 51.03850931767374,133.3246330600232 45.13540372811258,132.07786825997755 38.963975155726075,132.7012507233303 26.084472050890326,142.67535266047344 18.571428572759032,147.6623912814539 14.546583850868046,152.64942167093977 13.741614907048643,155.45462264749222 13.473291926085949,158.5715095673222 14.009937888942659,161.3767050448805 17.766459628008306,166.05202505504712 26.88944099470973,167.61046345089562 40.03726708237082,159.50657501607202 47.281987578608096,152.96111079701222 50.23354037385434,151.71435409993865 52.38012422528118,149.8442180894781 54.52670807670802,146.72732216725126 54.258385094814,134.88308833632618 44.06211180239916,130.51941153570078 41.37888198904693,131.4544856667053 36.012422361411154,134.5713973448146 31.45093167759478,138.62337771966122 21.522981367073953,145.79225276387297 14.546583850868046,151.71435409993865 13.204968945123255,157.32475518528372 14.546583850868046,163.2468339172192 18.839751553721726,167.61046345089562 24.206211181357503,169.48058846429922 27.157763975672424,168.85721358843148 32.25590062234551,165.42864947160706 34.402484472841024,162.93514585169032 39.50062112044543,158.88319808221422 51.30683229956776,149.53252864233218 53.990062112919986,143.92211308772676 53.18509316910058,137.0649243730586 45.67204969096929,131.76617697882466 39.50062112044543,132.38955950760283 27.157763975672424,141.11690140306018 15.619875777512789,150.1559075054247 13.741614907048643,159.50657501607202 17.229813665151596,165.11696163122542 20.181366461329162,165.42864947160706 23.132919255644083,166.67540050973184 25.816149068064988,166.98708818852901 31.98757764045149,164.49358585570008 52.11180124338716,148.59746010624804 53.72173913195729,145.79225276387297 54.258385094814,142.98704281519167 54.258385094814,139.55844934284687 51.03850931767374,133.63632417935878 45.13540372811258,130.51941153570078 38.963975155726075,131.76617697882466 16.693167702294886,149.22083916235715 13.473291926085949,160.44164017611183 14.814906833693385,162.93514585169032 16.961490684188902,164.80527375964448 22.596273292787373,167.61046345089562 31.182608696632087,164.80527375964448 44.33043478336185,155.76631148369052 51.30683229956776,149.8442180894781" stroke="#fffe00" stroke-linecap="round" stroke-linejoin="round" stroke-width="0.5"><title>2021-02-21 3.1km</title><desc>5958643188</desc></polyline><polyline fill="none" points="80.54658385086805,152.8052650920581 78.66832298133522,155.9221545837354 78.66832298133522,158.7273523772601 79.20496894512326,161.8442357601598 83.49813664611429,166.8312424835749 86.44968944229186,168.38968039746396 89.66956521756947,169.3247427593451 95.30434782709926,166.51955480477773 112.74534161668271,155.2987769425381 117.30683229956776,151.87019761721604 119.18509316910058,149.37668293737806 120.52670807670802,145.94809689209796 120.52670807670802,143.14288723282516 119.72173913195729,139.7142941141501 117.84347826242447,137.22076940187253 113.2819875786081,133.16878735506907 110.06211180239916,131.61033127387054 103.62236024998128,133.48047847440466 98.25590062234551,137.22076940187253 93.15776397567242,139.7142941141501 86.18136646132916,145.63640705891885 83.2298136651516,146.88316619908437 80.27826086990535,152.1818868080154 79.74161490704864,155.2987769425381 80.27826086990535,158.4156638623681 81.35155279561877,161.53254756634124 83.49813664611429,164.33774015074596 85.91304347850382,165.896179350093 89.13291925564408,166.8312424835749 92.08447205089033,166.51955480477773 103.35403726808727,161.2208593399264 108.72049689479172,157.7922867347952 113.8186335414648,154.36371023999527 118.38012422528118,149.68837238452397 119.99006211291999,147.50654557649978 120.79503105767071,144.0779574085027 119.99006211291999,140.96105569810607 118.64844720624387,138.15584140922874 116.77018633764237,135.66231541126035 114.0869565224275,133.16878735506907 108.18385093286633,131.61033127387054 104.96397515572608,132.2337138026487 86.98633540514857,144.38964740280062 80.54658385086805,150.93512985366397 79.20496894512326,153.74033227725886 78.93664596322924,157.4805981235113 80.00993788894266,160.5974827921018 81.88819875847548,163.40267624566332 84.83975155372173,164.9611159262713 87.79130434896797,166.51955480477773 93.96273292135447,166.20786709384993 102.28074534330517,161.8442357601598 115.16024844907224,153.1169541857671 119.4534161509946,148.75330394576304 120.52670807670802,142.83119711023755 120.258385094814,139.7142941141501 118.64844720624387,136.28569710394368 115.96521739289165,134.4155516398605 113.2819875786081,133.16878735506907 107.37888198904693,132.85709620290436 104.42732919380069,133.48047847440466 101.47577639948577,135.03893359052017 96.64596273377538,138.4675320147071 93.42608695663512,140.02598455827683 83.2298136651516,148.44161440129392 80.81490683369339,150.31175118335523 79.47329192608595,153.1169541857671 78.93664596322924,156.54553209641017 79.47329192608595,159.6624177293852 81.08322981465608,162.7793001467362 83.7664596280083,163.40267624566332 85.91304347850382,165.58449157490395 89.13291925564408,165.896179350093 95.03602484520525,165.27280376665294 98.25590062234551,163.7143642459996 109.52546583954245,157.1689094803296 114.62360248621553,153.74033227725886 119.4534161509946,148.75330394576304 120.79503105767071,146.2597866926808 121.6000000005588,142.83119711023755 121.0633540386334,140.02598455827683 119.72173913195729,136.90907866810448 112.208695653826,131.61033127387054 106.03726708237082,132.2337138026487 92.35279503278434,141.27274601417594 87.25465838517994,144.0779574085027 80.54658385086805,150.31175118335523 78.40000000037253,156.23384335637093 79.20496894512326,159.6624177293852 80.81490683369339,162.7793001467362 83.49813664611429,164.9611159262713 86.71801242325455,166.20786709384993 93.15776397567242,166.20786709384993 107.91552795190364,158.4156638623681 118.11180124338716,150.93512985366397 120.258385094814,148.75330394576304 121.0633540386334,145.01302729453892 121.6000000005588,142.20781676797196 119.99006211291999,139.09091312880628 113.01366459857672,133.16878735506907 110.06211180239916,132.2337138026487 106.84223602712154,132.2337138026487 103.89068323094398,133.16878735506907 93.69440993852913,139.40260363789275 85.91304347850382,145.01302729453892 78.93664596322924,151.87019761721604 78.40000000037253,154.98708807397634 79.47329192608595,160.5974827921018 81.35155279561877,163.09098821226507 85.64472049754113,166.8312424835749 88.32795031182468,167.4546177459415 94.49937888327986,167.14293013093993 100.67080745473504,164.64942805469036 114.89192546810955,154.0520212748088 119.4534161509946,149.68837238452397 121.0633540386334,146.57147646229714 121.0633540386334,143.76626738277264 118.38012422528118,138.15584140922874 115.42857143003494,137.53246010327712 111.4037267100066,133.16878735506907 108.45217391382903,132.85709620290436 102.54906832333654,134.4155516398605 88.86459627375007,143.14288723282516 86.18136646132916,145.63640705891885 81.35155279561877,149.37668293737806 80.00993788894266,151.87019761721604 78.93664596322924,157.4805981235113 80.00993788894266,159.97410611622036 81.88819875847548,162.15592392208055 87.52298136707395,165.896179350093 90.2062111813575,165.896179350093 93.15776397567242,165.58449157490395 96.64596273377538,164.02605221490376 105.23229813855141,159.6624177293852 113.2819875786081,154.67539917258546 118.11180124338716,150.93512985366397 120.52670807670802,148.44161440129392 121.6000000005588,141.27274601417594 119.99006211291999,138.4675320147071 117.84347826242447,135.66231541126035 112.47701863478869,131.61033127387054 109.25714285857975,130.67525724042207 102.54906832333654,133.16878735506907 92.62111801374704,139.40260363789275 82.9614906841889,147.81823521712795 81.08322981465608,150.00006180047058 80.00993788894266,152.8052650920581 79.47329192608595,158.7273523772601 81.08322981465608,161.8442357601598 82.9614906841889,164.02605221490376 85.91304347850382,165.27280376665294 92.08447205089033,165.58449157490395 94.76770186424255,164.64942805469036 97.7192546594888,164.02605221490376 103.0857142880559,161.53254756634124 108.45217391382903,158.4156638623681 118.64844720624387,150.62344053410925" stroke="#fffd00" stroke-linecap="round" stroke-linejoin="round" stroke-width="0.5"><title>2021-02-19 3.1km</title><desc>5958643211</desc></polyline><polyline fill="none" points="154.21818181779236,145.11219922825694 151.13246753253043,146.089772090083 148.3272727271542,148.04491690406576 145.8025974035263,154.23620083229616 145.52207792177796,157.1689100372605 147.48571428656578,163.03432027739473 150.010389611125,165.6411657766439 153.37662337627262,166.94458771985956 160.38961039017886,167.59629848971963 165.43896103836596,164.0118875906337 167.6831168839708,161.40504074795172 170.4883116884157,159.12404799461365 179.1844155844301,153.91034408612177 184.23376623447984,150.00006050849333 186.47792207822204,147.39320210041478 187.6000000005588,143.80876827705652 187.03896103892475,139.89847219339572 183.3922077929601,134.03301899204962 177.78181818220764,131.10028830729425 174.4155844161287,131.4261474062223 171.6103896116838,131.7520064727869 168.80519480537623,133.3813012978062 161.5116883115843,139.89847219339572 148.0467532472685,150.00006050849333 146.36363636422902,152.60691676451825 145.52207792177796,155.86548406025395 146.083116883412,162.38260856550187 150.5714285718277,167.922153824009 157.0233766240999,169.2255748261232 159.82857142854482,168.24800912453793 162.63376623485237,166.29287681449205 170.4883116884157,159.77576037705876 175.53766233753413,156.19134060456418 184.23376623447984,149.67420332483016 186.19740259833634,147.06734464806505 187.31948051974177,143.80876827705652 186.19740259833634,137.94332233653404 184.23376623447984,134.68473655264825 181.4285714291036,132.72958346828818 178.34285714291036,131.7520064727869 174.4155844161287,131.4261474062223 171.6103896116838,132.07786550442688 168.5246753245592,133.3813012978062 163.4753246754408,137.94332233653404 147.48571428656578,150.65177477430552 145.8025974035263,153.58448730641976 144.96103896200657,156.84305359306745 145.24155844189227,160.10161651787348 146.64415584504604,163.36017608293332 150.5714285718277,168.24800912453793 157.30389610305429,168.5738643920049 160.38961039017886,167.922153824009 162.91428571473807,166.29287681449205 164.87792207859457,163.6860318533145 167.12207792233676,161.73089671996422 177.78181818220764,154.56205754564144 183.1116883121431,150.32591765769757 185.35584415588528,147.71905951830558 187.03896103892475,144.78634154074825 187.31948051974177,141.52776281628758 185.35584415588528,135.33645397843793 183.1116883121431,132.72958346828818 179.74545454513282,132.07786550442688 173.01298701390624,131.7520064727869 170.2077922075987,133.05544240004383 162.63376623485237,139.24675570894033 154.4987012995407,145.11219922825694 151.69350649416447,146.089772090083 147.20519480574876,150.97763185645454 144.96103896200657,157.49476644722745 145.52207792177796,161.07918474054895 148.60779220797122,166.29287681449205 153.93766233790666,169.551429992076 157.58441558480263,168.5738643920049 164.03636363707483,165.6411657766439 168.80519480537623,161.07918474054895 184.51428571529686,149.67420332483016 186.47792207822204,146.089772090083 187.6000000005588,143.1570525986608 187.03896103892475,139.57261396828108 186.19740259833634,136.31402986473404 184.23376623447984,133.7071601615753 181.70909090992063,131.4261474062223 178.34285714291036,130.7744291748386 174.9766233759001,131.10028830729425 168.80519480537623,132.72958346828818 164.03636363707483,137.2916054490488 148.3272727271542,149.34834610810503 145.52207792177796,155.86548406025395 145.52207792177796,159.12404799461365 146.36363636422902,162.70846443832852 148.3272727271542,165.6411657766439 151.69350649416447,167.27044312120415 154.77922078035772,168.24800912453793 158.14545454643667,168.24800912453793 161.2311688316986,166.94458771985956 166.28051948081702,162.70846443832852 180.02597402594984,152.60691676451825 185.6363636367023,147.71905951830558 187.31948051974177,144.46048381947912 187.31948051974177,140.55018854280934 183.95324675366282,134.68473655264825 181.1480519482866,133.3813012978062 174.4155844161287,131.7520064727869 171.04935064911842,132.4037245027721 168.24415584467351,133.7071601615753 160.67012987006456,140.22433038498275 148.0467532472685,150.32591765769757 146.36363636422902,152.93277364573441 144.96103896200657,155.53962748148479 144.68051948025823,158.7981917511206 145.52207792177796,161.73089671996422 147.20519480574876,164.33774329535663 149.44935064949095,166.61873228405602 155.34025974106044,168.5738643920049 158.42597402632236,168.5738643920049 161.5116883115843,167.27044312120415 163.75584415532649,164.66359896655194 166.56103896163404,162.38260856550187 171.6103896116838,159.12404799461365 174.13506493531168,157.1689100372605 176.9402597406879,155.53962748148479 184.51428571529686,149.67420332483016 186.19740259833634,147.06734464806505 186.75844155903906,143.80876827705652 186.47792207822204,140.8760466678068 184.23376623447984,134.03301899204962 178.34285714291036,131.7520064727869 175.25714285764843,131.4261474062223 171.32987013086677,132.07786550442688 161.2311688316986,140.22433038498275 155.34025974106044,143.80876827705652 147.76623376552016,150.32591765769757 145.8025974035263,152.93277364573441 144.68051948025823,156.51719711511396 144.40000000037253,159.77576037705876 147.48571428656578,165.9670213125646 150.010389611125,168.5738643920049 156.46233766246587,169.551429992076 159.82857142854482,168.5738643920049 162.63376623485237,166.61873228405602 167.6831168839708,161.73089671996422 170.4883116884157,160.10161651787348 183.3922077929601,150.00006050849333 185.6363636367023,147.39320210041478 186.75844155903906,144.13462606514804 186.47792207822204,137.94332233653404 185.35584415588528,135.01059528253973 180.02597402594984,130.44857000769116 173.57402597460896,131.10028830729425 170.4883116884157,132.07786550442688 154.77922078035772,144.13462606514804 147.20519480574876,150.97763185645454 145.52207792177796,153.91034408612177 144.68051948025823,157.1689100372605 144.68051948025823,160.10161651787348 145.52207792177796,163.36017608293332 147.48571428656578,166.29287681449205 150.2909090910107,168.24800912453793 153.93766233790666,168.89971962594427 157.30389610305429,169.2255748261232 160.10909090936184,167.922153824009 163.19480519462377,165.9670213125646 173.01298701390624,157.1689100372605 178.06233766302466,153.91034408612177 183.3922077929601,149.34834610810503" stroke="#fffd00" stroke-linecap="round" stroke-linejoin="round" stroke-width="0.5"><title>2021-02-03 3.1km</title><desc>5958643285</desc></polyline><polyline fill="none" points="20.254545455798507,194.41562927374616 14.924675325863063,198.9776319579687 13.241558441892266,201.91034449008293 12.400000000372529,205.49476722092368 12.680519482120872,208.42747370153666 14.363636365160346,211.0343216219917 18.85194805264473,215.9221556733828 21.93766233790666,216.89972157566808 28.109090911224484,215.9221556733828 30.91428571473807,214.2928784962278 35.6831168839708,209.7308979316149 51.95324675459415,198.65177484136075 55.319480520673096,193.11219872441143 55.60000000055879,189.85361999995075 53.6363636367023,183.3364524662029 51.11168831307441,181.05544065195136 48.306493506766856,179.42614549095742 44.94025974068791,178.44856799021363 41.85454545542598,179.10028635850176 38.768831169232726,180.40372268809006 33.7194805201143,184.31402845261618 31.194805196486413,185.9433210932184 29.51168831344694,188.55018756864592 24.462337663397193,191.80876763747074 14.644155845046043,199.9552031045314 13.522077923640609,202.56205801595934 12.961038962006569,205.82062363089062 13.522077923640609,209.07918588351458 15.205194806680083,212.33774477429688 19.693506494164467,216.89972157566808 22.779220779426396,217.55143200978637 26.425974027253687,216.89972157566808 29.231168831698596,215.59630030486733 37.36623376701027,208.42747370153666 50.55064935144037,198.9776319579687 52.794805196113884,196.696631439263 53.91688311751932,193.76391406566836 55.319480520673096,191.15705189318396 55.319480520673096,187.5726128926035 51.39220779296011,182.68473497242667 48.587012987583876,180.72958168643527 42.41558441706002,179.10028635850176 36.24415584560484,181.70715848146938 30.91428571473807,185.9433210932184 28.9506493518129,188.55018756864592 18.010389611124992,196.696631439263 13.802597403526306,201.91034449008293 13.241558441892266,205.16891077673063 13.241558441892266,208.42747370153666 14.083116883412004,211.3601774610579 16.04675324819982,213.96702296030708 18.85194805264473,215.9221556733828 22.218181819655,216.89972157566808 25.30389610491693,216.89972157566808 28.38961039017886,215.9221556733828 37.92727272771299,207.44990517827682 43.81818181928247,203.86548466514796 48.587012987583876,200.2810600856319 50.83116883132607,198.3259176921565 52.794805196113884,195.71905928407796 54.477922078222036,193.11219872441143 55.319480520673096,189.52776194224134 55.038961039856076,186.59503791294992 53.91688311751932,183.6623111621011 51.67272727377713,181.70715848146938 48.587012987583876,180.07786365645006 45.22077922150493,179.10028635850176 41.57402597554028,179.42614549095742 38.48831168934703,180.40372268809006 20.535064935684204,194.08977168635465 16.04675324819982,198.3259176921565 14.363636365160346,201.2586308293976 13.522077923640609,204.19134124391712 13.522077923640609,207.44990517827682 14.363636365160346,210.70846574916504 16.04675324819982,213.3153117869515 18.290909091942012,215.59630030486733 21.657142858952284,216.24801100767218 27.828571429476142,216.5738663082011 30.633766234852374,214.2928784962278 37.92727272771299,207.77576138614677 46.342857143841684,201.91034449008293 53.91688311751932,195.0673443453852 55.319480520673096,188.55018756864592 55.038961039856076,185.29160413821228 53.075324676930904,182.68473497242667 47.184415586292744,179.75200458988547 40.73246753402054,179.75200458988547 37.646753248758614,181.05544065195136 22.218181819655,192.46048324881122 15.205194806680083,198.65177484136075 13.802597403526306,201.91034449008293 13.241558441892266,205.49476722092368 13.241558441892266,209.07918588351458 14.924675325863063,212.01188903697766 17.449350650422275,214.2928784962278 19.97402597591281,215.9221556733828 23.34025974199176,216.5738663082011 26.425974027253687,216.24801100767218 29.231168831698596,214.9445894677192 39.61038961075246,206.4723363504745 42.135064936243,205.16891077673063 52.794805196113884,197.34834604081698 54.477922078222036,194.08977168635465 55.038961039856076,190.83119396981783 54.75844155997038,187.2467545995023 50.55064935144037,181.70715848146938 47.74545454606414,180.07786365645006 44.37922077998519,178.77442719135433 40.73246753402054,178.77442719135433 37.92727272771299,180.07786365645006 27.548051948659122,188.55018756864592 24.742857144214213,190.17947802389972 15.205194806680083,198.3259176921565 13.241558441892266,200.93277394818142 12.680519482120872,203.86548466514796 12.400000000372529,210.0567539036274 14.644155845046043,212.6636004790198 17.168831169605255,214.61873399815522 19.97402597591281,216.24801100767218 26.425974027253687,216.24801100767218 29.231168831698596,215.27044490352273 32.316883116960526,213.3153117869515 34.28051948174834,210.70846574916504 39.049350650049746,206.4723363504745 49.70909090992063,199.6293460887391 53.91688311751932,195.39320183172822 54.75844155997038,192.46048324881122 54.75844155997038,188.8760457264725 54.19740259833634,185.61746263271198 52.23376623354852,183.3364524662029 46.623376624658704,180.07786365645006 43.53766233753413,179.75200458988547 39.890909092500806,180.07786365645006 36.805194806307554,181.381299583707 15.7662337673828,198.00006050849333 13.522077923640609,200.60691703413613 12.400000000372529,203.86548466514796 12.400000000372529,207.1240489347838 13.522077923640609,210.38260984350927 18.010389611124992,214.9445894677192 24.462337663397193,215.9221556733828 27.548051948659122,215.59630030486733 30.353246754966676,214.2928784962278 32.59740259870887,211.6860332665965 37.646753248758614,207.44990517827682 41.01298701390624,206.1464800068643 46.342857143841684,202.56205801595934 54.19740259833634,195.71905928407796 55.038961039856076,192.7863410031423 55.319480520673096,189.52776194224134 55.038961039856076,186.59503791294992 53.075324676930904,183.6623111621011 50.83116883132607,181.05544065195136 47.74545454606414,179.42614549095742 44.09870129916817,179.10028635850176 41.01298701390624,179.10028635850176 37.92727272771299,180.07786365645006 35.40259740315378,181.70715848146938 22.779220779426396,192.7863410031423 14.363636365160346,198.9776319579687 13.241558441892266,202.23620126978494 13.522077923640609,208.75332980998792 15.205194806680083,212.01188903697766 17.168831169605255,214.2928784962278 23.34025974199176,216.89972157566808 29.792207793332636,214.61873399815522 37.36623376701027,207.44990517827682 40.171428573317826,206.4723363504745 51.11168831307441,198.9776319579687 53.3558441568166,196.37077408772893 54.75844155997038,193.43805641192012" stroke="#fffd00" stroke-linecap="round" stroke-linejoin="round" stroke-width="0.5"><title>2021-02-02 3.1km</title><desc>5958643137</desc></polyline><polyline fill="none" points="87.65714285615832,188.3872599520255 82.04675324540585,197.18541479343548 79.52207792177796,203.37669425085187 79.80259740166366,206.3094013382215 82.60779220703989,208.916249795584 84.57142857089639,211.84895173902623 87.37662337720394,213.80408485559747 91.58441558293998,213.47822941979393 98.03636363521218,212.1748073429335 104.20779220759869,209.89381741313264 115.1480519482866,202.3991246172227 117.39220779202878,199.79227078147233 119.916883116588,198.16298604081385 121.59999999962747,195.23027139133774 121.59999999962747,191.97169636399485 121.59999999962747,188.71311797597446 120.1974025964737,185.78039455157705 118.23376623354852,183.17352700047195 112.06233766209334,180.24079843354411 108.97662337590009,179.91493953578174 102.80519480444491,181.2183749245014 95.79220779146999,187.73554380354472 90.46233766246587,190.99412320088595 82.88831168785691,196.85955764423124 80.3636363632977,199.46641390025616 79.24155844189227,202.72498119599186 79.24155844189227,206.3094013382215 80.083116883412,209.56796157406643 81.76623376645148,212.5006629123818 91.02337662316859,215.10750626027584 94.67012987006456,214.12994025694206 97.19480519462377,212.82651844830252 99.43896103836596,210.5455289890524 105.04935064911842,205.98354513035156 110.37922077905387,202.72498119599186 117.95324675180018,196.85955764423124 119.35584415495396,194.2526992361527 120.47792207822204,191.31998095521703 120.1974025964737,188.06140189431608 119.35584415495396,184.80281947227195 117.39220779202878,182.19595111417584 114.58701298665255,181.54423368838616 111.2207792205736,179.91493953578174 108.13506493531168,179.26322163851 105.04935064911842,179.5890806040261 101.9636363638565,180.89251612778753 99.71948051825166,183.17352700047195 94.38961038924754,186.75796932913363 89.62077922094613,191.64583867648616 81.48571428563446,196.85955764423124 79.52207792177796,199.79227078147233 78.96103896014392,202.72498119599186 79.80259740166366,209.89381741313264 82.3272727271542,212.5006629123818 84.29090909101069,215.10750626027584 87.65714285615832,216.41092712781392 91.30389610398561,217.0626373598352 94.67012987006456,216.0850719618611 98.87792207673192,211.19724043109454 117.39220779202878,196.20784324384294 119.07532467506826,192.9492692258209 119.916883116588,190.01654973439872 118.51428571436554,187.08382752072066 114.86753246653825,181.87009241827764 112.34285714291036,179.91493953578174 105.32987012900412,180.5666572973132 102.52467532455921,180.24079843354411 95.5116883115843,186.75796932913363 92.42597402632236,188.71311797597446 82.3272727271542,196.85955764423124 79.52207792177796,202.72498119599186 79.24155844189227,205.98354513035156 80.083116883412,209.56796157406643 85.13246753253043,213.80408485559747 91.02337662316859,215.75921676168218 94.10909090843052,215.10750626027584 103.64675324596465,206.63525751279667 111.2207792205736,202.07326800585724 118.23376623354852,195.55612870887853 119.63636363577098,192.6234116384294 119.916883116588,189.03897596569732 119.63636363577098,186.10625284467824 117.95324675180018,183.49938556132838 115.42857142817229,181.54423368838616 113.74545454606414,178.9373626401648 107.0129870120436,179.26322163851 103.92727272678167,179.91493953578174 101.40259740222245,181.2183749245014 99.15844155848026,183.82524409028701 85.97402597405016,194.2526992361527 83.16883116867393,195.55612870887853 80.92467532493174,198.16298604081385 79.24155844189227,201.09569796803407 78.68051948025823,204.0284071729984 79.80259740166366,210.5455289890524 81.76623376645148,213.47822941979393 85.13246753253043,214.7816509597469 91.58441558293998,215.75921676168218 94.67012987006456,215.10750626027584 96.91428571473807,213.15237395022996 98.87792207673192,210.87138472637162 103.64675324596465,206.63525751279667 116.83116883132607,197.18541479343548 119.07532467506826,194.5785566540435 119.916883116588,191.64583867648616 120.47792207822204,188.71311797597446 120.1974025964737,185.78039455157705 118.51428571436554,182.5218097763136 115.98961038980633,180.89251612778753 113.74545454606414,178.9373626401648 110.94025973975658,179.5890806040261 107.29350649379194,179.26322163851 104.48831168748438,179.5890806040261 81.48571428563446,197.51127191004343 79.80259740166366,200.1181276284624 78.40000000037253,202.72498119599186 78.68051948025823,205.98354513035156 79.24155844189227,209.24210570123978 81.20519480481744,211.84895173902623 83.44935064855963,213.80408485559747 89.90129870083183,214.7816509597469 92.70649350620806,213.80408485559747 95.79220779146999,213.80408485559747 100.2805194798857,208.26453788368963 102.80519480444491,206.3094013382215 105.89090909156948,205.33183261123486 111.2207792205736,202.07326800585724 119.07532467506826,195.8819859928917 120.1974025964737,192.6234116384294 119.916883116588,189.36483392189257 119.35584415495396,186.10625284467824 117.6727272728458,182.84766840469092 114.86753246653825,180.24079843354411 111.78181818127632,178.9373626401648 108.13506493531168,178.9373626401648 105.04935064911842,179.5890806040261 82.04675324540585,196.85955764423124 80.083116883412,199.46641390025616 78.68051948025823,202.3991246172227 78.40000000037253,205.65768888685852 80.3636363632977,211.52309610228986 86.25454545393586,215.75921676168218 89.34025973919779,214.45579562545754 92.42597402632236,215.10750626027584 95.5116883115843,213.47822941979393 98.31688311696053,211.19724043109454 103.92727272678167,205.33183261123486 110.09870129823685,202.72498119599186 118.23376623354852,196.53370046056807 119.916883116588,193.27512677875347 121.03896103892475,190.01654973439872 116.27012986969203,181.2183749245014 113.74545454606414,179.91493953578174 110.94025973975658,178.9373626401648 104.48831168748438,179.91493953578174 101.40259740222245,181.54423368838616 96.07272727321833,186.432111104019 80.64415584411472,198.48884305660613 79.24155844189227,201.42155468137935 78.96103896014392,204.68011995893903 79.52207792177796,207.93868187628686 81.20519480481744,210.5455289890524 82.3272727271542,213.80408485559747 85.13246753253043,215.43336152774282 91.58441558293998,216.0850719618611 94.95064934995025,214.12994025694206 99.71948051825166,209.24210570123978 104.7688311683014,205.00597630254924 110.65974025893956,202.07326800585724 117.95324675180018,195.8819859928917" stroke="#ffff00" stroke-linecap="round" stroke-linejoin="round" stroke-width="0.5"><title>2021-02-01 3.1km</title><desc>5958643201</desc></polyline><polyline fill="none" points="156.85176470689476,190.9155260694679 150.24470588285476,196.52411133726127 148.46588235348463,198.88561763451435 146.94117647130042,201.24712198320776 146.68705882504582,203.9038120454643 146.94117647130042,206.5604996420443 147.7035294128582,209.21718477085233 149.48235294222832,211.57868059328757 154.31058823503554,214.53054763027467 157.61411764845252,215.1209206727799 160.409411765635,214.2353610638529 168.54117647185922,210.9883068203926 180.99294117745012,200.95193404634483 183.7882352946326,199.47599390451796 185.56705882400274,196.81929973093793 186.58352941274643,190.9155260694679 185.82117647118866,188.258823947981 184.0423529408872,185.89730887976475 176.6729411771521,182.05984273762442 173.8776470599696,182.05984273762442 171.0823529418558,182.94541230495088 168.54117647185922,184.42136097350158 166.0,186.48768783034757 163.2047058828175,187.3732560253702 150.49882353004068,195.93373445770703 148.21176470723003,198.00005300156772 146.68705882504582,200.95193404634483 145.92470588348806,206.5604996420443 146.94117647130042,209.21718477085233 150.49882353004068,213.3498011813499 156.34352941345423,215.1209206727799 159.39294117782265,214.82573416666128 164.4752941178158,212.46424102410674 184.55058823525906,199.18080578441732 186.32941176462919,197.11448809411377 186.8376470580697,194.16260309051722 186.8376470580697,191.5059039837215 184.8047058833763,185.89730887976475 182.517647058703,183.83098159683868 179.7223529415205,182.65022248006426 174.1317647062242,181.4694628752768 168.7952941171825,184.42136097350158 166.76235294155777,186.1924983705394 156.5976470587775,192.09628177573904 149.48235294222832,197.40967642725445 147.44941176567227,199.47599390451796 146.17882352974266,202.132685611723 146.17882352974266,205.0845623924397 146.68705882504582,208.33162333630025 147.9576470591128,210.9883068203926 149.99058823566884,213.3498011813499 155.83529411815107,215.41610714793205 159.13882353063673,215.1209206727799 161.93411764781922,214.53054763027467 170.0658823531121,210.10274593369104 184.29647058900446,199.7711819934193 186.58352941274643,197.40967642725445 187.6000000005588,191.5059039837215 185.31294117681682,186.48768783034757 183.5341176474467,183.83098159683868 178.45176470652223,181.4694628752768 175.4023529412225,181.4694628752768 169.30352941341698,183.24060209910385 157.61411764845252,190.9155260694679 148.72000000067055,198.00005300156772 146.68705882504582,200.06637005275115 144.40000000037253,205.37974990392104 147.7035294128582,210.9883068203926 152.2776470594108,214.2353610638529 155.58117647096515,215.1209206727799 161.42588235344738,214.82573416666128 169.30352941341698,210.39793292572722 184.0423529408872,200.06637005275115 186.0752941183746,197.70486472942866 187.3458823543042,195.34335745754652 187.3458823543042,192.39147062739357 185.31294117681682,186.78287725918926 180.48470588307828,182.94541230495088 174.89411764778197,182.05984273762442 169.55764705874026,183.24060209910385 166.50823529437184,184.71655061561614 164.22117647062987,187.07806665776297 149.48235294222832,196.81929973093793 147.44941176567227,199.18080578441732 146.43294117692858,201.54230988956988 145.92470588348806,204.78937485208735 146.17882352974266,207.7412488926202 147.44941176567227,210.39793292572722 149.48235294222832,212.75942777306773 152.0235294122249,214.2353610638529 155.0729411765933,215.1209206727799 158.12235294189304,215.1209206727799 166.25411764811724,211.57868059328757 178.1976470593363,203.9038120454643 183.2800000011921,200.06637005275115 185.31294117681682,198.00005300156772 186.58352941274643,195.04816891113296 186.58352941274643,192.09628177573904 184.55058823525906,186.78287725918926 182.517647058703,184.42136097350158 179.97647058870643,182.65022248006426 173.8776470599696,181.17427289742045 166.0,185.89730887976475 161.93411764781922,189.43958075041883 149.73647058941424,197.40967642725445 147.9576470591128,199.47599390451796 146.94117647130042,202.132685611723 145.92470588348806,207.44606162584387 147.19529411848634,209.8075589099899 151.51529411785305,213.64498783904128 154.05647058971226,214.82573416666128 157.10588235408068,215.1209206727799 159.64705882407725,214.53054763027467 173.8776470599696,205.97012483305298 180.7388235302642,201.24712198320776 182.77176470588893,199.18080578441732 184.29647058900446,196.81929973093793 183.7882352946326,187.96363467071205 179.4682352943346,184.12617130042054 176.41882352996618,183.83098159683868 173.8776470599696,182.35503262421116 170.57411764748394,182.65022248006426 168.03294117748737,183.83098159683868 160.91764705907553,188.8492024105508 158.8847058834508,190.9155260694679 148.9741176487878,196.81929973093793 146.94117647130042,199.18080578441732 145.92470588348806,201.54230988956988 145.41647059004754,204.1989996782504 145.67058823537081,207.44606162584387 146.94117647130042,209.8075589099899 148.72000000067055,211.87386743468232 151.26117647159845,213.64498783904128 154.56470588315278,214.53054763027467 160.15529411751777,213.94017446693033 164.72941176500171,210.69311988772824 170.32000000029802,208.62681051087566 184.55058823525906,199.18080578441732 186.8376470580697,194.16260309051722 186.58352941274643,187.66844536340795 183.5341176474467,182.65022248006426 177.43529411870986,181.76465282170102 174.89411764778197,180.58389285230078 172.09882353059947,180.58389285230078 169.55764705874026,181.17427289742045 157.61411764845252,190.6203370669391 148.21176470723003,197.11448809411377 146.43294117692858,199.47599390451796 145.41647059004754,201.837497765664 144.90823529381305,204.78937485208735 145.92470588348806,207.7412488926202 147.7035294128582,210.39793292572722 149.73647058941424,212.46424102410674 155.58117647096515,214.53054763027467 163.96705882437527,211.57868059328757" stroke="#fffc00" stroke-linecap="round" stroke-linejoin="round" stroke-width="0.5"><title>2021-01-28 3.1km</title><desc>5958643208</desc></polyline><polyline fill="none" points="12.950318470597267,252.07303339778446 12.675159235484898,255.26933177933097 13.50063694268465,258.14599750190973 15.701910828240216,261.0226605546195 17.90318471379578,262.6208055408206 20.929936305619776,264.218949703034 23.681528662331402,264.85820713755675 26.983439489267766,264.53857843670994 29.459872610867023,261.9815476452932 32.48662420269102,260.7030314588919 36.88917197473347,256.2282206492964 40.19108280260116,254.94970208825544 42.942675159312785,253.3515531460289 45.41910827998072,250.79451312241144 53.6738853501156,245.68042674427852 55.32484076358378,243.12338038929738 55.59999999962747,239.9270694782026 55.32484076358378,236.41112366877496 54.22420382127166,233.2148058328312 52.022929936647415,230.97738138656132 49.54649681504816,229.37922007846646 46.24458598718047,228.73995532398112 43.49299362953752,227.14179286221042 37.43949044588953,228.73995532398112 34.41273885406554,230.33811696222983 30.010191082954407,234.49333336320706 22.305732483044267,239.9270694782026 15.151592357084155,246.0000573899597 13.50063694268465,248.23747098795138 12.400000000372529,254.3104426106438 14.326114649884403,260.3834023291711 16.527388534508646,262.6208055408206 23.406369427219033,263.8993209367618 26.43312101904303,261.9815476452932 29.735031846910715,261.3422896184493 32.48662420269102,259.1048854836263 37.98980891611427,256.5478502078913 44.86878980882466,250.79451312241144 50.64713375736028,247.9178405732382 53.398726114071906,245.68042674427852 54.77452229335904,243.12338038929738 54.49936305638403,239.28780690091662 55.04968152847141,236.09149203379638 51.74777070060372,230.97738138656132 48.44585987273604,228.73995532398112 41.84203821700066,227.14179286221042 38.264968153089285,227.7810579459183 19.554140127263963,241.52522534620948 17.07770700659603,243.76264217612334 15.151592357084155,246.31968800304458 13.50063694268465,249.19636203581467 12.950318470597267,252.39266338385642 13.225477707572281,255.5889614354819 14.601273884996772,258.78525618906133 16.527388534508646,261.6619186482858 19.554140127263963,263.5796921374276 25.882802547886968,264.218949703034 31.93630573246628,261.9815476452932 34.41273885406554,259.42451474489644 35.78853503149003,256.5478502078913 38.264968153089285,254.3104426106438 40.19108280260116,252.07303339778446 42.66751592233777,250.47488297033124 45.96942675113678,249.51599231897853 48.44585987273604,247.9178405732382 51.47261146456003,247.59821012453176 53.94904458615929,245.68042674427852 53.94904458615929,235.7718603652902 52.84840764198452,232.89517386839725 50.37197452224791,230.65774919092655 44.043312101624906,229.0595877172891 41.29171974491328,228.10069043794647 35.23821656033397,229.69885240634903 28.084076433442533,235.7718603652902 22.305732483044267,239.607438206207 15.151592357084155,245.36079606506974 13.225477707572281,248.23747098795138 13.225477707572281,254.94970208825544 15.426751592196524,260.3834023291711 17.90318471379578,262.6208055408206 23.95668789744377,264.85820713755675 28.909554140642285,261.3422896184493 35.78853503149003,258.14599750190973 37.7146496810019,255.90859105903655 46.24458598718047,251.43377332598902 48.17070063576102,248.87673171935603 53.398726114071906,245.68042674427852 54.49936305638403,242.8037494472228 53.94904458615929,236.09149203379638 50.09681528713554,231.2970135495998 47.070063694380224,230.01848470093682 45.41910827998072,227.14179286221042 35.51337579637766,228.73995532398112 32.76178343966603,230.65774919092655 28.359235668554902,235.13259693002328 17.90318471379578,242.8037494472228 14.326114649884403,247.59821012453176 13.77579617779702,250.47488297033124 13.77579617779702,253.99081282131374 14.326114649884403,257.18710922426544 15.426751592196524,259.7441439719405 17.90318471379578,261.9815476452932 21.205095541663468,262.6208055408206 24.231847134418786,262.6208055408206 30.285350318066776,261.3422896184493 36.338853501714766,256.5478502078913 50.64713375736028,248.23747098795138 53.12356687895954,246.31968800304458 54.49936305638403,242.8037494472228 54.49936305638403,239.607438206207 53.94904458615929,236.7307552706916 51.74777070060372,230.97738138656132 48.721019107848406,229.37922007846646 45.14394904393703,229.0595877172891 41.84203821700066,227.7810579459183 38.81528662331402,228.42032289807685 36.06369426753372,229.69885240634903 31.385987260378897,234.17370153032243 26.15796178393066,237.68964987900108 16.802547769621015,245.04116535326466 14.601273884996772,247.27857964392751 13.225477707572281,250.47488297033124 12.950318470597267,253.6711830003187 13.50063694268465,259.7441439719405 15.151592357084155,262.3011766090058 18.17834394890815,263.8993209367618 21.75541401281953,264.53857843670994 24.507006369531155,264.53857843670994 27.80891719646752,263.8993209367618 30.560509554110467,261.6619186482858 34.68789808917791,256.8674797322601 42.11719745211303,251.43377332598902 44.86878980882466,248.87673171935603 47.89554140064865,247.27857964392751 52.57324840687215,243.44301129947416 54.22420382127166,240.8859630979132 55.04968152847141,234.49333336320706 53.6738853501156,231.61664567957632 50.64713375736028,230.33811696222983 43.49299362953752,229.0595877172891 40.46624203771353,228.73995532398112 37.7146496810019,229.37922007846646 34.41273885406554,230.97738138656132 32.48662420269102,232.89517386839725 31.110828025266528,235.45222866395488 17.90318471379578,244.40190383070149 15.701910828240216,246.31968800304458 13.77579617779702,248.87673171935603 12.675159235484898,251.43377332598902 12.950318470597267,254.63007236574776 13.225477707572281,257.8263681086246 14.601273884996772,261.0226605546195 17.07770700659603,262.3011766090058 20.379617834463716,263.2600633047987 26.708280254155397,263.5796921374276 29.184713375754654,261.0226605546195 37.98980891611427,254.63007236574776 45.96942675113678,249.83562256931327 49.27133757993579,248.55710137053393 51.47261146456003,246.63931858260185 53.94904458615929,239.607438206207 54.49936305638403,236.41112366877496 52.84840764198452,230.33811696222983 49.82165605016053,228.42032289807685 46.51974522322416,228.10069043794647 39.91592356655747,227.7810579459183 37.16433120891452,228.73995532398112 30.285350318066776,236.09149203379638 17.90318471379578,246.0000573899597 15.701910828240216,247.9178405732382 13.77579617779702,250.15525278635323 12.675159235484898,256.5478502078913 15.426751592196524,261.9815476452932 17.90318471379578,263.5796921374276 20.929936305619776,264.85820713755675 24.231847134418786,264.85820713755675 27.533757962286472,264.218949703034 30.83566879015416,261.3422896184493 36.338853501714766,254.3104426106438 42.11719745211303,252.39266338385642 52.022929936647415,243.76264217612334" stroke="#fffd00" stroke-linecap="round" stroke-linejoin="round" stroke-width="0.5"><title>2021-01-26 3.1km</title><desc>5958643221</desc></polyline><polyline fill="none" points="80.97483443655074,253.47750249691308 79.54437085986137,256.1361442906782 80.40264900587499,259.79177317605354 82.11920529790223,262.7827391780447 84.9801324494183,264.44438575720415 91.8463576156646,262.45040975906886 94.99337748251855,262.45040975906886 118.45298013091087,245.5015639483463 120.45562913827598,242.51058190106414 121.59999999962747,239.51959707820788 121.02781457081437,236.52860947698355 119.59735099226236,233.5376190992538 115.30596026405692,229.2172947616782 112.15894039720297,227.55563001218252 108.72582781501114,227.2232969601173 105.57880794629455,228.22029601503164 86.98278145678341,241.84591884794645 82.11920529790223,245.83389511564746 80.11655629053712,248.16021232539788 78.97218543104827,251.15118912700564 78.68609271384776,254.4744934265036 80.40264900587499,260.7887621524278 82.69139072671533,262.7827391780447 85.83841059543192,264.44438575720415 89.27152317762375,264.77671497059055 95.85165562853217,263.7797272289172 101.00132450275123,258.4624540612567 106.15099337883294,254.4744934265036 108.72582781501114,251.81585026113316 119.31125827878714,243.83990759844892 121.02781457081437,240.84892400866374 121.3139072842896,237.52560565248132 121.3139072842896,234.202283867402 120.45562913827598,230.87895865458995 118.45298013091087,228.55262896534987 115.5920529793948,226.89096387219615 112.15894039720297,226.5586307514459 105.57880794629455,227.55563001218252 102.71788079477847,229.2172947616782 98.42649006657302,233.5376190992538 85.5523178819567,242.84291337733157 80.97483443655074,248.16021232539788 79.54437085986137,250.81885850825347 78.97218543104827,254.4744934265036 79.25827814638615,257.79779429826885 80.68874172307551,261.45342129841447 82.97748344391584,263.11506856326014 85.83841059543192,264.44438575720415 95.85165562853217,263.44739791285247 98.7125827819109,261.785750819603 102.71788079477847,256.80080439709127 116.45033112540841,247.16321944072843 119.02516556344926,244.83690151106566 120.74172185361385,241.84591884794645 121.59999999962747,238.52260151924565 120.74172185361385,232.20828915038146 118.45298013091087,229.88196042133495 115.87814569473267,227.88796303025447 109.58410595916212,226.22629759646952 103.29006622545421,227.88796303025447 96.42384105920792,234.5346161997877 81.54701986722648,246.16622624802403 79.83046357706189,248.82487407675944 78.97218543104827,251.81585026113316 78.97218543104827,254.80682366760448 79.54437085986137,258.1301241973415 81.54701986722648,260.7887621524278 83.54966887272894,263.11506856326014 86.69668874144554,262.7827391780447 88.41324503161013,265.7737024035305 91.8463576156646,265.7737024035305 94.99337748251855,264.11205651029013 97.5682119205594,262.1180803065654 104.43443708494306,254.4744934265036 109.29801324382424,250.48652785550803 117.88079470209777,245.16923274705186 120.16953642293811,242.84291337733157 121.02781457081437,239.51959707820788 121.3139072842896,235.86394518846646 120.45562913827598,232.20828915038146 118.45298013091087,229.88196042133495 112.73112582787871,226.5586307514459 106.15099337883294,227.2232969601173 102.71788079477847,228.22029601503164 95.5655629131943,235.19928076327778 80.40264900587499,246.49855734710582 78.68609271384776,249.82186644664034 78.40000000037253,253.14517211844213 79.25827814638615,256.46847436157987 80.40264900587499,259.45944344997406 82.4052980132401,262.45040975906886 85.26622516475618,264.11205651029013 88.41324503161013,264.77671497059055 95.5655629131943,262.1180803065654 105.86490066163242,253.47750249691308 108.1536423843354,250.48652785550803 116.16423841193318,246.16622624802403 118.73907284811139,244.17223893711343 120.45562913827598,241.51358726853505 121.59999999962747,238.19026959734038 121.59999999962747,234.86694849887863 117.5947019867599,228.8849618807435 114.16158940456808,228.55262896534987 111.58675496652722,226.89096387219615 105.00662251748145,227.88796303025447 102.4317880794406,229.2172947616782 94.99337748251855,235.86394518846646 79.83046357706189,246.83088841103017 78.68609271384776,250.154197167838 78.40000000037253,256.80080439709127 79.83046357706189,259.45944344997406 81.54701986722648,261.785750819603 84.12185430526733,263.7797272289172 91.56026490032673,263.44739791285247 94.70728476718068,262.45040975906886 97.5682119205594,260.7887621524278 100.14304635860026,258.1301241973415 102.71788079477847,256.46847436157987 104.72052980028093,253.80983284045942 107.86754966899753,253.80983284045942 109.87019867449999,251.15118912700564 112.44503311254084,249.48953569098376 118.45298013091087,246.83088841103017 120.45562913827598,243.50757622509263 121.02781457081437,240.18426061142236 120.74172185361385,237.19327362813056 120.16953642293811,234.202283867402 118.45298013091087,231.54362397058867 112.73112582787871,227.2232969601173 109.58410595916212,226.89096387219615 106.72317880764604,227.2232969601173 103.29006622545421,228.8849618807435 95.5655629131943,235.53161299298517 82.69139072671533,244.83690151106566 80.40264900587499,247.16321944072843 79.25827814638615,250.154197167838 78.40000000037253,253.47750249691308 78.68609271384776,256.80080439709127 82.11920529790223,262.45040975906886 88.41324503161013,264.44438575720415 91.8463576156646,264.44438575720415 94.99337748251855,264.11205651029013 101.2874172180891,257.1331343986094 103.86225165426731,255.13915387634188 109.58410595916212,251.81585026113316 117.30860927142203,246.16622624802403 119.31125827878714,243.83990759844892 120.45562913827598,233.86995149985887 116.73642384074628,228.55262896534987 107.00927152298391,226.5586307514459 103.57615894079208,227.88796303025447 96.42384105920792,234.5346161997877 88.1271523181349,240.18426061142236 80.97483443655074,246.83088841103017 79.25827814638615,249.82186644664034 78.68609271384776,253.14517211844213 78.68609271384776,256.80080439709127 81.83311258256435,262.1180803065654 84.69403973594308,264.11205651029013 87.84105960279703,264.77671497059055 95.5655629131943,263.11506856326014 102.71788079477847,256.46847436157987 108.1536423843354,253.14517211844213 113.01721854321659,249.48953569098376 115.5920529793948,246.83088841103017 118.16688741743565,245.16923274705186 120.16953642293811,242.17825039173476 121.02781457081437,238.85493340622634 120.74172185361385,232.5406216897536 118.73907284811139,230.21429320028983 109.29801324382424,226.22629759646952 103.0039735082537,228.22029601503164 98.1403973493725,232.5406216897536" stroke="#fffb00" stroke-linecap="round" stroke-linejoin="round" stroke-width="0.5"><title>2021-01-25 3.2km</title><desc>5958643210</desc></polyline></svg>