<?xml version="1.0" encoding="utf-8" ?>
<svg baseProfile="full" height="300mm" version="1.1" viewBox="0,0,200,300" width="200mm" xmlns="http://www.w3.org/2000/svg" xmlns:ev="http://www.w3.org/2001/xml-events" xmlns:xlink="http://www.w3.org/1999/xlink"><defs /><rect fill="#222222" height="300" width="200" x="0" y="0" /><text fill="#FFFFFF" style="font-size:12px; font-family:Arial; font-weight:bold;" x="10" y="20">Over 3km Runs</text><text fill="#FFFFFF" style="font-size:4px; font-family:Arial" x="10" y="280">ATHLETE</text><text fill="#FFFFFF" style="font-size:9px; font-family:Arial" x="10" y="290">Licardo</text><text fill="#FFFFFF" style="font-size:4px; font-family:Arial" x="120" y="280">STATISTICS</text><text fill="#FFFFFF" style="font-size:3px; font-family:Arial" x="120" y="285">Number: 2</text><text fill="#FFFFFF" style="font-size:3px; font-family:Arial" x="120" y="290">Weekly: 2.0</text><text fill="#FFFFFF" style="font-size:3px; font-family:Arial" x="141" y="285">Total: 6.1 km</text><text fill="#FFFFFF" style="font-size:3px; font-family:Arial" x="141" y="290">Avg: 3.1 km</text><text fill="#FFFFFF" style="font-size:3px; font-family:Arial" x="167" y="285">Min: 3.0 km</text><text fill="#FFFFFF" style="font-size:3px; font-family:Arial" x="167" y="290">Max: 3.1 km</text><polyline fill="none" points="51.76000000163913,107.98200955428183 61.12000000104308,135.58199909329414 86.32000000029802,130.5638261642307 146.08000000193715,87.9092308729887 148.96000000089407,57.79996966896579 130.24000000208616,41.90892561851069 113.68000000342727,43.58166856179014 49.600000001490116,94.60016262205318 50.32000000402331,125.54565013153479 89.20000000298023,133.0729130175896 148.24000000208616,83.72739572590217 150.40000000223517,51.10900754947215 112.96000000089407,42.745297132991254 51.76000000163913,93.76379645429552 50.32000000402331,127.21837582159787 88.48000000044703,132.23655082145706 146.80000000447035,85.40013004373759 151.84000000357628,53.618118991144 115.12000000104308,41.07255401369184 53.19999999925494,88.74559764424339 52.480000004172325,126.38201302103698 78.40000000223517,138.92744598630816 150.40000000223517,81.21829360257834 145.35999999940395,47.76352441776544 106.48000000044703,44.41803990676999 49.600000001490116,90.4183309264481 55.35999999940395,129.72746370872483 88.48000000044703,129.72746370872483 146.08000000193715,83.72739572590217 154.0,61.14544865768403 143.20000000298023,46.090782335493714 112.24000000208616,42.745297132991254 48.88000000268221,91.25469743739814 48.16000000014901,123.03656095266342 77.67999999970198,133.0729130175896 146.08000000193715,90.4183309264481 149.67999999970198,58.636339543852955 115.84000000357628,41.90892561851069 50.32000000402331,92.09106386220083 53.92000000178814,130.5638261642307 87.04000000283122,133.90927513036877 148.24000000208616,82.89102843590081 141.76000000163913,44.41803990676999 108.64000000059605,42.745297132991254 47.440000001341105,97.94562642555684 46.0,115.5092887468636 61.12000000104308,134.7456371546723 87.76000000163913,132.23655082145706 149.67999999970198,78.70919070346281 151.84000000357628,54.45448929769918 130.96000000089407,41.90892561851069 94.96000000089407,55.290859521366656" stroke="#ff0000" stroke-linecap="round" stroke-linejoin="round" stroke-width="0.5"><title>2021-01-25 3.1km</title></polyline><polyline fill="none" points="46.0,225.05473883869126 53.20000000298023,248.47293231729418 83.4400000013411,258.5092802424915 153.2800000011921,209.16378331370652 154.0,175.70903828926384 126.64000000059605,160.65435798978433 110.80000000074506,163.9998449170962 47.440000001341105,215.85471575148404 49.600000001490116,246.80020645214245 73.36000000312924,256.8365564509295 151.839999999851,209.16378331370652 147.52000000327826,169.85444371635094 112.96000000089407,161.4907298516482 51.76000000163913,210.8365169414319 56.07999999821186,250.98202046286315 95.67999999970198,250.98202046286315 117.2800000011921,225.89110405743122 153.2800000011921,209.16378331370652 143.92000000178814,169.0180727178231 105.04000000283122,166.50895920488983 51.76000000163913,208.3274163696915 52.480000000447035,247.63656942779198 75.52000000327826,259.34564200975 151.839999999851,208.3274163696915 143.20000000298023,171.52718545496464 130.96000000089407,160.65435798978433 105.04000000283122,164.83621643157676 50.32000000029802,214.18198315938935 52.480000000447035,245.96384339313954 91.35999999940395,250.14565783459693 151.839999999851,210.00015017017722 147.52000000327826,170.6908146282658 113.67999999970198,163.9998449170962 50.32000000029802,213.34561673458666 52.480000000447035,251.81838300498202 84.87999999895692,256.0001944261603 150.39999999850988,203.30921290023252 152.5600000023842,172.36355619505048 110.80000000074506,166.50895920488983 48.16000000014901,216.6910819192417 51.04000000283122,248.47293231729418 82.0,256.0001944261603 147.52000000327826,210.8365169414319 150.39999999850988,169.0180727178231 110.08000000193715,163.9998449170962 48.88000000268221,220.87291145743802 52.480000000447035,251.81838300498202 84.87999999895692,256.8365564509295 148.24000000208616,204.14558036066592" stroke="#ffff00" stroke-linecap="round" stroke-linejoin="round" stroke-width="0.5"><title>2021-01-26 3.0km</title></polyline></svg>