<?xml version="1.0" encoding="utf-8" ?>
<svg baseProfile="full" height="300mm" version="1.1" viewBox="0,0,200,300" width="200mm" xmlns="http://www.w3.org/2000/svg" xmlns:ev="http://www.w3.org/2001/xml-events" xmlns:xlink="http://www.w3.org/1999/xlink"><defs /><rect fill="#222222" height="300" width="200" x="0" y="0" /><text fill="#FFFFFF" style="font-size:12px; font-family:Arial; font-weight:bold;" x="10" y="20">Over 3km Runs</text><text fill="#FFFFFF" style="font-size:4px; font-family:Arial" x="10" y="280">ATHLETE</text><text fill="#FFFFFF" style="font-size:9px; font-family:Arial" x="10" y="290">Licardo</text><text fill="#FFFFFF" style="font-size:4px; font-family:Arial" x="120" y="280">STATISTICS</text><text fill="#FFFFFF" style="font-size:3px; font-family:Arial" x="120" y="285">Number: 16</text><text fill="#FFFFFF" style="font-size:3px; font-family:Arial" x="120" y="290">Weekly: 4.0</text><text fill="#FFFFFF" style="font-size:3px; font-family:Arial" x="141" y="285">Total: 47.3 km</text><text fill="#FFFFFF" style="font-size:3px; font-family:Arial" x="141" y="290">Avg: 3.0 km</text><text fill="#FFFFFF" style="font-size:3px; font-family:Arial" x="167" y="285">Min: 1.6 km</text><text fill="#FFFFFF" style="font-size:3px; font-family:Arial" x="167" y="290">Max: 3.2 km</text><polyline fill="none" points="14.410000000149012,59.24325358285569 17.919999999925494,69.5932496599853 27.37000000011176,67.71143481158651 49.78000000026077,51.71596157737076 50.860000000335276,40.42498862580396 43.84000000078231,34.4658471068833 37.630000000819564,35.09312571072951 13.599999999627471,54.22506098332815 13.870000000111759,65.82961879926734 28.450000000186265,68.65234238165431 50.59000000078231,50.14777339738794 51.40000000037253,37.91587783116847 37.35999999940395,34.779486424988136 14.410000000149012,53.91142367059365 13.870000000111759,66.45689093321562 28.179999999701977,68.3387065581046 50.05000000074506,50.77504876651801 51.940000001341105,38.856794621795416 38.169999999925494,34.152207755250856 14.949999999254942,52.02959911664948 14.6800000006333,66.14325488288887 24.40000000037253,70.84779224498197 51.40000000037253,49.206860101083294 49.50999999977648,36.661321656778455 34.92999999970198,35.40676496503875 13.599999999627471,52.65687409741804 15.75999999884516,67.3977988907136 28.179999999701977,67.3977988907136 49.78000000026077,50.14777339738794 52.75,41.679543246747926 48.700000000186265,36.03404337586835 37.08999999985099,34.779486424988136 13.330000000074506,52.970511539140716 13.06000000052154,64.88871035724878 24.12999999895692,68.65234238165431 49.78000000026077,52.65687409741804 51.12999999988824,40.738627329003066 38.44000000040978,34.4658471068833 13.870000000111759,53.2841489482671 15.21999999973923,67.71143481158651 27.640000000596046,68.96597817377187 50.59000000078231,49.8341356634628 48.16000000014901,35.40676496503875 35.739999999292195,34.779486424988136 12.78999999910593,55.47960990970023 12.25,62.06598328007385 17.919999999925494,69.27961393306032 27.91000000014901,68.3387065581046 51.12999999988824,48.26594651397318 51.940000001341105,39.170433486578986 44.110000000335276,34.4658471068833 30.610000000335276,39.48407232062891" stroke="#ff1300" stroke-linecap="round" stroke-linejoin="round" stroke-width="0.5"><title>2021-01-25 3.1km</title></polyline><polyline fill="none" points="57.25,58.14552706456743 59.95000000111759,66.92734961910173 71.29000000096858,70.69098009099253 97.48000000044703,52.186418742872775 97.75,39.64088935870677 87.49000000115484,33.99538424634375 81.55000000074506,35.24994184402749 57.790000000968575,54.695518407039344 58.60000000055879,66.30007741972804 67.5100000007078,70.06370866927318 96.94000000040978,52.186418742872775 95.32000000122935,37.44541639368981 82.36000000033528,34.30902369460091 59.410000001080334,52.813693853328004 61.03000000026077,67.8682576736901 75.88000000081956,67.8682576736901 83.98000000044703,58.45916402176954 97.48000000044703,52.186418742872775 93.97000000067055,37.13177726930007 79.39000000059605,36.1908597019501 59.410000001080334,51.87278113886714 59.6800000006333,66.6137135354802 68.32000000122935,71.00461575365625 96.94000000040978,51.87278113886714 93.70000000111759,38.07269454561174 89.1100000012666,33.99538424634375 79.39000000059605,35.56358116189949 58.87000000104308,54.06824368494563 59.6800000006333,65.98644127254374 74.2600000007078,67.55462168809026 96.94000000040978,52.50005631404929 95.32000000122935,37.75905548571609 82.62999999988824,35.24994184402749 58.87000000104308,53.75460627558641 59.6800000006333,68.18189362692647 71.8300000000745,69.75007290998474 96.3999999994412,49.99095483776182 97.21000000089407,38.38633357337676 81.55000000074506,36.1908597019501 58.06000000052154,55.009155720006675 59.14000000152737,66.92734961910173 70.75,69.75007290998474 95.32000000122935,52.813693853328004 96.3999999994412,37.13177726930007 81.28000000026077,35.24994184402749 58.33000000100583,56.577341796597466 59.6800000006333,68.18189362692647 71.8300000000745,70.06370866927318 95.59000000078231,50.30459263548255" stroke="#ff1b00" stroke-linecap="round" stroke-linejoin="round" stroke-width="0.5"><title>2021-01-26 3.0km</title></polyline><polyline fill="none" points="113.89071856252849,46.02070418023504 104.19011976011097,58.41596212913282 106.8577844304964,65.45869726291858 114.61826347280294,68.8392036750447 139.83982035890222,53.9086021122057 142.26497006043792,46.02070418023504 140.08233532961458,40.949900621082634 130.1392215564847,37.569359683198854 108.07035928033292,50.809787784470245 103.46257484983653,60.669639349216595 113.64820359181613,69.12091235397384 140.32485029939562,53.62689186446369 142.75,46.5841262168251 138.6272455090657,39.259630675427616 130.38173652626574,37.00593578745611 106.8577844304964,51.93662976543419 105.4026946099475,64.89527911972255 116.07335329335183,69.12091235397384 142.26497006043792,51.93662976543419 141.05239520967007,41.5133237040136 134.50449101720005,37.00593578745611 126.01646706461906,38.4144953105133 104.43263472989202,54.7537326826714 102.25,59.82451060949825 105.4026946099475,65.17698820587248 118.49850299302489,68.55749496701173 142.02245508972555,52.50005058129318 141.05239520967007,42.076746670296416 126.01646706461906,38.4144953105133 107.10029940120876,51.654919313965365 105.16017964016646,64.61357000563294 115.34580838307738,69.12091235397384 141.05239520967007,52.50005058129318 140.32485029939562,41.79503520205617 130.38173652626574,36.724223795114085 107.10029940120876,51.93662976543419 104.91766467038542,64.05015168967657 116.80089820269495,68.55749496701173 138.86976047977805,53.62689186446369 139.59730538912117,42.921880901791155 127.22904191538692,38.13278346415609 106.37275449093431,51.654919313965365 104.67514969967306,64.05015168967657 117.043413172476,67.9940774643328 140.32485029939562,53.9086021122057 142.26497006043792,42.921880901791155 139.35479041934013,38.13278346415609 128.44161676615477,35.879087645793334 105.88772455044091,51.93662976543419 102.73502993956208,59.261091304942966 107.34281437005848,66.58553319820203 120.92365269362926,65.74040629016235" stroke="#ff1700" stroke-linecap="round" stroke-linejoin="round" stroke-width="0.5"><title>2021-01-28 3.1km</title></polyline><polyline fill="none" points="155.20953757222742,53.04392711468972 147.25,54.67556622880511 153.33670520223677,66.09701174707152 161.53034682106227,67.45670434553176 187.0476878611371,51.68422708217986 187.75,43.52601215685718 176.51300578005612,36.72748043178581 154.7413294799626,52.22810717928223 152.86849710997194,64.46537970239297 162.70086705219,67.45670434553176 185.87716762907803,49.50870557082817 187.0476878611371,41.62242504116148 183.3020231211558,37.54330516420305 172.29913294874132,37.54330516420305 154.03901734109968,52.77198716439307 151.6979768788442,62.8337466486264 163.87138728238642,66.91282739001326 185.40895953774452,50.324526347918436 185.87716762907803,40.53466035774909 173.0014450866729,36.72748043178581 154.27312138769776,52.77198716439307 151.22976878564805,57.39496250683442 153.57080924883485,64.46537970239297 163.4031791910529,66.91282739001326 186.11127167660743,49.236765255220234 186.81358381453902,41.350483912741765 174.87427745666355,36.72748043178581 154.03901734109968,52.500047186156735 152.4002890177071,62.8337466486264 161.53034682106227,68.27251956798136 186.81358381453902,48.14900371385738 184.23843930661678,38.08718817937188 171.12861271668226,38.3591296444647 152.86849710997194,53.31586703751236 154.7413294799626,65.2811958505772 164.3395953765139,66.64088887046091 185.64306358341128,50.324526347918436 184.23843930661678,39.990777847822756 172.06502890121192,38.08718817937188 152.63439306337386,53.859746798174456 150.9956647399813,58.7546595945023 154.97543352562934,65.5531345102936 163.16907514445484,67.72864278126508 186.57947976887226,49.236765255220234 182.83381502889097,36.99942203704268 171.83092485461384,38.3591296444647 152.86849710997194,53.587806931464 151.46387283224612,61.202112584142014 156.8482658965513,68.00058118882589 165.51011560764164,66.09701174707152 184.9407514454797,50.868406725814566" stroke="#ff1500" stroke-linecap="round" stroke-linejoin="round" stroke-width="0.5"><title>2021-01-29 3.1km</title></polyline><polyline fill="none" points="20.296357615850866,108.62056945660152 12.25,122.6407949081622 20.028145694173872,132.61069340980612 35.852649006061256,129.18354451283813 51.1407284764573,117.9673936557956 52.75,112.04774168832228 49.26324503310025,103.32402290264145 34.779801324009895,101.76621332531795 13.32284768205136,119.21363469702192 14.395695365034044,131.3644578976091 27.001655627973378,133.23381097358651 48.995033111423254,116.40959163173102 48.72682119254023,102.38933725352399 33.975165562704206,101.14308926928788 12.518211919814348,119.21363469702192 12.518211919814348,129.18354451283813 20.296357615850866,135.41472143353894 26.73344370815903,134.79160432028584 50.06788079440594,112.98242435022257 43.89900662191212,100.20840294426307 34.243377483449876,100.51996508520097 15.200331125408411,116.40959163173102 12.786423841491342,128.56042611273006 26.46523178834468,134.1684870775789 49.26324503310025,115.16334943380207 50.604304634965956,106.43963964795694 44.971854304894805,99.58527856669389 33.17052980046719,101.76621332531795 13.591059602797031,117.9673936557956 14.395695365034044,132.61069340980612 26.73344370815903,134.1684870775789 50.06788079440594,114.54022814123891 49.79966887459159,103.01246105204336 36.120860925875604,100.20840294426307 12.518211919814348,119.83675502496772 13.859271523542702,130.74133994826116 28.07450331095606,132.9222522082273 50.336092714220285,115.47491003153846 48.72682119254023,103.32402290264145 36.657284767366946,99.89684077119455 12.786423841491342,119.21363469702192 13.32284768205136,130.42978092492558 24.58774834405631,133.85692840861157 49.26324503310025,116.09803113061935 51.94536423776299,110.17837549862452 47.385761588811874,101.76621332531795 36.120860925875604,100.20840294426307 13.32284768205136,118.278953964822 15.200331125408411,132.61069340980612 23.783112581819296,135.10316289332695 49.26324503310025,115.78647059691139" stroke="#4dd2ff" stroke-linecap="round" stroke-linejoin="round" stroke-width="0.5"><title>2021-02-01 3.0km</title></polyline><polyline fill="none" points="64.61363636422902,113.83416095585562 57.51298701390624,124.52634426974691 66.45454545505345,134.91299966396764 94.33116883225739,117.80554783646949 97.75,109.86276874993928 95.90909090917557,103.75292418710887 88.01948051992804,99.17053249082528 74.87012987118214,105.89137121825479 58.56493506580591,121.77692938991822 59.8798701306805,130.94163572601974 67.2435064939782,135.82946750917472 93.01623376645148,118.1110389137175 97.48701298702508,111.0847361497581 91.43831168860197,101.00349002028815 79.86688311770558,101.91996835987084 58.56493506580591,120.86045719659887 58.82792207784951,129.71967652067542 63.298701299354434,133.99653153587133 72.24025974050164,134.30202094372362 96.69805194810033,112.6121946903877 94.06818181835115,101.91996835987084 81.70779220853001,101.00349002028815 59.353896104730666,120.24947557644919 63.035714286379516,133.6910420972854 71.97727272845805,134.6075103196781 96.43506493605673,114.75063532404602 95.38311688415706,103.14193903678097 80.91883117053658,101.61447561113164 59.8798701306805,118.1110389137175 58.038961038924754,127.88673676596954 61.983766234479845,132.46908402536064 73.29220779333264,133.0800631234888 96.69805194810033,113.83416095585562 93.01623376645148,101.91996835987084 81.44480519555509,100.69799717795104 58.301948052830994,120.24947557644919 59.616883117705584,131.24712544912472 73.29220779333264,133.38555262587033 96.43506493605673,114.75063532404602 94.59415584430099,103.75292418710887 80.3928571427241,101.61447561113164 58.56493506580591,119.9439847196918 57.25,126.05379587644711 62.7727272734046,133.38555262587033 74.08116883225739,132.7745735901408 96.69805194810033,115.36161807877943 93.2792207794264,101.61447561113164 78.81493506580591,102.22546107624657 59.353896104730666,118.41652996069752 61.720779220573604,132.7745735901408 73.81818181835115,133.0800631234888 97.22402597498149,113.22317788633518" stroke="#ff1a00" stroke-linecap="round" stroke-linejoin="round" stroke-width="0.5"><title>2021-02-02 3.0km</title></polyline><polyline fill="none" points="111.19155844207853,112.76493980339728 103.301948052831,124.37359776906669 107.50974026042968,132.0108479282353 116.97727272752672,134.1492744430434 142.75,111.84846486872993 138.54220779333264,102.68369991425425 130.38961039017886,99.93426489713602 105.66883116960526,117.65280133578926 103.82792207878083,129.26144013926387 113.82142857275903,135.6767210084945 139.3311688322574,117.3473102261778 141.17207792308182,106.04411702416837 136.96428571548313,101.46172911045142 127.49675324838609,100.54525067727081 104.87987013161182,117.95829241303727 104.09090909175575,129.8724198692944 114.0844155838713,135.06574247661047 138.54220779333264,117.95829241303727 142.4870129879564,109.40453032031655 138.54220779333264,101.46172911045142 129.07467532530427,100.54525067727081 108.82467532530427,113.98690594360232 103.03896103892475,127.73399026528932 111.19155844207853,135.6767210084945 141.43506493605673,113.98690594360232 137.22727272752672,99.93426489713602 125.12987013161182,101.15623633028008 105.93181818164885,117.04181908536702 103.03896103892475,123.15163591550663 105.93181818164885,132.0108479282353 117.76623376645148,133.53829559660517 140.64610389713198,115.2088715780992 139.06818181835115,102.98919253610075 124.34090909175575,102.07271457556635 103.82792207878083,120.09672907576896 106.98376623447984,132.92731662280858 118.29220779333264,133.53829559660517 141.43506493605673,114.59788882336579 139.3311688322574,102.68369991425425 127.49675324838609,100.85074351960793 103.301948052831,120.40221990202554 102.25,126.8175199625548 107.50974026042968,134.76025316328742 116.45129870157689,134.76025316328742 140.64610389713198,115.2088715780992 140.38311688322574,103.60017768642865 135.3863636367023,99.32327899127267 126.44480519555509,100.54525067727081 104.61688311770558,118.56927447463386 104.87987013161182,132.62182708946057 116.97727272752672,134.4547638189979 138.80519480537623,117.04181908536702" stroke="#ff1a00" stroke-linecap="round" stroke-linejoin="round" stroke-width="0.5"><title>2021-02-03 3.0km</title></polyline><polyline fill="none" points="147.75943396240473,120.60683781025 149.03301886841655,128.5956995638553 156.41981132235378,132.73806356498972 165.5896226419136,131.85041464073583 183.41981132049114,120.01506938785315 187.75,112.02618373278528 184.4386792453006,106.70024760183878 178.3254716983065,101.07841539965011 171.95754716917872,101.96607384830713 149.54245283082128,116.76034088130109 147.5047169821337,128.29981619329192 159.73113207612187,134.5133605916053 182.400943396613,119.71918513043784 185.45754716917872,111.13852839777246 171.95754716917872,100.48664294905029 148.52358490601182,118.83153217635117 148.0141509436071,129.48334949696437 162.53301886748523,133.32982936338522 184.4386792453006,117.05622544349171 177.5613207546994,101.37430158047937 171.702830189839,101.37430158047937 149.54245283082128,117.35210997541435 147.25,127.70804935717024 153.3632075479254,134.2174778303597 162.7877358496189,133.92159503884614 184.1839622631669,117.35210997541435 184.94811320770532,105.51670489623211 174.50471698120236,100.19075667695142 148.26886792574078,118.53564779739827 147.5047169821337,129.18746621604078 161.5141509436071,133.92159503884614 183.92924528289586,117.64799447660334 184.94811320770532,108.77144616167061 179.34433962311596,102.26195993716829 167.88207547273487,102.26195993716829 147.25,119.71918513043784 148.52358490601182,130.9627654403448 161.76886792480946,134.80924332281575 184.1839622631669,117.35210997541435 185.7122641503811,111.73029865208082 180.87264150939882,103.74138992163353 168.90094339568168,102.85373202292249 147.5047169821337,120.01506938785315 150.5613207546994,133.03394647943787 162.02358490601182,134.2174778303597 184.94811320770532,115.5768023270648 184.94811320770532,106.99613320198841 180.61792452912778,102.55784599552862 168.39150943420827,102.55784599552862 149.2877358496189,117.94387894752435 149.79716981202364,131.25864853779785 160.24056603759527,134.80924332281575 185.20283018890768,117.94387894752435" stroke="#ff1c00" stroke-linecap="round" stroke-linejoin="round" stroke-width="0.5"><title>2021-02-05 3.0km</title></polyline><polyline fill="none" points="19.633977900259197,186.7887243856676 26.346685082651675,187.5684846942313 21.87154696136713,189.90776417334564 25.227900553494692,196.40575132938102 41.56215469632298,190.42760376189835 52.52624309435487,178.9911080247257 44.91850828751922,168.59424867061898 21.20027624350041,183.92960118851624 22.095303867943585,193.54663904453628 32.388121547177434,195.62599375494756 52.75,179.77087074657902 46.70856353547424,169.11409265757538 41.56215469632298,168.59424867061898 21.87154696136713,183.1498397537507 21.424033150076866,193.02680010022596 33.28314917162061,195.36607450968586 51.85497237555683,180.81055400101468 46.93232044298202,170.15378030901775 39.548342540860176,169.6339365367312 20.976519336923957,184.4494420113042 22.54281768016517,193.80655847745948 32.1643646415323,196.40575132938102 52.52624309435487,178.9911080247257 46.48480662982911,168.59424867061898 38.653314917348325,170.15378030901775 20.752762431278825,184.7093623825349 21.20027624350041,192.76688058674335 33.05939226504415,195.62599375494756 52.07872928120196,181.59031615965068 52.75,176.39189720805734 46.93232044298202,171.4533892699983 32.388121547177434,172.23315432528034 12.473756906576455,186.26888404600322 12.25,193.54663904453628 22.319060772657394,195.62599375494756 42.90469613298774,188.60816473071463 52.75,177.69150295178406 43.12845303956419,168.59424867061898 20.976519336923957,184.4494420113042 21.424033150076866,193.02680010022596 31.045580110512674,195.62599375494756 50.73618784546852,182.62999866274185 51.18370165769011,173.79268371057697 44.47099447529763,169.8938584360294 35.52071823272854,170.67362397396937 22.095303867943585,182.62999866274185 21.424033150076866,193.28671958553605 31.269337016157806,196.1458321644459 50.95994475111365,182.37007807777263 51.18370165769011,172.4930759561248" stroke="#4dd2ff" stroke-linecap="round" stroke-linejoin="round" stroke-width="0.5"><title>2021-02-06 3.0km</title></polyline><polyline fill="none" points="59.20180722884834,186.32604667311534 60.17771084327251,194.2614301352296 68.71686747018248,198.2291132719256 94.33433734904975,182.92516102921218 97.01807228848338,175.5565610243939 83.11144578270614,165.92066965880804 58.46987951826304,183.7753828347195 60.17771084327251,195.11164843314327 71.15662650577724,197.66230174619704 96.04216867405921,181.224716628436 95.55421686731279,173.0058871882502 84.08734939806163,166.7708967269864 59.689759036526084,181.79153154580854 60.17771084327251,194.54483626410365 71.15662650577724,197.66230174619704 95.79819277115166,181.50812410190701 93.846385541372,170.7386195671279 79.93975903652608,168.75475886370987 59.689759036526084,182.07493896060623 59.689759036526084,194.2614301352296 70.1807228922844,198.2291132719256 95.31024096347392,182.64175370242447 97.75,175.83996908273548 83.11144578270614,166.7708967269864 58.95783132594079,182.92516102921218 60.909638554789126,195.961866467027 71.88855421636254,198.2291132719256 96.04216867405921,181.79153154580854 95.55421686731279,173.0058871882502 80.67168674711138,168.47135007451288 58.71385542117059,184.62560437759385 61.153614458628,196.52867834363133 73.59638554230332,197.3788959395606 95.79819277115166,181.224716628436 85.30722891539335,166.7708967269864 81.40361445769668,167.3377146271523 59.689759036526084,182.3583463456016 57.25,189.7269281060435 60.66566265095025,196.24527241964824 71.64457831438631,197.66230174619704 96.77409638464451,180.3744940336328 93.35843373462558,170.1718023691792 85.30722891539335,166.2040787115693 78.71987951826304,167.90453240904026 58.71385542117059,184.05879004509188 62.37349397595972,197.09549010335468 72.13253012113273,199.07933034119196 96.77409638464451,181.224716628436" stroke="#ff1500" stroke-linecap="round" stroke-linejoin="round" stroke-width="0.5"><title>2021-02-08 3.1km</title></polyline><polyline fill="none" points="103.6000000005588,187.51825253735296 104.6800000006333,196.9273481303826 113.05000000074506,200.69097821461037 139.24000000022352,184.068243523594 141.12999999988824,171.5227231986355 137.3500000005588,166.19086138485 128.98000000044703,164.9363043049816 104.41000000108033,185.00915546063334 102.52000000141561,194.4182588190306 115.48000000044703,201.0046138446778 140.86000000033528,182.1864187750034 139.77999999932945,169.01361292111687 131.95000000018626,163.99538615555502 103.33000000100583,185.00915546063334 104.6800000006333,197.24098414904438 116.29000000096858,201.0046138446778 141.3999999994412,180.93186829565093 141.12999999988824,168.69997399137355 129.5200000014156,164.62266495334916 105.21999999973923,183.44096873654053 103.06000000052154,194.73189509660006 117.1000000005588,200.37734255194664 140.05000000074506,183.12733129505068 142.21000000089407,170.89544582366943 129.25,164.9363043049816 104.14000000152737,184.6955181809608 104.41000000108033,196.30007599643432 109.27000000048429,200.06370685691945 118.99000000115484,199.1227995788213 141.3999999994412,183.12733129505068 140.32000000122935,168.07269603433087 128.71000000089407,165.2499436228536 104.41000000108033,184.068243523594 103.87000000104308,195.98643988068216 117.64000000059605,199.7500711302273 141.12999999988824,181.8727812038269 142.75,172.77727756113745 129.25,165.2499436228536 104.41000000108033,184.38188086799346 102.25,193.16371338744648 107.92000000085682,199.7500711302273 116.8300000000745,200.37734255194664 140.32000000122935,183.75460614589974 142.48000000044703,171.5227231986355 138.4300000006333,166.19086138485 129.25,165.2499436228536 104.41000000108033,184.068243523594 104.95000000111759,196.61371208005585 116.29000000096858,200.37734255194664 139.24000000022352,183.12733129505068" stroke="#4dd2ff" stroke-linecap="round" stroke-linejoin="round" stroke-width="0.5"><title>2021-02-09 3.0km</title></polyline><polyline fill="none" points="147.25,186.84502608026378 149.0557324839756,195.2353075989522 161.6958598718047,198.2318308390677 177.94745222944766,188.64294558833353 187.75,177.5557575575076 174.33598726149648,166.76818263856694 148.79777070134878,182.94952999427915 148.0238853506744,194.63600257970393 158.08439490385354,199.43043926986866 186.20222929958254,182.6498762324918 187.49203821644187,176.6567945110146 179.49522292986512,167.36749340663664 163.50159235764295,172.76128476136364 147.50796178355813,185.64641245640814 151.63535031862557,198.2318308390677 163.50159235764295,198.83113511605188 187.49203821644187,178.75437452015467 183.8805732484907,170.96335542341694 170.20859872549772,167.96680405270308 149.31369426753372,181.1516069616191 151.37738853413612,197.93217865447514 162.2117834398523,199.13078720890917 184.9124203817919,184.74745191354305 184.39649681467563,171.56266532675363 177.68949044588953,165.56956073013134 155.50477707013488,176.95644889120013" stroke="#4dd2ff" stroke-linecap="round" stroke-linejoin="round" stroke-width="0.5"><title>2021-02-17 1.6km</title></polyline><polyline fill="none" points="16.37738853506744,251.69520278507844 13.02388535067439,252.29450928838924 14.055732484906912,261.5837442702614 21.794585986994207,264.5802653466817 47.84872611518949,248.99832199211232 51.97611464932561,240.6080101793632 38.562101911753416,230.71939728572033 15.603503186255693,246.00178484153003 14.055732484906912,259.78583014104515 26.69585987366736,264.2806133783888 49.91242038272321,249.2979755376 51.7181528666988,236.11319031077437 38.562101911753416,230.71939728572033 14.829617835581303,247.20040007284842 13.02388535067439,257.98791489796713 25.921974522061646,263.68130934843794 50.94426751602441,247.79970750305802 52.49203821644187,239.10973766213283 46.04299363028258,231.91801882372238 37.272292993962765,231.01905271713622 14.829617835581303,247.20040007284842 14.57165605109185,260.68478734372184 25.406050955876708,264.5802653466817 51.7181528666988,246.90074631106108 52.75,238.51042843959294 41.65764331165701,229.82043080870062 16.11942675244063,245.4024770401884 13.281847134232521,259.1865251827985 26.69585987366736,263.08200519462116 51.46019108314067,246.30143869575113 49.13853503204882,235.21422550198622 37.78821656201035,231.61836348520592 14.57165605109185,247.79970750305802 12.25,258.2875675163232 18.18312101904303,264.2806133783888 26.43789809010923,265.1795691915322 49.91242038272321,248.99832199211232 50.68630573246628,237.9111190927215 37.78821656201035,231.91801882372238 14.055732484906912,248.69866841635667 14.829617835581303,260.98443968384527 25.406050955876708,264.5802653466817 50.68630573246628,247.79970750305802 48.88057324755937,233.71595020289533 37.014331210404634,230.71939728572033 12.76592356711626,249.89728253497742 14.57165605109185,260.98443968384527 22.568471337668598,264.2806133783888 50.94426751602441,248.39901480963454" stroke="#ff1900" stroke-linecap="round" stroke-linejoin="round" stroke-width="0.5"><title>2021-02-18 3.0km</title></polyline><polyline fill="none" points="59.26242236047983,250.2760395030491 57.75310559011996,258.4578668226022 67.56366459559649,265.47084285737947 89.19720496889204,252.61370686278678 96.74378881976008,240.9253507705871 86.93322981335223,230.11357844411395 61.52639751508832,244.72407179116271 59.01086956448853,255.24358033761382 64.04192546568811,262.5487716195639 69.8276397511363,262.84097887948155 94.73136645834893,247.35395258991048 94.98291925434023,236.24999482906424 84.9208074528724,230.11357844411395 65.04813664592803,242.3863979196176 57.75310559011996,254.3669561170973 63.03571428544819,261.67214965983294 71.84006211068481,262.84097887948155 91.7127329185605,250.56824802840129 96.4922360247001,237.71104438998736 84.41770186368376,231.28242068458349 61.52639751508832,245.89290800318122 57.501552794128656,253.49033162579872 59.51397515553981,259.6266973668244 67.06055900640786,262.5487716195639 90.95807453338057,250.86045652348548 97.4984472040087,240.9253507705871 88.94565217383206,230.11357844411395 65.29968944005668,241.8019791508559 57.25,253.49033162579872 61.7779503101483,261.67214965983294 70.83385093137622,262.5487716195639 94.47981366422027,248.23057898017578 96.2406832287088,237.41883453796618 83.66304347850382,230.69799962523393 61.52639751508832,245.30848995759152 57.501552794128656,249.39941374538466 58.25621117930859,257.289035795955 63.79037267062813,263.4253933073487 72.34316770173609,263.7176004766952 91.46118012443185,251.15266498923302 97.24689440988004,241.50976972142234 85.17236024793237,231.57463116990402 66.80900621041656,241.2175602603238 57.501552794128656,254.65916422009468 68.31832298077643,262.5487716195639 94.2282608691603,248.23057898017578 97.75,239.46430286788382 85.92701863311231,229.52915714285336 59.51397515553981,247.35395258991048 59.51397515553981,258.4578668226022 64.29347826074809,261.96435701008886 75.36180124152452,260.79552743048407 94.98291925434023,248.23057898017578" stroke="#ff1c00" stroke-linecap="round" stroke-linejoin="round" stroke-width="0.5"><title>2021-02-19 3.0km</title></polyline><polyline fill="none" points="102.25,252.5300816348754 104.28773584961891,260.5189351479057 117.53301886841655,264.3654122368898 141.9858490563929,247.50005134101957 141.9858490563929,236.84819336235523 135.61792452819645,230.93047739192843 129.5047169821337,230.93047739192843 104.28773584961891,248.09182006819174 106.83490566164255,261.40658416436054 121.35377358552068,261.9983500230592 142.75,245.7247444249224 140.7122641503811,234.77699416154064 128.4858490563929,231.2263634807896 104.54245283082128,247.79593571997248 105.8160377368331,261.11070118960924 117.53301886841655,263.4777641352266 141.4764150949195,246.90828249114566 142.24056603759527,238.62350577278994 132.5613207546994,230.33870512410067 126.70283018890768,231.52224953914993 104.79716981295496,247.50005134101957 103.26886792574078,255.78480241890065 108.87264151033014,262.2942329070065 125.68396226502955,259.6312858557794 141.4764150949195,246.31651351903565 142.49528301972896,240.69470219570212 133.07075471803546,232.40990752959624 123.900943396613,233.00167937087826 103.77830188721418,249.5712413538713 109.38207547273487,262.2942329070065 121.099056603387,261.702467108611 142.49528301972896,243.35766682820395 138.1650943402201,233.00167937087826 129.5047169821337,230.93047739192843 106.58018867950886,245.42885983223096 103.52358490601182,256.67245290079154 114.73113207612187,264.66129487589933 140.7122641503811,248.09182006819174 141.73113207612187,239.51116156601347 130.52358490601182,230.33870512410067 105.8160377368331,246.31651351903565 104.28773584961891,257.5601031074766 118.29716981202364,261.702467108611 138.92924528382719,249.5712413538713 141.22169811371714,236.25642231456004 128.4858490563929,230.63459127303213 105.8160377368331,246.31651351903565 103.01415094360709,251.93831382272765 106.07075471803546,259.9271689839661 117.78773584961891,261.9983500230592 137.14622641634196,250.75477783218957 142.24056603759527,240.10293194139376 127.46698113251477,231.52224953914993 105.051886793226,247.50005134101957" stroke="#ff0000" stroke-linecap="round" stroke-linejoin="round" stroke-width="0.5"><title>2021-02-20 3.2km</title></polyline><polyline fill="none" points="147.25,257.38861225917935 157.05254777055234,264.5802672947757 162.98566878959537,263.6813113891985 183.36464968137443,249.8972859971691 187.75,242.1062861897517 185.68630573153496,233.41630021296442 175.36783439479768,230.7194027272053 149.82961783464998,249.8972859971691 149.3136942666024,258.5872226683423 161.17993630561978,264.2806153567508 185.68630573153496,248.09936481970362 186.7181528666988,234.0156104255002 172.27229299396276,231.318713495275 150.60350318439305,247.5000575131271 149.57165605109185,259.48618015111424 164.01751592289656,263.08200729754753 187.49203821551055,245.40248096571304 184.9124203827232,231.61836883379146 170.72452229261398,233.11664506001398 150.60350318439305,248.6986720021814 151.11942675244063,262.48270308133215 165.30732484068722,262.78235520469025 186.9761146493256,246.60109632113017 186.7181528666988,234.0156104255002 172.7882165601477,231.0190581267234 153.18312101904303,245.7021348515991 149.0557324839756,258.8868751928676 161.43789808824658,264.5802672947757 185.9442675150931,247.5000575131271 187.75,233.11664506001398 177.94745222851634,229.22112526348792 149.57165605109185,249.5976325450465 149.3136942666024,260.68478969391435 161.6958598718047,265.7788747365121 184.9124203827232,247.5000575131271 186.46019108220935,235.513885415392 173.3041401281953,230.7194027272053 150.60350318439305,248.09936481970362 148.79777070041746,256.78930686879903 152.1512738848105,262.48270308133215 166.08121019043028,261.8833987431135 186.9761146493256,243.9042110776063 184.3964968137443,232.2176794174593 172.7882165601477,230.1200918345712 151.37738853413612,246.9007500829175 149.82961783464998,260.0854849838652 157.05254777055234,264.8799192016013 165.30732484068722,262.18305092770606 184.65445859823376,247.79971118154936" stroke="#ff1c00" stroke-linecap="round" stroke-linejoin="round" stroke-width="0.5"><title>2021-02-21 3.0km</title></polyline></svg>