<?xml version="1.0" encoding="utf-8" ?>
<svg baseProfile="full" height="300mm" version="1.1" viewBox="0,0,200,300" width="200mm" xmlns="http://www.w3.org/2000/svg" xmlns:ev="http://www.w3.org/2001/xml-events" xmlns:xlink="http://www.w3.org/1999/xlink"><defs /><rect fill="#222222" height="300" width="200" x="0" y="0" /><text fill="#FFFFFF" style="font-size:12px; font-family:Arial; font-weight:bold;" x="10" y="20">Over 3km Runs</text><text fill="#FFFFFF" style="font-size:4px; font-family:Arial" x="10" y="280">ATHLETE</text><text fill="#FFFFFF" style="font-size:9px; font-family:Arial" x="10" y="290">Licardo</text><text fill="#FFFFFF" style="font-size:4px; font-family:Arial" x="120" y="280">STATISTICS</text><text fill="#FFFFFF" style="font-size:3px; font-family:Arial" x="120" y="285">Number: 5</text><text fill="#FFFFFF" style="font-size:3px; font-family:Arial" x="120" y="290">Weekly: 2.5</text><text fill="#FFFFFF" style="font-size:3px; font-family:Arial" x="141" y="285">Total: 15.3 km</text><text fill="#FFFFFF" style="font-size:3px; font-family:Arial" x="141" y="290">Avg: 3.1 km</text><text fill="#FFFFFF" style="font-size:3px; font-family:Arial" x="167" y="285">Min: 3.0 km</text><text fill="#FFFFFF" style="font-size:3px; font-family:Arial" x="167" y="290">Max: 3.1 km</text><polyline fill="none" points="17.83999999985099,81.98800636921078 24.080000000074506,100.38799939537421 40.87999999895692,97.04255077568814 80.72000000067055,68.60615391517058 82.64000000059605,48.53331311233342 70.16000000201166,37.939283745363355 59.12000000104308,39.05444570770487 16.399999998509884,73.06677508121356 16.880000000819564,93.69710008753464 42.80000000074506,98.71527534490451 82.16000000014901,65.81826381711289 83.60000000149012,44.07267169933766 58.6399999987334,38.49686475517228 17.83999999985099,72.50919763604179 16.880000000819564,94.8122505475767 42.31999999843538,98.15770054748282 81.20000000111759,66.93342002900317 84.56000000238419,45.745412660297006 60.080000000074506,37.38170267594978 18.799999998882413,69.1637317626737 18.320000000298023,94.25467534689233 35.59999999962747,102.61829732405022 83.60000000149012,64.14552906807512 80.23999999836087,41.842349611688405 54.31999999843538,39.61202660435811 16.399999998509884,70.2788872839883 20.239999998360872,96.48497580550611 42.31999999843538,96.48497580550611 80.72000000067055,65.81826381711289 86.0,50.76363243861124 78.80000000074506,40.727188223507255 58.16000000014901,38.49686475517228 15.919999999925494,70.83646495826542 15.43999999947846,92.02437396813184 35.11999999731779,98.71527534490451 80.72000000067055,70.2788872839883 83.11999999918044,49.09089302876964 60.56000000052154,37.939283745363355 16.880000000819564,71.39404257480055 19.279999999329448,97.04255077568814 41.3600000012666,99.27285008644685 82.16000000014901,65.26068562362343 77.83999999985099,39.61202660435811 55.75999999977648,38.49686475517228 14.959999999031425,75.29708428354934 14.0,87.00619249790907 24.080000000074506,99.83042476978153 41.83999999985099,98.15770054748282 83.11999999918044,62.47279380215332 84.56000000238419,46.30299286497757 70.64000000059605,37.939283745363355 46.64000000059605,46.86057301424444" stroke="#ff0000" stroke-linecap="round" stroke-linejoin="round" stroke-width="0.5"><title>2021-01-25 3.1km</title></polyline><polyline fill="none" points="114.0,80.03649255959317 118.8000000026077,95.64862154517323 138.96000000089407,102.33952016197145 185.51999999955297,69.44252220960334 186.0,47.13935885997489 167.75999999977648,37.10290532698855 157.19999999925494,39.33322994504124 114.96000000089407,73.90314383478835 116.40000000037253,94.53347096825019 132.24000000022352,101.22437096759677 184.5599999986589,69.44252220960334 181.68000000156462,43.23629581136629 158.64000000059605,37.660486568231136 117.84000000171363,70.55767796142027 120.7199999988079,97.32134697539732 147.12000000104308,97.32134697539732 161.51999999955297,80.59406937193125 185.51999999955297,69.44252220960334 179.27999999932945,42.67871514568105 153.3600000012666,41.00597280357033 117.84000000171363,68.88494424708188 118.32000000029802,95.09104628534988 133.68000000156462,102.89709467347711 184.5599999986589,68.88494424708188 178.80000000074506,44.351456969976425 170.64000000059605,37.10290532698855 153.3600000012666,39.890810954384506 116.88000000081956,72.78798877308145 118.32000000029802,93.9758955957368 144.24000000022352,96.76377189019695 184.5599999986589,70.00010011391714 181.68000000156462,43.793876418843865 159.11999999918044,39.33322994504124 116.88000000081956,72.23041115701199 118.32000000029802,97.87892200332135 139.9199999999255,100.66679628472775 183.59999999962747,65.53947526682168 185.04000000096858,44.90903746383265 157.19999999925494,41.00597280357033 115.43999999947846,74.46072127996013 117.3600000012666,95.64862154517323 138.0,100.66679628472775 181.68000000156462,70.55767796142027 183.59999999962747,42.67871514568105 156.72000000067055,39.33322994504124 115.92000000178814,77.24860763875768 118.32000000029802,97.87892200332135 139.9199999999255,101.22437096759677 182.160000000149,66.0970535739325" stroke="#ff9100" stroke-linecap="round" stroke-linejoin="round" stroke-width="0.5"><title>2021-01-26 3.0km</title></polyline><polyline fill="none" points="34.69461077824235,138.48125187586993 17.449101796373725,160.51726600714028 22.191616766154766,173.03768402291462 35.988023951649666,179.04747319966555 80.82634730450809,152.5041815326549 85.13772455230355,138.48125187586993 81.25748503021896,129.4664899930358 63.58083832450211,123.45663943653926 24.34730538725853,146.99517828319222 16.15568862296641,164.52380328718573 34.26347305253148,179.5482886293903 81.68862275406718,152.0033633140847 86.0,139.48289105203003 78.67065868340433,126.46156564494595 64.01197604835033,122.45499695558101 22.191616766154766,148.99845291581005 19.60479041747749,172.0360517683439 38.57485030032694,179.5482886293903 85.13772455230355,148.99845291581005 82.98203592933714,130.46813102904707 71.34131736494601,122.45499695558101 56.25149700418115,124.95910277403891 17.88023952022195,154.00663588009775 14.0,163.02135219424963 19.60479041747749,172.53686792124063 42.886227544397116,178.54665771871805 84.70658682659268,150.00008992198855 82.98203592933714,131.46977185830474 56.25149700418115,124.95910277403891 22.622754491865635,148.4976343358867 19.173652693629265,171.53523556515574 37.28143712691963,179.5482886293903 82.98203592933714,150.00008992198855 81.68862275406718,130.96895146975294 64.01197604835033,121.95417563524097 22.622754491865635,148.99845291581005 18.74251496978104,170.53360300371423 39.868263471871614,178.54665771871805 79.1017964091152,152.0033633140847 80.39520958065987,132.97223271382973 58.4071856290102,124.45828171400353 21.32934131845832,148.4976343358867 18.311377244070172,170.53360300371423 40.29940119571984,177.54502660315484 81.68862275406718,152.5041815326549 85.13772455230355,132.97223271382973 79.96407185681164,124.45828171400353 60.56287425197661,120.45171137014404 20.46706586703658,148.99845291581005 14.862275447696447,162.01971787493676 23.053892213851213,175.04094790760428 47.19760479032993,173.53850007103756" stroke="#ff4400" stroke-linecap="round" stroke-linejoin="round" stroke-width="0.5"><title>2021-01-28 3.1km</title></polyline><polyline fill="none" points="128.1502890177071,150.9669815376401 114.0,153.8676732960157 124.82080924883485,174.17246532812715 139.387283237651,176.5896966145374 184.7514450866729,148.54973703529686 186.0,134.04624383477494 166.02312138862908,121.95996521273628 127.31791907548904,149.5166349853389 123.98843930847943,171.27178613794968 141.46820809319615,176.5896966145374 182.67052023112774,144.68214323744178 184.7514450866729,130.6620889622718 178.09248554892838,123.41032029222697 158.5317919086665,123.41032029222697 126.06936416216195,150.48353273700923 121.90751445107162,168.37110515357926 143.54913294687867,175.62280424917117 181.83815028890967,146.13249128544703 182.67052023112774,128.72828508075327 159.78034682013094,121.95996521273628 126.48554913513362,150.48353273700923 121.07514450885355,158.70215556770563 125.23699422180653,171.27178613794968 142.71676300652325,175.62280424917117 183.08670520223677,144.19869378767908 184.33526011556387,130.17863806756213 163.10982659086585,121.95996521273628 126.06936416216195,150.00008388701826 123.15606936439872,168.37110515357926 139.387283237651,178.04003478772938 184.33526011556387,142.26489549176767 179.75722543522716,124.37722343066707 156.45086705312133,124.8606749237515 123.98843930847943,151.45043028937653 127.31791907548904,172.72212595678866 144.38150289282203,175.1393579924479 182.2543352600187,146.13249128544703 179.75722543522716,127.76138284103945 158.11560693755746,124.37722343066707 123.57225433550775,152.41732764150947 120.65895953774452,161.11939483508468 127.73410404659808,173.20557246310636 142.30057803541422,177.0731427227147 183.91907514631748,144.19869378767908 177.26011560857296,122.4434169549495 157.69942196458578,124.8606749237515 123.98843930847943,151.93387898989022 121.49132948182523,165.47042237222195 131.06358381733298,177.55658878060058 146.46242774650455,174.17246532812715 181.00578034855425,147.09938973514363" stroke="#ff2300" stroke-linecap="round" stroke-linejoin="round" stroke-width="0.5"><title>2021-01-29 3.1km</title></polyline><polyline fill="none" points="28.30463576130569,214.21434570057318 14.0,239.13919094763696 27.82781456783414,256.86345495050773 55.96026489883661,250.7707458003424 83.13907284662127,230.83092205459252 86.0,220.30709633463994 79.80132450163364,204.79826293792576 54.05298013240099,202.02882368909195 15.907284766435623,233.04646168323234 17.814569536596537,254.64792515104637 40.22516556084156,257.97121950797737 79.3245033081621,228.06149623403326 78.84768212027848,203.1365995616652 52.62251655571163,200.92104758974165 14.476821191608906,233.04646168323234 14.476821191608906,250.7707458003424 28.30463576130569,261.84839365957305 39.748344369232655,260.74062990257517 81.231788078323,221.9687544000335 70.26490066200495,199.25938301160932 53.09933774918318,199.8132712622173 19.245033111423254,228.06149623403326 14.953642385080457,249.66297975555062 39.27152317762375,259.6328659155406 79.80132450163364,225.8459545490332 82.18543046154082,210.33713715150952 72.17218543030322,198.15160634042695 51.192052979022264,202.02882368909195 16.384105959907174,230.83092205459252 17.814569536596537,256.86345495050773 39.748344369232655,259.6328659155406 81.231788078323,224.7381833619438 80.7549668867141,204.24437520327047 56.43708609044552,199.25938301160932 14.476821191608906,234.1542311552912 16.86092715151608,253.54015990765765 42.132450331002474,257.41733725881204 81.70860926993191,226.39984005549923 78.84768212027848,204.79826293792576 57.390728475525975,198.70549470419064 14.953642385080457,233.04646168323234 15.907284766435623,252.9862771993503 35.93377483449876,259.078983837273 79.80132450163364,227.50761089846492 84.56953642331064,216.98377866391093 76.46357615850866,202.02882368909195 56.43708609044552,199.25938301160932 15.907284766435623,231.38480704836547 19.245033111423254,256.86345495050773 34.503311255946755,261.2945118099451 79.80132450163364,226.95372550515458" stroke="#4dd2ff" stroke-linecap="round" stroke-linejoin="round" stroke-width="0.5"><title>2021-02-01 3.0km</title></polyline></svg>