<?xml version="1.0" encoding="utf-8" ?>
<svg baseProfile="full" height="300mm" version="1.1" viewBox="0,0,200,300" width="200mm" xmlns="http://www.w3.org/2000/svg" xmlns:ev="http://www.w3.org/2001/xml-events" xmlns:xlink="http://www.w3.org/1999/xlink"><defs /><rect fill="#222222" height="300" width="200" x="0" y="0" /><text fill="#FFFFFF" style="font-size:12px; font-family:Arial; font-weight:bold;" x="10" y="20">Over 3km Runs</text><text fill="#FFFFFF" style="font-size:4px; font-family:Arial" x="10" y="280">ATHLETE</text><text fill="#FFFFFF" style="font-size:9px; font-family:Arial" x="10" y="290">Licardo</text><text fill="#FFFFFF" style="font-size:4px; font-family:Arial" x="120" y="280">STATISTICS</text><text fill="#FFFFFF" style="font-size:3px; font-family:Arial" x="120" y="285">Number: 15</text><text fill="#FFFFFF" style="font-size:3px; font-family:Arial" x="120" y="290">Weekly: 3.8</text><text fill="#FFFFFF" style="font-size:3px; font-family:Arial" x="141" y="285">Total: 44.2 km</text><text fill="#FFFFFF" style="font-size:3px; font-family:Arial" x="141" y="290">Avg: 2.9 km</text><text fill="#FFFFFF" style="font-size:3px; font-family:Arial" x="167" y="285">Min: 1.6 km</text><text fill="#FFFFFF" style="font-size:3px; font-family:Arial" x="167" y="290">Max: 3.2 km</text><polyline fill="none" points="14.703999999910593,61.19280382152647 18.44800000078976,72.2327996371314 28.528000000864267,70.22553046559915 52.43200000189245,53.16369234910235 53.58400000073016,41.11998786730692 46.096000000834465,34.76357024721801 39.47200000099838,35.43266742466949 13.839999999850988,55.840065048774704 14.128000000491738,68.21826005261391 29.680000001564622,71.22916520689614 53.29600000195205,51.490958290407434 54.16000000201166,38.44360301969573 39.18400000035763,35.0981188530568 14.703999999910593,55.505518581718206 14.128000000491738,68.88735032849945 29.392000000923872,70.89462032844312 52.7200000025332,52.16005201730877 54.73600000143051,39.44724759622477 40.04800000041723,34.4290216055233 15.279999999329448,53.49823905760422 14.992000000551343,68.5528052081354 25.3600000012666,73.5709783944767 54.16000000201166,50.487317440798506 52.1440000012517,37.10540976701304 36.592000000178814,35.76721596252173 13.839999999850988,54.16733237053268 16.143999999389052,69.89098548330367 29.392000000923872,69.89098548330367 52.43200000189245,51.490958290407434 55.600000001490116,42.45817946293391 51.28000000119209,36.43631293415092 38.89600000157952,35.0981188530568 13.552000001072884,54.501878974959254 13.264000000432134,67.21462438092567 25.07200000062585,71.22916520689614 52.43200000189245,54.16733237053268 53.87200000137091,41.454535817261785 40.33600000105798,34.76357024721801 14.128000000491738,54.836425544694066 15.567999999970198,70.22553046559915 28.816000001505017,71.56371005205438 53.29600000195205,51.156411374220625 50.70400000177324,35.76721596252173 37.45600000023842,35.0981188530568 12.975999999791384,57.17825057008304 12.400000000372529,64.20371549855918 18.44800000078976,71.89825486182235 29.104000000283122,70.89462032844312 53.87200000137091,49.48367628129199 54.73600000143051,39.781795718939975 46.384000001475215,34.76357024721801 31.984000001102686,40.11634380859323" stroke="#ff1300" stroke-linecap="round" stroke-linejoin="round" stroke-width="0.5"><title>2021-01-25 3.1km</title></polyline><polyline fill="none" points="78.40000000037253,60.02189553552307 81.2800000011921,69.3891729270108 93.37600000202656,73.40371209708974 121.31200000084937,53.66551332571544 121.60000000149012,40.28361531579867 110.656000001356,34.26174319605343 104.32000000029802,35.59993796679191 78.97600000165403,56.341886300826445 79.84000000171363,68.72008258104324 89.34400000236928,72.73462258046493 120.73600000143051,53.66551332571544 119.0080000013113,37.94177748658694 105.18400000035763,34.596291940892115 80.70400000177324,54.33460677671246 82.4320000000298,70.39280818519183 98.27200000174344,70.39280818519183 106.91200000047684,60.35644162306562 121.31200000084937,53.66551332571544 117.56800000183284,37.607229087268934 102.01600000075996,36.60358368209563 80.70400000177324,53.33096654806286 80.99200000055134,69.05462777125649 90.20800000242889,73.73825680394657 120.73600000143051,53.33096654806286 117.2800000011921,38.61087418207899 112.38400000147521,34.26174319605343 102.01600000075996,35.9344865726307 80.12800000049174,55.672793263802305 80.99200000055134,68.38553735730238 96.54400000162423,70.05826313397847 120.73600000143051,54.00006006821059 119.0080000013113,38.27632585121319 105.47200000099838,35.59993796679191 80.12800000049174,55.33824669406749 80.99200000055134,70.72735320194624 93.95200000144541,72.40007777069695 120.16000000014901,51.323685160139576 121.02400000207126,38.94542247825302 104.32000000029802,36.60358368209563 79.26400000043213,56.67643276788294 80.41600000113249,69.3891729270108 92.80000000074506,72.40007777069695 119.0080000013113,54.33460677671246 120.16000000014901,37.607229087268934 104.03200000151992,35.59993796679191 79.55200000107288,58.349164583021775 80.99200000055134,70.72735320194624 93.95200000144541,72.73462258046493 119.29600000195205,51.65823214431293" stroke="#ff1b00" stroke-linecap="round" stroke-linejoin="round" stroke-width="0.5"><title>2021-01-26 3.0km</title></polyline><polyline fill="none" points="156.8167664669454,47.08875112561509 146.46946107782423,60.310359604656696 149.31497005932033,67.82261041388847 157.5928143709898,71.42848391993903 184.4958083825186,55.50250891968608 187.08263473119587,47.08875112561509 184.75449101813138,41.67989399586804 174.14850299432874,38.073983662063256 150.60838323272765,52.19710697024129 145.69341317284852,62.7142819724977 156.55808383133262,71.72897317772731 185.01317365281284,55.20201798877679 187.59999999962747,47.68973463145085 183.20239520911127,39.8769393870607 174.4071856290102,37.47299817344174 149.31497005932033,53.399071749765426 147.76287425030023,67.2216310610529 159.1449101800099,71.72897317772731 187.08263473119587,53.399071749765426 185.78922155685723,42.280878617661074 178.80479041859508,37.47299817344174 169.75089820288122,38.97546166460961 146.72814371157438,56.40398152824491 144.40000000037253,61.81281131692231 147.76287425030023,67.52212075307034 161.7317365258932,71.1279946314171 186.82395209558308,54.00005395337939 185.78922155685723,42.88186311512254 169.75089820288122,38.97546166460961 149.57365269493312,53.098580601625144 147.5041916165501,66.92114133923315 158.3688622759655,71.72897317772731 185.78922155685723,54.00005395337939 185.01317365281284,42.58137088222429 174.4071856290102,37.17250538151711 149.57365269493312,53.399071749765426 147.24550898186862,66.32016180222854 159.92095808312297,71.1279946314171 183.46107784472406,55.20201798877679 184.23712574783713,43.78333962871693 171.04431137721986,38.674969028448686 148.7976047899574,53.098580601625144 146.98682634625584,66.32016180222854 160.17964071780443,70.5270159621723 185.01317365281284,55.50250891968608 187.08263473119587,43.78333962871693 183.97844311408699,38.674969028448686 172.3377245515585,36.27102682227269 148.28023952059448,53.399071749765426 144.91736526880413,61.211830725194886 149.83233532775193,69.02456874470226 164.31856287363917,68.1231000428088" stroke="#ff1700" stroke-linecap="round" stroke-linejoin="round" stroke-width="0.5"><title>2021-01-28 3.1km</title></polyline><polyline fill="none" points="20.890173410996795,102.58018892235123 12.400000000372529,104.32060397719033 18.892485549673438,116.50347919669002 27.632369942963123,117.9538179684896 54.850867052562535,101.12984222080559 55.60000000055879,92.42774630058557 43.613872833549976,85.17597912740894 20.390751445665956,101.70998099120334 18.39306358527392,114.76307168253697 28.88092485629022,117.9538179684896 53.602312138304114,98.80928594223224 54.850867052562535,90.39725337713026 50.85549132991582,86.04619217524305 39.119075145572424,86.04619217524305 19.641618497669697,102.29011964215897 17.1445086710155,113.02266309200786 30.129479768685997,117.37368254945613 53.1028901739046,99.67949477117509 53.602312138304114,89.2369710484054 39.86820809263736,85.17597912740894 19.89132948126644,102.29011964215897 16.645086705684662,107.22129334066994 19.14219653327018,114.76307168253697 29.63005780428648,117.37368254945613 53.85202312190086,98.51921627228148 54.601156069897115,90.10718284035102 41.86589595489204,85.17597912740894 19.641618497669697,102.00005033193156 17.89364161901176,113.02266309200786 27.632369942963123,118.82402087259106 54.601156069897115,97.3589372949209 51.85433526150882,86.62633405812085 37.870520232245326,86.91640495415777 18.39306358527392,102.87025817343965 20.390751445665956,115.63327557384036 30.62890173587948,117.08361479523592 53.35260115657002,99.67949477117509 51.85433526150882,88.6568297042977 38.869364162907004,86.62633405812085 18.14335260167718,103.45039658481255 16.395375723019242,108.67163690086454 20.640462428331375,115.92334347753786 29.38034682162106,118.24388563330285 54.351445087231696,98.51921627228148 50.35606936458498,85.46605017292313 38.61965317931026,86.91640495415777 18.39306358527392,103.16032739379443 16.894797689281404,111.28225342324004 22.638150290586054,118.53395326808095 31.877456648275256,116.50347919669002 52.60346820950508,100.25963384076022" stroke="#ff1500" stroke-linecap="round" stroke-linejoin="round" stroke-width="0.5"><title>2021-01-29 3.1km</title></polyline><polyline fill="none" points="86.98278145678341,92.52860742039047 78.40000000037253,107.48351456876844 86.6966887395829,118.11807297030464 103.57615893892944,114.46244748029858 119.88344370760024,102.49855323298834 121.59999999962747,96.18425780092366 117.88079470209777,86.87895776284859 102.4317880794406,85.21729421359487 79.54437085986137,103.8278770102188 80.68874172121286,116.78875509067439 94.13509933650494,118.78273170511238 117.59470198489726,100.83689774060622 117.30860927142203,85.88195973704569 101.57350993342698,84.55262855393812 78.68609271384776,103.8278770102188 78.68609271384776,114.46244748029858 86.98278145678341,121.1090361957904 93.84900662116706,120.44437794177793 118.73907284624875,97.18125264020637 112.15894039720297,83.55562980729155 101.85960264876485,83.88796275760978 81.54701986722648,100.83689774060622 78.97218543104827,113.79778785351664 93.56291390769184,119.77971954946406 117.88079470209777,99.50757272937335 119.31125827692449,90.20228229113854 113.30331125855446,82.89096380444244 100.71523178741336,85.21729421359487 79.83046357706189,102.49855323298834 80.68874172121286,118.11807297030464 93.84900662116706,119.77971954946406 118.73907284624875,98.84291001735255 118.45298013277352,86.54662512219511 103.86225165426731,83.55562980729155 78.68609271384776,104.49253869312815 80.11655629053712,116.12409594468772 95.27947019785643,118.45040235552005 119.02516556158662,99.83990403357893 117.30860927142203,86.87895776284859 104.43443708494306,83.22329682251438 78.97218543104827,103.8278770102188 79.54437085986137,115.79176631988958 91.56026490032673,119.44739030255005 117.88079470209777,100.50456653931178 120.74172185361385,94.19026719848625 115.87814569473267,85.21729421359487 103.86225165426731,83.55562980729155 79.54437085986137,102.83088422915898 81.54701986722648,118.11807297030464 90.70198675431311,120.77670708601363 117.88079470209777,100.17223530332558" stroke="#4dd2ff" stroke-linecap="round" stroke-linejoin="round" stroke-width="0.5"><title>2021-02-01 3.0km</title></polyline><polyline fill="none" points="152.2545454557985,98.08977168635465 144.68051948212087,109.49476722092368 154.218181819655,120.5738663082011 183.95324675459415,102.32591769215651 187.6000000005588,93.85361999995075 185.6363636367023,87.3364524662029 177.22077922150493,82.44856799021363 163.1948051964864,89.61746263271198 145.8025974035263,106.56205801595934 147.20519480668008,116.33774477429688 155.05974026117474,121.55143200978637 182.55064935144037,102.65177484136075 187.3194805206731,95.15705189318396 180.8675324684009,84.40372268809006 168.52467532549053,85.381299583707 145.8025974035263,105.58448767638765 146.083116883412,115.0343216219917 150.85194805264473,119.59630030486733 160.38961039017886,119.9221556733828 186.47792207822204,96.7863410031423 183.67272727377713,85.381299583707 170.48831168934703,84.40372268809006 146.64415584504604,104.93277394818142 150.57142857275903,119.27044490352273 160.10909091122448,120.24801100767218 186.19740259833634,99.06734434538521 185.0753246769309,86.68473497242667 169.6467532487586,85.05544065195136 147.20519480668008,102.65177484136075 145.24155844189227,113.07918588351458 149.44935065042228,117.96702296030708 161.51168831344694,118.61873399815522 186.47792207822204,98.08977168635465 182.55064935144037,85.381299583707 170.20779220853,84.07786365645006 145.5220779236406,104.93277394818142 146.92467532586306,116.6636004790198 161.51168831344694,118.9445894677192 186.19740259833634,99.06734434538521 184.23376623354852,87.3364524662029 169.08571428619325,85.05544065195136 145.8025974035263,104.60691703413613 144.40000000037253,111.12404893478379 150.290909091942,118.9445894677192 162.35324675496668,118.29287849622779 186.47792207822204,99.71905928407796 182.83116883132607,85.05544065195136 167.40259740315378,85.70715848146938 146.64415584504604,102.9776319579687 149.16883116960526,118.29287849622779 162.07272727321833,118.61873399815522 187.03896103985608,97.43805641192012" stroke="#ff1a00" stroke-linecap="round" stroke-linejoin="round" stroke-width="0.5"><title>2021-02-02 3.0km</title></polyline><polyline fill="none" points="21.93766233790666,144.94926912384108 13.522077923640609,157.33183762035333 18.010389611124992,165.4782377902884 28.109090910293162,167.75922607281245 55.60000000055879,143.97169586014934 51.11168831307441,134.19594657514244 42.415584416128695,131.26321589038707 16.046753247268498,150.16298809158616 14.083116884343326,162.5455361485947 24.742857144214213,169.38850240921602 51.95324675459415,149.83713090792298 53.91688311845064,137.78039149264805 49.428571430034935,132.892511051381 39.32987013179809,131.9149340558797 15.205194806680083,150.4888452407904 14.363636365160346,163.19724786048755 25.023376623168588,168.73679197509773 51.11168831307441,150.4888452407904 55.319480520673096,141.364832341671 51.11168831307441,132.892511051381 41.01298701390624,131.9149340558797 19.41298701427877,146.2526996731758 13.241558441892266,160.91625628294423 21.93766233790666,169.38850240921602 54.19740259833634,146.2526996731758 49.70909090992063,131.26321589038707 36.80519480723888,132.56665208586492 16.327272728085518,149.51127369119786 13.241558441892266,156.02841164334677 16.327272728085518,165.4782377902884 28.9506493518129,167.10751530295238 53.3558441568166,147.5561296835076 51.67272727377713,134.52180537185632 35.96363636478782,133.54422888089903 14.083116884343326,152.76984434761107 17.449350650422275,166.45580439758487 29.51168831344694,167.10751530295238 54.19740259833634,146.90441474481486 51.95324675459415,134.19594657514244 39.32987013179809,132.2407930875197 13.522077923640609,153.09570122882724 12.400000000372529,159.93868796015158 18.010389611124992,168.41093670763075 27.548051948659122,168.41093670763075 53.3558441568166,147.5561296835076 53.07532467599958,135.17352286563255 47.74545454606414,130.61149759078398 38.20779220853001,131.9149340558797 14.924675325863063,151.14055943954736 15.205194806680083,166.12994889565744 28.109090910293162,168.08508140710182 51.392207792028785,149.51127369119786" stroke="#ff1a00" stroke-linecap="round" stroke-linejoin="round" stroke-width="0.5"><title>2021-02-03 3.0km</title></polyline><polyline fill="none" points="78.94339622650295,153.3139603312593 80.301886793226,161.83541286853142 88.18113207630813,166.25393446953967 97.96226415131241,165.30710895056836 116.98113207519054,152.68274068064056 121.59999999962747,144.1612626486458 118.06792452838272,138.48026410886087 111.54716981109232,132.48364309314638 104.75471698120236,133.43047877168283 80.84528301935643,149.21103027369827 78.6716981139034,161.51980393962003 91.71320754755288,168.14758463134058 115.89433962292969,152.3671308059711 119.15471698064357,143.21443029120564 104.75471698120236,131.85241914587095 79.75849056616426,151.42030098824762 79.21509434003383,162.78223946364596 94.70188679266721,166.88515132130124 118.06792452838272,149.5266404733993 110.73207547143102,132.79925501951948 104.48301886860281,132.79925501951948 80.84528301935643,149.8422506407369 78.40000000037253,160.88858598121442 84.92075471766293,167.83197635272518 94.97358490619808,167.5163680415135 117.79622641392052,149.8422506407369 118.61132075544447,137.21781855612062 107.47169811278582,131.53680712240748 79.4867924535647,151.10469098412432 78.6716981139034,162.4666306306608 93.61509433947504,167.5163680415135 117.52452830132097,150.15786077524535 118.61132075544447,140.68954257271253 112.63396226428449,133.7460905998014 100.40754717029631,133.7460905998014 78.40000000037253,152.3671308059711 79.75849056616426,164.36028313660063 93.88679245300591,168.46319287782535 117.79622641392052,149.8422506407369 119.42641509324312,143.84565189573914 114.26415094360709,135.32414925005287 101.49433962162584,134.37731415801682 78.6716981139034,152.68274068064056 81.93207547161728,166.56954291160218 94.15849056653678,167.83197635272518 118.61132075544447,147.9485891489312 118.61132075544447,138.79587541567162 113.99245283100754,134.0617023955565 100.95094339642674,134.0617023955565 80.57358490582556,150.47347087762319 81.1169811328873,164.67589177400805 92.25660377275199,168.46319287782535 118.88301886804402,150.47347087762319" stroke="#ff1c00" stroke-linecap="round" stroke-linejoin="round" stroke-width="0.5"><title>2021-02-05 3.0km</title></polyline><polyline fill="none" points="152.27624309435487,154.57463934458792 159.43646408896893,155.4063836738933 154.6629834258929,157.90161511837505 158.24309392366558,164.8328014179133 175.66629834286869,158.45611067931168 187.36132596805692,146.25718189287 179.24640884064138,135.16719858185388 153.94696132652462,151.52490793447942 154.9016574602574,161.78308164747432 165.88066298421472,164.0010600052774 187.6000000005588,147.08892879635096 181.155801105313,135.7216988345608 175.66629834286869,135.16719858185388 154.6629834258929,150.69316240400076 154.18563536088914,161.2285867733881 166.8353591170162,163.72381281037815 186.64530386868864,148.19792426773347 181.39447513967752,136.83069899631664 173.51823204476386,136.27619897248223 153.70828729402274,152.07940481207334 155.3790055261925,162.06032904260792 165.64198895171285,164.8328014179133 187.36132596805692,146.25718189287 180.91712707281113,135.16719858185388 172.5635359128937,136.83069899631664 153.46961326058954,152.35665320814587 153.94696132652462,160.9513392925728 166.596685083583,164.0010600052774 186.88397790119052,149.02967057027854 187.6000000005588,143.484690355137 181.39447513967752,138.21694855461828 165.88066298421472,139.048697946826 144.63867403473705,154.02014298248105 144.40000000037253,161.78308164747432 155.14033149182796,164.0010600052774 177.09834254253656,156.51537571265362 187.6000000005588,144.8709364819806 177.33701657596976,135.16719858185388 153.70828729402274,152.07940481207334 154.18563536088914,161.2285867733881 164.44861878547817,164.0010600052774 185.4519337033853,150.1386652404908 185.92928176838905,140.71219595801085 178.76906077377498,136.55344899836928 169.22209944948554,137.38519890559837 154.9016574602574,150.1386652404908 154.18563536088914,161.50583422463387 164.68729281798005,164.55555430892855 185.69060773495585,149.86141661624424 185.92928176838905,139.32594768656418" stroke="#4dd2ff" stroke-linecap="round" stroke-linejoin="round" stroke-width="0.5"><title>2021-02-06 3.0km</title></polyline><polyline fill="none" points="14.481927712447941,202.08111645141616 15.522891567088664,210.54552547750063 24.631325302645564,214.77772082341835 51.9566265065223,198.45350509765558 54.81927710864693,190.59366509271786 39.985542168840766,180.31538096931763 13.701204820536077,199.3604083568789 15.522891567088664,211.45242499536835 27.233734940178692,214.17312186257914 53.77831325400621,196.6396977370605 53.25783132575452,187.87294633407146 41.02650602534413,181.22228984208778 15.002409639768302,197.2443003153894 15.522891567088664,210.8478253481444 27.233734940178692,214.17312186257914 53.518072290346026,196.94199904194102 51.436144578270614,185.45452753826976 36.602409640327096,183.33840945456177 15.002409639768302,197.54660155810416 15.002409639768302,210.54552547750063 26.19277108553797,214.77772082341835 52.99759036209434,198.15120394923724 55.60000000055879,190.8959670215845 39.985542168840766,181.22228984208778 14.22168674878776,198.45350509765558 16.303614459000528,212.35932423151098 28.014457832090557,214.77772082341835 53.77831325400621,197.2443003153894 53.25783132575452,187.87294633407146 37.383132530376315,183.0361067459453 13.961445784196258,200.26731133600697 16.56385542359203,212.96392356650904 29.836144579574466,213.8708223355934 53.518072290346026,196.6396977370605 42.32771084457636,181.22228984208778 38.16385542228818,181.82689560228027 15.002409639768302,197.84890276868828 12.400000000372529,205.70872331317514 16.043373495340347,212.66162391426042 27.7542168693617,214.17312186257914 54.559036144055426,195.73279363592155 50.915662651881576,184.84992252709344 42.32771084457636,180.6176839589607 35.30120482016355,182.43150123627856 13.961445784196258,199.66270938143134 17.865060241892934,213.5685227769427 28.27469879668206,215.68461903068237 54.559036144055426,196.6396977370605" stroke="#ff1500" stroke-linecap="round" stroke-linejoin="round" stroke-width="0.5"><title>2021-02-08 3.1km</title></polyline><polyline fill="none" points="79.84000000171363,203.3528027064167 80.99200000055134,213.38917133910581 89.9199999999255,217.40371009567752 117.85600000061095,199.67279309174046 119.8720000013709,186.29090474522673 115.83999999985099,180.6035854772199 106.91200000047684,179.26539125852287 80.70400000177324,200.67643249128014 78.68800000101328,210.7128094069194 92.51200000196695,217.73825476760976 119.58400000073016,197.66551335994154 118.4320000000298,183.61452044919133 110.0800000000745,178.26174523262307 79.55200000107288,200.67643249128014 80.99200000055134,213.72371642570943 93.37600000202656,217.73825476760976 120.16000000014901,196.32732618204318 119.8720000013709,183.27997225755826 107.48800000175834,178.93084261682816 81.5679999999702,199.00369998579845 79.26400000043213,211.04735476966016 94.24000000208616,217.0691653888207 118.72000000067055,198.66915338137187 121.02400000207126,185.62180887861177 107.20000000111759,179.26539125852287 80.41600000113249,200.3418860596139 80.70400000177324,212.72008106298745 85.88800000026822,216.73462064750493 96.25600000098348,215.7309862175025 120.16000000014901,198.66915338137187 119.0080000013113,182.61087576998398 106.62400000169873,179.59993986436166 80.70400000177324,199.67279309174046 80.12800000049174,212.3855358727742 94.81600000150502,216.40007587219588 119.8720000013709,197.3309666174464 121.60000000149012,187.62909606518224 107.20000000111759,179.59993986436166 80.70400000177324,200.0073395925574 78.40000000037253,209.37462761322968 84.44800000078976,216.40007587219588 93.95200000144541,217.0691653888207 119.0080000013113,199.33824655553326 121.31200000084937,186.29090474522673 116.99200000055134,180.6035854772199 107.20000000111759,179.59993986436166 80.70400000177324,199.67279309174046 81.2800000011921,213.05462621874176 93.37600000202656,217.0691653888207 117.85600000061095,198.66915338137187" stroke="#4dd2ff" stroke-linecap="round" stroke-linejoin="round" stroke-width="0.5"><title>2021-02-09 3.0km</title></polyline><polyline fill="none" points="144.40000000037253,202.6346944856923 146.3261146498844,211.58432810544036 159.80891719646752,214.7806195616722 177.14394904393703,204.5524752943311 187.59999999962747,192.72614139458165 173.29171974491328,181.21939481445588 146.0509554138407,198.47949866065755 145.22547770664096,210.94506941828877 155.95668789744377,216.0591352211777 185.9490445861593,198.15986798144877 187.32484076358378,191.76724747847766 178.79490445833653,181.85865963366814 161.73503184691072,187.6120370789431 144.6751592354849,201.35617328691296 149.07770700659603,214.7806195616722 161.73503184691072,215.41987745719962 187.32484076358378,194.00466615497135 183.47261146456003,185.69424578477629 168.88917197380215,182.49792432272807 146.60127388499677,196.56171409250237 148.80254776962101,214.46099056466483 160.3592356685549,215.7395063561853 184.57324840687215,200.3972820409108 184.02292993478477,186.3335096819792 176.86878980882466,179.94086477858946 153.20509554073215,192.08687881729566" stroke="#4dd2ff" stroke-linecap="round" stroke-linejoin="round" stroke-width="0.5"><title>2021-02-17 1.6km</title></polyline><polyline fill="none" points="16.80254777148366,250.47488297033124 13.225477707572281,251.1141432407312 14.326114650815725,261.0226605546195 22.58089172001928,264.218949703034 50.371974524110556,247.59821012453176 54.77452229335904,238.64854419115 40.46624203957617,228.10069043794647 15.97707006521523,244.40190383070149 14.326114650815725,259.1048854836263 27.808917199261487,263.8993209367618 52.5732484087348,247.9178405732382 54.49936305824667,233.8540696646087 40.46624203957617,228.10069043794647 15.151592358015478,245.68042674427852 13.225477707572281,257.18710922426544 26.98343949113041,263.2600633047987 53.67388535104692,246.31968800304458 55.324840765446424,237.05038683931343 48.44585987273604,229.37922007846646 39.09044586028904,228.42032289807685 15.151592358015478,245.68042674427852 14.876433121971786,260.0637731666211 26.433121020905674,264.218949703034 54.49936305824667,245.36079606506974 55.60000000055879,236.41112366877496 43.76815286651254,227.14179286221042 16.52738853637129,243.76264217612334 13.500636944547296,258.46562686143443 27.808917199261487,262.6208055408206 54.2242038231343,244.72153460863046 51.747770701535046,232.89517386839725 39.64076433330774,229.0595877172891 14.876433121971786,246.31968800304458 12.400000000372529,257.5067386839073 18.728662420995533,263.8993209367618 27.533757963217795,264.85820713755675 52.5732484087348,247.59821012453176 53.39872611593455,235.7718603652902 39.64076433330774,229.37922007846646 14.326114650815725,247.27857964392751 15.151592358015478,260.3834023291711 26.433121020905674,264.218949703034 53.39872611593455,246.31968800304458 51.47261146456003,231.2970135495998 38.81528662517667,228.10069043794647 12.950318472459912,248.55710137053393 14.876433121971786,260.3834023291711 23.406369427219033,263.8993209367618 53.67388535104692,246.95894913026132" stroke="#ff1900" stroke-linecap="round" stroke-linejoin="round" stroke-width="0.5"><title>2021-02-18 3.0km</title></polyline><polyline fill="none" points="80.54658385179937,248.96110880328342 78.93664596322924,257.68839127756655 89.40124223660678,265.16889904788695 112.47701863385737,251.4546206537634 120.52670807484537,238.98704082192853 110.06211180146784,227.45448367367499 82.96149068325758,243.03900991054252 80.27826086990535,254.2598190268036 85.64472049754113,262.0520230610855 91.81614906899631,262.3637108048424 118.38012422341853,245.84421609598212 118.64844720531255,233.99999448424205 107.91552795097232,227.45448367367499 86.71801242325455,240.54549111425877 78.93664596322924,253.32475319155492 84.57142857182771,261.1169596372638 93.96273291949183,262.3637108048424 115.16024844814092,249.27279789699242 120.25838509388268,235.5584473493509 107.37888198904693,228.7012487303 82.96149068325758,244.2857685368508 78.66832298133522,252.38968706759624 80.81490683276206,258.9351438579615 88.86459627375007,262.0520230610855 114.3552795033902,249.58448695857078 121.33167701866478,238.98704082192853 112.20869565289468,227.45448367367499 86.98633540328592,239.9221110942308 78.40000000037253,252.38968706759624 83.2298136651516,261.1169596372638 92.88944099377841,262.0520230610855 118.11180124245584,246.7792842455674 119.99006211198866,235.24675684049726 106.5739130442962,228.07786626694724 82.96149068325758,243.66238928795792 78.66832298133522,248.02604132844135 79.47329192608595,256.44163818238303 85.37639751657844,262.9870861945674 94.49937888234854,263.2987738419324 114.89192546717823,249.896175988717 121.0633540386334,239.61042103613727 108.18385093193501,229.01293991459534 88.59627329185605,239.2987309442833 78.66832298133522,253.63644183473662 90.20621118042618,262.0520230610855 117.84347826149315,246.7792842455674 121.6000000005588,237.42858972563408 108.98881987668574,226.83110095234588 80.81490683276206,245.84421609598212 80.81490683276206,257.68839127756655 85.91304347943515,261.4286474776454 97.71925465855747,260.18189592589624 118.64844720531255,246.7792842455674" stroke="#ff1c00" stroke-linecap="round" stroke-linejoin="round" stroke-width="0.5"><title>2021-02-19 3.0km</title></polyline><polyline fill="none" points="144.40000000037253,251.3654204106424 146.57358490675688,259.88686415785924 160.7018867926672,263.98977305274457 186.7849056608975,246.00005476386286 186.7849056608975,234.63807292003185 179.99245283007622,228.32584255142137 173.47169811464846,228.32584255142137 146.57358490675688,246.63127473951317 149.29056603927165,260.83368977555074 164.77735849190503,261.46490669134073 187.6000000005588,244.10639405343682 185.42641509417444,232.42879377235658 172.3849056614563,228.64145437953994 146.84528302028775,246.31566476798616 148.20377358607948,260.51808126922697 160.7018867926672,263.0429484110791 186.2415094356984,245.36883465736173 187.05660377349705,236.53173949127086 176.73207547236234,227.69461879925802 170.4830188686028,228.95706617529504 147.11698113381863,246.00005476386286 145.48679245449603,254.83712258026935 151.46415094472468,261.7805151010398 169.39622641634196,258.94003824633546 186.2415094356984,244.73761442047544 187.32830188795924,238.74101567547768 177.2754716994241,229.90390136511996 167.4943396234885,230.53512466256507 146.03018868062645,248.20932411099784 152.0075471708551,261.7805151010398 164.50566037744284,261.1492982492782 187.32830188795924,241.58151128375903 182.70943396352232,230.53512466256507 173.47169811464846,228.32584255142137 149.01886792480946,243.79078382137232 145.75849056709558,255.78394976095296 157.7132075484842,264.3053812009748 185.42641509417444,246.63127473951317 186.51320754829794,237.4785723371897 174.5584905669093,227.69461879925802 148.20377358607948,244.73761442047544 146.57358490675688,256.73077664826997 161.51698113325983,261.1492982492782 183.52452830318362,248.20932411099784 185.9698113212362,234.00685046892613 172.3849056614563,228.010230691405 148.20377358607948,244.73761442047544 145.21509434003383,250.73420141101815 148.47547169961035,259.2556469163392 160.9735849071294,261.46490669134073 181.62264151126146,249.47176302131265 187.05660377349705,238.1097940709442 171.2981132082641,228.95706617529504 147.38867924641818,246.00005476386286" stroke="#ff0000" stroke-linecap="round" stroke-linejoin="round" stroke-width="0.5"><title>2021-02-20 3.2km</title></polyline></svg>