<?xml version="1.0" encoding="utf-8" ?>
<svg baseProfile="full" height="300mm" version="1.1" viewBox="0,0,200,300" width="200mm" xmlns="http://www.w3.org/2000/svg" xmlns:ev="http://www.w3.org/2001/xml-events" xmlns:xlink="http://www.w3.org/1999/xlink"><defs /><rect fill="#222222" height="300" width="200" x="0" y="0" /><text fill="#FFFFFF" style="font-size:12px; font-family:Arial; font-weight:bold;" x="10" y="20">Over 3km Runs</text><text fill="#FFFFFF" style="font-size:4px; font-family:Arial" x="10" y="280">ATHLETE</text><text fill="#FFFFFF" style="font-size:9px; font-family:Arial" x="10" y="290">Licardo</text><text fill="#FFFFFF" style="font-size:4px; font-family:Arial" x="120" y="280">STATISTICS</text><text fill="#FFFFFF" style="font-size:3px; font-family:Arial" x="120" y="285">Number: 1</text><text fill="#FFFFFF" style="font-size:3px; font-family:Arial" x="120" y="290">Weekly: 1.0</text><text fill="#FFFFFF" style="font-size:3px; font-family:Arial" x="141" y="285">Total: 3.1 km</text><text fill="#FFFFFF" style="font-size:3px; font-family:Arial" x="141" y="290">Avg: 3.1 km</text><text fill="#FFFFFF" style="font-size:3px; font-family:Arial" x="167" y="285">Min: 3.1 km</text><text fill="#FFFFFF" style="font-size:3px; font-family:Arial" x="167" y="290">Max: 3.1 km</text><polyline fill="none" points="27.640000000596046,176.97301433142275 41.67999999970198,218.37299863994122 79.48000000044703,210.84573924634606 169.12000000104308,146.86384630948305 173.4400000013411,101.69995450321585 145.36000000312924,77.86338842753321 120.52000000327826,80.37250284291804 24.399999998509884,156.9002439333126 25.480000000447035,203.31847519706935 83.80000000074506,214.60936952661723 172.36000000312924,140.59109358955175 175.60000000149012,91.66351132467389 119.43999999761581,79.11794569995254 27.640000000596046,155.6456946823746 25.480000000447035,205.82756373286247 82.7199999988079,213.35482623241842 170.20000000298023,143.10019506607205 177.76000000536442,95.42717848718166 122.67999999970198,76.60883102100343 29.799999997019768,148.11839646659791 28.720000002533197,204.57301953155547 67.60000000149012,223.3911689799279 175.60000000149012,136.82744040433317 168.03999999910593,86.64528662711382 109.7199999988079,81.62705986015499 24.399999998509884,150.62749638967216 33.03999999538064,209.5911955628544 82.7199999988079,209.5911955628544 169.12000000104308,140.59109358955175 181.0,106.7181729869917 164.80000000074506,84.1361735034734 118.35999999940395,79.11794569995254 23.320000000298023,151.88204615656286 22.240000002086163,199.55484142899513 66.51999999582767,214.60936952661723 169.12000000104308,150.62749638967216 174.51999999955297,102.95450931601226 123.76000000163913,77.86338842753321 25.480000000447035,153.1365957930684 30.87999999895692,210.84573924634606 80.56000000238419,215.8639126950875 172.36000000312924,139.3365426538512 162.64000000059605,81.62705986015499 112.95999999716878,79.11794569995254 21.15999999642372,161.91843963880092 19.0,188.2639331202954 41.67999999970198,217.11845573224127 81.64000000059605,213.35482623241842 174.51999999955297,133.0637860558927 177.76000000536442,96.68173394631594 146.4400000013411,77.86338842753321 92.4400000013411,97.93628928251565" stroke="yellow" stroke-linecap="round" stroke-linejoin="round" stroke-width="0.5"><title>2021-01-25 3.1km</title></polyline></svg>