<?xml version="1.0" encoding="utf-8" ?>
<svg baseProfile="full" height="300mm" version="1.1" viewBox="0,0,200,300" width="200mm" xmlns="http://www.w3.org/2000/svg" xmlns:ev="http://www.w3.org/2001/xml-events" xmlns:xlink="http://www.w3.org/1999/xlink"><defs /><rect fill="#222222" height="300" width="200" x="0" y="0" /><text fill="#FFFFFF" style="font-size:12px; font-family:Arial; font-weight:bold;" x="10" y="20">Over 3km Runs</text><text fill="#FFFFFF" style="font-size:4px; font-family:Arial" x="10" y="280">ATHLETE</text><text fill="#FFFFFF" style="font-size:9px; font-family:Arial" x="10" y="290">Licardo</text><text fill="#FFFFFF" style="font-size:4px; font-family:Arial" x="120" y="280">STATISTICS</text><text fill="#FFFFFF" style="font-size:3px; font-family:Arial" x="120" y="285">Number: 10</text><text fill="#FFFFFF" style="font-size:3px; font-family:Arial" x="120" y="290">Weekly: 3.3</text><text fill="#FFFFFF" style="font-size:3px; font-family:Arial" x="141" y="285">Total: 30.4 km</text><text fill="#FFFFFF" style="font-size:3px; font-family:Arial" x="141" y="290">Avg: 3.0 km</text><text fill="#FFFFFF" style="font-size:3px; font-family:Arial" x="167" y="285">Min: 3.0 km</text><text fill="#FFFFFF" style="font-size:3px; font-family:Arial" x="167" y="290">Max: 3.1 km</text><polyline fill="none" points="15.880000000819564,68.99100477714092 20.56000000052154,82.79099954664707 33.16000000014901,80.28191308211535 63.040000000968575,58.95461543649435 64.48000000044703,43.89998483448289 55.12000000104308,35.95446280925535 46.84000000171363,36.79083428089507 14.800000000745058,62.30008131102659 15.160000002011657,77.77282506576739 34.600000001490116,81.5364565087948 64.12000000104308,56.863697862951085 65.20000000111759,40.55450377473608 46.480000000447035,36.37264856649563 15.880000000819564,61.88189822714776 15.160000002011657,78.60918791079894 34.24000000022352,81.11827541072853 63.400000002235174,57.700065021868795 65.92000000178814,41.809059495572 47.56000000052154,35.53627700684592 16.59999999962747,59.372798822121695 16.240000002086163,78.19100651051849 29.200000001117587,84.46372299315408 65.20000000111759,55.60914680128917 62.67999999970198,38.88176220888272 43.24000000022352,37.209019953384995 14.800000000745058,60.20916546322405 17.679999999701977,79.86373185436241 34.24000000022352,79.86373185436241 63.040000000968575,56.863697862951085 67.0,45.572724328842014 61.600000001490116,38.04539116774686 46.12000000104308,36.37264856649563 14.440000001341105,60.62734871869907 14.080000000074506,76.51828047633171 28.83999999985099,81.5364565087948 63.040000000968575,60.20916546322405 64.83999999985099,44.31816977192648 47.92000000178814,35.95446280925535 15.160000002011657,61.04553193110041 16.96000000089407,80.28191308211535 33.52000000141561,81.95463756518438 64.12000000104308,56.445514217950404 60.880000000819564,37.209019953384995 44.32000000029802,36.37264856649563 13.720000000670552,63.97281321277842 13.0,72.7546443734318 20.56000000052154,82.37281857733615 33.880000000819564,81.11827541072853 64.83999999985099,54.354595351731405 65.92000000178814,42.22724464884959 55.480000000447035,35.95446280925535 37.480000000447035,42.64542976068333" stroke="#ff0000" stroke-linecap="round" stroke-linejoin="round" stroke-width="0.5"><title>2021-01-25 3.1km</title></polyline><polyline fill="none" points="73.0,67.52736941934563 76.60000000149012,79.23646615864709 91.72000000067055,84.25464012124576 126.64000000059605,59.58189165685326 127.0,42.85451914463192 113.32000000029802,35.327178994892165 105.40000000037253,36.9999224585481 73.72000000067055,62.92735787574202 74.80000000074506,78.40010322607122 86.68000000156462,83.41827822546475 125.9199999999255,59.58189165685326 123.76000000163913,39.92722185817547 106.48000000044703,35.745364925824106 75.88000000081956,60.418258470715955 78.03999999910593,80.49101023143157 97.83999999985099,80.49101023143157 108.64000000059605,67.94555202871561 126.64000000059605,59.58189165685326 121.96000000089407,39.509036358911544 102.52000000141561,38.25447960244492 75.88000000081956,59.163708184845746 76.24000000022352,78.81828471389599 87.76000000163913,84.672821004875 125.9199999999255,59.163708184845746 121.60000000149012,40.76359272748232 115.48000000044703,35.327178994892165 102.52000000141561,37.41810821578838 75.16000000014901,62.09099157969467 76.24000000022352,77.98192169656977 95.67999999970198,80.07282891729847 125.9199999999255,60.00007508508861 123.76000000163913,40.3454073141329 106.83999999985099,36.9999224585481 75.16000000014901,61.67280836729333 76.24000000022352,80.90919150249101 92.43999999947846,83.00009721308015 125.19999999925494,56.65460645011626 126.2800000011921,41.18177809752524 105.40000000037253,38.25447960244492 74.0800000000745,63.34554095962085 75.52000000141561,79.23646615864709 91.0,83.00009721308015 123.76000000163913,60.418258470715955 125.19999999925494,39.509036358911544 105.04000000096858,36.9999224585481 74.4400000013411,65.43645572871901 76.24000000022352,80.90919150249101 92.43999999947846,83.41827822546475 124.12000000104308,57.07279018033296" stroke="#ff6600" stroke-linecap="round" stroke-linejoin="round" stroke-width="0.5"><title>2021-01-26 3.0km</title></polyline><polyline fill="none" points="148.52095808275044,51.36093890713528 135.58682634681463,67.88794950582087 139.14371257461607,77.27826301730238 149.49101796373725,81.78560490021482 183.1197604779154,61.8781361496076 186.35329341329634,51.36093890713528 183.44311377219856,44.599867495009676 170.1856287419796,40.09247957775369 140.7604790404439,57.746383712859824 134.61676646582782,70.89285246562213 148.1976047884673,82.16121647204272 183.7664670664817,61.50252248579636 187.0,52.11216828925535 181.50299401208758,42.34617423382588 170.50898203626275,39.34124771691859 139.14371257461607,59.2488396873232 137.20359281264246,76.52703882637434 151.43113772384822,82.16121647204272 186.35329341329634,59.2488396873232 184.73652694560587,45.351098272250965 176.00598802417517,39.34124771691859 164.68862275406718,41.219327080994844 135.91017963923514,63.00497691030614 133.0,69.76601414615288 137.20359281264246,76.90265094139613 154.6646706573665,81.40999328927137 186.0299401190132,60.00006744195707 184.73652694560587,46.102328893961385 164.68862275406718,41.219327080994844 139.46706586889923,58.87322575203143 136.88023952022195,76.15142667409964 150.46107784472406,82.16121647204272 184.73652694560587,60.00006744195707 183.7664670664817,45.72671360266395 170.50898203626275,38.96563172689639 139.46706586889923,59.2488396873232 136.55688622780144,75.40020225290209 152.4011976029724,81.40999328927137 181.82634730637074,61.50252248579636 182.7964071854949,47.22917453572154 166.30538922175765,40.843711285619065 138.49700598791242,58.87322575203143 136.2335329335183,75.40020225290209 152.72455089725554,80.65876995259896 183.7664670664817,61.8781361496076 186.35329341329634,47.22917453572154 182.47305389121175,40.843711285619065 167.92215568944812,37.838783527957276 137.85029940120876,59.2488396873232 133.64670658670366,69.01478840666823 139.7904191594571,78.78071093093604 157.89820359274745,77.65387505362742" stroke="#ff3000" stroke-linecap="round" stroke-linejoin="round" stroke-width="0.5"><title>2021-01-28 3.1km</title></polyline><polyline fill="none" points="23.61271676234901,120.72523615323007 13.0,122.90075497189537 21.11560693755746,138.12934899609536 32.040462428703904,139.94227246078663 66.06358381547034,118.91230277647264 67.0,108.03468287596479 52.01734104193747,98.9699739094358 22.988439306616783,119.63747623912059 20.491329481825233,135.95383960334584 33.60115606896579,139.94227246078663 64.5028901733458,116.01160742808133 66.06358381547034,105.49656672170386 61.069364162161946,100.05774021917023 46.39884393103421,100.05774021917023 22.05202312208712,120.36264955298975 18.930635837838054,133.77832886506803 35.161849711090326,139.2171031869948 63.87861271761358,117.09936846420169 64.5028901733458,104.04621381056495 47.33526011556387,98.9699739094358 22.364161850884557,120.36264955298975 18.306358382105827,126.52661667601205 21.427745666354895,135.95383960334584 34.5375722553581,139.2171031869948 64.81502890214324,115.64902034052648 65.7514450866729,105.13397855055518 49.832369942218065,98.9699739094358 22.05202312208712,120.0000629152637 19.86705202423036,133.77832886506803 32.040462428703904,141.03002609079704 65.7514450866729,114.19867161894217 62.317919075489044,100.78291757288389 44.838150288909674,101.14550619293004 20.491329481825233,121.08782271691598 22.988439306616783,137.0415944675915 35.7861271686852,138.85451849433593 64.19075144454837,117.09936846420169 62.317919075489044,103.32103713066317 46.08670520223677,100.78291757288389 20.17919075116515,121.8129957311321 17.99421965330839,128.3395461263135 23.30057803541422,137.40417934721336 34.225433526560664,140.3048570419196 65.43930635973811,115.64902034052648 60.44508670642972,99.33256271621212 45.774566473439336,101.14550619293004 20.491329481825233,121.45040924241766 18.618497110903263,131.60281677916646 25.797687862068415,140.66744158533402 37.34682081080973,138.12934899609536 63.25433526188135,117.82454230124131" stroke="#ff1900" stroke-linecap="round" stroke-linejoin="round" stroke-width="0.5"><title>2021-01-29 3.1km</title></polyline><polyline fill="none" points="83.7284768205136,108.16075927531347 73.0,126.85439321072772 83.37086092494428,140.14759121276438 104.47019867412746,135.5780593501404 124.85430463403463,120.62319154082797 127.0,112.73032225086354 122.35099337622523,101.09869720344432 103.03973509930074,99.02161776693538 74.43046357482672,122.28484626254067 75.86092715337873,138.4859438634012 92.66887417063117,140.97841463121586 121.99337748251855,118.54612217540853 121.63576158881187,99.85244967113249 101.96688741631806,98.19078569230624 73.35761589370668,122.28484626254067 73.35761589370668,135.5780593501404 83.7284768205136,143.88629524456337 92.31125827692449,143.0554724270478 123.42384105920792,113.97656580014154 115.19867549650371,96.94453725893982 102.32450331188738,97.3599534467794 76.93377483263612,118.54612217540853 73.71523178741336,134.74723481666297 91.95364238321781,142.22464943677187 122.35099337622523,116.88446591165848 124.13907284662127,105.25285286363214 116.62913907319307,96.11370475543663 100.89403973333538,99.02161776693538 74.78807947039604,120.62319154082797 75.86092715337873,140.14759121276438 92.31125827692449,142.22464943677187 123.42384105920792,116.05363752134144 123.06622516550124,100.68328140256926 104.82781456783414,96.94453725893982 73.35761589370668,123.11567336623557 75.14569536410272,137.65511993085966 94.09933774918318,140.56300294422545 123.7814569529146,117.29988004174083 121.63576158881187,101.09869720344432 105.54304635711014,96.52912102802657 73.71523178741336,122.28484626254067 74.43046357482672,137.23970789951272 89.45033112540841,141.80923787807114 122.35099337622523,118.13070817408152 125.92715231701732,110.2378339979332 119.84768211841583,99.02161776693538 104.82781456783414,96.94453725893982 74.43046357482672,121.0386052862741 76.93377483263612,140.14759121276438 88.37748344242573,143.47088385745883 122.35099337622523,117.71529412898235" stroke="#4dd2ff" stroke-linecap="round" stroke-linejoin="round" stroke-width="0.5"><title>2021-02-01 3.0km</title></polyline><polyline fill="none" points="142.8181818202138,115.11221460788511 133.35064935311675,129.36845902632922 145.2727272734046,143.2173328853678 182.44155844300985,120.40739711537026 187.0,109.81702499999665 184.5454545468092,101.67056558281183 174.02597402594984,95.56070998776704 156.49350649490952,104.52182829100639 134.75324675440788,125.70257251989096 136.50649350881577,137.9221809678711 146.32467532716691,144.43929001223296 180.68831169046462,120.81471855170093 186.64935065060854,111.44631486642174 178.58441558480263,98.00465336022899 163.15584415756166,99.22662447975017 134.75324675440788,124.48060959554277 135.103896105662,136.29290202772245 141.0649350658059,141.99537538108416 152.9870129879564,142.4026945917867 185.59740259870887,113.48292625392787 182.09090909175575,99.22662447975017 165.61038961075246,98.00465336022899 135.80519480630755,123.66596743534319 140.71428571641445,141.58805612963624 152.63636363856494,142.81001375964843 185.24675324745476,116.33418043190613 183.84415584616363,100.85591871570796 164.55844156071544,98.8193008149974 136.50649350881577,120.81471855170093 134.05194805376232,133.84898235462606 139.31168831326067,139.95877870055847 154.38961039111018,140.77341749798506 185.59740259870887,115.11221460788511 180.68831169046462,99.22662447975017 165.259740261361,97.597329570679 134.40259740501642,123.66596743534319 136.15584415756166,138.3295005990658 154.38961039111018,141.180736834649 185.24675324745476,116.33418043190613 182.7922077924013,101.67056558281183 163.85714285820723,98.8193008149974 134.75324675440788,123.25864629284479 133.0,131.40506116859615 140.36363636516035,141.180736834649 155.44155844300985,140.3660981201101 185.59740259870887,117.14882410503924 181.03896103985608,98.8193008149974 161.75324675440788,99.63394810189493 135.80519480630755,121.22203994751908 138.96103896200657,140.3660981201101 155.09090909175575,140.77341749798506 186.29870130121708,114.29757051495835" stroke="#ff5a00" stroke-linecap="round" stroke-linejoin="round" stroke-width="0.5"><title>2021-02-02 3.0km</title></polyline><polyline fill="none" points="24.922077920287848,173.68658640468493 14.402597403153777,189.16479702549987 20.012987012043595,199.3477972378023 32.6363636367023,202.19903259095736 67.0,172.46461982512847 61.38961038924754,160.24493321892805 50.519480518996716,156.57901986292563 17.558441556990147,180.2037351145409 15.103896103799343,195.68192018568516 28.428571429103613,204.2356280114036 62.44155844114721,179.79641363490373 64.89610389620066,164.72548936563544 59.28571428544819,158.61563881416805 46.662337662652135,157.39366756984964 16.50649350695312,180.61105655087158 15.454545455053449,196.49655982572585 28.779220778495073,203.4209899690468 61.38961038924754,180.61105655087158 66.6493506487459,169.20604042708874 61.38961038924754,158.61563881416805 48.76623376645148,157.39366756984964 21.766233766451478,175.31587459146976 14.051948051899672,193.6453203537967 24.922077920287848,204.2356280114036 65.24675324745476,175.31587459146976 59.6363636367023,156.57901986292563 43.50649350695312,158.20831510727294 17.909090908244252,179.38909211405553 14.051948051899672,187.53551455400884 17.909090908244252,199.3477972378023 33.68831168860197,201.3843941288069 64.19480519369245,176.94516210420989 62.0909090898931,160.6522567148786 42.45454545505345,159.43028610106558 15.103896103799343,183.46230543451384 19.31168831139803,200.5697554971557 34.38961038924754,201.3843941288069 65.24675324745476,176.13051843107678 62.44155844114721,160.24493321892805 46.662337662652135,157.80099135939963 14.402597403153777,183.86962653603405 13.0,192.4233599503059 20.012987012043595,203.01367088453844 31.935064934194088,203.01367088453844 64.19480519369245,176.94516210420989 63.84415584243834,161.46690358198248 57.18181818164885,155.76437198836356 45.25974025949836,157.39366756984964 16.155844155699015,181.4256992994342 16.50649350695312,200.16243611928076 32.6363636367023,202.60635175881907 61.740259738639,179.38909211405553" stroke="#ff5e00" stroke-linecap="round" stroke-linejoin="round" stroke-width="0.5"><title>2021-02-03 3.0km</title></polyline><polyline fill="none" points="73.67924528382719,184.1424504138995 75.37735849246383,194.79426608537324 85.22641509585083,200.31741808680817 97.452830189839,199.133886187803 121.22641509585083,183.35342585062608 127.0,172.70157831069082 122.58490566164255,165.60033013601787 114.43396226502955,158.10455386643298 105.94339622743428,159.28809846448712 76.05660377442837,179.01378784189 73.33962264284492,194.39975492446683 89.64150943420827,202.68448078888468 119.8679245300591,182.95891350740567 123.94339622743428,171.51803786377423 105.94339622743428,157.31552393198945 74.69811320863664,181.7753762351349 74.01886792480946,195.97779932944104 93.37735849060118,201.1064391513355 122.58490566164255,179.4083005913999 113.4150943402201,158.4990687740501 105.60377358645201,158.4990687740501 76.05660377442837,179.8028133008629 73.0,193.61073247622699 81.15094339847565,202.28997044079006 93.7169811334461,201.89546005171724 122.24528301879764,179.8028133008629 123.26415094546974,164.02227319497615 109.33962264098227,156.92100890283473 74.35849056765437,181.3808637300972 73.33962264284492,195.5832882882096 92.01886792480946,201.89546005171724 121.90566037781537,180.19732596888207 123.26415094546974,168.36192821571603 115.79245283082128,159.68261324963532 100.50943396426737,159.68261324963532 73.0,182.95891350740567 74.69811320863664,197.95035392045975 92.35849056579173,203.07899109716527 122.24528301879764,179.8028133008629 124.28301886841655,172.30706486967392 117.83018868044019,161.65518656233326 101.86792452819645,160.47164269722998 73.33962264284492,183.35342585062608 77.4150943402201,200.7119286393281 92.69811320863664,202.28997044079006 123.26415094546974,177.435736436164 123.26415094546974,165.99484426924028 117.49056603945792,160.077127994271 101.18867924623191,160.077127994271 75.7169811334461,180.59183859685436 76.39622641727328,198.34486471745186 90.32075471803546,203.07899109716527 123.60377358645201,180.59183859685436" stroke="#ff7500" stroke-linecap="round" stroke-linejoin="round" stroke-width="0.5"><title>2021-02-05 3.0km</title></polyline><polyline fill="none" points="142.84530386701226,185.71829918096773 151.79558010958135,186.7579795923084 145.82872928120196,189.87701889802702 150.30386740341783,198.54100177250803 172.08287292718887,190.57013834943064 186.70165745913982,175.32147736637853 176.55801104940474,161.45899822749197 144.93370165675879,181.9061349183321 146.12707182392478,194.7288520594593 159.8508287295699,197.50132500682957 187.0,176.36116099567153 178.94475138001144,162.15212354343385 172.08287292718887,161.45899822749197 145.82872928120196,180.86645300523378 145.2320441994816,194.03573346696794 161.04419889487326,197.1547660131473 185.80662983469665,177.74740533460863 179.24309392273426,163.5383737452794 169.39779005385935,162.8452487157192 144.6353591158986,182.59925601514988 146.72375690564513,195.07541130343452 159.55248618870974,198.54100177250803 186.70165745913982,175.32147736637853 178.64640883915126,161.45899822749197 168.20441989041865,163.5383737452794 144.33701657503843,182.94581651035696 144.93370165675879,193.68917411589064 160.74585635401309,197.50132500682957 186.10497237555683,178.7870882130228 187.0,171.85586294415407 179.24309392273426,165.27118569333106 159.8508287295699,166.31087243370712 133.29834254272282,185.02517872815952 133.0,194.7288520594593 146.4254143629223,197.50132500682957 173.87292817607522,188.14421964087524 187.0,173.58867060253397 174.17127071879804,161.45899822749197 144.6353591158986,182.59925601514988 145.2320441994816,194.03573346696794 158.06077348068357,197.50132500682957 184.31491712667048,180.1733315505553 184.91160221025348,168.39024494751357 175.96132596582174,163.19181124819443 164.0276243109256,164.23149863211438 146.12707182392478,180.1733315505553 145.2320441994816,194.38229278079234 158.35911602154374,198.1944428861607 184.61325966753066,179.8267707703635 184.91160221025348,166.65743460832164" stroke="#4dd2ff" stroke-linecap="round" stroke-linejoin="round" stroke-width="0.5"><title>2021-02-06 3.0km</title></polyline><polyline fill="none" points="15.602409640327096,245.1013955641538 16.90361445955932,255.6819068470504 28.289156628772616,260.97215102938935 62.44578313268721,240.5668813723605 66.02409638650715,230.74208136601374 47.48192771151662,217.89422621158883 14.626506024971604,241.70051044621505 16.90361445955932,256.81553124426864 31.542168674990535,260.21640232834034 64.72289156727493,238.2996221713256 64.07228915765882,227.34118291758932 48.78313253261149,219.0278623024933 16.25301204994321,239.05537539441139 16.90361445955932,256.0597816852387 31.542168674990535,260.21640232834034 64.3975903633982,238.6774988025427 61.7951807230711,224.3181594228372 43.25301204994321,221.6730118182022 16.25301204994321,239.4332519476302 16.25301204994321,255.6819068470504 30.240963857620955,260.97215102938935 63.74698795191944,240.18900493648835 67.0,231.11995877721347 47.48192771151662,219.0278623024933 15.277108436450362,240.5668813723605 17.879518073052168,257.94915528944694 32.518072290346026,260.97215102938935 64.72289156727493,239.05537539441139 64.07228915765882,227.34118291758932 44.228915663436055,221.29513343260624 14.951807230710983,242.83413917012513 18.204819278791547,258.7049044580199 34.79518072493374,259.83852791949175 64.3975903633982,238.2996221713256 50.40963855572045,219.0278623024933 45.20481927879155,219.78361950279213 16.25301204994321,239.81112846103497 13.0,249.63590414146893 17.554216869175434,258.3270298927091 32.19277108646929,260.21640232834034 65.69879518076777,237.16599204484373 61.14457831531763,223.56240315898322 50.40963855572045,218.27210494875908 41.626506024971604,220.53937654546462 14.951807230710983,242.07838672678918 19.831325301900506,259.4606534712948 32.843373496085405,262.10577378841117 65.69879518076777,238.2996221713256" stroke="#ff1b00" stroke-linecap="round" stroke-linejoin="round" stroke-width="0.5"><title>2021-02-08 3.1km</title></polyline></svg>