<?xml version="1.0" encoding="utf-8" ?>
<svg baseProfile="full" height="200mm" version="1.1" viewBox="0,0,200,200" width="200mm" xmlns="http://www.w3.org/2000/svg" xmlns:ev="http://www.w3.org/2001/xml-events" xmlns:xlink="http://www.w3.org/1999/xlink"><defs /><rect fill="#1a1a1a" height="200" width="200" x="0" y="0" /><text alignment-baseline="middle" fill="#e1ed5e" style="dominant-baseline: central; font-size:9.0px; font-family:Arial;" text-anchor="middle" x="100.0" y="100.0">2024</text><line stroke="#e1ed5e" stroke-width="0.3" x1="100.0" x2="100.0" y1="15.0" y2="10.0" /><path d="M 100.0 14.0 a86.0,86.0 0 0,1 42.35913384403234,11.155469271406648" fill="none" id="id37" stroke="none" /><text fill="#e1ed5e" style="font-size:6.75px; font-family:Arial;" text-anchor="middle"><textPath startOffset="22.145653131862478" xlink:href="#id37">January</textPath></text><line stroke="#e1ed5e" stroke-width="0.3" x1="143.13028292997686" x2="145.6673583964461" y1="26.7553504044142" y2="22.446841604673864" /><path d="M 143.63769802327073 25.89364864446614 a86.0,86.0 0 0,1 29.32050498858742,28.57503671076993" fill="none" id="id38" stroke="none" /><text fill="#e1ed5e" style="font-size:6.75px; font-family:Arial;" text-anchor="middle"><textPath startOffset="20.669276256404974" xlink:href="#id38">February</textPath></text><line stroke="#e1ed5e" stroke-width="0.3" x1="172.87174338648825" x2="177.1583165268699" y1="56.24261187166439" y2="53.66864786411523" /><path d="M 173.72905801456457 55.72781907015455 a86.0,86.0 0 0,1 12.242430191666344,42.057860355516425" fill="none" id="id39" stroke="none" /><text fill="#e1ed5e" style="font-size:6.75px; font-family:Arial;" text-anchor="middle"><textPath startOffset="22.145653131862474" xlink:href="#id39">March</textPath></text><line stroke="#e1ed5e" stroke-width="0.3" x1="184.99686870605535" x2="189.99668451229388" y1="99.2704041080226" y2="99.22748670261217" /><path d="M 185.99683186730306 99.26182062694052 a86.0,86.0 0 0,1 -10.086455211305974,41.156179273409016" fill="none" id="id40" stroke="none" /><text fill="#e1ed5e" style="font-size:6.75px; font-family:Arial;" text-anchor="middle"><textPath startOffset="21.40746469413373" xlink:href="#id40">April</textPath></text><line stroke="#e1ed5e" stroke-width="0.3" x1="174.33088141563837" x2="178.70328620479359" y1="141.23008692659167" y2="143.65538615756765" /><path d="M 175.20536237346943 141.71514677278685 a86.0,86.0 0 0,1 -30.301960400862466,31.631185727798858" fill="none" id="id41" stroke="none" /><text fill="#e1ed5e" style="font-size:6.75px; font-family:Arial;" text-anchor="middle"><textPath startOffset="22.145653131862474" xlink:href="#id41">May</textPath></text><line stroke="#e1ed5e" stroke-width="0.3" x1="143.1302829299769" x2="145.66735839644613" y1="173.24464959558577" y2="177.55315839532614" /><path d="M 143.63769802327073 174.10635135553383 a86.0,86.0 0 0,1 -40.68552437913181,11.842963189579606" fill="none" id="id42" stroke="none" /><text fill="#e1ed5e" style="font-size:6.75px; font-family:Arial;" text-anchor="middle"><textPath startOffset="21.407464694133747" xlink:href="#id42">June</textPath></text><path d="M 101.08105385017728 120.97215588758144 l 0.49335011721172883 9.570860474364174 a30.583567423350203,30.583567423350203 0 0,0 -0.5245434826104003,0.022526154114983606 l -0.32898087400049897 -9.57791919690499" fill="#ff5e08" stroke="none" /><path d="M 100.72087961077811 120.9876233191556 l 0.4059362373074122 11.81839063391918 a32.825360096194444,32.825360096194444 0 0,0 -0.5633248923572364,0.014509250976163216 l -0.2029980308794319 -11.823617602245386" fill="#ff7e0b" stroke="none" /><line stroke="#e1ed5e" stroke-width="0.3" x1="101.45913802915013" x2="101.54496967792366" y1="184.9874750549273" y2="189.98673829345242" /><path d="M 101.47630435890484 185.9873277026323 a86.0,86.0 0 0,1 -42.54439059252881,-10.42667462771756" fill="none" id="id43" stroke="none" /><text fill="#e1ed5e" style="font-size:6.75px; font-family:Arial;" text-anchor="middle"><textPath startOffset="22.145653131862474" xlink:href="#id43">July</textPath></text><path d="M 100.0 121.0 l 1.997663344790859e-15 16.312159115442185 a37.312159115442185,37.312159115442185 0 0,0 -0.6405128272357864,-0.0054980322760615425 l 0.28001990238693225 -16.309755481360558" fill="#ffbb11" stroke="none" /><path d="M 99.63950707515114 120.99690560180557 l -0.27182672911380557 15.832544213296956 a36.834877518839974,36.834877518839974 0 0,0 -0.6321333064583237,-0.016281511643155056 l 0.5435733496428732 -15.825544984303752" fill="#ffb510" stroke="none" /><path d="M 98.19965949673042 120.92268563240118 l -1.3760295252167767 15.991548890183363 a37.05064151868682,37.05064151868682 0 0,0 -0.6332138770439038,-0.05996601250604378 l 1.6503429656456958 -15.965571122172136" fill="#ffb711" stroke="none" /><path d="M 95.00130118170881 120.39639698878247 l -5.958593639527858 24.313095424339018 a46.03260768026449,46.03260768026449 0 0,0 -0.7658833077389139,-0.19468454186385628 l 6.3750822404921506 -24.2072256506399" fill="#d4ff1c" stroke="none" /><path d="M 94.6519064749342 120.30758222061772 l -4.499415126207357 17.08501210607057 a38.667551475587146,38.667551475587146 0 0,0 -0.6404425515963944,-0.1745554653591201 l 4.792039078738447 -17.005256146567305" fill="#ffcd13" stroke="none" /><path d="M 94.30408787586889 120.21278271476187 l -9.048735686745124 32.110770723554886 a54.36137308309243,54.36137308309243 0 0,0 -0.8960307145666889,-0.26082148211881157 l 9.598626413693419 -31.95070554713356" fill="#74ff27" stroke="none" /><path d="M 93.27111125876986 119.89276391827306 l -10.501066947319268 31.04453851243403 a53.77248508249078,53.77248508249078 0 0,0 -0.8718676568277752,-0.3032808294215379 l 11.032440376192064 -30.8596992504439" fill="#7bff26" stroke="none" /><path d="M 92.59220618246901 119.65005319985036 l -22.223381452592967 58.9501595995511 a84.0,84.0 0 0,0 -1.3449109500258871,-0.5202404474478377 l 23.232064665112382 -58.55997926396522" fill="#4dd2ff" stroke="none" /><path d="M 91.92203290615298 119.3841803445677 l -9.282886749192556 22.275548881798155 a45.13238621404261,45.13238621404261 0 0,0 -0.712586487735148,-0.30416079860235573 l 9.663908312098135 -22.112913433536395" fill="#dfff1b" stroke="none" /><path d="M 90.6110303473126 118.78422872680471 l -1.4192485438015496 2.839447804511978 a24.174386596435713,24.174386596435713 0 0,0 -0.36960654608988336,-0.18872373598440015 l 1.4677823116050153 -2.8146661168547418" fill="#ff0000" stroke="none" /><path d="M 90.28995756902619 118.62028667847754 l -18.36658895195917 35.22035604090971 a60.72159449693169,60.72159449693169 0 0,0 -0.9201090710569915,-0.48990625498831963 l 18.968486838802722 -34.89987931819881" fill="#32ff2f" stroke="none" /><line stroke="#e1ed5e" stroke-width="0.3" x1="58.13341422392154" x2="55.67067388415222" y1="173.97424548756322" y2="178.32567169271397" /><path d="M 57.64086615596768 174.84453072859336 a86.0,86.0 0 0,1 -31.369924170532247,-30.572349798747897" fill="none" id="id44" stroke="none" /><text fill="#e1ed5e" style="font-size:6.75px; font-family:Arial;" text-anchor="middle"><textPath startOffset="22.145653131862474" xlink:href="#id44">August</textPath></text><path d="M 89.65649057296885 118.27599006163327 l -11.359347280162046 20.070878212412463 a44.06241363883707,44.06241363883707 0 0,0 -0.6550770201093137,-0.378208893900053 l 11.702216768131759 -19.87292242123624" fill="#ecff1a" stroke="none" /><path d="M 88.4268655584334 117.5232005979908 l -20.210726276079527 30.6016155394186 a57.67331905117121,57.67331905117121 0 0,0 -0.8214430383795709,-0.5527035360598024 l 20.733065602556103 -30.250162329301677" fill="#51ff2b" stroke="none" /><path d="M 88.1277618465304 117.32195027204791 l -27.285561270430218 39.810449332435496 a69.26358596180785,69.26358596180785 0 0,0 -0.9749836196770605,-0.6806142875783875 l 27.964939981281045 -39.33619022905198" fill="#3aff93" stroke="none" /><path d="M 87.54013794807813 116.9041958592261 l -18.667487732628075 25.326032304135527 a52.462406305270676,52.462406305270676 0 0,0 -0.7203513358416079,-0.540565071828807 l 19.09949205738045 -25.001848205042705" fill="#89ff24" stroke="none" /><path d="M 86.96720088162412 116.46651593811092 l -3.5276847754083884 4.457114473358994 a26.6842263592572,26.6842263592572 0 0,0 -0.3567417140012988,-0.2873658723785173 l 3.603677259764949 -4.395900307187066" fill="#ff2603" stroke="none" /><path d="M 86.68645165197938 116.24036423190432 l -29.88716239125266 36.457478532699305 a68.14223389661693,68.14223389661693 0 0,0 -0.8982628223870013,-0.7493627942595831 l 30.508599547801555 -35.93905355452785" fill="#39ff86" stroke="none" /><line stroke="#e1ed5e" stroke-width="0.3" x1="26.387840678322732" x2="22.057713659400548" y1="142.50000000000003" y2="145.00000000000006" /><path d="M 25.521815274538298 143.00000000000003 a86.0,86.0 0 0,1 -11.493303480769221,-40.785679425670985" fill="none" id="id45" stroke="none" /><text fill="#e1ed5e" style="font-size:6.75px; font-family:Arial;" text-anchor="middle"><textPath startOffset="21.40746469413373" xlink:href="#id45">September</textPath></text><line stroke="#e1ed5e" stroke-width="0.3" x1="15.003131293944662" x2="10.003315487706104" y1="100.72959589197737" y2="100.7725132973878" /><path d="M 14.003168132696942 100.73817937305945 a86.0,86.0 0 0,1 10.791469493833604,-42.45332614584628" fill="none" id="id46" stroke="none" /><text fill="#e1ed5e" style="font-size:6.75px; font-family:Arial;" text-anchor="middle"><textPath startOffset="22.145653131862435" xlink:href="#id46">October</textPath></text><line stroke="#e1ed5e" stroke-width="0.3" x1="26.387840678322718" x2="22.05771365940052" y1="57.49999999999999" y2="54.99999999999999" /><path d="M 25.521815274538284 56.99999999999999 a86.0,86.0 0 0,1 29.574782752854787,-30.34633250058573" fill="none" id="id47" stroke="none" /><text fill="#e1ed5e" style="font-size:6.75px; font-family:Arial;" text-anchor="middle"><textPath startOffset="21.40746469413373" xlink:href="#id47">November</textPath></text><line stroke="#e1ed5e" stroke-width="0.3" x1="56.869717070023135" x2="54.33264160355391" y1="26.7553504044142" y2="22.446841604673864" /><path d="M 56.362301976729285 25.89364864446614 a86.0,86.0 0 0,1 42.16139366436587,-11.88097634709845" fill="none" id="id48" stroke="none" /><text fill="#e1ed5e" style="font-size:6.75px; font-family:Arial;" text-anchor="middle"><textPath startOffset="22.145653131862474" xlink:href="#id48">December</textPath></text></svg>