<?xml version="1.0" encoding="utf-8" ?>
<svg baseProfile="full" height="200mm" version="1.1" viewBox="0,0,200,200" width="200mm" xmlns="http://www.w3.org/2000/svg" xmlns:ev="http://www.w3.org/2001/xml-events" xmlns:xlink="http://www.w3.org/1999/xlink"><defs /><rect fill="#1a1a1a" height="200" width="200" x="0" y="0" /><text alignment-baseline="middle" fill="#e1ed5e" style="dominant-baseline: central; font-size:9.0px; font-family:Arial;" text-anchor="middle" x="100.0" y="100.0">2024</text><line stroke="#e1ed5e" stroke-width="0.3" x1="100.0" x2="100.0" y1="15.0" y2="10.0" /><path d="M 100.0 14.0 a86.0,86.0 0 0,1 42.35913384403234,11.155469271406648" fill="none" id="id37" stroke="none" /><text fill="#e1ed5e" style="font-size:6.75px; font-family:Arial;" text-anchor="middle"><textPath startOffset="22.145653131862478" xlink:href="#id37">January</textPath></text><line stroke="#e1ed5e" stroke-width="0.3" x1="143.13028292997686" x2="145.6673583964461" y1="26.7553504044142" y2="22.446841604673864" /><path d="M 143.63769802327073 25.89364864446614 a86.0,86.0 0 0,1 29.32050498858742,28.57503671076993" fill="none" id="id38" stroke="none" /><text fill="#e1ed5e" style="font-size:6.75px; font-family:Arial;" text-anchor="middle"><textPath startOffset="20.669276256404974" xlink:href="#id38">February</textPath></text><line stroke="#e1ed5e" stroke-width="0.3" x1="172.87174338648825" x2="177.1583165268699" y1="56.24261187166439" y2="53.66864786411523" /><path d="M 173.72905801456457 55.72781907015455 a86.0,86.0 0 0,1 12.242430191666344,42.057860355516425" fill="none" id="id39" stroke="none" /><text fill="#e1ed5e" style="font-size:6.75px; font-family:Arial;" text-anchor="middle"><textPath startOffset="22.145653131862474" xlink:href="#id39">March</textPath></text><line stroke="#e1ed5e" stroke-width="0.3" x1="184.99686870605535" x2="189.99668451229388" y1="99.2704041080226" y2="99.22748670261217" /><path d="M 185.99683186730306 99.26182062694052 a86.0,86.0 0 0,1 -10.086455211305974,41.156179273409016" fill="none" id="id40" stroke="none" /><text fill="#e1ed5e" style="font-size:6.75px; font-family:Arial;" text-anchor="middle"><textPath startOffset="21.40746469413373" xlink:href="#id40">April</textPath></text><line stroke="#e1ed5e" stroke-width="0.3" x1="174.33088141563837" x2="178.70328620479359" y1="141.23008692659167" y2="143.65538615756765" /><path d="M 175.20536237346943 141.71514677278685 a86.0,86.0 0 0,1 -30.301960400862466,31.631185727798858" fill="none" id="id41" stroke="none" /><text fill="#e1ed5e" style="font-size:6.75px; font-family:Arial;" text-anchor="middle"><textPath startOffset="22.145653131862474" xlink:href="#id41">May</textPath></text><line stroke="#e1ed5e" stroke-width="0.3" x1="143.1302829299769" x2="145.66735839644613" y1="173.24464959558577" y2="177.55315839532614" /><path d="M 143.63769802327073 174.10635135553383 a86.0,86.0 0 0,1 -40.68552437913181,11.842963189579606" fill="none" id="id42" stroke="none" /><text fill="#e1ed5e" style="font-size:6.75px; font-family:Arial;" text-anchor="middle"><textPath startOffset="21.407464694133747" xlink:href="#id42">June</textPath></text><path d="M 101.08105385017728 120.97215588758144 l 0.32965193644089685 6.395159499730597 a27.403650164257392,27.403650164257392 0 0,0 -0.4700042311748742,0.02018400399038659 l -0.21982194466519311 -6.399876072146815" fill="#ff3f05" stroke="none" /><path d="M 100.72087961077811 120.9876233191556 l 0.2712427990414158 7.896938142237041 a28.90159507177823,28.90159507177823 0 0,0 -0.4959880983803562,0.012774894023370908 l -0.13564138659031577 -7.900430753610457" fill="#ff5407" stroke="none" /><line stroke="#e1ed5e" stroke-width="0.3" x1="101.45913802915013" x2="101.54496967792366" y1="184.9874750549273" y2="189.98673829345242" /><path d="M 101.47630435890484 185.9873277026323 a86.0,86.0 0 0,1 -42.54439059252881,-10.42667462771756" fill="none" id="id43" stroke="none" /><text fill="#e1ed5e" style="font-size:6.75px; font-family:Arial;" text-anchor="middle"><textPath startOffset="22.145653131862474" xlink:href="#id43">July</textPath></text><path d="M 100.0 121.0 l 1.3348199726578476e-15 10.899632233450504 a31.899632233450504,31.899632233450504 0 0,0 -0.5475996059732997,-0.00470048401839652 l 0.18710668112444626 -10.898026147626542" fill="#ff7e0b" stroke="none" /><path d="M 99.63950707515114 120.99690560180557 l -0.18163207933384226 10.57915803931905 a31.58071713227095,31.58071713227095 0 0,0 -0.5419652374556385,-0.013959102033806592 l 0.36321063086022465 -10.574481219935196" fill="#ff790b" stroke="none" /><path d="M 98.19965949673042 120.92268563240118 l -0.9194500655056789 10.685403478024945 a31.7248886199879,31.7248886199879 0 0,0 -0.5421941132035913,-0.05134634623747448 l 1.1027437420942856 -10.668045376282286" fill="#ff7b0b" stroke="none" /><path d="M 95.00130118170881 120.39639698878247 l -3.981476568478805 16.245783081604028 a37.726554444950025,37.726554444950025 0 0,0 -0.6276884965671476,-0.1595559612705983 l 4.259770358271331 -16.175041888498168" fill="#ffcb12" stroke="none" /><path d="M 94.6519064749342 120.30758222061772 l -3.0064671264062204 11.416045377091146 a32.80529273817322,32.80529273817322 0 0,0 -0.5433471886723157,-0.14809169243026238 l 3.201995716013231 -11.36275319051674" fill="#ff8a0c" stroke="none" /><path d="M 94.30408787586889 120.21278271476187 l -6.046280597511659 21.456116823190396 a43.29175762909331,43.29175762909331 0 0,0 -0.7135718309387066,-0.2077103602789673 l 6.413712440831973 -21.349162768608913" fill="#edff1a" stroke="none" /><path d="M 93.27111125876986 119.89276391827306 l -7.016714769307845 20.74367042695126 a42.898268172067745,42.898268172067745 0 0,0 -0.6955529858025629,-0.24194943439965008 l 7.37177352715543 -20.620162559983022" fill="#f2ff19" stroke="none" /><path d="M 92.59220618246901 119.65005319985036 l -14.84945574051202 39.38994557317996 a63.09601107049817,63.09601107049817 0 0,0 -1.0102204308531855,-0.39077496466059153 l 15.523448433858736 -39.12923072038132" fill="#33ff4e" stroke="none" /><path d="M 91.92203290615298 119.3841803445677 l -6.202738148574453 14.88431352904124 a37.125034876569444,37.125034876569444 0 0,0 -0.5861599713402319,-0.2501968365387304 l 6.457333195085116 -14.775642042843106" fill="#ffc312" stroke="none" /><path d="M 90.6110303473126 118.78422872680471 l -0.9483286097088638 1.8972924795688557 a23.12109544929522,23.12109544929522 0 0,0 -0.3535025882347935,-0.18050094035834868 l 0.9807584196572396 -1.880733587537671" fill="#ff0000" stroke="none" /><path d="M 90.28995756902619 118.62028667847754 l -12.272383045221629 23.533912663571783 a47.541598121915484,47.541598121915484 0 0,0 -0.7203937256082902,-0.38356908254845407 l 12.674565586616481 -23.319773113300755" fill="#bbff1f" stroke="none" /><line stroke="#e1ed5e" stroke-width="0.3" x1="58.13341422392154" x2="55.67067388415222" y1="173.97424548756322" y2="178.32567169271397" /><path d="M 57.64086615596768 174.84453072859336 a86.0,86.0 0 0,1 -31.369924170532247,-30.572349798747897" fill="none" id="id44" stroke="none" /><text fill="#e1ed5e" style="font-size:6.75px; font-family:Arial;" text-anchor="middle"><textPath startOffset="22.145653131862474" xlink:href="#id44">August</textPath></text><path d="M 89.65649057296885 118.27599006163327 l -7.590209664433884 13.411173197211673 a36.41008920401418,36.41008920401418 0 0,0 -0.5413097188270461,-0.3125253118797581 l 7.81931185112133 -13.278900988055744" fill="#ffba11" stroke="none" /><path d="M 88.4268655584334 117.5232005979908 l -13.504618366042093 20.447713436864987 a45.50476896460341,45.50476896460341 0 0,0 -0.6481259669810027,-0.43608807552770634 l 13.853640621120102 -20.21287568728016" fill="#d3ff1c" stroke="none" /><path d="M 88.1277618465304 117.32195027204791 l -18.231956973091844 26.600970092376357 a53.24927696746353,53.24927696746353 0 0,0 -0.7495594125252366,-0.5232506836602209 l 18.685911476790846 -26.284074592911008" fill="#7bff26" stroke="none" /><path d="M 87.54013794807813 116.9041958592261 l -12.47344079763651 16.92261803566164 a42.02288577986009,42.02288577986009 0 0,0 -0.5770082624746151,-0.4329977572485392 l 12.762102049021893 -16.706001251149086" fill="#fdff18" stroke="none" /><path d="M 86.96720088162412 116.46651593811092 l -2.3571659898225303 2.978202225603141 a24.79814691661125,24.79814691661125 0 0,0 -0.33152669730741174,-0.26705443980730037 l 2.407943457485204 -2.9372994920024302" fill="#ff1902" stroke="none" /><path d="M 86.68645165197938 116.24036423190432 l -39.94064504406185 48.72109269571299 a84.0,84.0 0 0,0 -1.1073026633524292,-0.9237512643525192 l 40.77112204157618 -48.0282792474486" fill="#4dd2ff" stroke="none" /><path d="M 85.86807049272751 115.53346607816431 l -15.456652598140519 16.98956881235711 a43.96853408403378,43.96853408403378 0 0,0 -0.5539411960763068,-0.5127197012263611 l 15.746023565530791 -16.721731364998373" fill="#e5ff1a" stroke="none" /><path d="M 85.60350026404147 115.28858382429668 l -22.645421042758382 24.048652394578205 a54.03260171707727,54.03260171707727 0 0,0 -0.6698177565350605,-0.6416702588699441 l 23.054911285158756 -23.65637000540268" fill="#72ff27" stroke="none" /><path d="M 84.58840730492382 114.26474011684316 l -19.41262220504591 17.968033299368845 a47.451845333039984,47.451845333039984 0 0,0 -0.5481869893852863,-0.60255352956051 l 19.718206895273074 -17.63214219425066" fill="#bcff1f" stroke="none" /><path d="M 84.3458050057657 113.99807769240083 l -11.84805842462797 10.594606902056077 a36.894092734173036,36.894092734173036 0 0,0 -0.4181136131437554,-0.4757365397002561 l 12.028183101730319 -10.38965808454452" fill="#ffc011" stroke="none" /><line stroke="#e1ed5e" stroke-width="0.3" x1="26.387840678322732" x2="22.057713659400548" y1="142.50000000000003" y2="145.00000000000006" /><path d="M 25.521815274538298 143.00000000000003 a86.0,86.0 0 0,1 -11.493303480769221,-40.785679425670985" fill="none" id="id45" stroke="none" /><text fill="#e1ed5e" style="font-size:6.75px; font-family:Arial;" text-anchor="middle"><textPath startOffset="21.40746469413373" xlink:href="#id45">September</textPath></text><line stroke="#e1ed5e" stroke-width="0.3" x1="15.003131293944662" x2="10.003315487706104" y1="100.72959589197737" y2="100.7725132973878" /><path d="M 14.003168132696942 100.73817937305945 a86.0,86.0 0 0,1 10.791469493833604,-42.45332614584628" fill="none" id="id46" stroke="none" /><text fill="#e1ed5e" style="font-size:6.75px; font-family:Arial;" text-anchor="middle"><textPath startOffset="22.145653131862435" xlink:href="#id46">October</textPath></text><line stroke="#e1ed5e" stroke-width="0.3" x1="26.387840678322718" x2="22.05771365940052" y1="57.49999999999999" y2="54.99999999999999" /><path d="M 25.521815274538284 56.99999999999999 a86.0,86.0 0 0,1 29.574782752854787,-30.34633250058573" fill="none" id="id47" stroke="none" /><text fill="#e1ed5e" style="font-size:6.75px; font-family:Arial;" text-anchor="middle"><textPath startOffset="21.40746469413373" xlink:href="#id47">November</textPath></text><line stroke="#e1ed5e" stroke-width="0.3" x1="56.869717070023135" x2="54.33264160355391" y1="26.7553504044142" y2="22.446841604673864" /><path d="M 56.362301976729285 25.89364864446614 a86.0,86.0 0 0,1 42.16139366436587,-11.88097634709845" fill="none" id="id48" stroke="none" /><text fill="#e1ed5e" style="font-size:6.75px; font-family:Arial;" text-anchor="middle"><textPath startOffset="22.145653131862474" xlink:href="#id48">December</textPath></text></svg>