<?xml version="1.0" encoding="utf-8" ?>
<svg baseProfile="full" height="200mm" version="1.1" viewBox="0,0,200,200" width="200mm" xmlns="http://www.w3.org/2000/svg" xmlns:ev="http://www.w3.org/2001/xml-events" xmlns:xlink="http://www.w3.org/1999/xlink"><defs /><rect fill="#1a1a1a" height="200" width="200" x="0" y="0" /><text alignment-baseline="middle" fill="#e1ed5e" style="dominant-baseline: central; font-size:9.0px; font-family:Arial;" text-anchor="middle" x="100.0" y="100.0">2022</text><line stroke="#e1ed5e" stroke-width="0.3" x1="100.0" x2="100.0" y1="15.0" y2="10.0" /><path d="M 100.0 14.0 a86.0,86.0 0 0,1 42.46469731375804,11.215312516191453" fill="none" id="id13" stroke="none" /><text fill="#e1ed5e" style="font-size:6.75px; font-family:Arial;" text-anchor="middle"><textPath startOffset="22.20632615414155" xlink:href="#id13">January</textPath></text><path d="M 100.0 79.0 l 0.0 -48.394607965752414 a69.39460796575241,69.39460796575241 0 0,0 1.1945141022090189,0.010281559999274048 l -0.8330336229364905 48.3874377823617" fill="#51ff2b" stroke="none" /><path d="M 100.36148047927253 79.00311137660856 l 0.8403048229233488 -48.80979136723499 a69.8170241361396,69.8170241361396 0 0,0 1.2014291872741854,0.031029371345927835 l -1.680360645392402 48.78809520374671" fill="#49ff2c" stroke="none" /><path d="M 100.72285384407766 79.0124445844662 l 2.0545450288401894 -59.6522768741897 a80.68764773008331,80.68764773008331 0 0,0 1.3876706519361777,0.05975601731512815 l -3.0810565131656986 59.608073130350384" fill="#45fff2" stroke="none" /><path d="M 101.08401301168833 79.027996857942 l 3.1646632437609226 -61.225581958966146 a82.30731587388647,82.30731587388647 0 0,0 1.4142668202592419,0.08531243679319564 l -4.218092112859776 61.162036252792646" fill="#49efff" stroke="none" /><path d="M 101.44485096284872 79.0497635885617 l 4.017772276004613 -58.257412836311005 a79.39579303718895,79.39579303718895 0 0,0 1.3626201301885725,0.10576554731210928 l -5.019982595555526 58.17962202681043" fill="#42ffda" stroke="none" /><path d="M 103.2404852339499 79.25152402106235 l 5.662450526819855 -36.2560574282996 a57.695572569628084,57.695572569628084 0 0,0 0.979920270032447,0.16169524083622355 l -6.285700002991177 36.15321592452375" fill="#ffb210" stroke="none" /><path d="M 103.59715602781102 79.31037775812273 l 8.293252897476258 -47.69997972802747 a69.41555648421001,69.41555648421001 0 0,0 1.1754528836734404,0.21480650118557185 l -9.113100902252599 47.55015774549116" fill="#50ff2b" stroke="none" /><path d="M 103.95276090670814 79.375362276772 l 11.007328035186795 -57.43381863577567 a79.47909706520255,79.47909706520255 0 0,0 1.3414315116728857,0.2690785417091173 l -11.994325956326806 57.235836137989345" fill="#43ffdb" stroke="none" /><path d="M 104.307194497241 79.44645832069477 l 12.08462090116223 -57.666715429206455 a79.91933579664561,79.91933579664561 0 0,0 1.344004519876324,0.2937473316497404 l -13.075468145192083 57.450154599460845" fill="#44ffe3" stroke="none" /><path d="M 104.66035177308747 79.52364482259891 l 12.825976950013626 -56.35395616319476 a78.79510411761153,78.79510411761153 0 0,0 1.3199167243760697,0.3123816438608111 l -13.79411736135222 56.12482860719308" fill="#41ffce" stroke="none" /><path d="M 105.01212808612495 79.60689891045804 l 13.803039124024 -56.161129037855694 a78.8324848494859,78.8324848494859 0 0,0 1.3149675583641591,0.3352145096010576 l -14.767715571073184 55.91521153208577" fill="#41ffcf" stroke="none" /><path d="M 105.71112130821622 79.79150937346287 l 15.755162453558302 -55.74878129523506 a78.93230324993098,78.93230324993098 0 0,0 1.3042991126355703,0.38076067721493617 l -16.7124517839173 55.46932228910142" fill="#41ffd1" stroke="none" /><path d="M 106.0581310904928 79.89281104454417 l 16.93245872926922 -56.199534487488144 a79.6949387530882,79.6949387530882 0 0,0 1.3100885037375942,0.40705087529533446 l -17.897332605717533 55.89974347731029" fill="#43ffdf" stroke="none" /><path d="M 106.40334571778207 80.00007090966166 l 17.43685458691826 -54.46150663526846 a78.18478471471867,78.18478471471867 0 0,0 1.2781990300876853,0.4214021238786858 l -18.371736439248362 54.15329078713053" fill="#40ffc2" stroke="none" /><path d="M 106.74666289553966 80.11325718540242 l 19.13927537930578 -56.41572033747933 a80.57386476670436,80.57386476670436 0 0,0 1.3095861927165875,0.45688890823986134 l -20.10754357608564 56.07791057606726" fill="#45fff0" stroke="none" /><path d="M 107.08798089147638 80.2323363322302 l 19.827109123117015 -55.295807177085884 a79.74300424344547,79.74300424344547 0 0,0 1.28810649692234,0.4744204935944028 l -20.775997945811934 54.94632341568516" fill="#43ffe0" stroke="none" /><path d="M 107.76421540070413 80.48803036053334 l 22.20047374161792 -55.79120970664223 a81.04598333679611,81.04598333679611 0 0,0 1.2917808537093536,0.5269498449136447 l -23.15753846491566 55.400798975545" fill="#46fff8" stroke="none" /><path d="M 108.43124777332544 80.76684994638697 l 23.42101576335829 -53.42743122908329 a79.33553280056591,79.33553280056591 0 0,0 1.2460132075519963,0.5590498058153637 l -24.337211089377067 53.01636109275139" fill="#42ffd9" stroke="none" /><path d="M 108.76106565485865 80.91482961587045 l 25.005318254235675 -54.47177069456312 a80.93696475128414,80.93696475128414 0 0,0 1.2611589703760278,0.5921310468870957 l -25.9392554359113 54.03327466503602" fill="#46fff6" stroke="none" /><path d="M 109.08828744355905 81.06846463323043 l 25.76425002038738 -53.66872620263947 a80.53258562608306,80.53258562608306 0 0,0 1.2445303798860308,0.6106856524739775 l -26.684251667283842 53.21728539003066" fill="#45ffef" stroke="none" /><path d="M 109.41281617654863 81.2277094730956 l 26.625137940252394 -53.09939292967143 a80.40070285642341,80.40070285642341 0 0,0 1.2318134730736674,0.6309827048031984 l -27.535211900914817 52.633217699555736" fill="#45ffec" stroke="none" /><path d="M 109.73455568895987 81.39251694778311 l 26.95952207611123 -51.53279370480523 a79.15878830920003,79.15878830920003 0 0,0 1.2019129411050116,0.6420202682571908 l -27.842580063744553 51.061094710046284" fill="#42ffd5" stroke="none" /><path d="M 110.36928655335952 81.73862282372117 l 28.95743131930153 -50.99700665583683 a79.64492745726207,79.64492745726207 0 0,0 1.1863425500568316,0.6872061781060467 l -29.830970601823694 50.49099632034073" fill="#43ffde" stroke="none" /><line stroke="#e1ed5e" stroke-width="0.3" x1="143.23703022742887" x2="145.7803849466894" y1="26.81831364943548" y2="22.513508569990506" /><path d="M 143.74570117128098 25.957352633546492 a86.0,86.0 0 0,1 28.547481713284135,27.462654790039103" fill="none" id="id14" stroke="none" /><text fill="#e1ed5e" style="font-size:6.75px; font-family:Arial;" text-anchor="middle"><textPath startOffset="19.985693538727396" xlink:href="#id14">February</textPath></text><path d="M 110.68208982089419 81.91981866633111 l 19.851246702870768 -33.599618249348836 a60.02571385843202,60.02571385843202 0 0,0 0.8850589529969625,0.5332381161884533 l -20.42666772208537 33.25293352370177" fill="#ffe915" stroke="none" /><path d="M 110.99172775467656 82.1063720568725 l 30.6058683216909 -49.823834145790684 a79.47335824725599,79.47335824725599 0 0,0 1.1594816601722415,0.7260673092288058 l -31.458969134235407 49.28962249523893" fill="#43ffdb" stroke="none" /><path d="M 111.2981086023043 82.29822771554956 l 31.680490509685107 -49.63670014180617 a79.88510405783308,79.88510405783308 0 0,0 1.1527533656274964,0.749782854925093 l -32.530210901096886 49.08401836272155" fill="#43ffe3" stroke="none" /><path d="M 111.60114157652 82.49532879139004 l 32.365681883985786 -48.83576466028985 a79.5872791121979,79.5872791121979 0 0,0 1.1354273908081325,0.7666456427123101 l -33.20151396920046 48.27140710527887" fill="#43ffdd" stroke="none" /><path d="M 111.90073688211348 82.69761687909136 l 35.70221064634041 -51.90714936272591 a84.0,84.0 0 0,0 1.1842754416653962,0.8296606289442576 l -36.590417227589455 51.28490389101772" fill="#4dd2ff" stroke="none" /><path d="M 112.77801427241765 83.33499621200491 l 36.32237444267924 -47.37140644637098 a80.69392794800386,80.69392794800386 0 0,0 1.0950067838805568,0.8546701635285768 l -37.13241378171923 46.73915789361918" fill="#45fff2" stroke="none" /><path d="M 113.06298171725822 83.55741782278167 l 36.35300094232119 -45.758098596502506 a79.44094681539349,79.44094681539349 0 0,0 1.0633609602202914,0.8598306113668333 l -37.135265301105974 45.12556188787155" fill="#42ffdb" stroke="none" /><path d="M 113.34407831869373 83.78471172551755 l 37.198577914381644 -45.20249730829977 a79.54058388638748,79.54058388638748 0 0,0 1.0497177776182556,0.8791084504881121 l -37.97115322895902 44.555487700417835" fill="#43ffdc" stroke="none" /><path d="M 113.6212207817346 84.01681056812373 l 38.05677261869326 -44.65595380012302 a79.67258432990354,79.67258432990354 0 0,0 1.0361465170635857,0.8985360492402144 l -38.819812934403615 43.99425275746314" fill="#43ffdf" stroke="none" /><path d="M 113.89432698308785 84.25364557470407 l 38.98628014414503 -44.182909011772466 a79.92418423890416,79.92418423890416 0 0,0 1.0237489231247128,0.9191318912857452 l -39.74104005486573 43.50527811171742" fill="#44ffe4" stroke="none" /><path d="M 114.42810811169701 84.74124197986012 l 40.44533881670608 -42.77384347753553 a79.86787848936684,79.86787848936684 0 0,0 0.990805744933684,0.9531543416118411 l -41.17562780525218 42.071306049161386" fill="#43ffe3" stroke="none" /><path d="M 114.94478906791727 85.2469230424477 l 22.650545013854543 -22.359983282552175 a52.82791293535697,52.82791293535697 0 0,0 0.6332701695147684,0.6526405757044218 l -23.03207944707242 21.966778511297637" fill="#ff3705" stroke="none" /><path d="M 115.19652480421416 85.50635884689758 l 43.16269339539683 -41.16629277641056 a80.64630551927073,80.64630551927073 0 0,0 0.9494477184151209,1.0128046276775151 l -43.86490843578241 40.41721873185499" fill="#45fff1" stroke="none" /><path d="M 115.4437574822437 85.77008943001954 l 43.42985747275612 -40.016361861085954 a80.05473509128024,80.05473509128024 0 0,0 0.9250376461284647,1.0214496730277698 l -44.11223875950061 39.262859400788635" fill="#44ffe6" stroke="none" /><line stroke="#e1ed5e" stroke-width="0.3" x1="172.23445277983987" x2="176.4835382374775" y1="55.19839476539836" y2="52.563006222186495" /><path d="M 173.08426987136738 54.67131705675599 a86.0,86.0 0 0,1 12.851231095245387,41.99856678651699" fill="none" id="id15" stroke="none" /><text fill="#e1ed5e" style="font-size:6.75px; font-family:Arial;" text-anchor="middle"><textPath startOffset="22.20632615414155" xlink:href="#id15">March</textPath></text><line stroke="#e1ed5e" stroke-width="0.3" x1="184.98032266829074" x2="189.97916517819016" y1="98.17113171792111" y2="98.06355123074" /><path d="M 185.9800911702706 98.14961562048488 a86.0,86.0 0 0,1 -9.607161424134198,41.387399972396054" fill="none" id="id16" stroke="none" /><text fill="#e1ed5e" style="font-size:6.75px; font-family:Arial;" text-anchor="middle"><textPath startOffset="21.466115282336823" xlink:href="#id16">April</textPath></text><line stroke="#e1ed5e" stroke-width="0.3" x1="174.80103733775053" x2="179.2010983576182" y1="140.37084112569926" y2="142.7455964860345" /><path d="M 175.68104954172406 140.8457921977663 a86.0,86.0 0 0,1 -30.038265399797805,32.042727171017184" fill="none" id="id17" stroke="none" /><text fill="#e1ed5e" style="font-size:6.75px; font-family:Arial;" text-anchor="middle"><textPath startOffset="22.206326154141568" xlink:href="#id17">May</textPath></text><path d="M 116.71984013943494 112.70617746262583 l 24.511369787281403 18.627320104255986 a51.78610568284451,51.78610568284451 0 0,0 -0.5454635018985643,0.7050851054239041 l -24.18709946816477 -19.046483203793144" fill="#ff1b02" stroke="none" /><path d="M 116.27256486870786 113.27417163493432 l 36.008714809275254 29.37372593615454 a67.46981081937,67.46981081937 0 0,0 -0.7418594859342104,0.8936175411462524 l -35.497759323447504 -29.98920473441456" fill="#76ff27" stroke="none" /><path d="M 116.0416608686014 113.55231037782055 l 38.43466212269321 32.470357939864286 a71.3144849643569,71.3144849643569 0 0,0 -0.8002758360929894,0.9309015947729099 l -37.87004377702944 -33.12713663379873" fill="#30ff32" stroke="none" /><path d="M 115.80600337817218 113.82643327865902 l 35.429250201224455 30.992032096907895 a68.07162439641033,68.07162439641033 0 0,0 -0.7790672625590237,0.8752903283204089 l -34.89052408901709 -31.59729659496917" fill="#6aff28" stroke="none" /><line stroke="#e1ed5e" stroke-width="0.3" x1="143.8653032363475" x2="146.44561519142675" y1="172.8068346515853" y2="177.08958963109032" /><path d="M 144.38136562736335 173.6633856474863 a86.0,86.0 0 0,1 -40.68145358897372,12.25698825130547" fill="none" id="id18" stroke="none" /><text fill="#e1ed5e" style="font-size:6.75px; font-family:Arial;" text-anchor="middle"><textPath startOffset="21.466115282336833" xlink:href="#id18">June</textPath></text><line stroke="#e1ed5e" stroke-width="0.3" x1="102.19456741930631" x2="102.32365962044197" y1="184.97166512339345" y2="189.96999836594603" /><path d="M 102.22038585953345 185.97133177190398 a86.0,86.0 0 0,1 -42.740103519485714,-10.115201625700543" fill="none" id="id19" stroke="none" /><text fill="#e1ed5e" style="font-size:6.75px; font-family:Arial;" text-anchor="middle"><textPath startOffset="22.20632615414155" xlink:href="#id19">July</textPath></text><line stroke="#e1ed5e" stroke-width="0.3" x1="58.666819895761336" x2="56.23545636021788" y1="174.27360380694188" y2="178.64263932499728" /><path d="M 58.180547188652646 175.14741091055294 a86.0,86.0 0 0,1 -31.652253787137756,-30.449443065178592" fill="none" id="id20" stroke="none" /><text fill="#e1ed5e" style="font-size:6.75px; font-family:Arial;" text-anchor="middle"><textPath startOffset="22.20632615414155" xlink:href="#id20">August</textPath></text><path d="M 89.7882731507175 118.34994917583269 l -14.478987912692263 26.017998350011393 a50.7754484284802,50.7754484284802 0 0,0 -0.7600630868391144,-0.43158365713531366 l 14.924699766452585 -25.764911527081445" fill="#ff0000" stroke="none" /><path d="M 89.4739219176387 118.17145234162733 l -15.182800319964281 26.21047747014096 a51.29037066080035,51.29037066080035 0 0,0 -0.7601529169763953,-0.449111742128131 l 15.63172110796906 -25.945247155719084" fill="#ff0e01" stroke="none" /><path d="M 87.95078237400918 117.19931262002967 l -18.552687470225074 26.48250547436429 a53.334583785284465,53.334583785284465 0 0,0 -0.7473766899315756,-0.5332334241843206 l 19.00579148800554 -26.159227788335752" fill="#ff4406" stroke="none" /><line stroke="#e1ed5e" stroke-width="0.3" x1="26.63291911575756" x2="22.317208475507996" y1="142.92168965132927" y2="145.44649492493687" /><path d="M 25.769776987707644 143.4266507060508 a86.0,86.0 0 0,1 -11.730757126820373,-40.83630448921669" fill="none" id="id21" stroke="none" /><text fill="#e1ed5e" style="font-size:6.75px; font-family:Arial;" text-anchor="middle"><textPath startOffset="21.46611528233685" xlink:href="#id21">September</textPath></text><line stroke="#e1ed5e" stroke-width="0.3" x1="15.007084014347285" x2="10.007500721073583" y1="101.09737516637583" y2="101.16192664675087" /><path d="M 14.007167355692545 101.11028546245083 a86.0,86.0 0 0,1 10.666146001902534,-42.60595125391555" fill="none" id="id22" stroke="none" /><text fill="#e1ed5e" style="font-size:6.75px; font-family:Arial;" text-anchor="middle"><textPath startOffset="22.20632615414155" xlink:href="#id22">October</textPath></text><line stroke="#e1ed5e" stroke-width="0.3" x1="26.266209847984243" x2="21.928928074336255" y1="57.711370442889674" y2="55.22380399835377" /><path d="M 25.398753493254645 57.213857153982495 a86.0,86.0 0 0,1 29.58750427330803,-30.492523968695096" fill="none" id="id23" stroke="none" /><text fill="#e1ed5e" style="font-size:6.75px; font-family:Arial;" text-anchor="middle"><textPath startOffset="21.46611528233685" xlink:href="#id23">November</textPath></text><line stroke="#e1ed5e" stroke-width="0.3" x1="56.762969772571076" x2="54.21961505331055" y1="26.818313649435495" y2="22.513508569990535" /><path d="M 56.25429882871897 25.957352633546506 a86.0,86.0 0 0,1 42.265352541879196,-11.944610805530505" fill="none" id="id24" stroke="none" /><text fill="#e1ed5e" style="font-size:6.75px; font-family:Arial;" text-anchor="middle"><textPath startOffset="22.20632615414155" xlink:href="#id24">December</textPath></text></svg>